<svg width="320" height="102" viewBox="0 0 320 102" fill="none" xmlns="http://www.w3.org/2000/svg">
<g filter="url(#filter0_d_335_268)">
<rect x="10" y="7" width="299.981" height="82" rx="20" fill="white"/>
<path d="M91.2538 42.7318L91.2214 42.5966L83.4638 46.6998L81.3501 47.8188L76.4847 50.3975L74.1763 51.6138L67.0783 55.398C66.9648 55.4566 66.8327 55.4683 66.7107 55.4304C66.5861 55.3886 66.4831 55.2992 66.4242 55.1817L65.7863 53.8681L65.4889 53.2734C65.4484 53.1872 65.3824 53.1155 65.2997 53.068C65.2163 53.0195 65.1203 52.9969 65.024 53.0031C64.9278 53.0073 64.8352 53.0413 64.7591 53.1004C64.6816 53.1574 64.6232 53.2366 64.5915 53.3275L64.0942 54.7709L63.0454 57.8199L62.0616 60.7012V60.7607L63.0941 61.0364L70.1219 62.9393L70.1813 62.9015L68.9001 60.3012V60.2579C68.9017 60.2472 68.9017 60.2363 68.9001 60.2255V60.1498L69.2731 59.9606C69.2756 59.95 69.2756 59.9388 69.2731 59.9282C69.2764 59.9387 69.2764 59.9501 69.2731 59.9606L86.3938 51.0732C86.3019 51.6679 86.183 52.2571 86.037 52.8355C85.1841 56.2381 83.4437 59.3534 80.9933 61.8635L80.3824 62.4636L79.8958 62.8961C79.658 63.1123 79.4093 63.3177 79.1552 63.5177C78.9011 63.7178 78.6146 63.9178 78.3768 64.107L78.2416 64.2043L78.1065 64.2962L77.8362 64.48C77.0094 65.033 76.1419 65.5228 75.2413 65.945C74.917 66.1018 74.5602 66.2532 74.2088 66.3883C73.9925 66.4802 73.7709 66.5613 73.5492 66.6424L72.8951 66.8694L72.6681 66.9343L72.441 67.0046C68.249 68.2166 63.7734 68.0037 59.7154 66.3991H59.6559C59.1477 66.1991 58.6504 65.972 58.1639 65.7396C57.9584 65.6369 57.753 65.5288 57.5422 65.4098C57.3313 65.2909 57.1421 65.1828 56.9367 65.0855C56.7313 64.9882 56.5421 64.8368 56.3474 64.7125L56.0555 64.5016C55.569 64.1719 55.1041 63.8421 54.6554 63.4745C54.4716 63.3339 54.2932 63.1826 54.1148 63.0312L53.5742 62.5717L53.2066 62.2203C53.0876 62.1068 52.9687 61.9824 52.8498 61.8635C52.4227 61.4256 52.0173 60.9715 51.6334 60.4904C51.3794 60.166 51.1361 59.8579 50.9036 59.5335C50.291 58.6873 49.7486 57.7923 49.2818 56.8576L49.2494 56.7981L49.217 56.7387C49.0061 56.3008 48.8007 55.8521 48.6223 55.398C48.083 54.0564 47.6967 52.6582 47.4708 51.23C47.2815 50.1588 47.1785 49.0741 47.1627 47.9864C47.1628 46.3458 47.3662 44.7116 47.7682 43.121C47.8439 42.8129 47.9304 42.5102 48.0223 42.2128C48.2944 41.3265 48.6304 40.4611 49.0278 39.6234C49.0548 39.5585 49.0872 39.4882 49.1197 39.4233C50.1703 37.2376 51.6143 35.264 53.3796 33.6011C53.7634 33.2335 54.1634 32.8875 54.5743 32.5578L54.8338 32.3523C55.0122 32.2118 55.1906 32.082 55.3744 31.9469L55.6501 31.7577C55.8987 31.5793 56.1582 31.4063 56.4177 31.2441C56.6772 31.0819 56.9583 30.9143 57.207 30.7684C57.4557 30.6224 57.7476 30.4711 58.0179 30.3359C58.2882 30.2008 58.5585 30.0602 58.8666 29.9305L59.1748 29.7953L59.8397 29.5358L60.4938 29.298C62.5541 28.5834 64.7192 28.2179 66.8999 28.2168H67.3108C67.5851 28.2114 67.8594 28.2222 68.1325 28.2492C68.3433 28.2492 68.5541 28.2816 68.765 28.2979C69.0947 28.3303 69.4245 28.3735 69.7434 28.4168C70.1921 28.4817 70.6354 28.5628 71.0787 28.6601C71.3869 28.7249 71.6896 28.8006 71.9923 28.8763C72.4086 28.9898 72.814 29.1142 73.2195 29.2493C73.4952 29.3466 73.7601 29.4439 74.0358 29.552L74.8413 29.8818L75.2359 30.0602L75.5278 30.2062C75.717 30.2981 75.9116 30.3954 76.1009 30.4981L76.3874 30.6495L71.841 33.0173L63.1914 37.5258L58.4341 39.9748L58.2612 39.645L57.207 37.5961C57.1625 37.5122 57.095 37.4428 57.0124 37.3961C56.9307 37.3481 56.8366 37.3255 56.7421 37.3312C56.6464 37.338 56.5545 37.3717 56.4772 37.4285C56.4025 37.4849 56.3461 37.562 56.315 37.6502L54.7797 41.8722L54.4986 42.6345L53.958 44.1157C53.9311 44.1807 53.9199 44.2511 53.9256 44.3211C53.9288 44.3903 53.9453 44.4582 53.9742 44.5212C54.0079 44.5822 54.0518 44.6371 54.104 44.6833C54.1574 44.7276 54.2203 44.7591 54.2878 44.7753L55.0716 44.9753L61.6669 46.6403L61.8291 46.5538L60.8452 44.6509C60.7862 44.5355 60.7746 44.4017 60.8128 44.2779C60.8314 44.2167 60.862 44.1599 60.9029 44.1107C60.9437 44.0615 60.9939 44.0209 61.0506 43.9914L66.3269 41.1857L69.4245 39.5639L80.5067 33.693L84.7666 31.4495C84.832 31.413 84.8891 31.3633 84.9342 31.3036C84.9777 31.2428 85.0056 31.1723 85.0153 31.0982C85.0316 31.0252 85.0316 30.9495 85.0153 30.8765C84.9936 30.8051 84.9546 30.7401 84.9018 30.6873C82.2897 27.9557 79.0894 25.8555 75.544 24.5461L75.0034 24.3569C72.3986 23.4562 69.6615 22.9975 66.9053 23C66.089 23 65.2835 23.0379 64.4996 23.1135C63.478 23.2114 62.4634 23.3721 61.4615 23.5947C60.7263 23.7623 59.9965 23.9569 59.2991 24.1893C58.9207 24.3083 58.5423 24.438 58.1747 24.5731C57.6773 24.7569 57.1908 24.9624 56.7205 25.1624C51.8109 27.3852 47.7484 31.1311 45.1355 35.8446C44.8976 36.2717 44.676 36.7041 44.4597 37.1582C43.7352 38.6566 43.1664 40.2253 42.7622 41.8398C42.2549 43.8529 41.9989 45.9211 42 47.9972V48.4837C42.0308 50.2553 42.25 52.0186 42.6541 53.7438C42.7677 54.2141 42.8866 54.679 43.0271 55.1439C43.0175 55.1682 43.0175 55.1953 43.0271 55.2196C43.2904 56.1012 43.6026 56.9675 43.9624 57.8144C44.5806 59.2673 45.3335 60.6591 46.2113 61.9716C46.4599 62.3284 46.7086 62.6852 46.9735 63.0528C47.4763 63.7069 48.0168 64.3665 48.5953 64.9882L48.7088 65.1179C49.8976 66.3928 51.2166 67.5398 52.6444 68.5399C52.9687 68.7723 53.3201 68.9994 53.6715 69.2156C57.6291 71.7055 62.2134 73.018 66.8891 72.9998C67.5865 72.9998 68.2784 72.9998 68.9596 72.9133C72.9187 72.5884 76.7409 71.3124 80.1013 69.194C80.5968 68.891 81.075 68.5608 81.5339 68.2047C86.257 64.7524 89.6246 59.7575 91.0538 54.0843C91.2984 53.1006 91.479 52.102 91.5944 51.0948C91.7187 50.1429 91.7837 49.1842 91.789 48.2243V47.9972C91.7975 46.2281 91.6181 44.463 91.2538 42.7318Z" fill="#4D84FF"/>
<path d="M93.8108 33.2714C93.8786 33.2895 93.9415 33.3228 93.9946 33.3687C94.0493 33.4103 94.0937 33.4639 94.1244 33.5254C94.1551 33.588 94.1735 33.6559 94.1784 33.7255C94.1793 33.7957 94.1664 33.8655 94.1406 33.9309L91.8322 39.9693C91.799 40.0564 91.7407 40.1317 91.6646 40.1856C91.5903 40.2396 91.5022 40.2715 91.4106 40.2775C91.3172 40.2823 91.2244 40.2605 91.1431 40.2146C91.0617 40.1686 90.9951 40.1004 90.9511 40.018L90.4105 39.0017C90.3506 38.888 90.2483 38.8027 90.1257 38.7642C90.0032 38.7257 89.8704 38.7372 89.7563 38.7963L89.4968 38.9368L88.8427 39.2666L84.8531 41.3803L84.0368 41.8128L70.4246 49.0243C70.3242 49.0744 70.2094 49.0878 70.1002 49.0622L69.7705 48.9811C69.6992 48.9663 69.6325 48.9348 69.5758 48.8892C69.5196 48.8456 69.4735 48.7902 69.4407 48.727L67.8892 45.5591C67.8581 45.5025 67.8397 45.4398 67.8351 45.3753C67.824 45.3127 67.824 45.2487 67.8351 45.1861C67.8571 45.1259 67.8881 45.0694 67.927 45.0185C67.97 44.9701 68.0212 44.9299 68.0784 44.8996L81.8961 37.5961L82.7394 37.1474L86.7074 35.0499L87.3615 34.7039L87.6102 34.5688C87.6668 34.54 87.7165 34.4995 87.7561 34.4499C87.7982 34.401 87.8295 34.344 87.848 34.2823C87.8616 34.2199 87.8616 34.1554 87.848 34.0931C87.8434 34.0303 87.8249 33.9694 87.794 33.9147L86.9831 32.3361C86.9452 32.2533 86.9302 32.1618 86.9398 32.0712C86.9531 31.9823 86.9903 31.8986 87.0475 31.8291C87.1046 31.7596 87.1795 31.7069 87.2642 31.6766C87.3504 31.6496 87.4428 31.6496 87.5291 31.6766L91.3132 32.6389L93.8108 33.2714Z" fill="#4D84FF"/>
<path d="M130.328 60.2687H126.155L125.82 57.2522C125.052 58.3541 124.013 59.2387 122.803 59.82C121.315 60.5335 119.679 60.8837 118.03 60.8418C116.296 60.8743 114.574 60.5558 112.967 59.9055C111.359 59.2551 109.9 58.2864 108.677 57.0576C106.115 54.5348 104.835 51.2065 104.839 47.0728C104.843 42.939 106.158 39.6089 108.785 37.0825C110.053 35.8507 111.553 34.8821 113.197 34.2326C114.841 33.5831 116.597 33.2656 118.365 33.2984C121.608 33.2984 124.243 34.0804 126.268 35.6445C128.236 37.0807 129.697 39.1041 130.442 41.4235L125.522 43.1751C125.059 41.6566 124.105 40.3348 122.81 39.4171C121.514 38.4994 119.951 38.0376 118.365 38.1043C116.188 38.0826 114.089 38.913 112.515 40.418C110.876 41.9569 110.056 44.1806 110.056 47.089C110.056 49.9974 110.85 52.2211 112.44 53.7599C113.219 54.5376 114.148 55.1496 115.17 55.5593C116.191 55.969 117.286 56.1679 118.386 56.144C120.574 56.144 122.252 55.6034 123.419 54.5222C124.47 53.6123 125.19 52.3807 125.468 51.0191H117.143V46.5159H130.334L130.328 60.2687Z" fill="#4D84FF"/>
<path d="M147.443 53.814L151.584 55.0412C151.094 56.7214 150.057 58.19 148.638 59.2146C147.066 60.341 145.164 60.9117 143.232 60.8364C141.994 60.8625 140.764 60.6423 139.612 60.1885C138.46 59.7346 137.41 59.0563 136.523 58.1929C134.685 56.3909 133.766 54.005 133.766 51.0353C133.72 49.7569 133.936 48.4825 134.401 47.2907C134.866 46.0988 135.57 45.0147 136.469 44.1049C137.282 43.2421 138.264 42.5566 139.355 42.0914C140.445 41.6263 141.62 41.3915 142.805 41.4019C145.632 41.4019 147.849 42.2452 149.438 43.9373C151.028 45.6294 151.86 47.9485 151.86 50.9056C151.86 51.1056 151.86 51.3273 151.822 51.5759V52.1706L151.784 52.4301H138.648C138.662 52.9988 138.796 53.5583 139.04 54.0723C139.284 54.5862 139.633 55.0434 140.064 55.4142C140.943 56.2035 142.089 56.6304 143.27 56.6089C145.386 56.5909 146.777 55.6593 147.443 53.814ZM138.767 49.0135H146.968C146.938 48.0441 146.538 47.1229 145.849 46.4403C145.449 46.0714 144.978 45.7885 144.465 45.6091C143.952 45.4296 143.407 45.3574 142.865 45.3969C142.33 45.3754 141.797 45.4636 141.297 45.656C140.798 45.8485 140.343 46.1411 139.962 46.516C139.262 47.1677 138.835 48.06 138.767 49.0135Z" fill="#4D84FF"/>
<path d="M161.856 36.4555V41.9209H165.548V46.3214H161.856V53.9978C161.831 54.2907 161.866 54.5856 161.959 54.8644C162.052 55.1433 162.201 55.4002 162.396 55.6196C162.857 55.979 163.436 56.1526 164.018 56.1062C164.533 56.1243 165.047 56.0734 165.548 55.9548V60.085C164.653 60.4107 163.705 60.5612 162.753 60.5283C161.197 60.6087 159.671 60.0748 158.504 59.0416C157.969 58.4905 157.554 57.8349 157.284 57.1158C157.014 56.3967 156.896 55.6297 156.936 54.8628V46.3322H153.622V41.9209H154.552C154.936 41.949 155.321 41.8935 155.682 41.7581C156.042 41.6228 156.369 41.4109 156.639 41.137C157.151 40.5508 157.418 39.7902 157.385 39.0125V36.4555H161.856Z" fill="#4D84FF"/>
<path d="M186.572 60.2687H170.019V33.8444H186.572V38.6881H175.165V44.7266H185.491V49.3108H175.165V55.425H186.572V60.2687Z" fill="#4D84FF"/>
<path d="M195.822 47.3268C194.928 48.378 194.475 49.7337 194.557 51.111C194.488 52.4865 194.94 53.8373 195.822 54.8952C196.233 55.3546 196.74 55.7191 197.307 55.9637C197.873 56.2082 198.486 56.3269 199.103 56.3116C199.714 56.3283 200.322 56.2101 200.883 55.9653C201.443 55.7205 201.943 55.3551 202.347 54.8952C203.249 53.8469 203.715 52.4926 203.649 51.111C203.729 49.7274 203.261 48.3679 202.347 47.3268C201.937 46.877 201.435 46.5209 200.875 46.283C200.316 46.045 199.711 45.9309 199.103 45.9483C198.489 45.9321 197.88 46.0467 197.314 46.2844C196.748 46.5221 196.239 46.8774 195.822 47.3268ZM208.455 67.3289H203.59V58.4415C202.646 59.9624 200.945 60.721 198.487 60.7174C197.287 60.7517 196.094 60.5282 194.988 60.0619C193.881 59.5956 192.888 58.8974 192.075 58.0145C190.375 56.1077 189.481 53.6152 189.583 51.0624C189.497 48.5653 190.363 46.1289 192.005 44.2454C192.798 43.3444 193.781 42.6299 194.883 42.1533C195.985 41.6766 197.179 41.4496 198.379 41.4884C199.599 41.4338 200.811 41.7162 201.882 42.3047C202.657 42.7048 203.297 43.3231 203.725 44.0833V41.9209H208.455V67.3289Z" fill="#4D84FF"/>
<path d="M225.614 60.2688C225.504 59.617 225.455 58.9564 225.468 58.2956C224.977 59.1267 224.232 59.7785 223.343 60.1552C222.413 60.5573 221.41 60.7616 220.397 60.7553C218.235 60.7553 216.533 60.0723 215.294 58.7064C214.037 57.2776 213.37 55.4243 213.429 53.5221V41.9209H218.386V52.5166C218.34 53.4905 218.643 54.4489 219.24 55.2196C219.553 55.5656 219.94 55.8363 220.373 56.0114C220.805 56.1864 221.272 56.2614 221.738 56.2305C222.205 56.2549 222.672 56.1808 223.109 56.0132C223.545 55.8456 223.942 55.5881 224.273 55.2574C224.915 54.5306 225.248 53.5824 225.203 52.6139V41.9209H230.16V56.9495C230.157 58.0587 230.221 59.1671 230.349 60.2688H225.614Z" fill="#4D84FF"/>
<path d="M234.858 35.9311C234.852 35.5289 234.928 35.1297 235.081 34.7579C235.234 34.3861 235.462 34.0495 235.75 33.7687C236.025 33.4713 236.36 33.2349 236.733 33.0748C237.105 32.9146 237.507 32.8343 237.912 32.8388C238.315 32.8324 238.715 32.9087 239.087 33.0631C239.459 33.2175 239.795 33.4466 240.075 33.7362C240.366 34.0216 240.595 34.3636 240.748 34.7412C240.902 35.1187 240.976 35.5237 240.967 35.9311C240.971 36.3273 240.894 36.7202 240.74 37.0856C240.587 37.451 240.36 37.7811 240.075 38.0556C239.791 38.34 239.454 38.5657 239.083 38.7196C238.712 38.8736 238.314 38.9528 237.912 38.9528C237.511 38.9528 237.113 38.8736 236.742 38.7196C236.371 38.5657 236.034 38.34 235.75 38.0556C235.464 37.7811 235.237 37.451 235.084 37.0856C234.931 36.7202 234.854 36.3273 234.858 35.9311ZM240.41 60.2579H235.453V41.9209H240.399L240.41 60.2579Z" fill="#4D84FF"/>
<path d="M251.827 36.4555V41.9209H255.536V46.3214H251.849V53.9978C251.824 54.2907 251.859 54.5856 251.952 54.8644C252.045 55.1433 252.194 55.4002 252.389 55.6196C252.85 55.979 253.429 56.1526 254.011 56.1062C254.523 56.1314 255.036 56.0878 255.536 55.9764V60.085C254.641 60.4111 253.692 60.5616 252.741 60.5283C251.184 60.6087 249.659 60.0748 248.492 59.0416C247.951 58.4931 247.529 57.8388 247.253 57.1198C246.977 56.4007 246.852 55.6323 246.886 54.8628V46.3322H243.589V41.9209H244.524C244.908 41.949 245.293 41.8935 245.653 41.7581C246.013 41.6228 246.34 41.4109 246.61 41.137C247.123 40.5508 247.39 39.7902 247.356 39.0125V36.4555H251.827Z" fill="#4D84FF"/>
<path d="M266.461 67.4965H261.207L265.531 57.9604L257.741 41.9317H263.293L268.175 52.668L272.689 41.9317H277.981L266.461 67.4965Z" fill="#4D84FF"/>
</g>
<defs>
<filter id="filter0_d_335_268" x="0" y="0" width="319.981" height="102" filterUnits="userSpaceOnUse" color-interpolation-filters="sRGB">
<feFlood flood-opacity="0" result="BackgroundImageFix"/>
<feColorMatrix in="SourceAlpha" type="matrix" values="0 0 0 0 0 0 0 0 0 0 0 0 0 0 0 0 0 0 127 0" result="hardAlpha"/>
<feOffset dy="3"/>
<feGaussianBlur stdDeviation="5"/>
<feComposite in2="hardAlpha" operator="out"/>
<feColorMatrix type="matrix" values="0 0 0 0 0 0 0 0 0 0 0 0 0 0 0 0 0 0 0.05 0"/>
<feBlend mode="normal" in2="BackgroundImageFix" result="effect1_dropShadow_335_268"/>
<feBlend mode="normal" in="SourceGraphic" in2="effect1_dropShadow_335_268" result="shape"/>
</filter>
</defs>
</svg>
