<svg width="512" height="387" viewBox="0 0 512 387" fill="none" xmlns="http://www.w3.org/2000/svg">
<g filter="url(#filter0_d_446_2788)">
<rect x="193.815" y="2" width="259.37" height="83" rx="10" fill="white"/>
<circle cx="233.5" cy="43.5" r="21.6848" fill="#FFEBEE"/>
<path d="M242.34 36.11C241.829 35.599 241.223 35.1936 240.555 34.9171C239.888 34.6405 239.173 34.4982 238.45 34.4982C237.728 34.4982 237.012 34.6405 236.345 34.9171C235.677 35.1936 235.071 35.599 234.56 36.11L233.5 37.17L232.44 36.11C231.408 35.0783 230.009 34.4987 228.55 34.4987C227.091 34.4987 225.692 35.0783 224.66 36.11C223.628 37.1417 223.049 38.541 223.049 40C223.049 41.459 223.628 42.8583 224.66 43.89L225.72 44.95L233.5 52.73L241.28 44.95L242.34 43.89C242.851 43.3792 243.256 42.7728 243.533 42.1053C243.81 41.4379 243.952 40.7225 243.952 40C243.952 39.2775 243.81 38.5621 243.533 37.8946C243.256 37.2272 242.851 36.6208 242.34 36.11V36.11Z" stroke="#E91E63" stroke-width="2" stroke-linecap="round" stroke-linejoin="round"/>
<path d="M266.233 30V22.584H263.233V21.54H270.469V22.584H267.469V30H266.233ZM273.351 30.108C272.759 30.108 272.247 29.984 271.815 29.736C271.383 29.488 271.047 29.14 270.807 28.692C270.575 28.236 270.459 27.696 270.459 27.072C270.459 26.448 270.575 25.912 270.807 25.464C271.047 25.008 271.383 24.656 271.815 24.408C272.247 24.16 272.759 24.036 273.351 24.036C273.927 24.036 274.431 24.16 274.863 24.408C275.295 24.656 275.631 25.008 275.871 25.464C276.111 25.912 276.231 26.448 276.231 27.072C276.231 27.696 276.111 28.236 275.871 28.692C275.631 29.14 275.295 29.488 274.863 29.736C274.431 29.984 273.927 30.108 273.351 30.108ZM273.351 29.172C273.847 29.172 274.247 28.992 274.551 28.632C274.855 28.272 275.007 27.752 275.007 27.072C275.007 26.392 274.855 25.876 274.551 25.524C274.247 25.164 273.847 24.984 273.351 24.984C272.847 24.984 272.443 25.164 272.139 25.524C271.835 25.876 271.683 26.392 271.683 27.072C271.683 27.752 271.835 28.272 272.139 28.632C272.443 28.992 272.847 29.172 273.351 29.172ZM280.39 30.108C279.654 30.108 279.106 29.92 278.746 29.544C278.386 29.168 278.206 28.624 278.206 27.912V25.08H277.066V24.144H278.206V22.38H279.418V24.144H281.23V25.08H279.418V27.816C279.418 28.24 279.506 28.56 279.682 28.776C279.866 28.992 280.162 29.1 280.57 29.1C280.698 29.1 280.822 29.088 280.942 29.064C281.062 29.032 281.182 28.996 281.302 28.956L281.494 29.868C281.374 29.94 281.206 29.996 280.99 30.036C280.782 30.084 280.582 30.108 280.39 30.108ZM284.509 30.108C284.101 30.108 283.737 30.028 283.417 29.868C283.097 29.708 282.841 29.492 282.649 29.22C282.465 28.948 282.373 28.64 282.373 28.296C282.373 27.864 282.481 27.524 282.697 27.276C282.921 27.028 283.285 26.848 283.789 26.736C284.301 26.624 284.989 26.568 285.853 26.568H286.261V26.256C286.261 25.8 286.165 25.472 285.973 25.272C285.781 25.072 285.465 24.972 285.025 24.972C284.689 24.972 284.353 25.024 284.017 25.128C283.681 25.224 283.337 25.38 282.985 25.596L282.613 24.744C282.917 24.528 283.297 24.356 283.753 24.228C284.209 24.1 284.645 24.036 285.061 24.036C285.861 24.036 286.453 24.228 286.837 24.612C287.221 24.988 287.413 25.58 287.413 26.388V30H286.273V29.028C286.129 29.364 285.905 29.628 285.601 29.82C285.297 30.012 284.933 30.108 284.509 30.108ZM284.749 29.244C285.181 29.244 285.541 29.092 285.829 28.788C286.117 28.484 286.261 28.1 286.261 27.636V27.312H285.865C285.281 27.312 284.821 27.34 284.485 27.396C284.157 27.452 283.921 27.548 283.777 27.684C283.641 27.812 283.573 27.992 283.573 28.224C283.573 28.528 283.677 28.776 283.885 28.968C284.093 29.152 284.381 29.244 284.749 29.244ZM291.35 30.108C290.71 30.108 290.23 29.928 289.91 29.568C289.598 29.208 289.442 28.68 289.442 27.984V21.54H290.654V27.912C290.654 28.704 290.978 29.1 291.626 29.1C291.722 29.1 291.81 29.096 291.89 29.088C291.978 29.08 292.066 29.064 292.154 29.04L292.13 30.012C291.858 30.076 291.598 30.108 291.35 30.108ZM297.114 30V21.54H298.362V30H297.114ZM300.565 30V24.144H301.741V25.092C301.917 24.756 302.161 24.496 302.473 24.312C302.785 24.128 303.149 24.036 303.565 24.036C304.461 24.036 305.041 24.428 305.305 25.212C305.489 24.844 305.753 24.556 306.097 24.348C306.441 24.14 306.833 24.036 307.273 24.036C308.585 24.036 309.241 24.82 309.241 26.388V30H308.029V26.448C308.029 25.952 307.941 25.588 307.765 25.356C307.597 25.124 307.317 25.008 306.925 25.008C306.485 25.008 306.137 25.164 305.881 25.476C305.625 25.78 305.497 26.196 305.497 26.724V30H304.285V26.448C304.285 25.952 304.201 25.588 304.033 25.356C303.865 25.124 303.585 25.008 303.193 25.008C302.753 25.008 302.405 25.164 302.149 25.476C301.901 25.78 301.777 26.196 301.777 26.724V30H300.565ZM311.296 32.16V24.144H312.484V25.14C312.652 24.804 312.908 24.536 313.252 24.336C313.596 24.136 313.992 24.036 314.44 24.036C314.96 24.036 315.412 24.16 315.796 24.408C316.188 24.656 316.488 25.008 316.696 25.464C316.912 25.912 317.02 26.448 317.02 27.072C317.02 27.696 316.912 28.236 316.696 28.692C316.488 29.148 316.188 29.5 315.796 29.748C315.412 29.988 314.96 30.108 314.44 30.108C314.008 30.108 313.62 30.016 313.276 29.832C312.94 29.64 312.684 29.38 312.508 29.052V32.16H311.296ZM314.14 29.172C314.644 29.172 315.044 28.992 315.34 28.632C315.644 28.272 315.796 27.752 315.796 27.072C315.796 26.392 315.644 25.876 315.34 25.524C315.044 25.164 314.644 24.984 314.14 24.984C313.636 24.984 313.232 25.164 312.928 25.524C312.632 25.876 312.484 26.392 312.484 27.072C312.484 27.752 312.632 28.272 312.928 28.632C313.232 28.992 313.636 29.172 314.14 29.172ZM318.746 30V24.144H319.922V25.188C320.226 24.492 320.858 24.104 321.818 24.024L322.214 24L322.298 25.032L321.566 25.104C320.502 25.208 319.97 25.756 319.97 26.748V30H318.746ZM326.248 30.108C325.288 30.108 324.532 29.84 323.98 29.304C323.428 28.76 323.152 28.02 323.152 27.084C323.152 26.484 323.272 25.956 323.512 25.5C323.76 25.036 324.1 24.676 324.532 24.42C324.964 24.164 325.46 24.036 326.02 24.036C326.828 24.036 327.464 24.296 327.928 24.816C328.392 25.328 328.624 26.036 328.624 26.94V27.348H324.328C324.416 28.564 325.06 29.172 326.26 29.172C326.596 29.172 326.924 29.12 327.244 29.016C327.572 28.912 327.88 28.74 328.168 28.5L328.528 29.34C328.264 29.58 327.924 29.768 327.508 29.904C327.092 30.04 326.672 30.108 326.248 30.108ZM326.068 24.888C325.564 24.888 325.164 25.044 324.868 25.356C324.572 25.668 324.392 26.084 324.328 26.604H327.604C327.58 26.06 327.436 25.64 327.172 25.344C326.908 25.04 326.54 24.888 326.068 24.888ZM332.358 30.108C331.878 30.108 331.43 30.048 331.014 29.928C330.598 29.8 330.25 29.624 329.97 29.4L330.318 28.584C330.614 28.792 330.938 28.952 331.29 29.064C331.65 29.176 332.01 29.232 332.37 29.232C332.794 29.232 333.114 29.156 333.33 29.004C333.546 28.852 333.654 28.648 333.654 28.392C333.654 28.184 333.582 28.024 333.438 27.912C333.294 27.792 333.078 27.7 332.79 27.636L331.65 27.408C330.642 27.2 330.138 26.68 330.138 25.848C330.138 25.296 330.358 24.856 330.798 24.528C331.238 24.2 331.814 24.036 332.526 24.036C332.934 24.036 333.322 24.096 333.69 24.216C334.066 24.336 334.378 24.516 334.626 24.756L334.278 25.572C334.038 25.364 333.762 25.204 333.45 25.092C333.138 24.98 332.83 24.924 332.526 24.924C332.11 24.924 331.794 25.004 331.578 25.164C331.362 25.316 331.254 25.524 331.254 25.788C331.254 26.188 331.518 26.444 332.046 26.556L333.186 26.784C333.706 26.888 334.098 27.064 334.362 27.312C334.634 27.56 334.77 27.896 334.77 28.32C334.77 28.88 334.55 29.32 334.11 29.64C333.67 29.952 333.086 30.108 332.358 30.108ZM338.53 30.108C338.05 30.108 337.602 30.048 337.186 29.928C336.77 29.8 336.422 29.624 336.142 29.4L336.49 28.584C336.786 28.792 337.11 28.952 337.462 29.064C337.822 29.176 338.182 29.232 338.542 29.232C338.966 29.232 339.286 29.156 339.502 29.004C339.718 28.852 339.826 28.648 339.826 28.392C339.826 28.184 339.754 28.024 339.61 27.912C339.466 27.792 339.25 27.7 338.962 27.636L337.822 27.408C336.814 27.2 336.31 26.68 336.31 25.848C336.31 25.296 336.53 24.856 336.97 24.528C337.41 24.2 337.986 24.036 338.698 24.036C339.106 24.036 339.494 24.096 339.862 24.216C340.238 24.336 340.55 24.516 340.798 24.756L340.45 25.572C340.21 25.364 339.934 25.204 339.622 25.092C339.31 24.98 339.002 24.924 338.698 24.924C338.282 24.924 337.966 25.004 337.75 25.164C337.534 25.316 337.426 25.524 337.426 25.788C337.426 26.188 337.69 26.444 338.218 26.556L339.358 26.784C339.878 26.888 340.27 27.064 340.534 27.312C340.806 27.56 340.942 27.896 340.942 28.32C340.942 28.88 340.722 29.32 340.282 29.64C339.842 29.952 339.258 30.108 338.53 30.108ZM342.543 22.788V21.528H343.959V22.788H342.543ZM342.651 30V24.144H343.863V30H342.651ZM348.473 30.108C347.881 30.108 347.369 29.984 346.937 29.736C346.505 29.488 346.169 29.14 345.929 28.692C345.697 28.236 345.581 27.696 345.581 27.072C345.581 26.448 345.697 25.912 345.929 25.464C346.169 25.008 346.505 24.656 346.937 24.408C347.369 24.16 347.881 24.036 348.473 24.036C349.049 24.036 349.553 24.16 349.985 24.408C350.417 24.656 350.753 25.008 350.993 25.464C351.233 25.912 351.353 26.448 351.353 27.072C351.353 27.696 351.233 28.236 350.993 28.692C350.753 29.14 350.417 29.488 349.985 29.736C349.553 29.984 349.049 30.108 348.473 30.108ZM348.473 29.172C348.969 29.172 349.369 28.992 349.673 28.632C349.977 28.272 350.129 27.752 350.129 27.072C350.129 26.392 349.977 25.876 349.673 25.524C349.369 25.164 348.969 24.984 348.473 24.984C347.969 24.984 347.565 25.164 347.261 25.524C346.957 25.876 346.805 26.392 346.805 27.072C346.805 27.752 346.957 28.272 347.261 28.632C347.565 28.992 347.969 29.172 348.473 29.172ZM353.074 30V24.144H354.25V25.116C354.45 24.764 354.722 24.496 355.066 24.312C355.418 24.128 355.81 24.036 356.242 24.036C357.626 24.036 358.318 24.82 358.318 26.388V30H357.106V26.46C357.106 25.956 357.006 25.588 356.806 25.356C356.614 25.124 356.31 25.008 355.894 25.008C355.406 25.008 355.014 25.164 354.718 25.476C354.43 25.78 354.286 26.184 354.286 26.688V30H353.074ZM362.4 30.108C361.92 30.108 361.472 30.048 361.056 29.928C360.64 29.8 360.292 29.624 360.012 29.4L360.36 28.584C360.656 28.792 360.98 28.952 361.332 29.064C361.692 29.176 362.052 29.232 362.412 29.232C362.836 29.232 363.156 29.156 363.372 29.004C363.588 28.852 363.696 28.648 363.696 28.392C363.696 28.184 363.624 28.024 363.48 27.912C363.336 27.792 363.12 27.7 362.832 27.636L361.692 27.408C360.684 27.2 360.18 26.68 360.18 25.848C360.18 25.296 360.4 24.856 360.84 24.528C361.28 24.2 361.856 24.036 362.568 24.036C362.976 24.036 363.364 24.096 363.732 24.216C364.108 24.336 364.42 24.516 364.668 24.756L364.32 25.572C364.08 25.364 363.804 25.204 363.492 25.092C363.18 24.98 362.872 24.924 362.568 24.924C362.152 24.924 361.836 25.004 361.62 25.164C361.404 25.316 361.296 25.524 361.296 25.788C361.296 26.188 361.56 26.444 362.088 26.556L363.228 26.784C363.748 26.888 364.14 27.064 364.404 27.312C364.676 27.56 364.812 27.896 364.812 28.32C364.812 28.88 364.592 29.32 364.152 29.64C363.712 29.952 363.128 30.108 362.4 30.108Z" fill="black"/>
<path d="M265.585 61V57.952H269.377V48.232L266.473 49.936L265.057 47.224L270.457 44.08H273.097V57.952H276.649V61H265.585ZM285.016 61.264C282.968 61.264 281.4 60.504 280.312 58.984C279.24 57.464 278.704 55.296 278.704 52.48C278.704 49.664 279.24 47.52 280.312 46.048C281.4 44.56 282.968 43.816 285.016 43.816C287.064 43.816 288.624 44.56 289.696 46.048C290.784 47.52 291.328 49.664 291.328 52.48C291.328 55.296 290.784 57.464 289.696 58.984C288.624 60.504 287.064 61.264 285.016 61.264ZM285.016 58.24C285.944 58.24 286.632 57.784 287.08 56.872C287.528 55.944 287.752 54.48 287.752 52.48C287.752 50.48 287.528 49.04 287.08 48.16C286.632 47.28 285.944 46.84 285.016 46.84C284.088 46.84 283.4 47.28 282.952 48.16C282.504 49.04 282.28 50.48 282.28 52.48C282.28 54.48 282.504 55.944 282.952 56.872C283.4 57.784 284.088 58.24 285.016 58.24ZM299.646 61.264C297.598 61.264 296.03 60.504 294.942 58.984C293.87 57.464 293.334 55.296 293.334 52.48C293.334 49.664 293.87 47.52 294.942 46.048C296.03 44.56 297.598 43.816 299.646 43.816C301.694 43.816 303.254 44.56 304.326 46.048C305.414 47.52 305.958 49.664 305.958 52.48C305.958 55.296 305.414 57.464 304.326 58.984C303.254 60.504 301.694 61.264 299.646 61.264ZM299.646 58.24C300.574 58.24 301.262 57.784 301.71 56.872C302.158 55.944 302.382 54.48 302.382 52.48C302.382 50.48 302.158 49.04 301.71 48.16C301.262 47.28 300.574 46.84 299.646 46.84C298.718 46.84 298.03 47.28 297.582 48.16C297.134 49.04 296.91 50.48 296.91 52.48C296.91 54.48 297.134 55.944 297.582 56.872C298.03 57.784 298.718 58.24 299.646 58.24ZM309.981 64.456L308.565 63.328C309.365 62.528 309.853 61.752 310.029 61H308.253V57.16H312.141V59.632C312.141 60.544 311.981 61.376 311.661 62.128C311.341 62.88 310.781 63.656 309.981 64.456ZM320.751 61.264C318.703 61.264 317.135 60.504 316.047 58.984C314.975 57.464 314.439 55.296 314.439 52.48C314.439 49.664 314.975 47.52 316.047 46.048C317.135 44.56 318.703 43.816 320.751 43.816C322.799 43.816 324.359 44.56 325.431 46.048C326.519 47.52 327.063 49.664 327.063 52.48C327.063 55.296 326.519 57.464 325.431 58.984C324.359 60.504 322.799 61.264 320.751 61.264ZM320.751 58.24C321.679 58.24 322.367 57.784 322.815 56.872C323.263 55.944 323.487 54.48 323.487 52.48C323.487 50.48 323.263 49.04 322.815 48.16C322.367 47.28 321.679 46.84 320.751 46.84C319.823 46.84 319.135 47.28 318.687 48.16C318.239 49.04 318.015 50.48 318.015 52.48C318.015 54.48 318.239 55.944 318.687 56.872C319.135 57.784 319.823 58.24 320.751 58.24ZM335.382 61.264C333.334 61.264 331.766 60.504 330.678 58.984C329.606 57.464 329.07 55.296 329.07 52.48C329.07 49.664 329.606 47.52 330.678 46.048C331.766 44.56 333.334 43.816 335.382 43.816C337.43 43.816 338.99 44.56 340.062 46.048C341.15 47.52 341.694 49.664 341.694 52.48C341.694 55.296 341.15 57.464 340.062 58.984C338.99 60.504 337.43 61.264 335.382 61.264ZM335.382 58.24C336.31 58.24 336.998 57.784 337.446 56.872C337.894 55.944 338.118 54.48 338.118 52.48C338.118 50.48 337.894 49.04 337.446 48.16C336.998 47.28 336.31 46.84 335.382 46.84C334.454 46.84 333.766 47.28 333.318 48.16C332.87 49.04 332.646 50.48 332.646 52.48C332.646 54.48 332.87 55.944 333.318 56.872C333.766 57.784 334.454 58.24 335.382 58.24ZM350.013 61.264C347.965 61.264 346.397 60.504 345.309 58.984C344.237 57.464 343.701 55.296 343.701 52.48C343.701 49.664 344.237 47.52 345.309 46.048C346.397 44.56 347.965 43.816 350.013 43.816C352.061 43.816 353.621 44.56 354.693 46.048C355.781 47.52 356.325 49.664 356.325 52.48C356.325 55.296 355.781 57.464 354.693 58.984C353.621 60.504 352.061 61.264 350.013 61.264ZM350.013 58.24C350.941 58.24 351.629 57.784 352.077 56.872C352.525 55.944 352.749 54.48 352.749 52.48C352.749 50.48 352.525 49.04 352.077 48.16C351.629 47.28 350.941 46.84 350.013 46.84C349.085 46.84 348.397 47.28 347.949 48.16C347.501 49.04 347.277 50.48 347.277 52.48C347.277 54.48 347.501 55.944 347.949 56.872C348.397 57.784 349.085 58.24 350.013 58.24Z" fill="black"/>
<path d="M403.233 64.52V62.084H400.857V61.028H403.233V58.664H404.337V61.028H406.713V62.084H404.337V64.52H403.233ZM411.292 65.12C410.716 65.12 410.164 65.036 409.636 64.868C409.116 64.692 408.684 64.456 408.34 64.16L408.844 62.984C409.564 63.544 410.364 63.824 411.244 63.824C412.324 63.824 412.864 63.4 412.864 62.552C412.864 62.152 412.728 61.856 412.456 61.664C412.192 61.464 411.804 61.364 411.292 61.364H409.936V60.092H411.148C411.596 60.092 411.952 59.984 412.216 59.768C412.48 59.544 412.612 59.236 412.612 58.844C412.612 58.476 412.488 58.196 412.24 58.004C412 57.812 411.648 57.716 411.184 57.716C410.352 57.716 409.62 58.004 408.988 58.58L408.484 57.428C408.82 57.108 409.24 56.86 409.744 56.684C410.248 56.508 410.772 56.42 411.316 56.42C412.196 56.42 412.88 56.62 413.368 57.02C413.856 57.412 414.1 57.96 414.1 58.664C414.1 59.12 413.984 59.52 413.752 59.864C413.52 60.208 413.204 60.456 412.804 60.608C413.292 60.744 413.672 60.996 413.944 61.364C414.216 61.724 414.352 62.164 414.352 62.684C414.352 63.436 414.08 64.032 413.536 64.472C412.992 64.904 412.244 65.12 411.292 65.12ZM416.496 65V63.86L419.232 60.944C419.6 60.544 419.864 60.192 420.024 59.888C420.184 59.576 420.264 59.26 420.264 58.94C420.264 58.124 419.772 57.716 418.788 57.716C418.02 57.716 417.312 58.004 416.664 58.58L416.148 57.428C416.484 57.124 416.904 56.88 417.408 56.696C417.912 56.512 418.436 56.42 418.98 56.42C419.884 56.42 420.576 56.624 421.056 57.032C421.544 57.44 421.788 58.024 421.788 58.784C421.788 59.296 421.664 59.788 421.416 60.26C421.176 60.732 420.796 61.24 420.276 61.784L418.416 63.728H422.112V65H416.496ZM426.907 65.336L425.923 64.76L430.867 56.204L431.839 56.78L426.907 65.336ZM425.875 61.592C425.203 61.592 424.679 61.36 424.303 60.896C423.927 60.432 423.739 59.8 423.739 59C423.739 58.2 423.927 57.572 424.303 57.116C424.679 56.652 425.203 56.42 425.875 56.42C426.547 56.42 427.071 56.652 427.447 57.116C427.823 57.572 428.011 58.2 428.011 59C428.011 59.8 427.823 60.432 427.447 60.896C427.071 61.36 426.547 61.592 425.875 61.592ZM425.875 60.584C426.163 60.584 426.387 60.456 426.547 60.2C426.707 59.936 426.787 59.536 426.787 59C426.787 58.464 426.707 58.068 426.547 57.812C426.387 57.556 426.163 57.428 425.875 57.428C425.587 57.428 425.363 57.556 425.203 57.812C425.043 58.06 424.963 58.456 424.963 59C424.963 59.544 425.043 59.944 425.203 60.2C425.363 60.456 425.587 60.584 425.875 60.584ZM431.899 65.12C431.227 65.12 430.703 64.888 430.327 64.424C429.951 63.96 429.763 63.328 429.763 62.528C429.763 61.728 429.951 61.1 430.327 60.644C430.703 60.18 431.227 59.948 431.899 59.948C432.571 59.948 433.095 60.18 433.471 60.644C433.847 61.1 434.035 61.728 434.035 62.528C434.035 63.328 433.847 63.96 433.471 64.424C433.095 64.888 432.571 65.12 431.899 65.12ZM431.899 64.112C432.187 64.112 432.411 63.984 432.571 63.728C432.731 63.464 432.811 63.064 432.811 62.528C432.811 61.992 432.731 61.596 432.571 61.34C432.411 61.084 432.187 60.956 431.899 60.956C431.611 60.956 431.387 61.084 431.227 61.34C431.067 61.588 430.987 61.984 430.987 62.528C430.987 63.072 431.067 63.472 431.227 63.728C431.387 63.984 431.611 64.112 431.899 64.112Z" fill="#4CAF50"/>
</g>
<g filter="url(#filter1_d_446_2788)">
<rect x="24" y="78.879" width="247" height="181.37" rx="10" fill="white"/>
<circle cx="61.6848" cy="121.564" r="21.6848" fill="#E0F2F1"/>
<path d="M63.6846 111.564H55.6846C55.1541 111.564 54.6454 111.775 54.2704 112.15C53.8953 112.525 53.6846 113.033 53.6846 113.564V129.564C53.6846 130.094 53.8953 130.603 54.2704 130.978C54.6454 131.353 55.1541 131.564 55.6846 131.564H67.6846C68.215 131.564 68.7237 131.353 69.0988 130.978C69.4739 130.603 69.6846 130.094 69.6846 129.564V117.564L63.6846 111.564Z" stroke="#009688" stroke-width="2" stroke-linecap="round" stroke-linejoin="round"/>
<path d="M65.6846 126.564H57.6846" stroke="#009688" stroke-width="2" stroke-linecap="round" stroke-linejoin="round"/>
<path d="M65.6846 122.564H57.6846" stroke="#009688" stroke-width="2" stroke-linecap="round" stroke-linejoin="round"/>
<path d="M59.6846 118.564H58.6846H57.6846" stroke="#009688" stroke-width="2" stroke-linecap="round" stroke-linejoin="round"/>
<path d="M63.6846 111.564V117.564H69.6846" stroke="#009688" stroke-width="2" stroke-linecap="round" stroke-linejoin="round"/>
<path d="M96.4896 117.039C95.6043 117.039 94.783 116.927 94.0256 116.703C93.2683 116.468 92.6283 116.154 92.1056 115.759L92.7296 114.143C93.2523 114.516 93.823 114.804 94.4416 115.007C95.071 115.21 95.7536 115.311 96.4896 115.311C97.3323 115.311 97.9456 115.172 98.3296 114.895C98.7136 114.607 98.9056 114.239 98.9056 113.791C98.9056 113.418 98.767 113.124 98.4896 112.911C98.223 112.698 97.759 112.522 97.0976 112.383L95.3376 112.015C93.3323 111.588 92.3296 110.559 92.3296 108.927C92.3296 108.223 92.5163 107.61 92.8896 107.087C93.263 106.564 93.7803 106.159 94.4416 105.871C95.103 105.583 95.8656 105.439 96.7296 105.439C97.4976 105.439 98.2176 105.556 98.8896 105.791C99.5616 106.015 100.122 106.335 100.57 106.751L99.9456 108.287C99.0603 107.54 97.983 107.167 96.7136 107.167C95.9776 107.167 95.4016 107.322 94.9856 107.631C94.5696 107.94 94.3616 108.346 94.3616 108.847C94.3616 109.231 94.4896 109.54 94.7456 109.775C95.0016 109.999 95.439 110.175 96.0576 110.303L97.8016 110.671C98.8576 110.895 99.6416 111.247 100.154 111.727C100.676 112.207 100.938 112.847 100.938 113.647C100.938 114.319 100.756 114.911 100.394 115.423C100.031 115.935 99.5136 116.335 98.8416 116.623C98.1803 116.9 97.3963 117.039 96.4896 117.039ZM106.071 117.039C105.261 117.039 104.557 116.874 103.959 116.543C103.362 116.212 102.898 115.743 102.567 115.135C102.237 114.516 102.071 113.791 102.071 112.959C102.071 112.127 102.237 111.407 102.567 110.799C102.898 110.191 103.362 109.722 103.959 109.391C104.557 109.06 105.261 108.895 106.071 108.895C106.882 108.895 107.586 109.06 108.183 109.391C108.781 109.722 109.245 110.191 109.575 110.799C109.906 111.407 110.071 112.127 110.071 112.959C110.071 113.791 109.906 114.516 109.575 115.135C109.245 115.743 108.781 116.212 108.183 116.543C107.586 116.874 106.882 117.039 106.071 117.039ZM106.071 115.519C106.669 115.519 107.149 115.306 107.511 114.879C107.874 114.442 108.055 113.802 108.055 112.959C108.055 112.106 107.874 111.471 107.511 111.055C107.149 110.628 106.669 110.415 106.071 110.415C105.474 110.415 104.994 110.628 104.631 111.055C104.269 111.471 104.087 112.106 104.087 112.959C104.087 113.802 104.269 114.442 104.631 114.879C104.994 115.306 105.474 115.519 106.071 115.519ZM115.338 117.039C114.517 117.039 113.802 116.874 113.194 116.543C112.586 116.202 112.117 115.722 111.786 115.103C111.455 114.484 111.29 113.759 111.29 112.927C111.29 112.095 111.455 111.38 111.786 110.783C112.117 110.175 112.586 109.711 113.194 109.391C113.802 109.06 114.517 108.895 115.338 108.895C115.839 108.895 116.335 108.975 116.826 109.135C117.317 109.295 117.722 109.519 118.042 109.807L117.45 111.199C117.173 110.954 116.858 110.767 116.506 110.639C116.165 110.511 115.834 110.447 115.514 110.447C114.821 110.447 114.282 110.666 113.898 111.103C113.525 111.53 113.338 112.143 113.338 112.943C113.338 113.732 113.525 114.356 113.898 114.815C114.282 115.263 114.821 115.487 115.514 115.487C115.823 115.487 116.154 115.423 116.506 115.295C116.858 115.167 117.173 114.975 117.45 114.719L118.042 116.127C117.722 116.404 117.311 116.628 116.81 116.799C116.319 116.959 115.829 117.039 115.338 117.039ZM119.141 107.375V105.423H121.381V107.375H119.141ZM119.269 116.879V109.055H121.269V116.879H119.269ZM125.923 117.039C125.358 117.039 124.851 116.932 124.403 116.719C123.966 116.495 123.619 116.196 123.363 115.823C123.118 115.45 122.995 115.028 122.995 114.559C122.995 113.983 123.144 113.53 123.443 113.199C123.742 112.858 124.227 112.612 124.899 112.463C125.571 112.314 126.472 112.239 127.603 112.239H128.163V111.903C128.163 111.37 128.046 110.986 127.811 110.751C127.576 110.516 127.182 110.399 126.627 110.399C126.19 110.399 125.742 110.468 125.283 110.607C124.824 110.735 124.36 110.938 123.891 111.215L123.315 109.855C123.592 109.663 123.918 109.498 124.291 109.359C124.675 109.21 125.075 109.098 125.491 109.023C125.918 108.938 126.318 108.895 126.691 108.895C127.832 108.895 128.68 109.162 129.235 109.695C129.79 110.218 130.067 111.034 130.067 112.143V116.879H128.195V115.631C128.014 116.068 127.726 116.415 127.331 116.671C126.936 116.916 126.467 117.039 125.923 117.039ZM126.339 115.663C126.862 115.663 127.294 115.482 127.635 115.119C127.987 114.756 128.163 114.298 128.163 113.743V113.391H127.619C126.616 113.391 125.918 113.471 125.523 113.631C125.139 113.78 124.947 114.058 124.947 114.463C124.947 114.815 125.07 115.103 125.315 115.327C125.56 115.551 125.902 115.663 126.339 115.663ZM134.817 117.039C133.889 117.039 133.201 116.788 132.753 116.287C132.316 115.775 132.097 115.028 132.097 114.047V105.599H134.097V113.951C134.097 114.911 134.502 115.391 135.313 115.391C135.43 115.391 135.548 115.386 135.665 115.375C135.782 115.364 135.894 115.343 136.001 115.311L135.969 116.895C135.585 116.991 135.201 117.039 134.817 117.039ZM141.743 116.879V105.599H143.455L147.455 112.975L151.439 105.599H153.119V116.879H151.263V109.279L148.031 115.167H146.831L143.599 109.311V116.879H141.743ZM159.266 117.039C158.38 117.039 157.618 116.874 156.978 116.543C156.338 116.212 155.842 115.743 155.49 115.135C155.148 114.527 154.978 113.807 154.978 112.975C154.978 112.164 155.143 111.455 155.474 110.847C155.815 110.239 156.279 109.764 156.866 109.423C157.463 109.071 158.14 108.895 158.898 108.895C160.007 108.895 160.882 109.247 161.522 109.951C162.172 110.655 162.498 111.615 162.498 112.831V113.423H156.898C157.047 114.82 157.847 115.519 159.298 115.519C159.735 115.519 160.172 115.455 160.61 115.327C161.047 115.188 161.447 114.975 161.81 114.687L162.37 116.031C161.996 116.34 161.527 116.586 160.962 116.767C160.396 116.948 159.831 117.039 159.266 117.039ZM158.978 110.255C158.391 110.255 157.916 110.436 157.554 110.799C157.191 111.162 156.972 111.652 156.898 112.271H160.834C160.791 111.62 160.61 111.124 160.29 110.783C159.98 110.431 159.543 110.255 158.978 110.255ZM167.09 117.039C166.407 117.039 165.804 116.874 165.282 116.543C164.77 116.212 164.37 115.743 164.082 115.135C163.794 114.516 163.65 113.791 163.65 112.959C163.65 112.116 163.794 111.396 164.082 110.799C164.37 110.191 164.77 109.722 165.282 109.391C165.804 109.06 166.407 108.895 167.09 108.895C167.644 108.895 168.146 109.018 168.594 109.263C169.042 109.508 169.378 109.834 169.602 110.239V105.599H171.602V116.879H169.65V115.583C169.436 116.031 169.1 116.388 168.642 116.655C168.183 116.911 167.666 117.039 167.09 117.039ZM167.65 115.519C168.247 115.519 168.727 115.306 169.09 114.879C169.452 114.442 169.634 113.802 169.634 112.959C169.634 112.106 169.452 111.471 169.09 111.055C168.727 110.628 168.247 110.415 167.65 110.415C167.052 110.415 166.572 110.628 166.21 111.055C165.847 111.471 165.666 112.106 165.666 112.959C165.666 113.802 165.847 114.442 166.21 114.879C166.572 115.306 167.052 115.519 167.65 115.519ZM173.547 107.375V105.423H175.787V107.375H173.547ZM173.675 116.879V109.055H175.675V116.879H173.675ZM180.329 117.039C179.764 117.039 179.257 116.932 178.809 116.719C178.372 116.495 178.025 116.196 177.769 115.823C177.524 115.45 177.401 115.028 177.401 114.559C177.401 113.983 177.551 113.53 177.849 113.199C178.148 112.858 178.633 112.612 179.305 112.463C179.977 112.314 180.879 112.239 182.009 112.239H182.569V111.903C182.569 111.37 182.452 110.986 182.217 110.751C181.983 110.516 181.588 110.399 181.033 110.399C180.596 110.399 180.148 110.468 179.689 110.607C179.231 110.735 178.767 110.938 178.297 111.215L177.721 109.855C177.999 109.663 178.324 109.498 178.697 109.359C179.081 109.21 179.481 109.098 179.897 109.023C180.324 108.938 180.724 108.895 181.097 108.895C182.239 108.895 183.087 109.162 183.641 109.695C184.196 110.218 184.473 111.034 184.473 112.143V116.879H182.601V115.631C182.42 116.068 182.132 116.415 181.737 116.671C181.343 116.916 180.873 117.039 180.329 117.039ZM180.745 115.663C181.268 115.663 181.7 115.482 182.041 115.119C182.393 114.756 182.569 114.298 182.569 113.743V113.391H182.025C181.023 113.391 180.324 113.471 179.929 113.631C179.545 113.78 179.353 114.058 179.353 114.463C179.353 114.815 179.476 115.103 179.721 115.327C179.967 115.551 180.308 115.663 180.745 115.663ZM196.256 117.039C195.083 117.039 194.075 116.804 193.232 116.335C192.4 115.855 191.76 115.183 191.312 114.319C190.864 113.444 190.64 112.415 190.64 111.231C190.64 110.047 190.864 109.023 191.312 108.159C191.76 107.295 192.4 106.628 193.232 106.159C194.075 105.679 195.083 105.439 196.256 105.439C197.013 105.439 197.728 105.556 198.4 105.791C199.083 106.026 199.643 106.362 200.08 106.799L199.408 108.431C198.928 108.026 198.437 107.732 197.936 107.551C197.435 107.359 196.896 107.263 196.32 107.263C195.179 107.263 194.309 107.61 193.712 108.303C193.115 108.986 192.816 109.962 192.816 111.231C192.816 112.5 193.115 113.482 193.712 114.175C194.309 114.868 195.179 115.215 196.32 115.215C196.896 115.215 197.435 115.124 197.936 114.943C198.437 114.751 198.928 114.452 199.408 114.047L200.08 115.679C199.643 116.106 199.083 116.442 198.4 116.687C197.728 116.922 197.013 117.039 196.256 117.039ZM203.97 117.039C203.405 117.039 202.898 116.932 202.45 116.719C202.013 116.495 201.666 116.196 201.41 115.823C201.165 115.45 201.042 115.028 201.042 114.559C201.042 113.983 201.191 113.53 201.49 113.199C201.789 112.858 202.274 112.612 202.946 112.463C203.618 112.314 204.519 112.239 205.65 112.239H206.21V111.903C206.21 111.37 206.093 110.986 205.858 110.751C205.623 110.516 205.229 110.399 204.674 110.399C204.237 110.399 203.789 110.468 203.33 110.607C202.871 110.735 202.407 110.938 201.938 111.215L201.362 109.855C201.639 109.663 201.965 109.498 202.338 109.359C202.722 109.21 203.122 109.098 203.538 109.023C203.965 108.938 204.365 108.895 204.738 108.895C205.879 108.895 206.727 109.162 207.282 109.695C207.837 110.218 208.114 111.034 208.114 112.143V116.879H206.242V115.631C206.061 116.068 205.773 116.415 205.378 116.671C204.983 116.916 204.514 117.039 203.97 117.039ZM204.386 115.663C204.909 115.663 205.341 115.482 205.682 115.119C206.034 114.756 206.21 114.298 206.21 113.743V113.391H205.666C204.663 113.391 203.965 113.471 203.57 113.631C203.186 113.78 202.994 114.058 202.994 114.463C202.994 114.815 203.117 115.103 203.362 115.327C203.607 115.551 203.949 115.663 204.386 115.663ZM212.864 117.039C211.936 117.039 211.248 116.788 210.8 116.287C210.363 115.775 210.144 115.028 210.144 114.047V105.599H212.144V113.951C212.144 114.911 212.549 115.391 213.36 115.391C213.477 115.391 213.595 115.386 213.712 115.375C213.829 115.364 213.941 115.343 214.048 115.311L214.016 116.895C213.632 116.991 213.248 117.039 212.864 117.039ZM219.031 117.039C218.146 117.039 217.383 116.874 216.743 116.543C216.103 116.212 215.607 115.743 215.255 115.135C214.914 114.527 214.743 113.807 214.743 112.975C214.743 112.164 214.909 111.455 215.239 110.847C215.581 110.239 216.045 109.764 216.631 109.423C217.229 109.071 217.906 108.895 218.663 108.895C219.773 108.895 220.647 109.247 221.287 109.951C221.938 110.655 222.263 111.615 222.263 112.831V113.423H216.663C216.813 114.82 217.613 115.519 219.063 115.519C219.501 115.519 219.938 115.455 220.375 115.327C220.813 115.188 221.213 114.975 221.575 114.687L222.135 116.031C221.762 116.34 221.293 116.586 220.727 116.767C220.162 116.948 219.597 117.039 219.031 117.039ZM218.743 110.255C218.157 110.255 217.682 110.436 217.319 110.799C216.957 111.162 216.738 111.652 216.663 112.271H220.599C220.557 111.62 220.375 111.124 220.055 110.783C219.746 110.431 219.309 110.255 218.743 110.255ZM223.847 116.879V109.055H225.799V110.271C226.066 109.823 226.423 109.482 226.871 109.247C227.33 109.012 227.842 108.895 228.407 108.895C230.252 108.895 231.175 109.967 231.175 112.111V116.879H229.175V112.207C229.175 111.599 229.058 111.156 228.823 110.879C228.599 110.602 228.247 110.463 227.767 110.463C227.18 110.463 226.711 110.65 226.359 111.023C226.018 111.386 225.847 111.871 225.847 112.479V116.879H223.847ZM236.215 117.039C235.532 117.039 234.929 116.874 234.407 116.543C233.895 116.212 233.495 115.743 233.207 115.135C232.919 114.516 232.775 113.791 232.775 112.959C232.775 112.116 232.919 111.396 233.207 110.799C233.495 110.191 233.895 109.722 234.407 109.391C234.929 109.06 235.532 108.895 236.215 108.895C236.769 108.895 237.271 109.018 237.719 109.263C238.167 109.508 238.503 109.834 238.727 110.239V105.599H240.727V116.879H238.775V115.583C238.561 116.031 238.225 116.388 237.767 116.655C237.308 116.911 236.791 117.039 236.215 117.039ZM236.775 115.519C237.372 115.519 237.852 115.306 238.215 114.879C238.577 114.442 238.759 113.802 238.759 112.959C238.759 112.106 238.577 111.471 238.215 111.055C237.852 110.628 237.372 110.415 236.775 110.415C236.177 110.415 235.697 110.628 235.335 111.055C234.972 111.471 234.791 112.106 234.791 112.959C234.791 113.802 234.972 114.442 235.335 114.879C235.697 115.306 236.177 115.519 236.775 115.519ZM245.376 117.039C244.811 117.039 244.304 116.932 243.856 116.719C243.419 116.495 243.072 116.196 242.816 115.823C242.571 115.45 242.448 115.028 242.448 114.559C242.448 113.983 242.598 113.53 242.896 113.199C243.195 112.858 243.68 112.612 244.352 112.463C245.024 112.314 245.926 112.239 247.056 112.239H247.616V111.903C247.616 111.37 247.499 110.986 247.264 110.751C247.03 110.516 246.635 110.399 246.08 110.399C245.643 110.399 245.195 110.468 244.736 110.607C244.278 110.735 243.814 110.938 243.344 111.215L242.768 109.855C243.046 109.663 243.371 109.498 243.744 109.359C244.128 109.21 244.528 109.098 244.944 109.023C245.371 108.938 245.771 108.895 246.144 108.895C247.286 108.895 248.134 109.162 248.688 109.695C249.243 110.218 249.52 111.034 249.52 112.143V116.879H247.648V115.631C247.467 116.068 247.179 116.415 246.784 116.671C246.39 116.916 245.92 117.039 245.376 117.039ZM245.792 115.663C246.315 115.663 246.747 115.482 247.088 115.119C247.44 114.756 247.616 114.298 247.616 113.743V113.391H247.072C246.07 113.391 245.371 113.471 244.976 113.631C244.592 113.78 244.4 114.058 244.4 114.463C244.4 114.815 244.523 115.103 244.768 115.327C245.014 115.551 245.355 115.663 245.792 115.663ZM251.55 116.879V109.055H253.502V110.431C253.886 109.503 254.708 108.991 255.966 108.895L256.574 108.847L256.702 110.543L255.55 110.655C254.238 110.783 253.582 111.455 253.582 112.671V116.879H251.55Z" fill="black"/>
<g clip-path="url(#clip0_446_2788)">
<path d="M98.3697 140.712C101.591 140.712 104.203 138.101 104.203 134.879C104.203 131.657 101.591 129.046 98.3697 129.046C95.148 129.046 92.5364 131.657 92.5364 134.879C92.5364 138.101 95.148 140.712 98.3697 140.712Z" stroke="#9E9E9E" stroke-width="2" stroke-linecap="round" stroke-linejoin="round"/>
<path d="M98.3696 131.379V134.879L100.703 136.046" stroke="#9E9E9E" stroke-width="2" stroke-linecap="round" stroke-linejoin="round"/>
</g>
<path d="M113.378 138.879V130.419H114.422L117.554 136.263L120.674 130.419H121.694V138.879H120.578V132.675L117.926 137.583H117.17L114.506 132.699V138.879H113.378ZM125.79 138.987C125.382 138.987 125.018 138.907 124.698 138.747C124.378 138.587 124.122 138.371 123.93 138.099C123.746 137.827 123.654 137.519 123.654 137.175C123.654 136.743 123.762 136.403 123.978 136.155C124.202 135.907 124.566 135.727 125.07 135.615C125.582 135.503 126.27 135.447 127.134 135.447H127.542V135.135C127.542 134.679 127.446 134.351 127.254 134.151C127.062 133.951 126.746 133.851 126.306 133.851C125.97 133.851 125.634 133.903 125.298 134.007C124.962 134.103 124.618 134.259 124.266 134.475L123.894 133.623C124.198 133.407 124.578 133.235 125.034 133.107C125.49 132.979 125.926 132.915 126.342 132.915C127.142 132.915 127.734 133.107 128.118 133.491C128.502 133.867 128.694 134.459 128.694 135.267V138.879H127.554V137.907C127.41 138.243 127.186 138.507 126.882 138.699C126.578 138.891 126.214 138.987 125.79 138.987ZM126.03 138.123C126.462 138.123 126.822 137.971 127.11 137.667C127.398 137.363 127.542 136.979 127.542 136.515V136.191H127.146C126.562 136.191 126.102 136.219 125.766 136.275C125.438 136.331 125.202 136.427 125.058 136.563C124.922 136.691 124.854 136.871 124.854 137.103C124.854 137.407 124.958 137.655 125.166 137.847C125.374 138.031 125.662 138.123 126.03 138.123ZM131.264 141.039L132.308 138.723L129.86 133.023H131.156L132.956 137.475L134.78 133.023H136.028L132.536 141.039H131.264ZM143.651 138.987C143.107 138.987 142.579 138.903 142.067 138.735C141.563 138.559 141.143 138.315 140.807 138.003L141.227 137.043C141.963 137.635 142.763 137.931 143.627 137.931C144.179 137.931 144.611 137.783 144.923 137.487C145.235 137.183 145.391 136.787 145.391 136.299C145.391 135.795 145.243 135.383 144.947 135.063C144.651 134.743 144.239 134.583 143.711 134.583C142.967 134.583 142.371 134.891 141.923 135.507H141.059V130.419H146.099V131.463H142.271V134.139C142.719 133.747 143.287 133.551 143.975 133.551C144.511 133.551 144.975 133.663 145.367 133.887C145.759 134.111 146.063 134.427 146.279 134.835C146.495 135.235 146.603 135.703 146.603 136.239C146.603 136.783 146.483 137.263 146.243 137.679C146.003 138.087 145.663 138.407 145.223 138.639C144.783 138.871 144.259 138.987 143.651 138.987ZM148.794 140.355L148.266 139.947C148.45 139.747 148.586 139.563 148.674 139.395C148.762 139.227 148.818 139.055 148.842 138.879H148.182V137.451H149.61V138.423C149.61 138.791 149.55 139.127 149.43 139.431C149.31 139.743 149.098 140.051 148.794 140.355ZM155.214 138.879V137.955L158.034 134.931C158.426 134.507 158.706 134.123 158.874 133.779C159.05 133.435 159.138 133.087 159.138 132.735C159.138 131.823 158.602 131.367 157.53 131.367C156.714 131.367 155.982 131.675 155.334 132.291L154.89 131.343C155.21 131.031 155.618 130.783 156.114 130.599C156.61 130.407 157.126 130.311 157.662 130.311C158.534 130.311 159.202 130.511 159.666 130.911C160.138 131.311 160.374 131.883 160.374 132.627C160.374 133.131 160.25 133.623 160.002 134.103C159.762 134.583 159.382 135.095 158.862 135.639L156.774 137.835H160.71V138.879H155.214ZM165.35 138.987C164.366 138.987 163.614 138.615 163.094 137.871C162.582 137.119 162.326 136.043 162.326 134.643C162.326 133.219 162.582 132.143 163.094 131.415C163.614 130.679 164.366 130.311 165.35 130.311C166.342 130.311 167.094 130.679 167.606 131.415C168.118 132.143 168.374 133.215 168.374 134.631C168.374 136.039 168.114 137.119 167.594 137.871C167.082 138.615 166.334 138.987 165.35 138.987ZM165.35 137.955C165.958 137.955 166.41 137.687 166.706 137.151C167.002 136.615 167.15 135.775 167.15 134.631C167.15 133.487 167.002 132.655 166.706 132.135C166.418 131.607 165.966 131.343 165.35 131.343C164.742 131.343 164.29 131.607 163.994 132.135C163.698 132.663 163.55 133.495 163.55 134.631C163.55 135.775 163.698 136.615 163.994 137.151C164.29 137.687 164.742 137.955 165.35 137.955ZM170.325 138.879V137.955L173.145 134.931C173.537 134.507 173.817 134.123 173.985 133.779C174.161 133.435 174.249 133.087 174.249 132.735C174.249 131.823 173.713 131.367 172.641 131.367C171.825 131.367 171.093 131.675 170.445 132.291L170.001 131.343C170.321 131.031 170.729 130.783 171.225 130.599C171.721 130.407 172.237 130.311 172.773 130.311C173.645 130.311 174.313 130.511 174.777 130.911C175.249 131.311 175.485 131.883 175.485 132.627C175.485 133.131 175.361 133.623 175.113 134.103C174.873 134.583 174.493 135.095 173.973 135.639L171.885 137.835H175.821V138.879H170.325ZM177.88 138.879V137.955L180.7 134.931C181.092 134.507 181.372 134.123 181.54 133.779C181.716 133.435 181.804 133.087 181.804 132.735C181.804 131.823 181.268 131.367 180.196 131.367C179.38 131.367 178.648 131.675 178 132.291L177.556 131.343C177.876 131.031 178.284 130.783 178.78 130.599C179.276 130.407 179.792 130.311 180.328 130.311C181.2 130.311 181.868 130.511 182.332 130.911C182.804 131.311 183.04 131.883 183.04 132.627C183.04 133.131 182.916 133.623 182.668 134.103C182.428 134.583 182.048 135.095 181.528 135.639L179.44 137.835H183.376V138.879H177.88Z" fill="#9E9E9E"/>
<rect x="40" y="159.249" width="53" height="24" rx="5" fill="#EDE7F6"/>
<g clip-path="url(#clip1_446_2788)">
<path d="M62.5 170.999C62.5017 171.658 62.3475 172.309 62.05 172.899C61.6972 173.604 61.1549 174.198 60.4837 174.613C59.8126 175.028 59.0391 175.248 58.25 175.249C57.5901 175.25 56.9391 175.096 56.35 174.799L53.5 175.749L54.45 172.899C54.1525 172.309 53.9983 171.658 54 170.999C54.0003 170.209 54.2203 169.436 54.6354 168.765C55.0504 168.094 55.6441 167.551 56.35 167.199C56.9391 166.901 57.5901 166.747 58.25 166.749H58.5C59.5422 166.806 60.5265 167.246 61.2646 167.984C62.0026 168.722 62.4425 169.706 62.5 170.749V170.999Z" stroke="black" stroke-width="1.5" stroke-linecap="round" stroke-linejoin="round"/>
</g>
<path d="M76.468 175.357C75.9 175.357 75.36 175.273 74.848 175.105C74.336 174.929 73.908 174.685 73.564 174.373L73.996 173.413C74.372 173.717 74.76 173.941 75.16 174.085C75.56 174.229 75.984 174.301 76.432 174.301C77.008 174.301 77.444 174.177 77.74 173.929C78.044 173.681 78.196 173.325 78.196 172.861C78.196 172.397 78.044 172.053 77.74 171.829C77.444 171.605 77.012 171.493 76.444 171.493H75.136V170.449H76.324C76.828 170.449 77.224 170.321 77.512 170.065C77.808 169.809 77.956 169.457 77.956 169.009C77.956 168.601 77.82 168.289 77.548 168.073C77.276 167.849 76.888 167.737 76.384 167.737C75.528 167.737 74.78 168.045 74.14 168.661L73.708 167.713C74.036 167.385 74.444 167.133 74.932 166.957C75.428 166.773 75.944 166.681 76.48 166.681C77.328 166.681 77.988 166.877 78.46 167.269C78.932 167.653 79.168 168.189 79.168 168.877C79.168 169.341 79.048 169.749 78.808 170.101C78.576 170.453 78.252 170.709 77.836 170.869C78.34 170.997 78.728 171.245 79 171.613C79.272 171.973 79.408 172.417 79.408 172.945C79.408 173.689 79.144 174.277 78.616 174.709C78.096 175.141 77.38 175.357 76.468 175.357Z" fill="black"/>
<rect x="109" y="159.249" width="64" height="24" rx="5" fill="#EDE7F6"/>
<g clip-path="url(#clip2_446_2788)">
<path d="M132 170.789V171.249C131.999 172.327 131.65 173.376 131.005 174.24C130.359 175.103 129.452 175.735 128.418 176.041C127.384 176.346 126.279 176.31 125.267 175.936C124.256 175.562 123.392 174.872 122.805 173.967C122.219 173.063 121.94 171.993 122.011 170.917C122.082 169.841 122.499 168.817 123.199 167.997C123.9 167.177 124.846 166.606 125.898 166.369C126.95 166.131 128.05 166.24 129.035 166.679" stroke="black" stroke-width="1.5" stroke-linecap="round" stroke-linejoin="round"/>
<path d="M132 167.249L127 172.254L125.5 170.754" stroke="black" stroke-width="1.5" stroke-linecap="round" stroke-linejoin="round"/>
</g>
<path d="M143.02 175.249V174.325L145.84 171.301C146.232 170.877 146.512 170.493 146.68 170.149C146.856 169.805 146.944 169.457 146.944 169.105C146.944 168.193 146.408 167.737 145.336 167.737C144.52 167.737 143.788 168.045 143.14 168.661L142.696 167.713C143.016 167.401 143.424 167.153 143.92 166.969C144.416 166.777 144.932 166.681 145.468 166.681C146.34 166.681 147.008 166.881 147.472 167.281C147.944 167.681 148.18 168.253 148.18 168.997C148.18 169.501 148.056 169.993 147.808 170.473C147.568 170.953 147.188 171.465 146.668 172.009L144.58 174.205H148.516V175.249H143.02ZM150.251 176.041L149.327 175.765L152.411 166.189L153.347 166.465L150.251 176.041ZM157.078 175.357C156.11 175.357 155.354 175.149 154.81 174.733C154.274 174.317 154.006 173.737 154.006 172.993C154.006 172.473 154.142 172.033 154.414 171.673C154.694 171.305 155.058 171.053 155.506 170.917C155.106 170.749 154.79 170.493 154.558 170.149C154.326 169.797 154.21 169.393 154.21 168.937C154.21 168.233 154.47 167.681 154.99 167.281C155.51 166.881 156.206 166.681 157.078 166.681C157.958 166.681 158.658 166.881 159.178 167.281C159.698 167.681 159.958 168.233 159.958 168.937C159.958 169.393 159.838 169.797 159.598 170.149C159.366 170.501 159.05 170.757 158.65 170.917C159.106 171.053 159.47 171.305 159.742 171.673C160.014 172.033 160.15 172.473 160.15 172.993C160.15 173.737 159.878 174.317 159.334 174.733C158.798 175.149 158.046 175.357 157.078 175.357ZM157.078 170.473C157.614 170.473 158.03 170.349 158.326 170.101C158.63 169.845 158.782 169.497 158.782 169.057C158.782 168.625 158.63 168.285 158.326 168.037C158.03 167.789 157.614 167.665 157.078 167.665C156.542 167.665 156.126 167.789 155.83 168.037C155.534 168.285 155.386 168.625 155.386 169.057C155.386 169.497 155.534 169.845 155.83 170.101C156.126 170.349 156.542 170.473 157.078 170.473ZM157.078 174.373C158.35 174.373 158.986 173.885 158.986 172.909C158.986 171.941 158.35 171.457 157.078 171.457C156.454 171.457 155.978 171.577 155.65 171.817C155.33 172.057 155.17 172.421 155.17 172.909C155.17 173.885 155.806 174.373 157.078 174.373Z" fill="black"/>
<rect x="189" y="159.249" width="53" height="24" rx="5" fill="#EDE7F6"/>
<g clip-path="url(#clip3_446_2788)">
<path d="M211.72 170.773L207.125 175.368C206.562 175.931 205.798 176.248 205.002 176.248C204.206 176.248 203.443 175.931 202.88 175.368C202.317 174.806 202.001 174.042 202.001 173.246C202.001 172.45 202.317 171.686 202.88 171.123L207.475 166.528C207.85 166.153 208.359 165.942 208.89 165.942C209.421 165.942 209.93 166.153 210.305 166.528C210.68 166.904 210.891 167.413 210.891 167.943C210.891 168.474 210.68 168.983 210.305 169.358L205.705 173.953C205.517 174.141 205.263 174.247 204.997 174.247C204.732 174.247 204.478 174.141 204.29 173.953C204.102 173.766 203.997 173.511 203.997 173.246C203.997 172.981 204.102 172.726 204.29 172.538L208.535 168.298" stroke="black" stroke-width="1.5" stroke-linecap="round" stroke-linejoin="round"/>
</g>
<path d="M226.368 175.249V173.533H222.564V172.609L226.584 166.789H227.604V172.489H228.84V173.533H227.604V175.249H226.368ZM226.368 172.489V168.733L223.8 172.489H226.368Z" fill="black"/>
<g clip-path="url(#clip4_446_2788)">
<rect x="40" y="207.249" width="215" height="8" rx="4" fill="#EDE7F6"/>
<rect width="118" height="10" transform="translate(40 205.564)" fill="#673AB7"/>
</g>
<path d="M40.984 235.249V226.789H44.488C45.4 226.789 46.104 227.017 46.6 227.473C47.096 227.921 47.344 228.553 47.344 229.369C47.344 230.193 47.096 230.833 46.6 231.289C46.104 231.737 45.4 231.961 44.488 231.961H42.232V235.249H40.984ZM42.232 230.965H44.308C45.524 230.965 46.132 230.433 46.132 229.369C46.132 228.313 45.524 227.785 44.308 227.785H42.232V230.965ZM48.794 235.249V229.393H49.97V230.437C50.274 229.741 50.906 229.353 51.866 229.273L52.262 229.249L52.346 230.281L51.614 230.353C50.55 230.457 50.018 231.005 50.018 231.997V235.249H48.794ZM56.0926 235.357C55.5006 235.357 54.9886 235.233 54.5566 234.985C54.1246 234.737 53.7886 234.389 53.5486 233.941C53.3166 233.485 53.2006 232.945 53.2006 232.321C53.2006 231.697 53.3166 231.161 53.5486 230.713C53.7886 230.257 54.1246 229.905 54.5566 229.657C54.9886 229.409 55.5006 229.285 56.0926 229.285C56.6686 229.285 57.1726 229.409 57.6046 229.657C58.0366 229.905 58.3726 230.257 58.6126 230.713C58.8526 231.161 58.9726 231.697 58.9726 232.321C58.9726 232.945 58.8526 233.485 58.6126 233.941C58.3726 234.389 58.0366 234.737 57.6046 234.985C57.1726 235.233 56.6686 235.357 56.0926 235.357ZM56.0926 234.421C56.5886 234.421 56.9886 234.241 57.2926 233.881C57.5966 233.521 57.7486 233.001 57.7486 232.321C57.7486 231.641 57.5966 231.125 57.2926 230.773C56.9886 230.413 56.5886 230.233 56.0926 230.233C55.5886 230.233 55.1846 230.413 54.8806 230.773C54.5766 231.125 54.4246 231.641 54.4246 232.321C54.4246 233.001 54.5766 233.521 54.8806 233.881C55.1846 234.241 55.5886 234.421 56.0926 234.421ZM63.3457 237.517C62.8177 237.517 62.3257 237.453 61.8697 237.325C61.4137 237.205 61.0097 237.013 60.6577 236.749L61.0297 235.885C61.3817 236.125 61.7417 236.301 62.1097 236.413C62.4777 236.525 62.8617 236.581 63.2617 236.581C64.3817 236.581 64.9417 236.021 64.9417 234.901V233.977C64.7737 234.329 64.5097 234.605 64.1497 234.805C63.7977 235.005 63.4017 235.105 62.9617 235.105C62.4337 235.105 61.9737 234.985 61.5817 234.745C61.1897 234.497 60.8857 234.157 60.6697 233.725C60.4537 233.285 60.3457 232.773 60.3457 232.189C60.3457 231.613 60.4537 231.109 60.6697 230.677C60.8857 230.237 61.1897 229.897 61.5817 229.657C61.9737 229.409 62.4337 229.285 62.9617 229.285C63.4097 229.285 63.8097 229.385 64.1617 229.585C64.5137 229.785 64.7737 230.061 64.9417 230.413V229.393H66.1177V234.757C66.1177 235.677 65.8817 236.365 65.4097 236.821C64.9377 237.285 64.2497 237.517 63.3457 237.517ZM63.2497 234.157C63.7617 234.157 64.1697 233.981 64.4737 233.629C64.7777 233.277 64.9297 232.797 64.9297 232.189C64.9297 231.581 64.7777 231.105 64.4737 230.761C64.1697 230.409 63.7617 230.233 63.2497 230.233C62.7377 230.233 62.3297 230.409 62.0257 230.761C61.7217 231.105 61.5697 231.581 61.5697 232.189C61.5697 232.797 61.7217 233.277 62.0257 233.629C62.3297 233.981 62.7377 234.157 63.2497 234.157ZM68.1787 235.249V229.393H69.3547V230.437C69.6587 229.741 70.2907 229.353 71.2507 229.273L71.6467 229.249L71.7307 230.281L70.9987 230.353C69.9347 230.457 69.4027 231.005 69.4027 231.997V235.249H68.1787ZM75.6812 235.357C74.7212 235.357 73.9652 235.089 73.4132 234.553C72.8612 234.009 72.5852 233.269 72.5852 232.333C72.5852 231.733 72.7052 231.205 72.9452 230.749C73.1932 230.285 73.5332 229.925 73.9652 229.669C74.3972 229.413 74.8932 229.285 75.4532 229.285C76.2612 229.285 76.8972 229.545 77.3612 230.065C77.8252 230.577 78.0572 231.285 78.0572 232.189V232.597H73.7612C73.8492 233.813 74.4932 234.421 75.6932 234.421C76.0292 234.421 76.3572 234.369 76.6772 234.265C77.0052 234.161 77.3132 233.989 77.6012 233.749L77.9612 234.589C77.6972 234.829 77.3572 235.017 76.9412 235.153C76.5252 235.289 76.1052 235.357 75.6812 235.357ZM75.5012 230.137C74.9972 230.137 74.5972 230.293 74.3012 230.605C74.0052 230.917 73.8252 231.333 73.7612 231.853H77.0372C77.0132 231.309 76.8692 230.889 76.6052 230.593C76.3412 230.289 75.9732 230.137 75.5012 230.137ZM81.7906 235.357C81.3106 235.357 80.8626 235.297 80.4466 235.177C80.0306 235.049 79.6826 234.873 79.4026 234.649L79.7506 233.833C80.0466 234.041 80.3706 234.201 80.7226 234.313C81.0826 234.425 81.4426 234.481 81.8026 234.481C82.2266 234.481 82.5466 234.405 82.7626 234.253C82.9786 234.101 83.0866 233.897 83.0866 233.641C83.0866 233.433 83.0146 233.273 82.8706 233.161C82.7266 233.041 82.5106 232.949 82.2226 232.885L81.0826 232.657C80.0746 232.449 79.5706 231.929 79.5706 231.097C79.5706 230.545 79.7906 230.105 80.2306 229.777C80.6706 229.449 81.2466 229.285 81.9586 229.285C82.3666 229.285 82.7546 229.345 83.1226 229.465C83.4986 229.585 83.8106 229.765 84.0586 230.005L83.7106 230.821C83.4706 230.613 83.1946 230.453 82.8826 230.341C82.5706 230.229 82.2626 230.173 81.9586 230.173C81.5426 230.173 81.2266 230.253 81.0106 230.413C80.7946 230.565 80.6866 230.773 80.6866 231.037C80.6866 231.437 80.9506 231.693 81.4786 231.805L82.6186 232.033C83.1386 232.137 83.5306 232.313 83.7946 232.561C84.0666 232.809 84.2026 233.145 84.2026 233.569C84.2026 234.129 83.9826 234.569 83.5426 234.889C83.1026 235.201 82.5186 235.357 81.7906 235.357ZM87.9631 235.357C87.4831 235.357 87.0351 235.297 86.6191 235.177C86.2031 235.049 85.8551 234.873 85.5751 234.649L85.9231 233.833C86.2191 234.041 86.5431 234.201 86.8951 234.313C87.2551 234.425 87.6151 234.481 87.9751 234.481C88.3991 234.481 88.7191 234.405 88.9351 234.253C89.1511 234.101 89.2591 233.897 89.2591 233.641C89.2591 233.433 89.1871 233.273 89.0431 233.161C88.8991 233.041 88.6831 232.949 88.3951 232.885L87.2551 232.657C86.2471 232.449 85.7431 231.929 85.7431 231.097C85.7431 230.545 85.9631 230.105 86.4031 229.777C86.8431 229.449 87.4191 229.285 88.1311 229.285C88.5391 229.285 88.9271 229.345 89.2951 229.465C89.6711 229.585 89.9831 229.765 90.2311 230.005L89.8831 230.821C89.6431 230.613 89.3671 230.453 89.0551 230.341C88.7431 230.229 88.4351 230.173 88.1311 230.173C87.7151 230.173 87.3991 230.253 87.1831 230.413C86.9671 230.565 86.8591 230.773 86.8591 231.037C86.8591 231.437 87.1231 231.693 87.6511 231.805L88.7911 232.033C89.3111 232.137 89.7031 232.313 89.9671 232.561C90.2391 232.809 90.3751 233.145 90.3751 233.569C90.3751 234.129 90.1551 234.569 89.7151 234.889C89.2751 235.201 88.6911 235.357 87.9631 235.357Z" fill="black"/>
<path d="M232.368 235.249V233.533H228.564V232.609L232.584 226.789H233.604V232.489H234.84V233.533H233.604V235.249H232.368ZM232.368 232.489V228.733L229.8 232.489H232.368ZM239.155 235.357C238.171 235.357 237.419 234.985 236.899 234.241C236.387 233.489 236.131 232.413 236.131 231.013C236.131 229.589 236.387 228.513 236.899 227.785C237.419 227.049 238.171 226.681 239.155 226.681C240.147 226.681 240.899 227.049 241.411 227.785C241.923 228.513 242.179 229.585 242.179 231.001C242.179 232.409 241.919 233.489 241.399 234.241C240.887 234.985 240.139 235.357 239.155 235.357ZM239.155 234.325C239.763 234.325 240.215 234.057 240.511 233.521C240.807 232.985 240.955 232.145 240.955 231.001C240.955 229.857 240.807 229.025 240.511 228.505C240.223 227.977 239.771 227.713 239.155 227.713C238.547 227.713 238.095 227.977 237.799 228.505C237.503 229.033 237.355 229.865 237.355 231.001C237.355 232.145 237.503 232.985 237.799 233.521C238.095 234.057 238.547 234.325 239.155 234.325ZM246.663 235.561L245.847 235.081L250.803 226.477L251.619 226.957L246.663 235.561ZM245.799 231.853C245.143 231.853 244.631 231.625 244.263 231.169C243.895 230.705 243.711 230.069 243.711 229.261C243.711 228.453 243.895 227.821 244.263 227.365C244.639 226.909 245.151 226.681 245.799 226.681C246.447 226.681 246.955 226.909 247.323 227.365C247.699 227.821 247.887 228.453 247.887 229.261C247.887 230.069 247.703 230.705 247.335 231.169C246.967 231.625 246.455 231.853 245.799 231.853ZM245.799 231.001C246.135 231.001 246.395 230.857 246.579 230.569C246.771 230.281 246.867 229.845 246.867 229.261C246.867 228.677 246.771 228.241 246.579 227.953C246.395 227.665 246.135 227.521 245.799 227.521C245.463 227.521 245.199 227.665 245.007 227.953C244.823 228.241 244.731 228.677 244.731 229.261C244.731 229.853 244.823 230.293 245.007 230.581C245.199 230.861 245.463 231.001 245.799 231.001ZM251.667 235.357C251.019 235.357 250.511 235.129 250.143 234.673C249.775 234.217 249.591 233.581 249.591 232.765C249.591 231.965 249.775 231.337 250.143 230.881C250.511 230.417 251.019 230.185 251.667 230.185C252.323 230.185 252.835 230.417 253.203 230.881C253.571 231.337 253.755 231.965 253.755 232.765C253.755 233.581 253.571 234.217 253.203 234.673C252.835 235.129 252.323 235.357 251.667 235.357ZM251.667 234.517C252.003 234.517 252.263 234.373 252.447 234.085C252.639 233.797 252.735 233.357 252.735 232.765C252.735 232.189 252.639 231.757 252.447 231.469C252.263 231.181 252.003 231.037 251.667 231.037C251.331 231.037 251.067 231.181 250.875 231.469C250.691 231.749 250.599 232.181 250.599 232.765C250.599 233.357 250.691 233.797 250.875 234.085C251.067 234.373 251.331 234.517 251.667 234.517Z" fill="black"/>
</g>
<g filter="url(#filter2_d_446_2788)">
<rect x="241" y="141.904" width="247" height="204.255" rx="10" fill="white"/>
<circle cx="278.685" cy="199.589" r="21.6848" fill="#FFF8E1"/>
<path d="M280.685 189.589H272.685C272.154 189.589 271.645 189.8 271.27 190.175C270.895 190.55 270.685 191.059 270.685 191.589V207.589C270.685 208.12 270.895 208.628 271.27 209.003C271.645 209.378 272.154 209.589 272.685 209.589H284.685C285.215 209.589 285.724 209.378 286.099 209.003C286.474 208.628 286.685 208.12 286.685 207.589V195.589L280.685 189.589Z" stroke="#FFB300" stroke-width="2" stroke-linecap="round" stroke-linejoin="round"/>
<path d="M282.685 204.589H274.685" stroke="#FFB300" stroke-width="2" stroke-linecap="round" stroke-linejoin="round"/>
<path d="M282.685 200.589H274.685" stroke="#FFB300" stroke-width="2" stroke-linecap="round" stroke-linejoin="round"/>
<path d="M276.685 196.589H275.685H274.685" stroke="#FFB300" stroke-width="2" stroke-linecap="round" stroke-linejoin="round"/>
<path d="M280.685 189.589V195.589H286.685" stroke="#FFB300" stroke-width="2" stroke-linecap="round" stroke-linejoin="round"/>
<path d="M313.218 195.089L308.194 183.809H310.386L314.114 192.465L317.842 183.809H319.954L314.93 195.089H313.218ZM321.056 195.089V193.569L324.704 189.681C325.195 189.148 325.547 188.678 325.76 188.273C325.973 187.857 326.08 187.436 326.08 187.009C326.08 185.921 325.424 185.377 324.112 185.377C323.088 185.377 322.144 185.761 321.28 186.529L320.592 184.993C321.04 184.588 321.6 184.262 322.272 184.017C322.944 183.772 323.643 183.649 324.368 183.649C325.573 183.649 326.496 183.921 327.136 184.465C327.787 185.009 328.112 185.788 328.112 186.801C328.112 187.484 327.947 188.14 327.616 188.769C327.296 189.398 326.789 190.076 326.096 190.801L323.616 193.393H328.544V195.089H321.056ZM334.914 195.089V183.809H339.81C341.047 183.809 342.002 184.118 342.674 184.737C343.346 185.356 343.682 186.22 343.682 187.329C343.682 188.438 343.346 189.308 342.674 189.937C342.002 190.556 341.047 190.865 339.81 190.865H336.962V195.089H334.914ZM336.962 189.249H339.49C340.962 189.249 341.698 188.609 341.698 187.329C341.698 186.06 340.962 185.425 339.49 185.425H336.962V189.249ZM345.003 195.089V187.265H346.955V188.641C347.339 187.713 348.161 187.201 349.419 187.105L350.027 187.057L350.155 188.753L349.003 188.865C347.691 188.993 347.035 189.665 347.035 190.881V195.089H345.003ZM354.712 195.249C353.901 195.249 353.197 195.084 352.6 194.753C352.003 194.422 351.539 193.953 351.208 193.345C350.877 192.726 350.712 192.001 350.712 191.169C350.712 190.337 350.877 189.617 351.208 189.009C351.539 188.401 352.003 187.932 352.6 187.601C353.197 187.27 353.901 187.105 354.712 187.105C355.523 187.105 356.227 187.27 356.824 187.601C357.421 187.932 357.885 188.401 358.216 189.009C358.547 189.617 358.712 190.337 358.712 191.169C358.712 192.001 358.547 192.726 358.216 193.345C357.885 193.953 357.421 194.422 356.824 194.753C356.227 195.084 355.523 195.249 354.712 195.249ZM354.712 193.729C355.309 193.729 355.789 193.516 356.152 193.089C356.515 192.652 356.696 192.012 356.696 191.169C356.696 190.316 356.515 189.681 356.152 189.265C355.789 188.838 355.309 188.625 354.712 188.625C354.115 188.625 353.635 188.838 353.272 189.265C352.909 189.681 352.728 190.316 352.728 191.169C352.728 192.012 352.909 192.652 353.272 193.089C353.635 193.516 354.115 193.729 354.712 193.729ZM363.371 195.249C362.688 195.249 362.085 195.084 361.563 194.753C361.051 194.422 360.651 193.953 360.363 193.345C360.075 192.726 359.931 192.001 359.931 191.169C359.931 190.326 360.075 189.606 360.363 189.009C360.651 188.401 361.051 187.932 361.563 187.601C362.085 187.27 362.688 187.105 363.371 187.105C363.925 187.105 364.427 187.228 364.875 187.473C365.323 187.718 365.659 188.044 365.883 188.449V183.809H367.883V195.089H365.931V193.793C365.717 194.241 365.381 194.598 364.923 194.865C364.464 195.121 363.947 195.249 363.371 195.249ZM363.931 193.729C364.528 193.729 365.008 193.516 365.371 193.089C365.733 192.652 365.915 192.012 365.915 191.169C365.915 190.316 365.733 189.681 365.371 189.265C365.008 188.838 364.528 188.625 363.931 188.625C363.333 188.625 362.853 188.838 362.491 189.265C362.128 189.681 361.947 190.316 361.947 191.169C361.947 192.012 362.128 192.652 362.491 193.089C362.853 193.516 363.333 193.729 363.931 193.729ZM372.789 195.249C370.869 195.249 369.909 194.172 369.909 192.017V187.265H371.909V192.049C371.909 192.604 372.021 193.014 372.245 193.281C372.469 193.548 372.826 193.681 373.317 193.681C373.85 193.681 374.287 193.5 374.629 193.137C374.97 192.764 375.141 192.273 375.141 191.665V187.265H377.141V195.089H375.189V193.921C374.666 194.806 373.866 195.249 372.789 195.249ZM382.838 195.249C382.017 195.249 381.302 195.084 380.694 194.753C380.086 194.412 379.617 193.932 379.286 193.313C378.955 192.694 378.79 191.969 378.79 191.137C378.79 190.305 378.955 189.59 379.286 188.993C379.617 188.385 380.086 187.921 380.694 187.601C381.302 187.27 382.017 187.105 382.838 187.105C383.339 187.105 383.835 187.185 384.326 187.345C384.817 187.505 385.222 187.729 385.542 188.017L384.95 189.409C384.673 189.164 384.358 188.977 384.006 188.849C383.665 188.721 383.334 188.657 383.014 188.657C382.321 188.657 381.782 188.876 381.398 189.313C381.025 189.74 380.838 190.353 380.838 191.153C380.838 191.942 381.025 192.566 381.398 193.025C381.782 193.473 382.321 193.697 383.014 193.697C383.323 193.697 383.654 193.633 384.006 193.505C384.358 193.377 384.673 193.185 384.95 192.929L385.542 194.337C385.222 194.614 384.811 194.838 384.31 195.009C383.819 195.169 383.329 195.249 382.838 195.249ZM390.384 195.249C388.315 195.249 387.28 194.225 387.28 192.177V188.769H385.776V187.265H387.28V184.929H389.28V187.265H391.648V188.769H389.28V192.065C389.28 192.577 389.392 192.961 389.616 193.217C389.84 193.473 390.203 193.601 390.704 193.601C390.854 193.601 391.008 193.585 391.168 193.553C391.328 193.51 391.494 193.468 391.664 193.425L391.968 194.897C391.776 195.004 391.531 195.089 391.232 195.153C390.944 195.217 390.662 195.249 390.384 195.249ZM397.445 195.089V183.809H402.373C403.557 183.809 404.475 184.07 405.125 184.593C405.776 185.105 406.101 185.82 406.101 186.737C406.101 187.345 405.947 187.868 405.637 188.305C405.328 188.742 404.901 189.062 404.357 189.265C404.997 189.446 405.493 189.766 405.845 190.225C406.208 190.673 406.389 191.244 406.389 191.937C406.389 192.94 406.048 193.718 405.365 194.273C404.693 194.817 403.755 195.089 402.549 195.089H397.445ZM399.413 188.593H402.021C403.419 188.593 404.117 188.054 404.117 186.977C404.117 185.9 403.419 185.361 402.021 185.361H399.413V188.593ZM399.413 193.537H402.293C403.701 193.537 404.405 192.972 404.405 191.841C404.405 190.71 403.701 190.145 402.293 190.145H399.413V193.537ZM408.269 195.089V187.265H410.221V188.641C410.605 187.713 411.426 187.201 412.685 187.105L413.293 187.057L413.421 188.753L412.269 188.865C410.957 188.993 410.301 189.665 410.301 190.881V195.089H408.269ZM417.033 195.249C416.467 195.249 415.961 195.142 415.513 194.929C415.075 194.705 414.729 194.406 414.473 194.033C414.227 193.66 414.105 193.238 414.105 192.769C414.105 192.193 414.254 191.74 414.553 191.409C414.851 191.068 415.337 190.822 416.009 190.673C416.681 190.524 417.582 190.449 418.713 190.449H419.273V190.113C419.273 189.58 419.155 189.196 418.921 188.961C418.686 188.726 418.291 188.609 417.737 188.609C417.299 188.609 416.851 188.678 416.393 188.817C415.934 188.945 415.47 189.148 415.001 189.425L414.425 188.065C414.702 187.873 415.027 187.708 415.401 187.569C415.785 187.42 416.185 187.308 416.601 187.233C417.027 187.148 417.427 187.105 417.801 187.105C418.942 187.105 419.79 187.372 420.345 187.905C420.899 188.428 421.177 189.244 421.177 190.353V195.089H419.305V193.841C419.123 194.278 418.835 194.625 418.441 194.881C418.046 195.126 417.577 195.249 417.033 195.249ZM417.449 193.873C417.971 193.873 418.403 193.692 418.745 193.329C419.097 192.966 419.273 192.508 419.273 191.953V191.601H418.729C417.726 191.601 417.027 191.681 416.633 191.841C416.249 191.99 416.057 192.268 416.057 192.673C416.057 193.025 416.179 193.313 416.425 193.537C416.67 193.761 417.011 193.873 417.449 193.873ZM423.207 195.089V187.265H425.159V188.481C425.425 188.033 425.783 187.692 426.231 187.457C426.689 187.222 427.201 187.105 427.767 187.105C429.612 187.105 430.535 188.177 430.535 190.321V195.089H428.535V190.417C428.535 189.809 428.417 189.366 428.183 189.089C427.959 188.812 427.607 188.673 427.127 188.673C426.54 188.673 426.071 188.86 425.719 189.233C425.377 189.596 425.207 190.081 425.207 190.689V195.089H423.207ZM435.574 195.249C434.891 195.249 434.289 195.084 433.766 194.753C433.254 194.422 432.854 193.953 432.566 193.345C432.278 192.726 432.134 192.001 432.134 191.169C432.134 190.326 432.278 189.606 432.566 189.009C432.854 188.401 433.254 187.932 433.766 187.601C434.289 187.27 434.891 187.105 435.574 187.105C436.129 187.105 436.63 187.228 437.078 187.473C437.526 187.718 437.862 188.044 438.086 188.449V183.809H440.086V195.089H438.134V193.793C437.921 194.241 437.585 194.598 437.126 194.865C436.667 195.121 436.15 195.249 435.574 195.249ZM436.134 193.729C436.731 193.729 437.211 193.516 437.574 193.089C437.937 192.652 438.118 192.012 438.118 191.169C438.118 190.316 437.937 189.681 437.574 189.265C437.211 188.838 436.731 188.625 436.134 188.625C435.537 188.625 435.057 188.838 434.694 189.265C434.331 189.681 434.15 190.316 434.15 191.169C434.15 192.012 434.331 192.652 434.694 193.089C435.057 193.516 435.537 193.729 436.134 193.729ZM442.032 185.585V183.633H444.272V185.585H442.032ZM442.16 195.089V187.265H444.16V195.089H442.16ZM446.238 195.089V187.265H448.19V188.481C448.456 188.033 448.814 187.692 449.262 187.457C449.72 187.222 450.232 187.105 450.798 187.105C452.643 187.105 453.566 188.177 453.566 190.321V195.089H451.566V190.417C451.566 189.809 451.448 189.366 451.214 189.089C450.99 188.812 450.638 188.673 450.158 188.673C449.571 188.673 449.102 188.86 448.75 189.233C448.408 189.596 448.238 190.081 448.238 190.689V195.089H446.238ZM459.245 198.129C458.52 198.129 457.837 198.044 457.197 197.873C456.568 197.713 456.013 197.462 455.533 197.121L456.109 195.729C456.557 196.028 457.037 196.246 457.549 196.385C458.061 196.534 458.573 196.609 459.085 196.609C460.514 196.609 461.229 195.921 461.229 194.545V193.473C461.005 193.91 460.658 194.257 460.189 194.513C459.73 194.769 459.218 194.897 458.653 194.897C457.949 194.897 457.336 194.737 456.813 194.417C456.29 194.086 455.885 193.628 455.597 193.041C455.309 192.454 455.165 191.772 455.165 190.993C455.165 190.214 455.309 189.537 455.597 188.961C455.885 188.374 456.29 187.921 456.813 187.601C457.336 187.27 457.949 187.105 458.653 187.105C459.24 187.105 459.762 187.238 460.221 187.505C460.68 187.761 461.016 188.108 461.229 188.545V187.265H463.181V194.305C463.181 195.574 462.845 196.529 462.173 197.169C461.501 197.809 460.525 198.129 459.245 198.129ZM459.197 193.377C459.816 193.377 460.306 193.164 460.669 192.737C461.032 192.31 461.213 191.729 461.213 190.993C461.213 190.257 461.032 189.681 460.669 189.265C460.306 188.838 459.816 188.625 459.197 188.625C458.578 188.625 458.088 188.838 457.725 189.265C457.362 189.681 457.181 190.257 457.181 190.993C457.181 191.729 457.362 192.31 457.725 192.737C458.088 193.164 458.578 193.377 459.197 193.377Z" fill="black"/>
<g clip-path="url(#clip5_446_2788)">
<path d="M315.37 218.922C318.591 218.922 321.203 216.311 321.203 213.089C321.203 209.867 318.591 207.256 315.37 207.256C312.148 207.256 309.536 209.867 309.536 213.089C309.536 216.311 312.148 218.922 315.37 218.922Z" stroke="#9E9E9E" stroke-width="2" stroke-linecap="round" stroke-linejoin="round"/>
<path d="M315.37 209.589V213.089L317.703 214.256" stroke="#9E9E9E" stroke-width="2" stroke-linecap="round" stroke-linejoin="round"/>
</g>
<path d="M330.378 217.089V208.629H331.422L334.554 214.473L337.674 208.629H338.694V217.089H337.578V210.885L334.926 215.793H334.17L331.506 210.909V217.089H330.378ZM342.79 217.197C342.382 217.197 342.018 217.117 341.698 216.957C341.378 216.797 341.122 216.581 340.93 216.309C340.746 216.037 340.654 215.729 340.654 215.385C340.654 214.953 340.762 214.613 340.978 214.365C341.202 214.117 341.566 213.937 342.07 213.825C342.582 213.713 343.27 213.657 344.134 213.657H344.542V213.345C344.542 212.889 344.446 212.561 344.254 212.361C344.062 212.161 343.746 212.061 343.306 212.061C342.97 212.061 342.634 212.113 342.298 212.217C341.962 212.313 341.618 212.469 341.266 212.685L340.894 211.833C341.198 211.617 341.578 211.445 342.034 211.317C342.49 211.189 342.926 211.125 343.342 211.125C344.142 211.125 344.734 211.317 345.118 211.701C345.502 212.077 345.694 212.669 345.694 213.477V217.089H344.554V216.117C344.41 216.453 344.186 216.717 343.882 216.909C343.578 217.101 343.214 217.197 342.79 217.197ZM343.03 216.333C343.462 216.333 343.822 216.181 344.11 215.877C344.398 215.573 344.542 215.189 344.542 214.725V214.401H344.146C343.562 214.401 343.102 214.429 342.766 214.485C342.438 214.541 342.202 214.637 342.058 214.773C341.922 214.901 341.854 215.081 341.854 215.313C341.854 215.617 341.958 215.865 342.166 216.057C342.374 216.241 342.662 216.333 343.03 216.333ZM348.264 219.249L349.308 216.933L346.86 211.233H348.156L349.956 215.685L351.78 211.233H353.028L349.536 219.249H348.264ZM360.651 217.197C360.107 217.197 359.579 217.113 359.067 216.945C358.563 216.769 358.143 216.525 357.807 216.213L358.227 215.253C358.963 215.845 359.763 216.141 360.627 216.141C361.179 216.141 361.611 215.993 361.923 215.697C362.235 215.393 362.391 214.997 362.391 214.509C362.391 214.005 362.243 213.593 361.947 213.273C361.651 212.953 361.239 212.793 360.711 212.793C359.967 212.793 359.371 213.101 358.923 213.717H358.059V208.629H363.099V209.673H359.271V212.349C359.719 211.957 360.287 211.761 360.975 211.761C361.511 211.761 361.975 211.873 362.367 212.097C362.759 212.321 363.063 212.637 363.279 213.045C363.495 213.445 363.603 213.913 363.603 214.449C363.603 214.993 363.483 215.473 363.243 215.889C363.003 216.297 362.663 216.617 362.223 216.849C361.783 217.081 361.259 217.197 360.651 217.197ZM365.794 218.565L365.266 218.157C365.45 217.957 365.586 217.773 365.674 217.605C365.762 217.437 365.818 217.265 365.842 217.089H365.182V215.661H366.61V216.633C366.61 217.001 366.55 217.337 366.43 217.641C366.31 217.953 366.098 218.261 365.794 218.565ZM372.214 217.089V216.165L375.034 213.141C375.426 212.717 375.706 212.333 375.874 211.989C376.05 211.645 376.138 211.297 376.138 210.945C376.138 210.033 375.602 209.577 374.53 209.577C373.714 209.577 372.982 209.885 372.334 210.501L371.89 209.553C372.21 209.241 372.618 208.993 373.114 208.809C373.61 208.617 374.126 208.521 374.662 208.521C375.534 208.521 376.202 208.721 376.666 209.121C377.138 209.521 377.374 210.093 377.374 210.837C377.374 211.341 377.25 211.833 377.002 212.313C376.762 212.793 376.382 213.305 375.862 213.849L373.774 216.045H377.71V217.089H372.214ZM382.35 217.197C381.366 217.197 380.614 216.825 380.094 216.081C379.582 215.329 379.326 214.253 379.326 212.853C379.326 211.429 379.582 210.353 380.094 209.625C380.614 208.889 381.366 208.521 382.35 208.521C383.342 208.521 384.094 208.889 384.606 209.625C385.118 210.353 385.374 211.425 385.374 212.841C385.374 214.249 385.114 215.329 384.594 216.081C384.082 216.825 383.334 217.197 382.35 217.197ZM382.35 216.165C382.958 216.165 383.41 215.897 383.706 215.361C384.002 214.825 384.15 213.985 384.15 212.841C384.15 211.697 384.002 210.865 383.706 210.345C383.418 209.817 382.966 209.553 382.35 209.553C381.742 209.553 381.29 209.817 380.994 210.345C380.698 210.873 380.55 211.705 380.55 212.841C380.55 213.985 380.698 214.825 380.994 215.361C381.29 215.897 381.742 216.165 382.35 216.165ZM387.325 217.089V216.165L390.145 213.141C390.537 212.717 390.817 212.333 390.985 211.989C391.161 211.645 391.249 211.297 391.249 210.945C391.249 210.033 390.713 209.577 389.641 209.577C388.825 209.577 388.093 209.885 387.445 210.501L387.001 209.553C387.321 209.241 387.729 208.993 388.225 208.809C388.721 208.617 389.237 208.521 389.773 208.521C390.645 208.521 391.313 208.721 391.777 209.121C392.249 209.521 392.485 210.093 392.485 210.837C392.485 211.341 392.361 211.833 392.113 212.313C391.873 212.793 391.493 213.305 390.973 213.849L388.885 216.045H392.821V217.089H387.325ZM394.88 217.089V216.165L397.7 213.141C398.092 212.717 398.372 212.333 398.54 211.989C398.716 211.645 398.804 211.297 398.804 210.945C398.804 210.033 398.268 209.577 397.196 209.577C396.38 209.577 395.648 209.885 395 210.501L394.556 209.553C394.876 209.241 395.284 208.993 395.78 208.809C396.276 208.617 396.792 208.521 397.328 208.521C398.2 208.521 398.868 208.721 399.332 209.121C399.804 209.521 400.04 210.093 400.04 210.837C400.04 211.341 399.916 211.833 399.668 212.313C399.428 212.793 399.048 213.305 398.528 213.849L396.44 216.045H400.376V217.089H394.88Z" fill="#9E9E9E"/>
<rect x="257" y="237.274" width="53" height="24" rx="5" fill="#EDE7F6"/>
<path d="M279.5 249.024C279.502 249.684 279.348 250.335 279.05 250.924C278.697 251.63 278.155 252.223 277.484 252.638C276.813 253.054 276.039 253.274 275.25 253.274C274.59 253.276 273.939 253.121 273.35 252.824L270.5 253.774L271.45 250.924C271.152 250.335 270.998 249.684 271 249.024C271 248.235 271.22 247.461 271.635 246.79C272.05 246.119 272.644 245.577 273.35 245.224C273.939 244.926 274.59 244.772 275.25 244.774H275.5C276.542 244.831 277.527 245.271 278.265 246.009C279.003 246.747 279.443 247.732 279.5 248.774V249.024Z" stroke="black" stroke-width="1.5" stroke-linecap="round" stroke-linejoin="round"/>
<path d="M293.6 253.382C292.632 253.382 291.876 253.174 291.332 252.758C290.796 252.342 290.528 251.762 290.528 251.018C290.528 250.498 290.664 250.058 290.936 249.698C291.216 249.33 291.58 249.078 292.028 248.942C291.628 248.774 291.312 248.518 291.08 248.174C290.848 247.822 290.732 247.418 290.732 246.962C290.732 246.258 290.992 245.706 291.512 245.306C292.032 244.906 292.728 244.706 293.6 244.706C294.48 244.706 295.18 244.906 295.7 245.306C296.22 245.706 296.48 246.258 296.48 246.962C296.48 247.418 296.36 247.822 296.12 248.174C295.888 248.526 295.572 248.782 295.172 248.942C295.628 249.078 295.992 249.33 296.264 249.698C296.536 250.058 296.672 250.498 296.672 251.018C296.672 251.762 296.4 252.342 295.856 252.758C295.32 253.174 294.568 253.382 293.6 253.382ZM293.6 248.498C294.136 248.498 294.552 248.374 294.848 248.126C295.152 247.87 295.304 247.522 295.304 247.082C295.304 246.65 295.152 246.31 294.848 246.062C294.552 245.814 294.136 245.69 293.6 245.69C293.064 245.69 292.648 245.814 292.352 246.062C292.056 246.31 291.908 246.65 291.908 247.082C291.908 247.522 292.056 247.87 292.352 248.126C292.648 248.374 293.064 248.498 293.6 248.498ZM293.6 252.398C294.872 252.398 295.508 251.91 295.508 250.934C295.508 249.966 294.872 249.482 293.6 249.482C292.976 249.482 292.5 249.602 292.172 249.842C291.852 250.082 291.692 250.446 291.692 250.934C291.692 251.91 292.328 252.398 293.6 252.398Z" fill="black"/>
<rect x="326" y="237.274" width="64" height="24" rx="5" fill="#EDE7F6"/>
<g clip-path="url(#clip6_446_2788)">
<path d="M349 248.814V249.274C348.999 250.352 348.65 251.401 348.005 252.265C347.359 253.128 346.452 253.76 345.418 254.066C344.384 254.372 343.279 254.335 342.267 253.961C341.256 253.587 340.392 252.897 339.805 251.992C339.219 251.088 338.94 250.018 339.011 248.942C339.082 247.866 339.499 246.842 340.199 246.022C340.9 245.203 341.846 244.632 342.898 244.394C343.95 244.156 345.05 244.265 346.035 244.704" stroke="black" stroke-width="1.5" stroke-linecap="round" stroke-linejoin="round"/>
<path d="M349 245.274L344 250.279L342.5 248.779" stroke="black" stroke-width="1.5" stroke-linecap="round" stroke-linejoin="round"/>
</g>
<path d="M360.02 253.274V252.35L362.84 249.326C363.232 248.902 363.512 248.518 363.68 248.174C363.856 247.83 363.944 247.482 363.944 247.13C363.944 246.218 363.408 245.762 362.336 245.762C361.52 245.762 360.788 246.07 360.14 246.686L359.696 245.738C360.016 245.426 360.424 245.178 360.92 244.994C361.416 244.802 361.932 244.706 362.468 244.706C363.34 244.706 364.008 244.906 364.472 245.306C364.944 245.706 365.18 246.278 365.18 247.022C365.18 247.526 365.056 248.018 364.808 248.498C364.568 248.978 364.188 249.49 363.668 250.034L361.58 252.23H365.516V253.274H360.02ZM367.251 254.066L366.327 253.79L369.411 244.214L370.347 244.49L367.251 254.066ZM374.846 253.274V251.558H371.042V250.634L375.062 244.814H376.082V250.514H377.318V251.558H376.082V253.274H374.846ZM374.846 250.514V246.758L372.278 250.514H374.846Z" fill="black"/>
<rect x="406" y="237.274" width="53" height="24" rx="5" fill="#EDE7F6"/>
<g clip-path="url(#clip7_446_2788)">
<path d="M428.72 248.799L424.125 253.394C423.562 253.957 422.798 254.273 422.002 254.273C421.206 254.273 420.443 253.957 419.88 253.394C419.317 252.831 419.001 252.067 419.001 251.271C419.001 250.475 419.317 249.712 419.88 249.149L424.475 244.554C424.85 244.178 425.359 243.968 425.89 243.968C426.421 243.968 426.93 244.178 427.305 244.554C427.68 244.929 427.891 245.438 427.891 245.969C427.891 246.499 427.68 247.008 427.305 247.384L422.705 251.979C422.517 252.166 422.263 252.272 421.997 252.272C421.732 252.272 421.478 252.166 421.29 251.979C421.102 251.791 420.997 251.537 420.997 251.271C420.997 251.006 421.102 250.751 421.29 250.564L425.535 246.324" stroke="black" stroke-width="1.5" stroke-linecap="round" stroke-linejoin="round"/>
</g>
<path d="M440.02 253.274V252.35L442.84 249.326C443.232 248.902 443.512 248.518 443.68 248.174C443.856 247.83 443.944 247.482 443.944 247.13C443.944 246.218 443.408 245.762 442.336 245.762C441.52 245.762 440.788 246.07 440.14 246.686L439.696 245.738C440.016 245.426 440.424 245.178 440.92 244.994C441.416 244.802 441.932 244.706 442.468 244.706C443.34 244.706 444.008 244.906 444.472 245.306C444.944 245.706 445.18 246.278 445.18 247.022C445.18 247.526 445.056 248.018 444.808 248.498C444.568 248.978 444.188 249.49 443.668 250.034L441.58 252.23H445.516V253.274H440.02Z" fill="black"/>
<g clip-path="url(#clip8_446_2788)">
<rect x="257" y="285.274" width="215" height="8" rx="4" fill="#EDE7F6"/>
<rect width="166" height="10" transform="translate(257 283.904)" fill="#673AB7"/>
</g>
<path d="M257.984 313.274V304.814H261.488C262.4 304.814 263.104 305.042 263.6 305.498C264.096 305.946 264.344 306.578 264.344 307.394C264.344 308.218 264.096 308.858 263.6 309.314C263.104 309.762 262.4 309.986 261.488 309.986H259.232V313.274H257.984ZM259.232 308.99H261.308C262.524 308.99 263.132 308.458 263.132 307.394C263.132 306.338 262.524 305.81 261.308 305.81H259.232V308.99ZM265.794 313.274V307.418H266.97V308.462C267.274 307.766 267.906 307.378 268.866 307.298L269.262 307.274L269.346 308.306L268.614 308.378C267.55 308.482 267.018 309.03 267.018 310.022V313.274H265.794ZM273.093 313.382C272.501 313.382 271.989 313.258 271.557 313.01C271.125 312.762 270.789 312.414 270.549 311.966C270.317 311.51 270.201 310.97 270.201 310.346C270.201 309.722 270.317 309.186 270.549 308.738C270.789 308.282 271.125 307.93 271.557 307.682C271.989 307.434 272.501 307.31 273.093 307.31C273.669 307.31 274.173 307.434 274.605 307.682C275.037 307.93 275.373 308.282 275.613 308.738C275.853 309.186 275.973 309.722 275.973 310.346C275.973 310.97 275.853 311.51 275.613 311.966C275.373 312.414 275.037 312.762 274.605 313.01C274.173 313.258 273.669 313.382 273.093 313.382ZM273.093 312.446C273.589 312.446 273.989 312.266 274.293 311.906C274.597 311.546 274.749 311.026 274.749 310.346C274.749 309.666 274.597 309.15 274.293 308.798C273.989 308.438 273.589 308.258 273.093 308.258C272.589 308.258 272.185 308.438 271.881 308.798C271.577 309.15 271.425 309.666 271.425 310.346C271.425 311.026 271.577 311.546 271.881 311.906C272.185 312.266 272.589 312.446 273.093 312.446ZM280.346 315.542C279.818 315.542 279.326 315.478 278.87 315.35C278.414 315.23 278.01 315.038 277.658 314.774L278.03 313.91C278.382 314.15 278.742 314.326 279.11 314.438C279.478 314.55 279.862 314.606 280.262 314.606C281.382 314.606 281.942 314.046 281.942 312.926V312.002C281.774 312.354 281.51 312.63 281.15 312.83C280.798 313.03 280.402 313.13 279.962 313.13C279.434 313.13 278.974 313.01 278.582 312.77C278.19 312.522 277.886 312.182 277.67 311.75C277.454 311.31 277.346 310.798 277.346 310.214C277.346 309.638 277.454 309.134 277.67 308.702C277.886 308.262 278.19 307.922 278.582 307.682C278.974 307.434 279.434 307.31 279.962 307.31C280.41 307.31 280.81 307.41 281.162 307.61C281.514 307.81 281.774 308.086 281.942 308.438V307.418H283.118V312.782C283.118 313.702 282.882 314.39 282.41 314.846C281.938 315.31 281.25 315.542 280.346 315.542ZM280.25 312.182C280.762 312.182 281.17 312.006 281.474 311.654C281.778 311.302 281.93 310.822 281.93 310.214C281.93 309.606 281.778 309.13 281.474 308.786C281.17 308.434 280.762 308.258 280.25 308.258C279.738 308.258 279.33 308.434 279.026 308.786C278.722 309.13 278.57 309.606 278.57 310.214C278.57 310.822 278.722 311.302 279.026 311.654C279.33 312.006 279.738 312.182 280.25 312.182ZM285.179 313.274V307.418H286.355V308.462C286.659 307.766 287.291 307.378 288.251 307.298L288.647 307.274L288.731 308.306L287.999 308.378C286.935 308.482 286.403 309.03 286.403 310.022V313.274H285.179ZM292.681 313.382C291.721 313.382 290.965 313.114 290.413 312.578C289.861 312.034 289.585 311.294 289.585 310.358C289.585 309.758 289.705 309.23 289.945 308.774C290.193 308.31 290.533 307.95 290.965 307.694C291.397 307.438 291.893 307.31 292.453 307.31C293.261 307.31 293.897 307.57 294.361 308.09C294.825 308.602 295.057 309.31 295.057 310.214V310.622H290.761C290.849 311.838 291.493 312.446 292.693 312.446C293.029 312.446 293.357 312.394 293.677 312.29C294.005 312.186 294.313 312.014 294.601 311.774L294.961 312.614C294.697 312.854 294.357 313.042 293.941 313.178C293.525 313.314 293.105 313.382 292.681 313.382ZM292.501 308.162C291.997 308.162 291.597 308.318 291.301 308.63C291.005 308.942 290.825 309.358 290.761 309.878H294.037C294.013 309.334 293.869 308.914 293.605 308.618C293.341 308.314 292.973 308.162 292.501 308.162ZM298.791 313.382C298.311 313.382 297.863 313.322 297.447 313.202C297.031 313.074 296.683 312.898 296.403 312.674L296.751 311.858C297.047 312.066 297.371 312.226 297.723 312.338C298.083 312.45 298.443 312.506 298.803 312.506C299.227 312.506 299.547 312.43 299.763 312.278C299.979 312.126 300.087 311.922 300.087 311.666C300.087 311.458 300.015 311.298 299.871 311.186C299.727 311.066 299.511 310.974 299.223 310.91L298.083 310.682C297.075 310.474 296.571 309.954 296.571 309.122C296.571 308.57 296.791 308.13 297.231 307.802C297.671 307.474 298.247 307.31 298.959 307.31C299.367 307.31 299.755 307.37 300.123 307.49C300.499 307.61 300.811 307.79 301.059 308.03L300.711 308.846C300.471 308.638 300.195 308.478 299.883 308.366C299.571 308.254 299.263 308.198 298.959 308.198C298.543 308.198 298.227 308.278 298.011 308.438C297.795 308.59 297.687 308.798 297.687 309.062C297.687 309.462 297.951 309.718 298.479 309.83L299.619 310.058C300.139 310.162 300.531 310.338 300.795 310.586C301.067 310.834 301.203 311.17 301.203 311.594C301.203 312.154 300.983 312.594 300.543 312.914C300.103 313.226 299.519 313.382 298.791 313.382ZM304.963 313.382C304.483 313.382 304.035 313.322 303.619 313.202C303.203 313.074 302.855 312.898 302.575 312.674L302.923 311.858C303.219 312.066 303.543 312.226 303.895 312.338C304.255 312.45 304.615 312.506 304.975 312.506C305.399 312.506 305.719 312.43 305.935 312.278C306.151 312.126 306.259 311.922 306.259 311.666C306.259 311.458 306.187 311.298 306.043 311.186C305.899 311.066 305.683 310.974 305.395 310.91L304.255 310.682C303.247 310.474 302.743 309.954 302.743 309.122C302.743 308.57 302.963 308.13 303.403 307.802C303.843 307.474 304.419 307.31 305.131 307.31C305.539 307.31 305.927 307.37 306.295 307.49C306.671 307.61 306.983 307.79 307.231 308.03L306.883 308.846C306.643 308.638 306.367 308.478 306.055 308.366C305.743 308.254 305.435 308.198 305.131 308.198C304.715 308.198 304.399 308.278 304.183 308.438C303.967 308.59 303.859 308.798 303.859 309.062C303.859 309.462 304.123 309.718 304.651 309.83L305.791 310.058C306.311 310.162 306.703 310.338 306.967 310.586C307.239 310.834 307.375 311.17 307.375 311.594C307.375 312.154 307.155 312.594 306.715 312.914C306.275 313.226 305.691 313.382 304.963 313.382Z" fill="black"/>
<path d="M446.2 313.274L450.076 305.858H445.744V304.814H451.468V305.738L447.568 313.274H446.2ZM456.287 313.382C455.743 313.382 455.215 313.298 454.703 313.13C454.199 312.954 453.779 312.71 453.443 312.398L453.863 311.438C454.599 312.03 455.399 312.326 456.263 312.326C456.815 312.326 457.247 312.178 457.559 311.882C457.871 311.578 458.027 311.182 458.027 310.694C458.027 310.19 457.879 309.778 457.583 309.458C457.287 309.138 456.875 308.978 456.347 308.978C455.603 308.978 455.007 309.286 454.559 309.902H453.695V304.814H458.735V305.858H454.907V308.534C455.355 308.142 455.923 307.946 456.611 307.946C457.147 307.946 457.611 308.058 458.003 308.282C458.395 308.506 458.699 308.822 458.915 309.23C459.131 309.63 459.239 310.098 459.239 310.634C459.239 311.178 459.119 311.658 458.879 312.074C458.639 312.482 458.299 312.802 457.859 313.034C457.419 313.266 456.895 313.382 456.287 313.382ZM463.663 313.586L462.847 313.106L467.803 304.502L468.619 304.982L463.663 313.586ZM462.799 309.878C462.143 309.878 461.631 309.65 461.263 309.194C460.895 308.73 460.711 308.094 460.711 307.286C460.711 306.478 460.895 305.846 461.263 305.39C461.639 304.934 462.151 304.706 462.799 304.706C463.447 304.706 463.955 304.934 464.323 305.39C464.699 305.846 464.887 306.478 464.887 307.286C464.887 308.094 464.703 308.73 464.335 309.194C463.967 309.65 463.455 309.878 462.799 309.878ZM462.799 309.026C463.135 309.026 463.395 308.882 463.579 308.594C463.771 308.306 463.867 307.87 463.867 307.286C463.867 306.702 463.771 306.266 463.579 305.978C463.395 305.69 463.135 305.546 462.799 305.546C462.463 305.546 462.199 305.69 462.007 305.978C461.823 306.266 461.731 306.702 461.731 307.286C461.731 307.878 461.823 308.318 462.007 308.606C462.199 308.886 462.463 309.026 462.799 309.026ZM468.667 313.382C468.019 313.382 467.511 313.154 467.143 312.698C466.775 312.242 466.591 311.606 466.591 310.79C466.591 309.99 466.775 309.362 467.143 308.906C467.511 308.442 468.019 308.21 468.667 308.21C469.323 308.21 469.835 308.442 470.203 308.906C470.571 309.362 470.755 309.99 470.755 310.79C470.755 311.606 470.571 312.242 470.203 312.698C469.835 313.154 469.323 313.382 468.667 313.382ZM468.667 312.542C469.003 312.542 469.263 312.398 469.447 312.11C469.639 311.822 469.735 311.382 469.735 310.79C469.735 310.214 469.639 309.782 469.447 309.494C469.263 309.206 469.003 309.062 468.667 309.062C468.331 309.062 468.067 309.206 467.875 309.494C467.691 309.774 467.599 310.206 467.599 310.79C467.599 311.382 467.691 311.822 467.875 312.11C468.067 312.398 468.331 312.542 468.667 312.542Z" fill="black"/>
</g>
<defs>
<filter id="filter0_d_446_2788" x="189.815" y="0" width="267.37" height="91" filterUnits="userSpaceOnUse" color-interpolation-filters="sRGB">
<feFlood flood-opacity="0" result="BackgroundImageFix"/>
<feColorMatrix in="SourceAlpha" type="matrix" values="0 0 0 0 0 0 0 0 0 0 0 0 0 0 0 0 0 0 127 0" result="hardAlpha"/>
<feOffset dy="2"/>
<feGaussianBlur stdDeviation="2"/>
<feColorMatrix type="matrix" values="0 0 0 0 0 0 0 0 0 0 0 0 0 0 0 0 0 0 0.1 0"/>
<feBlend mode="normal" in2="BackgroundImageFix" result="effect1_dropShadow_446_2788"/>
<feBlend mode="normal" in="SourceGraphic" in2="effect1_dropShadow_446_2788" result="shape"/>
</filter>
<filter id="filter1_d_446_2788" x="0" y="70.879" width="295" height="229.37" filterUnits="userSpaceOnUse" color-interpolation-filters="sRGB">
<feFlood flood-opacity="0" result="BackgroundImageFix"/>
<feColorMatrix in="SourceAlpha" type="matrix" values="0 0 0 0 0 0 0 0 0 0 0 0 0 0 0 0 0 0 127 0" result="hardAlpha"/>
<feOffset dy="16"/>
<feGaussianBlur stdDeviation="12"/>
<feColorMatrix type="matrix" values="0 0 0 0 0 0 0 0 0 0 0 0 0 0 0 0 0 0 0.12 0"/>
<feBlend mode="normal" in2="BackgroundImageFix" result="effect1_dropShadow_446_2788"/>
<feBlend mode="normal" in="SourceGraphic" in2="effect1_dropShadow_446_2788" result="shape"/>
</filter>
<filter id="filter2_d_446_2788" x="217" y="133.904" width="295" height="252.255" filterUnits="userSpaceOnUse" color-interpolation-filters="sRGB">
<feFlood flood-opacity="0" result="BackgroundImageFix"/>
<feColorMatrix in="SourceAlpha" type="matrix" values="0 0 0 0 0 0 0 0 0 0 0 0 0 0 0 0 0 0 127 0" result="hardAlpha"/>
<feOffset dy="16"/>
<feGaussianBlur stdDeviation="12"/>
<feColorMatrix type="matrix" values="0 0 0 0 0 0 0 0 0 0 0 0 0 0 0 0 0 0 0.12 0"/>
<feBlend mode="normal" in2="BackgroundImageFix" result="effect1_dropShadow_446_2788"/>
<feBlend mode="normal" in="SourceGraphic" in2="effect1_dropShadow_446_2788" result="shape"/>
</filter>
<clipPath id="clip0_446_2788">
<rect width="14" height="14" fill="white" transform="translate(91.3696 127.879)"/>
</clipPath>
<clipPath id="clip1_446_2788">
<rect width="12" height="12" fill="white" transform="translate(52 165.249)"/>
</clipPath>
<clipPath id="clip2_446_2788">
<rect width="12" height="12" fill="white" transform="translate(121 165.249)"/>
</clipPath>
<clipPath id="clip3_446_2788">
<rect width="12" height="12" fill="white" transform="translate(201 165.249)"/>
</clipPath>
<clipPath id="clip4_446_2788">
<rect x="40" y="207.249" width="215" height="8" rx="4" fill="white"/>
</clipPath>
<clipPath id="clip5_446_2788">
<rect width="14" height="14" fill="white" transform="translate(308.37 206.089)"/>
</clipPath>
<clipPath id="clip6_446_2788">
<rect width="12" height="12" fill="white" transform="translate(338 243.274)"/>
</clipPath>
<clipPath id="clip7_446_2788">
<rect width="12" height="12" fill="white" transform="translate(418 243.274)"/>
</clipPath>
<clipPath id="clip8_446_2788">
<rect x="257" y="285.274" width="215" height="8" rx="4" fill="white"/>
</clipPath>
</defs>
</svg>
