<svg width="80" height="80" viewBox="0 0 80 80" fill="none" xmlns="http://www.w3.org/2000/svg">
<path d="M0 24C0 10.7452 10.7452 0 24 0H56C69.2548 0 80 10.7452 80 24V56C80 69.2548 69.2548 80 56 80H24C10.7452 80 0 69.2548 0 56V24Z" fill="#AA45BE"/>
<g clip-path="url(#clip0_335_471)">
<path d="M24.1929 58C21.9473 57.1743 20.802 55.4897 20.2499 53.1775C18.945 47.7521 17.5093 42.3556 16.1595 36.9467C15.6441 34.9153 16.4704 33.3752 18.3151 32.8797C19.9881 32.4256 21.5383 33.4743 22.0455 35.4273C23.4553 40.8747 24.8583 46.3221 26.2545 51.7695C26.3117 51.9842 26.4344 52.2526 26.3567 52.4219C26.1096 52.9273 25.8366 53.4193 25.5386 53.8959C25.0928 53.5532 24.377 53.289 24.2502 52.8513C23.4567 50.1551 22.7899 47.4218 22.0864 44.6967C21.3624 41.889 20.6548 39.0731 19.9226 36.2655C19.7672 35.675 19.6322 34.8534 18.7855 35.1754C18.5033 35.2828 18.2661 36.154 18.3765 36.5834C19.8381 42.295 21.3379 47.9943 22.8759 53.6812C22.9489 54.0236 23.09 54.3475 23.2908 54.6332C23.4916 54.9189 23.7478 55.1604 24.0439 55.343C24.34 55.5257 24.6698 55.6457 25.0132 55.6957C25.3567 55.7458 25.7066 55.7248 26.0418 55.6342C27.5102 55.308 28.3814 54.0115 27.9806 52.3311C26.9171 47.9049 25.7554 43.5034 24.6224 39.0896C24.0784 36.9715 23.5344 34.8534 22.9863 32.7394C22.6877 31.6328 22.9536 30.9804 24.1561 30.6749C35.1046 27.8342 46.0462 24.966 56.981 22.0702C58.3308 21.7152 58.6171 22.5698 58.8626 23.5236C60.2328 28.8417 61.5867 34.1638 62.9529 39.4819C63.276 40.7206 63.6646 41.9592 64.0205 43.1979V45.3491C63.6294 46.341 63.0037 47.2213 62.198 47.9129C61.3923 48.6046 60.4311 49.0866 59.3984 49.3169C52.0358 51.1626 44.71 53.1073 37.3761 55.0479C33.7847 55.9934 30.2098 57.0132 26.6267 57.9959L24.1929 58ZM30.5984 54.4285C39.8098 52.0173 49.2871 49.5399 58.7603 47.0543C61.5745 46.3152 62.1062 45.3738 61.3699 42.5125C60.5314 39.2094 59.7052 35.9351 58.8585 32.6527C58.1672 29.9854 57.4555 27.3222 56.7315 24.5848L25.236 32.8013C26.5612 37.9129 27.8701 42.8717 29.1218 47.8471C29.6822 49.9652 30.1035 52.1246 30.6107 54.4285H30.5984Z" fill="white"/>
<path d="M32.3286 45.382C31.4778 42.0789 30.6434 38.8666 29.7762 35.5304L39.184 33.0531C40.0389 36.3562 40.861 39.5396 41.7241 42.8882L32.3286 45.382Z" fill="white"/>
<path d="M56.8215 41.3481L57.3532 43.1566L33.4044 49.4367L32.8931 47.6117L56.8215 41.3481Z" fill="white"/>
<path d="M55.2794 35.1836L42.8694 38.4248L42.3458 36.6204L54.7968 33.3503L55.2794 35.1836Z" fill="white"/>
<path d="M53.7333 29.2793L54.2405 31.0878L41.8182 34.362L41.3069 32.537L53.7333 29.2793Z" fill="white"/>
<path d="M55.8275 37.3513L56.3593 39.1557L43.9042 42.4299L43.3929 40.6049L55.8275 37.3513Z" fill="white"/>
</g>
<defs>
<clipPath id="clip0_335_471">
<rect width="48" height="36" fill="white" transform="translate(16 22)"/>
</clipPath>
</defs>
</svg>
