<svg width="80" height="80" viewBox="0 0 80 80" fill="none" xmlns="http://www.w3.org/2000/svg">
<path d="M0 24C0 10.7452 10.7452 0 24 0H56C69.2548 0 80 10.7452 80 24V56C80 69.2548 69.2548 80 56 80H24C10.7452 80 0 69.2548 0 56V24Z" fill="#D5569A"/>
<path d="M37.8199 60C36.6811 59.7722 35.5293 59.6483 34.4068 59.3066C26.6612 56.9046 21.7886 51.6418 20.3357 43.5114C18.3363 32.4129 25.5159 22.7013 35.2904 20.5037C40.2007 19.3484 45.3575 20.198 49.6658 22.8721C50.2287 23.2071 50.2385 23.2641 49.8262 23.8034C49.4139 24.3428 48.995 24.862 48.6449 25.3076C47.2149 24.6979 45.8928 23.9676 44.4857 23.5689C38.3108 21.7733 32.7445 23.0329 28.0192 27.5052C24.2266 31.093 22.538 35.659 22.754 40.9051C22.8915 45.1027 24.5955 49.0866 27.5153 52.0371C30.3309 55.0591 34.1519 56.8894 38.2224 57.1659C44.0898 57.6115 48.8772 55.4139 52.6208 50.878C54.7319 48.3057 56.0174 45.1298 56.3022 41.7828C56.6382 38.5255 56.0557 35.2379 54.6235 32.309C54.5771 32.2455 54.5449 32.1724 54.5293 32.0947C54.5137 32.017 54.515 31.9368 54.5331 31.8597C54.5512 31.7826 54.5857 31.7106 54.6341 31.6487C54.6826 31.5868 54.7438 31.5366 54.8133 31.5017C55.2845 31.1667 55.7394 30.8049 56.1811 30.433C56.528 30.1416 56.6753 30.3091 56.8356 30.6407C57.9475 32.805 58.666 35.158 58.9561 37.5852C59.3996 40.9827 58.9477 44.4398 57.6471 47.5984C54.8395 54.2581 49.9015 58.2815 42.9608 59.7253C42.4405 59.8325 41.9104 59.8995 41.3868 59.9866L37.8199 60Z" fill="white"/>
<path d="M46.1088 28.6509C45.5885 29.3209 45.1435 29.9641 44.6395 30.5403C44.5395 30.5948 44.4288 30.6258 44.3156 30.631C44.2024 30.6362 44.0895 30.6155 43.985 30.5704C42.5449 29.9063 40.9832 29.5637 39.4037 29.5654C36.8941 29.5618 34.4793 30.5466 32.6594 32.3158C31.5997 33.307 30.7562 34.5159 30.1838 35.8636C29.6115 37.2113 29.3234 38.6674 29.3381 40.1368C29.3529 41.6062 29.6702 43.0559 30.2695 44.3913C30.8687 45.7266 31.7364 46.9175 32.8158 47.8863C33.8952 48.855 35.1621 49.5797 36.5337 50.0132C37.9053 50.4466 39.3508 50.5789 40.7758 50.4016C42.2007 50.2243 43.5731 49.7412 44.8033 48.984C46.0335 48.2268 47.0939 47.2124 47.9151 46.0071C49.8491 43.1496 50.2615 40.0542 49.2503 36.7612C49.2057 36.6735 49.1788 36.5776 49.1711 36.4791C49.1635 36.3805 49.1753 36.2814 49.2058 36.1877C49.2363 36.0939 49.285 36.0074 49.3488 35.9333C49.4127 35.8591 49.4905 35.7989 49.5775 35.7562C50.0193 35.448 50.4316 35.0862 50.8472 34.7512C51.1417 34.5033 51.3282 34.4866 51.5017 34.8986C53.4945 39.4378 52.4146 45.4946 49.0081 49.069C46.8942 51.2901 44.381 52.7172 41.377 53.1225C37.2374 53.682 33.5691 52.5095 30.5782 49.5146C26.8608 45.776 25.6696 41.2066 27.2076 36.1146C28.69 31.1734 32.0769 28.1115 37.0247 27.0194C39.8582 26.3994 42.8142 26.8117 45.3823 28.1852C45.5492 28.269 45.7096 28.3661 45.8666 28.4599C45.9386 28.5169 46.0008 28.5705 46.1088 28.6509Z" fill="white"/>
<path d="M39.9993 41.1362L38.9128 40.1815C39.816 39.2066 40.6897 38.2619 41.57 37.3206C44.1879 34.5111 46.8058 31.7005 49.4237 28.8887C49.5575 28.7143 49.6574 28.5153 49.7182 28.3025C49.7791 28.1237 49.8186 27.9381 49.836 27.7497C49.8906 27.0104 50.0931 26.2906 50.4309 25.6348C50.7686 24.979 51.2344 24.4012 51.7994 23.9374C53.1803 22.775 54.4173 21.4283 55.795 20.0782C55.9193 21.1469 56.0895 22.1083 56.1222 23.0932C56.1451 23.6761 56.4134 23.7632 56.8617 23.8168C57.9023 23.9274 58.9397 24.0614 59.9999 24.1887C59.4862 24.7414 59.0182 25.2707 58.5241 25.7665C57.1759 27.1199 55.8178 28.4599 54.45 29.7865C54.29 29.9311 54.092 30.0244 53.8806 30.0545C53.1476 30.1516 52.4048 30.1952 51.675 30.299C51.4627 30.3431 51.2673 30.4489 51.1122 30.6039C47.5475 33.974 43.9883 37.3485 40.4345 40.7275C40.3167 40.8515 40.176 40.9654 39.9993 41.1362Z" fill="white"/>
<path d="M39.6198 33.5955C40.2186 33.706 40.8175 33.8032 41.4098 33.9305C41.8188 34.0209 41.8744 34.2655 41.6061 34.5804C41.4832 34.7216 41.3674 34.8692 41.2593 35.0226C40.7095 35.8567 40.1205 36.3961 38.9915 36.5535C36.3736 36.9119 35.2545 39.7159 36.6452 42.0039C37.9018 44.0742 41.1447 44.1379 42.3686 42.0508C43.0983 40.8046 44.3058 40.1648 45.3137 39.2569C45.5722 39.0191 45.6933 39.1933 45.726 39.4948C46.1383 43.153 42.9871 46.5666 39.3875 46.3556C36.3769 46.178 34.1026 44.2384 33.471 41.3071C32.6202 37.4178 35.6831 33.5955 39.6198 33.5955Z" fill="white"/>
</svg>
