<svg width="80" height="80" viewBox="0 0 80 80" fill="none" xmlns="http://www.w3.org/2000/svg">
<path d="M0 24C0 10.7452 10.7452 0 24 0H56C69.2548 0 80 10.7452 80 24V56C80 69.2548 69.2548 80 56 80H24C10.7452 80 0 69.2548 0 56V24Z" fill="#4214C8"/>
<g clip-path="url(#clip0_335_461)">
<path d="M48.1754 23C48.2607 23.0398 48.3504 23.0693 48.4424 23.0879C50.3635 23.2682 51.6902 24.407 52.0908 26.3239C53.8137 34.5869 55.518 42.8527 57.2036 51.1215C57.4394 52.0837 57.3126 53.1012 56.8483 53.9724C56.3841 54.8437 55.6162 55.5053 54.6967 55.8261C52.935 56.4592 50.7555 55.6634 50.0836 53.8167C49.6528 52.6516 49.011 52.5813 48.072 52.5241C45.6383 52.3746 43.209 52.1592 40.7753 51.9745C40.6117 51.9745 40.4437 51.9745 40.2326 51.9745C40.3082 52.4104 40.3543 52.8511 40.3704 53.2935C40.3634 53.8137 40.2515 54.3268 40.0416 54.8009C39.8317 55.2749 39.5283 55.6997 39.1504 56.0487C38.7725 56.3977 38.3282 56.6635 37.8451 56.8295C37.3621 56.9954 36.8508 57.0579 36.343 57.0132C34.2712 56.8901 32.1993 56.7098 30.1318 56.5383C27.9781 56.3625 25.8244 54.1201 27.0692 50.9193L24.7346 50.7259C24.7346 50.9457 24.7088 51.104 24.7002 51.2666C24.6591 52.2377 24.2694 53.1594 23.6053 53.856C22.9411 54.5525 22.0491 54.9752 21.0992 55.0434C20.1967 55.1177 19.2984 54.8552 18.5712 54.3045C17.8439 53.7538 17.3372 52.9525 17.1451 52.0492C16.4157 48.7048 15.7236 45.3633 15.0689 42.0247C14.8811 41.1104 15.0286 40.1576 15.4836 39.3471C15.9386 38.5366 16.6693 37.9248 17.537 37.6279C18.4467 37.2945 19.4464 37.3249 20.335 37.7132C21.2236 38.1015 21.9352 38.8187 22.3268 39.7208C22.3656 39.8087 22.4 39.8967 22.469 40.0594C22.7231 39.9494 22.96 39.8615 23.184 39.7384C30.0758 35.9836 36.9762 32.2258 43.8852 28.4651C44.1064 28.3902 44.2914 28.2322 44.4026 28.0232C44.5138 27.8141 44.5429 27.5697 44.484 27.3396C44.2988 25.8139 44.9448 24.6136 46.1724 23.7342C46.3663 23.5979 46.5515 23.4573 46.741 23.2946L48.1754 23ZM49.1316 50.3257L45.0181 30.3909L23.0505 42.3852L24.291 48.3912L49.1316 50.3257ZM52.444 39.2064C52.1367 37.7408 51.8323 36.2679 51.5308 34.7877C50.9752 32.1057 50.4325 29.4236 49.8639 26.746C49.8375 26.5303 49.7682 26.3224 49.6602 26.135C49.5523 25.9476 49.408 25.7846 49.2362 25.6562C49.0644 25.5277 48.8687 25.4365 48.6611 25.388C48.4535 25.3395 48.2384 25.3348 48.0289 25.3742C47.0296 25.5369 46.5041 26.447 46.7367 27.6298C48.2213 34.8492 49.7102 42.0716 51.2035 49.2969C51.4145 50.3082 51.6083 51.3282 51.8366 52.3394C51.9095 52.7707 52.1454 53.1556 52.4933 53.4113C52.8413 53.667 53.2736 53.7731 53.6975 53.7068C54.6666 53.5529 55.205 52.7 54.9897 51.6008C54.1483 47.4679 53.2997 43.3364 52.444 39.2064ZM21.4309 45.9114C21.1035 44.3154 20.7805 42.7238 20.4402 41.1322C20.2162 40.0725 19.4366 39.4922 18.5234 39.6812C17.6103 39.8703 17.0718 40.7496 17.2958 41.84C17.939 44.9793 18.5866 48.1186 19.2384 51.2578C19.4667 52.3482 20.2765 52.9462 21.2155 52.7351C22.1545 52.5241 22.6111 51.6755 22.4001 50.6203C22.0684 49.0463 21.7367 47.4723 21.4137 45.9114H21.4309ZM30.2136 51.1875C29.8403 51.237 29.499 51.4285 29.258 51.7237C29.0169 52.0189 28.8939 52.3961 28.9135 52.7798C28.9331 53.1636 29.0939 53.5257 29.3636 53.7937C29.6334 54.0618 29.9923 54.216 30.3687 54.2256C32.3788 54.4015 34.3989 54.5598 36.4292 54.7005C36.7935 54.7483 37.1626 54.6622 37.4704 54.4576C37.7782 54.253 38.0046 53.9432 38.109 53.5837C38.3761 52.6121 37.7602 51.7415 36.679 51.6404C34.7105 51.4601 32.7377 51.315 30.765 51.1655C30.5746 51.1637 30.3844 51.1784 30.1964 51.2095L30.2136 51.1875Z" fill="white"/>
<path d="M60.7271 38.604C59.9431 38.7711 59.1635 38.947 58.3796 39.1052C57.5181 39.2811 56.9065 38.969 56.7557 38.2963C56.6049 37.6236 57.0357 37.0432 57.8799 36.8585C59.4866 36.5024 61.0975 36.1506 62.7128 35.8209C63.5484 35.6494 64.0912 35.9616 64.2419 36.6475C64.3927 37.3334 64.0136 37.8786 63.1435 38.0808C62.3294 38.2655 61.524 38.4282 60.7271 38.604Z" fill="white"/>
<path d="M61.5885 28.1266C61.4578 28.5253 61.2799 28.9063 61.0587 29.261C59.9345 30.6196 58.7801 31.9518 57.6128 33.2796C57.5207 33.4004 57.4055 33.5009 57.2742 33.5749C57.1429 33.6489 56.9982 33.6948 56.8489 33.71C56.6996 33.7252 56.549 33.7093 56.4059 33.6632C56.2629 33.6171 56.1305 33.5418 56.0168 33.4418C55.9032 33.3419 55.8106 33.2195 55.7447 33.0819C55.6788 32.9444 55.641 32.7946 55.6336 32.6417C55.6261 32.4888 55.6492 32.3359 55.7014 32.1923C55.7536 32.0488 55.8339 31.9176 55.9373 31.8067C57.0916 30.4393 58.246 29.0719 59.4564 27.7573C59.6088 27.6166 59.7883 27.51 59.9833 27.4441C60.1784 27.3783 60.3848 27.3546 60.5893 27.3748C60.9037 27.4012 61.188 27.8057 61.5885 28.1266Z" fill="white"/>
<path d="M64.9784 45.4674C65.1507 46.4391 64.3539 47.2261 63.613 46.9095C61.834 46.1357 60.0766 45.2959 58.3451 44.4166C58.2244 44.3527 58.1182 44.2636 58.0334 44.155C57.9487 44.0465 57.8872 43.921 57.8531 43.7866C57.819 43.6523 57.8129 43.5121 57.8354 43.3752C57.8578 43.2383 57.9082 43.1077 57.9833 42.992C58.0322 42.8628 58.1069 42.7453 58.2025 42.647C58.2982 42.5487 58.4128 42.4718 58.5391 42.4209C58.6654 42.3701 58.8006 42.3466 58.9362 42.3518C59.0719 42.357 59.205 42.3909 59.3272 42.4512C61.0501 43.2339 62.7731 44.0561 64.4573 44.9002C64.7114 45.0233 64.8708 45.3443 64.9784 45.4674Z" fill="white"/>
</g>
<defs>
<clipPath id="clip0_335_461">
<rect width="50" height="34" fill="white" transform="translate(15 23)"/>
</clipPath>
</defs>
</svg>
