<svg width="159" height="102" viewBox="0 0 159 102" fill="none" xmlns="http://www.w3.org/2000/svg">
<g filter="url(#filter0_d_335_295)">
<rect x="10.0142" y="7" width="138.744" height="82" rx="20" fill="white"/>
<path d="M55.501 47.8118V52.2388C55.501 52.4447 55.5011 52.4447 55.2952 52.4447C54.4715 52.4447 53.7508 52.4447 53.0302 52.4447C52.0006 52.4447 50.9711 52.5476 49.9416 52.9594C49.2209 53.1653 48.6032 53.4742 48.0884 53.989C47.5737 54.5037 47.2648 55.2244 47.1618 55.9451C47.1618 56.151 47.1618 56.4598 47.1618 56.6658V71.6969C47.1618 72.1087 47.1618 72.0058 46.853 72.0058H42.2201C42.0142 72.0058 42.0142 72.0058 42.0142 71.7999V47.9147C42.0142 47.5029 42.0142 47.6059 42.323 47.6059H46.853C47.1618 47.6059 47.1618 47.6059 47.1618 47.9147C47.1618 49.2531 47.1618 50.6945 47.1618 52.1358C47.1618 52.1358 47.1618 52.2388 47.1618 52.3417C47.1618 52.4447 47.1618 52.4447 47.2648 52.4447C47.3677 52.4447 47.3677 52.4447 47.3677 52.3417V52.2388C48.1914 49.8708 49.8386 48.4295 52.3095 47.9147C52.9272 47.8118 53.442 47.7088 54.0597 47.7088H55.1922C55.5011 47.6059 55.501 47.6059 55.501 47.8118Z" fill="#7A7878"/>
<path d="M65.2816 47.8118C65.2816 47.9147 65.2816 47.9147 65.2816 48.0177V72.0058C65.2816 72.3147 65.2816 72.3147 64.9727 72.3147H60.3398C60.3398 72.3147 60.2369 72.3147 60.1339 72.3147C60.031 72.3147 60.0309 72.3147 60.0309 72.2117V47.9147C60.0309 47.6059 60.031 47.6059 60.3398 47.6059H65.0757C65.2816 47.6059 65.2816 47.6059 65.2816 47.8118Z" fill="#7A7878"/>
<path d="M65.6936 40.0902C65.6936 40.3991 65.6936 40.8109 65.6936 41.1197C65.4877 42.0463 64.9729 42.767 64.0463 42.9729C63.1198 43.2817 62.1932 43.1788 61.3695 42.9729C60.34 42.664 59.8252 41.8404 59.7223 40.8109C59.7223 40.3991 59.7223 39.9872 59.7223 39.4725C59.7223 38.237 60.443 37.3105 61.7814 37.0016C62.605 36.7957 63.3256 36.7957 64.1493 37.1045C65.1788 37.4134 65.7965 38.237 65.8995 39.2666C65.6936 39.5754 65.6936 39.8843 65.6936 40.0902Z" fill="#7A7878"/>
<path d="M89.9903 63.0488C90.4021 65.1079 90.1962 67.167 88.9607 69.0201C88.1371 70.2556 87.0047 71.1821 85.6663 71.7999C84.5338 72.3146 83.4013 72.6235 82.1658 72.7264C81.1363 72.8294 80.0038 72.8294 78.9743 72.7264C75.5768 72.4176 72.6941 70.9762 70.5321 68.2995C70.4292 68.0935 70.4292 68.0935 70.5321 67.9906C71.5616 67.064 72.5912 66.1374 73.6207 65.1079C73.6207 65.1079 73.6207 65.1079 73.7237 65.005C74.0325 65.3138 74.3414 65.7256 74.6502 66.0345C75.7827 67.167 77.0182 67.8876 78.5625 68.2995C80.0038 68.6083 81.3422 68.6083 82.7835 68.2995C82.9895 68.1965 83.2983 68.0935 83.5042 67.9906C84.5338 67.4758 85.0485 66.6522 85.1515 65.5197C85.1515 65.2109 85.1515 64.799 85.0485 64.4902C84.8426 63.6666 84.2249 63.0488 83.5042 62.637C82.8865 62.3282 82.2688 62.2252 81.6511 62.1223C80.5186 62.0193 79.3861 61.9164 78.2536 61.7104C77.0182 61.5045 75.7827 61.0927 74.6502 60.475C73.4148 59.7543 72.4882 58.9307 71.9734 57.5923C71.6646 56.8716 71.4587 56.151 71.3557 55.3273C71.2528 54.1949 71.3557 53.0624 71.7676 51.9299C72.3853 50.2826 73.4148 49.0472 74.9591 48.2236C75.9886 47.6058 77.1211 47.297 78.3566 47.0911C79.7979 46.8852 81.2392 46.8852 82.6806 47.0911C85.0485 47.3999 87.2105 48.3265 88.9607 50.0767C89.2696 50.2826 89.4755 50.5915 89.7844 50.9003C88.7549 51.9299 87.7253 52.8565 86.5928 53.886C86.4899 53.783 86.4899 53.783 86.3869 53.6801C85.1515 52.3417 83.6072 51.4151 81.754 51.2092C80.6215 51.0033 79.592 51.0033 78.4595 51.4151C77.8418 51.621 77.327 51.9299 76.9152 52.4446C76.4005 53.0624 76.2975 53.886 76.4005 54.7096C76.5034 55.5332 76.9152 56.151 77.5329 56.5628C77.8418 56.7687 78.1507 56.8716 78.4595 56.9746C79.1802 57.1805 79.9009 57.3864 80.5186 57.4894C81.754 57.6953 82.9894 57.7982 84.2249 58.1071C85.2544 58.4159 86.284 58.7248 87.2106 59.3425C88.6519 60.1661 89.6814 61.4016 89.9903 63.0488Z" fill="#7A7878"/>
<path d="M76.0918 26.3974C73.1062 26.5004 70.1206 26.8092 67.2379 27.5299C62.502 28.6624 58.075 30.5155 54.0598 33.0894C53.0303 33.81 52.0008 34.5307 50.9712 35.2514C50.7653 35.3543 50.5594 35.4573 50.3535 35.4573C49.9417 35.4573 49.5299 35.4573 49.0151 35.4573C48.6033 35.4573 48.2945 35.2514 48.1915 34.9425C48.0885 34.6337 48.1915 34.3248 48.5004 34.016C49.5299 33.0894 50.6624 32.1628 51.7949 31.3392C53.8539 29.7949 56.016 28.5594 58.2809 27.4269C61.2666 25.9856 64.3552 24.8531 67.6497 24.1324C69.091 23.8236 70.6353 23.5147 72.1796 23.4118C73.621 23.2059 75.5771 23.1029 77.2243 23.1029C78.2539 23.1029 79.2834 23.1029 80.3129 23.2059C83.0927 23.4118 85.8724 23.9265 88.6522 24.6472C94.0057 26.1915 98.9475 28.6624 103.374 32.0598C104.198 32.6776 105.022 33.3982 105.742 34.016C105.948 34.2219 106.051 34.4278 106.051 34.6337C106.051 35.0455 105.742 35.3543 105.331 35.3543C104.816 35.3543 104.301 35.3543 103.786 35.3543C103.58 35.3543 103.477 35.2514 103.272 35.1484C101.933 34.1189 100.595 33.1923 99.1534 32.3687C95.3441 30.1037 91.3289 28.4565 87.0049 27.4269C85.5636 27.1181 84.1222 26.8092 82.6809 26.6033C81.6513 26.5004 80.7247 26.3974 79.6952 26.2945C78.5627 26.3974 77.3273 26.2945 76.0918 26.3974Z" fill="#7A7878"/>
<path d="M116.655 59.5485C116.655 58.5189 116.552 57.4894 116.449 56.4599C116.243 55.1215 115.832 53.7831 115.214 52.5476C114.493 51.2092 113.67 50.0768 112.537 49.2531C110.89 47.9147 108.934 47.297 106.875 47.1941C105.536 47.0911 104.198 47.1941 102.86 47.5029C99.668 48.3265 97.403 50.1797 95.9617 53.1654C95.1381 54.9156 94.7262 56.7687 94.6233 58.6219C94.5203 59.8573 94.5203 61.1957 94.7262 62.4312C94.8292 63.6666 95.1381 64.902 95.6528 66.1375C96.2705 67.5788 96.9912 68.9172 98.1237 70.0497C99.9769 71.7999 102.139 72.7265 104.61 72.9324C105.845 73.0353 107.081 73.0353 108.316 72.8294C109.86 72.6235 111.405 72.0058 112.743 71.1822C113.979 70.4615 115.008 69.432 115.729 68.2995C115.832 68.0936 115.832 68.0936 115.729 67.9906C115.008 67.3729 114.39 66.6522 113.67 66.0345C113.361 65.7257 113.155 65.5198 112.846 65.2109C112.743 65.4168 112.64 65.6227 112.434 65.7257C111.508 67.0641 110.272 68.0936 108.625 68.5054C107.287 68.9172 105.948 68.9172 104.61 68.7113C102.139 68.1965 100.595 66.6522 100.08 64.1814C99.8739 63.4607 99.8739 62.6371 99.8739 61.9164C99.8739 61.5046 99.8739 61.6075 100.183 61.6075H116.346C116.449 61.6075 116.449 61.6075 116.552 61.6075C116.655 61.6075 116.758 61.6075 116.758 61.4016C116.655 60.578 116.655 60.0632 116.655 59.5485ZM111.096 57.7983C110.993 57.9012 110.787 57.7983 110.684 57.7983H99.8739C99.771 57.7983 99.668 57.7983 99.668 57.6953C99.668 55.9451 100.08 54.4008 101.109 53.0624C101.933 52.0329 103.168 51.4151 104.507 51.1063C105.433 50.9004 106.36 51.0033 107.184 51.2092C108.728 51.6211 109.86 52.6506 110.478 54.1949C110.89 55.2244 111.096 56.254 111.096 57.2835C111.199 57.4894 111.302 57.6953 111.096 57.7983Z" fill="#7A7878"/>
<path d="M116.655 59.5485C116.655 58.5189 116.552 57.4894 116.449 56.4599C116.243 55.1215 115.832 53.7831 115.214 52.5476C114.493 51.2092 113.67 50.0768 112.537 49.2531C110.89 47.9147 108.934 47.297 106.875 47.1941C105.536 47.0911 104.198 47.1941 102.86 47.5029C99.668 48.3265 97.403 50.1797 95.9617 53.1654C95.1381 54.9156 94.7262 56.7687 94.6233 58.6219C94.5203 59.8573 94.5203 61.1957 94.7262 62.4312C94.8292 63.6666 95.1381 64.902 95.6528 66.1375C96.2705 67.5788 96.9912 68.9172 98.1237 70.0497C99.9769 71.7999 102.139 72.7265 104.61 72.9324C105.845 73.0353 107.081 73.0353 108.316 72.8294C109.86 72.6235 111.405 72.0058 112.743 71.1822C113.979 70.4615 115.008 69.432 115.729 68.2995C115.832 68.0936 115.832 68.0936 115.729 67.9906C115.008 67.3729 114.39 66.6522 113.67 66.0345C113.361 65.7257 113.155 65.5198 112.846 65.2109C112.743 65.4168 112.64 65.6227 112.434 65.7257C111.508 67.0641 110.272 68.0936 108.625 68.5054C107.287 68.9172 105.948 68.9172 104.61 68.7113C102.139 68.1965 100.595 66.6522 100.08 64.1814C99.8739 63.4607 99.8739 62.6371 99.8739 61.9164C99.8739 61.5046 99.8739 61.6075 100.183 61.6075H116.346C116.449 61.6075 116.449 61.6075 116.552 61.6075C116.655 61.6075 116.758 61.6075 116.758 61.4016C116.655 60.578 116.655 60.0632 116.655 59.5485ZM111.096 57.7983C110.993 57.9012 110.787 57.7983 110.684 57.7983H99.8739C99.771 57.7983 99.668 57.7983 99.668 57.6953C99.668 55.9451 100.08 54.4008 101.109 53.0624C101.933 52.0329 103.168 51.4151 104.507 51.1063C105.433 50.9004 106.36 51.0033 107.184 51.2092C108.728 51.6211 109.86 52.6506 110.478 54.1949C110.89 55.2244 111.096 56.254 111.096 57.2835C111.199 57.4894 111.302 57.6953 111.096 57.7983Z" fill="#7A7878"/>
<path d="M88.9607 69.0201C88.1371 70.2556 87.0046 71.1821 85.6663 71.7999C84.5338 72.3146 83.4013 72.6235 82.1658 72.7264C81.1363 72.8294 80.0038 72.8294 78.9743 72.7264C75.5768 72.4176 72.6941 70.9762 70.5321 68.2995C70.4292 68.0935 70.4292 68.0935 70.5321 67.9906C71.5616 67.064 72.5912 66.1374 73.6207 65.1079C73.6207 65.1079 73.6207 65.1079 73.7237 65.005C74.0325 65.3138 74.3414 65.7256 74.6502 66.0345C75.7827 67.167 77.0182 67.8876 78.5625 68.2995C80.0038 68.6083 81.3422 68.6083 82.7835 68.2995C82.9895 68.1965 83.2983 68.0935 83.5042 67.9906C84.5338 67.4758 85.0485 66.6522 85.1515 65.5197C85.1515 65.2109 85.1515 64.799 85.0485 64.4902C84.8426 63.6666 84.2249 63.0488 83.5042 62.637C82.8865 62.3282 82.2688 62.2252 81.6511 62.1223C80.5186 62.0193 79.3861 61.9164 78.2536 61.7104C77.0182 61.5045 75.7827 61.0927 74.6502 60.475C73.4148 59.7543 72.4882 58.9307 71.9734 57.5923C71.6646 56.8716 71.4587 56.151 71.3557 55.3273C71.2528 54.1949 71.3557 53.0624 71.7676 51.9299C72.3853 50.2826 73.4148 49.0472 74.9591 48.2236C75.9886 47.6058 77.1211 47.297 78.3566 47.0911C79.7979 46.8852 81.2392 46.8852 82.6806 47.0911C85.0485 47.3999 87.2105 48.3265 88.9607 50.0767C89.2696 50.2826 89.4755 50.5915 89.7844 50.9003C88.7549 51.9299 87.7253 52.8565 86.5928 53.886C86.4899 53.783 86.4899 53.783 86.3869 53.6801C85.1515 52.3417 83.6072 51.4151 81.754 51.2092C80.6215 51.0033 79.592 51.0033 78.4595 51.4151C77.8418 51.621 77.327 51.9299 76.9152 52.4446C76.4005 53.0624 76.2975 53.886 76.4005 54.7096C76.5034 55.5332 76.9152 56.151 77.5329 56.5628C77.8418 56.7687 78.1507 56.8716 78.4595 56.9746C79.1802 57.1805 79.9009 57.3864 80.5186 57.4894C81.754 57.6953 82.9894 57.7982 84.2249 58.1071C85.2544 58.4159 86.284 58.7248 87.2106 59.3425C88.6519 60.1661 89.5785 61.4016 89.8873 63.0488C90.4021 65.1079 90.1962 67.167 88.9607 69.0201Z" fill="#7A7878"/>
<path d="M106.051 34.7367C106.051 35.1485 105.742 35.4573 105.331 35.4573C104.816 35.4573 104.301 35.4573 103.786 35.4573C103.58 35.4573 103.477 35.3544 103.272 35.2514C101.933 34.2219 100.595 33.2953 99.1534 32.4717C95.3441 30.2067 91.3289 28.5595 87.0049 27.5299C85.5636 27.2211 84.1222 26.9122 82.6809 26.7063C81.6513 26.6034 80.7247 26.5004 79.6952 26.3975C78.4598 26.2945 77.2243 26.2945 76.0918 26.2945C73.1062 26.3975 70.1206 26.7063 67.2379 27.427C62.502 28.5595 58.075 30.4126 54.0598 32.9865C53.0303 33.7071 52.0008 34.4278 50.9712 35.1485C50.7653 35.2514 50.5594 35.3544 50.3535 35.3544C49.9417 35.3544 49.5299 35.3544 49.0151 35.3544C48.6033 35.3544 48.2945 35.1485 48.1915 34.8396C48.0885 34.5308 48.1915 34.2219 48.5004 33.9131C49.5299 32.9865 50.6624 32.0599 51.7949 31.2363C53.8539 29.692 56.016 28.4565 58.2809 27.324C61.2666 25.8827 64.3552 24.7502 67.6497 24.0295C69.091 23.7207 70.6353 23.4118 72.1796 23.3089C73.621 23.103 75.5771 23 77.2243 23C78.2539 23 79.2834 23 80.3129 23.103C83.0927 23.3089 85.8724 23.8236 88.6522 24.5443C94.0057 26.0886 98.9475 28.5595 103.374 31.9569C104.198 32.5747 105.022 33.2953 105.742 33.9131C105.948 34.2219 106.051 34.4278 106.051 34.7367Z" fill="#7A7878"/>
<path d="M55.501 47.8118V52.2388C55.501 52.4447 55.5011 52.4447 55.2952 52.4447C54.4715 52.4447 53.7508 52.4447 53.0302 52.4447C52.0006 52.4447 50.9711 52.5476 49.9416 52.9594C49.2209 53.1653 48.6032 53.4742 48.0884 53.989C47.5737 54.5037 47.2648 55.2244 47.1618 55.9451C47.1618 56.151 47.1618 56.4598 47.1618 56.6658V71.6969C47.1618 72.1087 47.1618 72.0058 46.853 72.0058H42.2201C42.0142 72.0058 42.0142 72.0058 42.0142 71.7999V47.9147C42.0142 47.5029 42.0142 47.6059 42.323 47.6059H46.853C47.1618 47.6059 47.1618 47.6059 47.1618 47.9147C47.1618 49.2531 47.1618 50.6945 47.1618 52.1358C47.1618 52.1358 47.1618 52.2388 47.1618 52.3417C47.1618 52.4447 47.1618 52.4447 47.2648 52.4447C47.3677 52.4447 47.3677 52.4447 47.3677 52.3417V52.2388C48.1914 49.8708 49.8386 48.4295 52.3095 47.9147C52.9272 47.8118 53.442 47.7088 54.0597 47.7088H55.1922C55.5011 47.6059 55.501 47.6059 55.501 47.8118Z" fill="#7A7878"/>
<path d="M65.2816 47.8118C65.2816 47.9147 65.2816 47.9147 65.2816 48.0177V72.0058C65.2816 72.3147 65.2816 72.3147 64.9727 72.3147H60.3398C60.3398 72.3147 60.2369 72.3147 60.1339 72.3147C60.031 72.3147 60.0309 72.3147 60.0309 72.2117V47.9147C60.0309 47.6059 60.031 47.6059 60.3398 47.6059H65.0757C65.2816 47.6059 65.2816 47.6059 65.2816 47.8118Z" fill="#7A7878"/>
<path d="M65.6936 41.1197C65.4877 42.0463 64.9729 42.767 64.0463 42.9729C63.1198 43.2817 62.1932 43.1788 61.3695 42.9729C60.34 42.664 59.8252 41.8404 59.7223 40.8109C59.7223 40.3991 59.7223 39.9872 59.7223 39.4725C59.7223 38.237 60.443 37.3105 61.7814 37.0016C62.605 36.7957 63.3256 36.7957 64.1493 37.1045C65.1788 37.4134 65.7965 38.237 65.8995 39.2666C65.8995 39.4725 65.8995 39.7813 65.8995 39.9872C65.7965 40.3991 65.7965 40.8109 65.6936 41.1197Z" fill="#7A7878"/>
</g>
<defs>
<filter id="filter0_d_335_295" x="0.0141602" y="0" width="158.744" height="102" filterUnits="userSpaceOnUse" color-interpolation-filters="sRGB">
<feFlood flood-opacity="0" result="BackgroundImageFix"/>
<feColorMatrix in="SourceAlpha" type="matrix" values="0 0 0 0 0 0 0 0 0 0 0 0 0 0 0 0 0 0 127 0" result="hardAlpha"/>
<feOffset dy="3"/>
<feGaussianBlur stdDeviation="5"/>
<feComposite in2="hardAlpha" operator="out"/>
<feColorMatrix type="matrix" values="0 0 0 0 0 0 0 0 0 0 0 0 0 0 0 0 0 0 0.05 0"/>
<feBlend mode="normal" in2="BackgroundImageFix" result="effect1_dropShadow_335_295"/>
<feBlend mode="normal" in="SourceGraphic" in2="effect1_dropShadow_335_295" result="shape"/>
</filter>
</defs>
</svg>
