<svg width="354" height="102" viewBox="0 0 354 102" fill="none" xmlns="http://www.w3.org/2000/svg">
<g filter="url(#filter0_d_335_281)">
<rect x="10.9814" y="7" width="332.033" height="82" rx="20" fill="white"/>
<g clip-path="url(#clip0_335_281)">
<path d="M43.3537 61.5663C43.3054 61.568 43.2572 61.5598 43.2122 61.5424C43.1671 61.5249 43.1259 61.4985 43.0912 61.4647C43.0564 61.4309 43.0288 61.3905 43.01 61.3457C42.9911 61.301 42.9814 61.2528 42.9815 61.2042V57.4053C42.9811 57.316 43.0142 57.2298 43.0741 57.1638C43.134 57.0979 43.2164 57.057 43.3049 57.0493C45.9531 56.8161 64.088 54.8768 76.5786 43.8236C76.5786 43.8236 81.6127 60.21 43.3537 61.5663ZM83.126 23C83.126 23 72.0205 43.7193 43.256 50.8139C43.1775 50.8321 43.1075 50.8766 43.0576 50.9403C43.0076 51.0039 42.9808 51.0827 42.9815 51.1637V54.8461C42.9817 54.8981 42.9932 54.9495 43.015 54.9967C43.0368 55.044 43.0684 55.0859 43.1078 55.1197C43.1472 55.1535 43.1934 55.1783 43.2432 55.1925C43.293 55.2067 43.3452 55.21 43.3964 55.202C47.8996 54.4165 86.9397 46.8738 83.126 23ZM78.1163 66.4454C78.1171 66.5878 78.0899 66.7289 78.0363 66.8607C77.9827 66.9924 77.9037 67.1122 77.8039 67.2132C77.7041 67.3141 77.5854 67.3943 77.4547 67.4489C77.324 67.5036 77.1839 67.5317 77.0424 67.5317H57.0708C66.0406 67.2985 66.4616 60.1671 66.4616 60.1671C57.8152 63.297 45.5626 63.5609 43.3354 63.5793C43.2409 63.581 43.1509 63.6198 43.0847 63.6875C43.0185 63.7553 42.9814 63.8465 42.9815 63.9414V67.5501V68.305C42.9815 69.4542 43.4353 70.5562 44.2432 71.3688C45.0511 72.1814 46.1469 72.6379 47.2894 72.6379H78.8668C80.0099 72.6379 81.1063 72.1816 81.9152 71.3692C82.724 70.5568 83.1793 69.4547 83.1809 68.305V37.1893C83.1811 37.1116 83.1564 37.0359 83.1105 36.9734C83.0646 36.9108 83 36.8648 82.9261 36.8421C82.8522 36.8194 82.773 36.8212 82.7002 36.8473C82.6274 36.8733 82.5649 36.9222 82.5219 36.9867C81.2791 38.8265 79.874 40.5498 78.3237 42.1359C78.1915 42.2697 78.117 42.4505 78.1163 42.6391V66.4454ZM49.1871 37.2813H66.8094C66.9651 37.2818 67.1168 37.2323 67.2427 37.1402C69.0721 35.7975 70.8337 34.3637 72.5208 32.8441C72.5692 32.7939 72.602 32.7307 72.6155 32.6622C72.6289 32.5936 72.6223 32.5226 72.5965 32.4577C72.5707 32.3928 72.5268 32.3368 72.47 32.2965C72.4133 32.2562 72.3462 32.2332 72.2768 32.2304H47.3565C46.2134 32.232 45.1177 32.6899 44.31 33.5034C43.5023 34.317 43.0486 35.4197 43.0486 36.5694V48.3468C43.0482 48.4013 43.06 48.4553 43.0832 48.5046C43.1065 48.5539 43.1405 48.5973 43.1827 48.6315C43.225 48.6657 43.2744 48.6899 43.3272 48.7022C43.3801 48.7146 43.435 48.7147 43.4879 48.7027C44.1652 48.5493 45.6175 48.1872 47.6128 47.5366C47.7571 47.4897 47.8828 47.3978 47.9716 47.2742C48.0605 47.1506 48.1079 47.0018 48.1071 46.8493V38.3676C48.1071 38.0795 48.2209 37.8032 48.4234 37.5995C48.6259 37.3958 48.9007 37.2813 49.1871 37.2813Z" fill="#0032C8"/>
<path d="M95.5983 62.4378C94.1542 61.1367 93.2338 59.3486 93.0111 57.4114L96.837 56.3742C97.0433 57.7299 97.6992 58.9757 98.6981 59.9093C99.6659 60.7032 100.863 61.1619 102.11 61.2172C103.358 61.2725 104.59 60.9214 105.624 60.2162C106.028 59.9323 106.359 59.5539 106.586 59.1136C106.814 58.6732 106.931 58.1839 106.93 57.6876C106.93 55.7114 105.447 54.4656 103.207 54.0053L100.108 53.3916C98.3283 53.0915 96.6954 52.2143 95.458 50.8937C94.3545 49.7143 93.7505 48.1494 93.7738 46.5301C93.6701 42.4366 97.6303 38.834 102.042 38.9077C105.447 38.9384 107.723 40.1351 108.998 41.7799C109.821 42.739 110.379 43.8988 110.615 45.1431L106.954 46.2846C106.685 45.2567 106.108 44.3372 105.3 43.6518C104.436 42.8864 103.315 42.4785 102.164 42.5102C101.05 42.4738 99.9616 42.8568 99.113 43.5843C98.7172 43.8831 98.396 44.2705 98.1746 44.7157C97.9533 45.1609 97.838 45.6518 97.8377 46.1496C97.8441 46.9384 98.1522 47.6945 98.6981 48.2608C99.3208 48.902 100.127 49.3311 101.005 49.4883L104.178 50.102C108.62 51.0042 111.03 53.637 111.03 57.4114C111.013 58.3622 110.805 59.2998 110.421 60.1685C110.036 61.0372 109.482 61.8194 108.791 62.4685C107.013 64.0329 104.714 64.8638 102.353 64.7945C99.4913 64.7945 97.0933 63.8555 95.5983 62.4378Z" fill="black"/>
<path d="M117.84 57.0309C117.907 59.5963 120.39 61.5725 122.868 61.5357C125.077 61.5357 126.761 60.5967 127.414 58.6266L130.623 59.627C130.283 60.6812 129.709 61.6438 128.945 62.4423C128.181 63.2407 127.246 63.8541 126.212 64.236C125.153 64.6327 124.034 64.8404 122.904 64.8498C121.727 64.8754 120.557 64.6624 119.463 64.2233C118.37 63.7843 117.376 63.1282 116.54 62.2943C115.704 61.4604 115.043 60.4656 114.598 59.3695C114.152 58.2733 113.931 57.0981 113.947 55.914C113.935 54.3529 114.315 52.8141 115.051 51.4399C115.766 50.0883 116.839 48.9624 118.151 48.1872C119.478 47.3746 121.003 46.9496 122.557 46.9597C125.174 46.9597 127.212 47.7576 128.689 49.4146C130.166 51.0717 130.928 53.189 130.928 55.8587C130.926 56.2524 130.904 56.6457 130.861 57.0371L117.84 57.0309ZM119.56 51.311C118.721 52.0217 118.18 53.0262 118.047 54.1219H127.035C127.021 53.5802 126.895 53.0475 126.663 52.5581C126.432 52.0687 126.102 51.6334 125.693 51.2804C124.813 50.5787 123.716 50.2095 122.593 50.237C121.489 50.21 120.414 50.5922 119.573 51.311H119.56Z" fill="black"/>
<path d="M146.409 54.8829C146.409 52.2807 145.134 50.5869 142.62 50.5869C142.081 50.561 141.544 50.653 141.045 50.8565C140.545 51.0599 140.096 51.3699 139.727 51.7652C138.979 52.6382 138.596 53.7689 138.66 54.9197V64.5122H134.834V47.2912H138.586V49.6172C139.084 48.9487 139.705 48.3839 140.417 47.954C140.984 47.5882 141.6 47.307 142.247 47.1193C142.77 47.0106 143.301 46.9531 143.834 46.9475C145.939 46.9475 147.495 47.5612 148.624 48.8868C149.755 50.3077 150.33 52.0954 150.241 53.9132V64.5122H146.452L146.409 54.8829Z" fill="black"/>
<path d="M156.19 49.789C156.977 48.8874 157.948 48.1669 159.037 47.6765C160.126 47.1862 161.307 46.9375 162.5 46.9475C163.539 46.9743 164.56 47.2233 165.496 47.6778C166.544 48.0774 167.438 48.8044 168.046 49.7522V38.251H171.866V64.5122H168.113V61.8118C167.673 62.5311 167.071 63.1365 166.356 63.5793C165.674 63.982 164.944 64.2955 164.184 64.5122C163.602 64.6823 163.001 64.7772 162.396 64.7945C160.855 64.8006 159.345 64.3549 158.051 63.5118C156.764 62.7024 155.711 61.5656 155 60.2161C154.303 58.8812 153.935 57.3973 153.927 55.8894C153.953 53.653 154.753 51.4958 156.19 49.789ZM166.655 52.0045C166.181 51.4931 165.603 51.0894 164.962 50.8205C164.32 50.5517 163.628 50.4239 162.933 50.4457C162.247 50.4271 161.566 50.5567 160.934 50.8256C160.303 51.0945 159.736 51.4965 159.272 52.0045C158.311 53.0641 157.793 54.4555 157.826 55.8894C157.794 57.3102 158.313 58.6877 159.272 59.7313C159.735 60.2403 160.302 60.643 160.933 60.9119C161.565 61.1809 162.247 61.3099 162.933 61.2902C163.628 61.312 164.32 61.1842 164.962 60.9153C165.603 60.6465 166.181 60.2428 166.655 59.7313C167.604 58.6837 168.109 57.3056 168.065 55.8894C168.113 54.4597 167.607 53.0671 166.655 52.0045Z" fill="black"/>
<path d="M200.667 64.5122V45.5973H200.6L192.747 64.5122H189.403L181.58 45.6648H181.483V64.5122H177.639V39.233H182.978L191.112 58.7739H191.142L199.117 39.233H204.609V64.4877L200.667 64.5122Z" fill="black"/>
<path d="M213.103 57.0309C213.176 59.5963 215.653 61.5725 218.137 61.5357C220.34 61.5357 222.03 60.5967 222.683 58.6266L225.886 59.627C225.546 60.6812 224.972 61.6438 224.208 62.4423C223.444 63.2407 222.509 63.8541 221.475 64.236C220.416 64.6327 219.297 64.8404 218.167 64.8498C216.991 64.8746 215.821 64.6609 214.728 64.2216C213.634 63.7822 212.64 63.1261 211.805 62.2924C210.969 61.4586 210.308 60.4642 209.863 59.3684C209.417 58.2727 209.195 57.0978 209.21 55.914C209.198 54.3529 209.578 52.8141 210.314 51.4399C211.029 50.0883 212.102 48.9624 213.414 48.1872C214.743 47.3747 216.27 46.9497 217.826 46.9597C220.443 46.9597 222.475 47.7576 223.958 49.4146C225.498 51.1946 226.3 53.5014 226.198 55.8587C226.194 56.2525 226.169 56.6458 226.124 57.0371L213.103 57.0309ZM214.83 51.311C213.986 52.0195 213.443 53.0247 213.31 54.1219H222.305C222.288 53.5801 222.159 53.0477 221.927 52.5585C221.695 52.0694 221.364 51.6341 220.956 51.2804C220.076 50.5787 218.979 50.2095 217.856 50.237C216.76 50.2131 215.694 50.5954 214.86 51.311H214.83Z" fill="black"/>
<path d="M239.457 51.176C239.106 51.1027 238.748 51.0677 238.389 51.0717C235.497 51.0717 233.91 52.7717 233.91 55.7483V64.5122H230.115V47.2912H233.868V49.9609C234.324 49.1108 235 48.401 235.825 47.907C236.651 47.4131 237.594 47.1536 238.554 47.1561C238.864 47.1609 239.174 47.1834 239.481 47.2237L239.457 51.176Z" fill="black"/>
<path d="M240.732 55.8526C240.719 54.2848 241.124 52.7421 241.904 51.3847C242.671 50.0238 243.791 48.8975 245.144 48.1258C246.528 47.3324 248.097 46.9256 249.69 46.9475C251.557 46.8871 253.39 47.4599 254.895 48.5738C256.235 49.5129 257.2 50.9007 257.616 52.4894L254.169 53.637C253.921 52.8287 253.469 52.099 252.857 51.5197C251.976 50.7656 250.846 50.3714 249.69 50.415C249.024 50.4054 248.363 50.5321 247.747 50.7874C247.132 51.0427 246.574 51.4213 246.108 51.9002C245.622 52.4246 245.244 53.0405 244.996 53.7126C244.748 54.3846 244.634 55.0994 244.662 55.8158C244.615 57.2656 245.119 58.679 246.071 59.7681C246.537 60.2743 247.104 60.675 247.735 60.9438C248.367 61.2125 249.047 61.3432 249.733 61.327C251.899 61.327 253.394 60.2161 254.242 58.0374L257.726 59.179C257.277 60.6685 256.387 61.9851 255.176 62.9533C253.619 64.2001 251.673 64.8523 249.684 64.7945C248.507 64.8194 247.337 64.6055 246.243 64.1657C245.15 63.7259 244.156 63.0692 243.321 62.2347C242.486 61.4002 241.826 60.405 241.381 59.3085C240.936 58.212 240.716 57.0367 240.732 55.8526Z" fill="black"/>
<path d="M265.055 56.9266C265.055 59.5226 266.275 61.2226 268.807 61.2226C269.346 61.2494 269.885 61.1578 270.385 60.9544C270.886 60.7509 271.336 60.4404 271.706 60.0443C272.446 59.1669 272.828 58.0394 272.774 56.8898V47.2911H276.593V64.5122H272.877V62.1923C272.393 62.8589 271.783 63.4239 271.083 63.8555C270.524 64.2349 269.905 64.517 269.253 64.6902C268.733 64.814 268.2 64.8717 267.666 64.862C264.914 64.862 262.882 63.5118 261.949 61.4313C261.463 60.3184 261.227 59.1113 261.259 57.8963V47.2911H265.085L265.055 56.9266Z" fill="black"/>
<path d="M291.067 51.176C290.716 51.103 290.358 51.0681 289.999 51.0717C287.101 51.0717 285.52 52.7717 285.52 55.7483V64.5122H281.695V47.2912H285.447V49.9609C285.903 49.1108 286.58 48.401 287.405 47.907C288.23 47.4131 289.173 47.1536 290.133 47.1561C290.446 47.1609 290.757 47.1834 291.067 47.2237V51.176Z" fill="black"/>
<path d="M292.269 47.2911H296.626L301.965 58.5898L306.889 47.2911H311.02L299.262 72.9877H295.198L299.884 62.5544L292.269 47.2911Z" fill="black"/>
</g>
</g>
<defs>
<filter id="filter0_d_335_281" x="0.981445" y="0" width="352.033" height="102" filterUnits="userSpaceOnUse" color-interpolation-filters="sRGB">
<feFlood flood-opacity="0" result="BackgroundImageFix"/>
<feColorMatrix in="SourceAlpha" type="matrix" values="0 0 0 0 0 0 0 0 0 0 0 0 0 0 0 0 0 0 127 0" result="hardAlpha"/>
<feOffset dy="3"/>
<feGaussianBlur stdDeviation="5"/>
<feComposite in2="hardAlpha" operator="out"/>
<feColorMatrix type="matrix" values="0 0 0 0 0 0 0 0 0 0 0 0 0 0 0 0 0 0 0.05 0"/>
<feBlend mode="normal" in2="BackgroundImageFix" result="effect1_dropShadow_335_281"/>
<feBlend mode="normal" in="SourceGraphic" in2="effect1_dropShadow_335_281" result="shape"/>
</filter>
<clipPath id="clip0_335_281">
<rect width="268.033" height="50" fill="white" transform="translate(42.9814 23)"/>
</clipPath>
</defs>
</svg>
