<svg width="50" height="50" viewBox="0 0 50 50" fill="none" xmlns="http://www.w3.org/2000/svg">
<path fill-rule="evenodd" clip-rule="evenodd" d="M0 25C0 11.1929 11.1929 0 25 0C38.8071 0 50 11.1929 50 25C50 38.8071 38.8071 50 25 50C11.1929 50 0 38.8071 0 25ZM12.8125 20.7813V37.5H18.125V20.7813H12.8125ZM12.5 15.4688C12.5 17.1875 13.75 18.4375 15.4688 18.4375C17.1875 18.4375 18.4375 17.1875 18.4375 15.4688C18.4375 13.75 17.1875 12.5 15.4688 12.5C13.9063 12.5 12.5 13.75 12.5 15.4688ZM32.1875 37.5H37.1875V27.1875C37.1875 22.0312 34.0625 20.3125 31.0937 20.3125C28.4375 20.3125 26.5625 22.0312 26.0937 23.125V20.7813H21.0938V37.5H26.4062V28.5938C26.4062 26.25 27.9687 25 29.5312 25C31.0937 25 32.1875 25.7812 32.1875 28.4375V37.5Z" fill="#612FF1"/>
</svg>
