<svg width="320" height="194" viewBox="0 0 320 194" fill="none" xmlns="http://www.w3.org/2000/svg">
<g filter="url(#filter0_d_442_2806)">
<g clip-path="url(#clip0_442_2806)">
<rect x="10" y="7" width="300" height="174" rx="20" fill="#EFECF9"/>
<path d="M198.211 46.5568H193.144V41.4521H190.991V46.5568H185.924V48.7253H190.991V53.8299H193.144V48.7253H198.211V46.5568Z" fill="#8257FF"/>
<path d="M129.267 39.8478H125.086V35.6348H123.31V39.8478H119.13V41.6365H123.31V45.8482H125.086V41.6365H129.267V39.8478Z" fill="#8257FF"/>
<path d="M166.04 66.2776C171.944 60.3304 171.944 50.6881 166.04 44.741C160.137 38.7938 150.565 38.7938 144.662 44.741C138.758 50.6882 138.758 60.3304 144.662 66.2776C150.565 72.2247 160.137 72.2247 166.04 66.2776Z" fill="#8257FF"/>
<path d="M40.225 129.551H25.8348V200.478H40.225V129.551Z" fill="#8257FF"/>
<path d="M89.9355 129.551H40.2269V200.478H89.9355V129.551Z" fill="#D4C5FF"/>
<path d="M40.5545 129.551H39.8976V200.478H40.5545V129.551Z" fill="#AA45BE"/>
<path d="M140.825 75.8186H126.435V200.25H140.825V75.8186Z" fill="#8257FF"/>
<path d="M190.537 75.8159H140.828V200.247H190.537V75.8159Z" fill="#D4C5FF"/>
<path d="M141.154 75.8186H140.497V200.25H141.154V75.8186Z" fill="#AA45BE"/>
<path d="M235.527 155.59H221.136V200.621H235.527V155.59Z" fill="#8257FF"/>
<path d="M285.236 155.59H235.528V200.621H285.236V155.59Z" fill="#D4C5FF"/>
<path d="M221.304 139.505C221.304 139.505 200.439 139.505 224.514 189.223H233.742L221.304 139.505Z" fill="#29009F"/>
<path d="M265.577 135.463C265.577 135.463 275.957 163.63 237.168 155.552L244.172 189.344L229.796 189.221C229.796 189.221 206.731 148.539 221.31 139.511L265.577 135.463Z" fill="#AA45BE"/>
<path d="M234.89 180.39C230.519 180.39 225.937 180.163 225.602 180.146C225.567 180.145 225.531 180.136 225.499 180.12C225.467 180.105 225.437 180.083 225.413 180.056C225.389 180.029 225.371 179.998 225.359 179.964C225.346 179.93 225.341 179.894 225.343 179.858C225.345 179.821 225.354 179.786 225.369 179.753C225.384 179.721 225.406 179.691 225.433 179.667C225.459 179.643 225.49 179.624 225.524 179.612C225.558 179.6 225.594 179.594 225.63 179.596C225.667 179.596 229.358 179.782 233.27 179.827C239.765 179.904 241.846 179.552 242.45 179.254C242.515 179.22 242.591 179.215 242.661 179.238C242.73 179.262 242.788 179.312 242.821 179.378C242.853 179.444 242.859 179.521 242.836 179.591C242.812 179.661 242.763 179.719 242.697 179.752C241.699 180.248 238.359 180.39 234.89 180.39Z" fill="white"/>
<path d="M246.049 102.721C246.049 102.721 228.912 99.6481 225.675 137.618L267.316 135.597C267.316 135.597 273.735 109.592 253.673 102.987L246.049 102.721Z" fill="#D5569A"/>
<path d="M240.303 138.315H220.91V141.459H240.303V138.315Z" fill="#F8D4FF"/>
<path d="M241.77 133.442C241.77 133.442 232.005 131.623 228.658 133.34C225.746 134.836 226.416 136.339 227.52 136.069L227.438 136.465C227.4 136.648 227.403 136.838 227.447 137.019C227.491 137.201 227.575 137.37 227.694 137.515C227.812 137.659 227.961 137.775 228.129 137.853C228.298 137.931 228.482 137.971 228.667 137.968C229.254 137.96 229.839 138.032 230.406 138.184C233.138 138.91 241.625 141.09 243.639 140.583L245.142 138.427L241.77 133.442Z" fill="#E28B6D"/>
<path d="M243.642 140.583C243.642 140.583 262.098 145.568 267.316 135.597L258.621 129.405C258.621 129.405 252.338 133.851 241.77 133.448L243.642 140.583Z" fill="#D5569A"/>
<path d="M232.754 141.46H210.358L203.738 119.127H226.133L232.754 141.46Z" fill="#1F0076"/>
<path d="M241.768 133.814C241.675 133.813 241.586 133.777 241.518 133.714C241.45 133.65 241.408 133.562 241.402 133.469C241.395 133.376 241.423 133.283 241.481 133.21C241.539 133.137 241.623 133.089 241.715 133.075C241.874 133.05 257.76 130.659 261.492 129.325C261.538 129.306 261.587 129.296 261.637 129.297C261.687 129.297 261.737 129.308 261.783 129.329C261.828 129.349 261.869 129.379 261.903 129.416C261.937 129.453 261.964 129.496 261.98 129.544C261.997 129.591 262.004 129.642 262.001 129.692C261.998 129.742 261.985 129.791 261.962 129.836C261.939 129.881 261.908 129.921 261.87 129.953C261.831 129.986 261.787 130.01 261.739 130.024C257.939 131.382 242.481 133.71 241.823 133.809C241.804 133.812 241.786 133.814 241.768 133.814Z" fill="#B3417E"/>
<path d="M234.091 132.708C233.999 132.707 233.909 132.672 233.842 132.609C233.774 132.546 233.732 132.459 233.725 132.366C233.725 132.328 233.411 128.416 233.483 123.409C233.551 118.779 233.971 112.231 235.585 107.34C235.619 107.25 235.686 107.177 235.772 107.136C235.858 107.095 235.956 107.089 236.046 107.12C236.136 107.15 236.211 107.214 236.256 107.298C236.3 107.383 236.31 107.482 236.284 107.574C233.247 116.779 234.447 132.152 234.46 132.306C234.468 132.404 234.437 132.501 234.373 132.576C234.31 132.651 234.22 132.698 234.122 132.706L234.091 132.708Z" fill="#B3417E"/>
<path d="M246.283 109.154C245.496 109.16 244.716 109.013 243.983 108.722C243.898 108.679 243.832 108.605 243.8 108.514C243.768 108.423 243.773 108.323 243.812 108.236C243.852 108.148 243.924 108.079 244.013 108.044C244.102 108.009 244.201 108.01 244.289 108.047C244.418 108.105 247.335 109.387 249.967 106.906C250.039 106.842 250.133 106.808 250.229 106.813C250.325 106.817 250.415 106.859 250.481 106.93C250.547 107.001 250.583 107.094 250.581 107.191C250.579 107.288 250.539 107.38 250.471 107.448C249.349 108.545 247.847 109.157 246.283 109.154Z" fill="#B3417E"/>
<path d="M257.807 130.913C257.791 130.915 257.775 130.915 257.759 130.913C257.662 130.901 257.575 130.85 257.515 130.773C257.455 130.696 257.429 130.598 257.441 130.5C258.517 122.183 254.208 114.097 254.163 114.015C254.14 113.973 254.125 113.926 254.12 113.877C254.115 113.829 254.119 113.78 254.133 113.733C254.147 113.687 254.169 113.643 254.199 113.605C254.23 113.567 254.267 113.536 254.31 113.513C254.352 113.489 254.399 113.475 254.447 113.469C254.495 113.464 254.543 113.469 254.59 113.482C254.636 113.496 254.679 113.519 254.717 113.549C254.754 113.58 254.786 113.618 254.809 113.66C254.854 113.743 259.278 122.034 258.169 130.597C258.156 130.684 258.112 130.764 258.046 130.822C257.979 130.88 257.895 130.912 257.807 130.913Z" fill="#B3417E"/>
<path d="M250.259 102.1C250.258 102.916 249.965 103.704 249.434 104.319C248.902 104.935 248.168 105.336 247.366 105.45C246.564 105.563 245.748 105.381 245.069 104.937C244.389 104.493 243.892 103.817 243.668 103.033C243.646 102.972 243.629 102.91 243.617 102.847L242.675 98.6905L242.624 98.4607L246.486 94.6082L248.971 95.8616L250.177 101.352C250.231 101.597 250.258 101.848 250.259 102.1Z" fill="#E28B6D"/>
<path d="M246.026 98.6904C246.026 98.6904 245.746 100.581 243.664 103.033C243.643 102.972 243.626 102.91 243.614 102.847L242.671 98.6904H246.026Z" fill="#1F0076"/>
<path d="M236.416 89.1554C236.416 89.1554 235.772 105.92 246.024 98.6947L248.461 94.1541L244.691 87.9487L236.416 89.1554Z" fill="#E28B6D"/>
<path d="M236.579 89.6015C236.579 89.6015 237.578 91.4878 244.013 90.932C244.013 90.932 244.659 97.641 248.643 98.9384L251.708 98.3207C253.118 84.2422 247.474 80.6607 240.614 83.6245C233.075 80.6607 229.948 88.7759 236.549 92.4482C236.529 91.3874 236.475 90.6595 236.579 89.6015Z" fill="#1F0076"/>
<path d="M248.643 98.9383C248.643 98.9383 246.868 111.659 251.648 110.793C256.429 109.928 257.472 102.89 251.71 98.3206L248.643 98.9383Z" fill="#1F0076"/>
<path d="M250.299 99.4849C251.72 99.0726 252.781 98.4229 252.67 98.0337C252.559 97.6445 251.317 97.6632 249.896 98.0755C248.475 98.4878 247.414 99.1375 247.525 99.5267C247.636 99.9159 248.878 99.8972 250.299 99.4849Z" fill="#F76EB8"/>
<path d="M237.342 93.6176C237.342 93.6992 237.366 93.779 237.411 93.8469C237.456 93.9148 237.52 93.9677 237.594 93.999C237.669 94.0302 237.752 94.0384 237.831 94.0224C237.911 94.0065 237.984 93.9672 238.041 93.9095C238.098 93.8517 238.137 93.7782 238.153 93.6981C238.169 93.6181 238.161 93.5351 238.13 93.4596C238.099 93.3842 238.046 93.3197 237.979 93.2744C237.911 93.229 237.832 93.2048 237.751 93.2048C237.643 93.2048 237.538 93.2483 237.462 93.3257C237.385 93.4031 237.342 93.5081 237.342 93.6176Z" fill="#1F0076"/>
<path d="M240.296 93.6383C240.552 93.6383 240.76 93.4288 240.76 93.1704C240.76 92.9121 240.552 92.7026 240.296 92.7026C240.04 92.7026 239.832 92.9121 239.832 93.1704C239.832 93.4288 240.04 93.6383 240.296 93.6383Z" fill="#1F0076"/>
<path d="M238.774 96.1191C238.699 96.1192 238.623 96.1132 238.548 96.1012C238.448 96.0907 238.351 96.0592 238.264 96.0088C238.176 95.9583 238.1 95.8899 238.041 95.8081C237.996 95.7416 237.965 95.6665 237.95 95.5875C237.935 95.5084 237.936 95.4271 237.954 95.3486C238.056 94.8752 238.676 94.4721 238.799 94.3964C238.82 94.3825 238.843 94.3729 238.867 94.3682C238.892 94.3636 238.917 94.3639 238.941 94.3693C238.965 94.3746 238.988 94.3848 239.009 94.3993C239.029 94.4138 239.046 94.4323 239.059 94.4536C239.072 94.475 239.08 94.4987 239.084 94.5235C239.088 94.5483 239.086 94.5735 239.08 94.5977C239.074 94.6219 239.063 94.6446 239.048 94.6644C239.032 94.6842 239.013 94.7007 238.992 94.7129C238.701 94.8918 238.365 95.1917 238.309 95.427C238.301 95.4562 238.3 95.4868 238.306 95.5164C238.311 95.5461 238.323 95.5743 238.34 95.599C238.371 95.6382 238.41 95.6706 238.454 95.6943C238.498 95.718 238.546 95.7323 238.596 95.7366C238.737 95.7648 238.884 95.7548 239.02 95.7077C239.043 95.698 239.067 95.6928 239.091 95.6925C239.115 95.6921 239.139 95.6966 239.161 95.7056C239.184 95.7146 239.205 95.728 239.222 95.745C239.239 95.762 239.253 95.7823 239.263 95.8047C239.272 95.8271 239.278 95.8512 239.278 95.8756C239.278 95.9 239.274 95.9242 239.265 95.9469C239.256 95.9695 239.243 95.9902 239.226 96.0077C239.209 96.0252 239.189 96.0392 239.166 96.0489C239.042 96.0983 238.908 96.1222 238.774 96.1191Z" fill="#1F0076"/>
<path d="M239.325 97.6862C239.117 97.6855 238.911 97.6492 238.715 97.5788C238.671 97.5613 238.635 97.5272 238.615 97.4837C238.596 97.4402 238.593 97.3907 238.609 97.3454C238.624 97.3001 238.656 97.2626 238.699 97.2407C238.741 97.2189 238.79 97.2143 238.836 97.228C239.879 97.5954 240.611 96.69 240.641 96.6501C240.672 96.6114 240.716 96.5865 240.765 96.5808C240.813 96.5751 240.862 96.5892 240.901 96.6198C240.939 96.6505 240.964 96.6952 240.969 96.7443C240.975 96.7933 240.961 96.8426 240.931 96.8813C240.923 96.8854 240.289 97.6862 239.325 97.6862Z" fill="#1F0076"/>
<path d="M239.527 92.0778C239.77 92.3957 240.039 92.2443 240.786 92.2154C240.957 92.2154 241.886 92.2457 241.843 92.0214C241.813 91.8632 241.258 91.566 240.635 91.5371C240.32 91.5201 240.004 91.5669 239.707 91.6747C239.637 91.6956 239.571 91.7323 239.516 91.782C239.434 91.8618 239.442 91.9678 239.527 92.0778Z" fill="#1F0076"/>
<path d="M238.377 92.1329C238.285 92.4672 238.028 92.408 237.436 92.5594C237.299 92.5952 236.585 92.8497 236.549 92.6461C236.525 92.5085 236.867 92.1109 237.345 91.9347C237.59 91.8432 237.851 91.8061 238.11 91.826C238.174 91.8273 238.236 91.8433 238.292 91.8728C238.335 91.8987 238.367 91.9392 238.382 91.987C238.398 92.0347 238.396 92.0865 238.377 92.1329Z" fill="#1F0076"/>
<path d="M281.493 50.1357C278.537 50.135 275.633 50.9118 273.067 52.3892C270.501 53.8666 268.362 55.9934 266.862 58.5592C265.363 61.125 264.554 64.0408 264.517 67.018C264.48 69.9952 265.215 72.9307 266.649 75.5338L263.098 84.2613L271.43 80.999C273.59 82.6021 276.097 83.6662 278.745 84.1042C281.393 84.5421 284.106 84.3414 286.662 83.5184C289.218 82.6954 291.543 81.2736 293.448 79.3697C295.353 77.4658 296.782 75.1341 297.619 72.5658C298.456 69.9975 298.677 67.266 298.263 64.5952C297.849 61.9244 296.812 59.3906 295.238 57.2016C293.664 55.0127 291.596 53.231 289.206 52.0027C286.816 50.7744 284.171 50.1346 281.487 50.1357H281.493Z" fill="white"/>
<path d="M262.423 84.9204L266.247 75.5641C264.194 71.7723 263.599 67.3512 264.576 63.1454C265.553 58.9396 268.034 55.2437 271.544 52.7636C275.055 50.2834 279.349 49.1929 283.607 49.7003C287.865 50.2076 291.788 52.2773 294.628 55.514C297.467 58.7507 299.024 62.9276 299 67.247C298.976 71.5665 297.373 75.7256 294.498 78.9303C291.623 82.1349 287.677 84.1604 283.414 84.6199C279.151 85.0795 274.869 83.9408 271.386 81.4214L262.423 84.9204ZM271.491 80.5794L271.653 80.7005C274.947 83.1307 279.015 84.2492 283.077 83.8413C287.139 83.4334 290.909 81.5278 293.661 78.4905C296.413 75.4532 297.954 71.4985 297.988 67.3861C298.022 63.2738 296.547 59.2938 293.845 56.2108C291.143 53.1278 287.406 51.1593 283.351 50.6833C279.296 50.2074 275.21 51.2576 271.877 53.6323C268.544 56.007 266.2 59.5386 265.294 63.5486C264.389 67.5587 264.986 71.7644 266.971 75.3578L267.057 75.5146L263.759 83.6023L271.491 80.5794Z" fill="#8257FF"/>
<path d="M82.0776 179.855L84.1195 200.579L104.171 200.359L95.0583 190.935L92.9782 179.456L82.0776 179.855Z" fill="#1F0076"/>
<path d="M49.245 179.512L46.0736 190.16L37.3529 206L55.454 199.877L59.4176 179.778L49.245 179.512Z" fill="#1F0076"/>
<path d="M93.9806 106.93L96.6467 181.367C96.69 182.572 96.2584 183.746 95.4461 184.633C94.6338 185.519 93.5066 186.046 92.3102 186.099L83.0732 186.503C81.8767 186.555 80.7082 186.129 79.8227 185.317C78.9371 184.505 78.4063 183.373 78.3461 182.168L74.2828 102.377L93.9806 106.93Z" fill="#AA45BE"/>
<path d="M85.5852 102.762L84.9146 105.116L83.6253 109.617L62.2449 184.295C62.0067 185.128 61.4933 185.855 60.7896 186.356C60.0859 186.856 59.2339 187.1 58.3742 187.046L46.9328 186.327C46.3777 186.291 45.8372 186.132 45.3498 185.862C44.8624 185.592 44.4401 185.217 44.1128 184.764C43.7856 184.311 43.5614 183.79 43.4563 183.24C43.3512 182.69 43.3677 182.123 43.5046 181.58L60.2317 115.688L62.4293 107.02L79.0922 103.96L85.5852 102.762Z" fill="#AA45BE"/>
<g opacity="0.8">
<path opacity="0.8" d="M88.7209 106.722C88.766 107.297 93.2895 164.559 90.6932 185.81L91.2395 185.877C93.8427 164.571 89.3151 107.253 89.2686 106.677L88.7209 106.722Z" fill="white"/>
<path opacity="0.8" d="M68.3514 106.284C67.4527 109.174 46.3222 177.305 47.3029 185.876L47.8492 185.811C46.8808 177.359 68.656 107.16 68.8827 106.451L68.3514 106.284Z" fill="white"/>
</g>
<path opacity="0.6" d="M93.9821 106.928L83.6238 109.617L60.2316 115.685L62.4292 107.018L79.0907 103.958L84.9145 105.116L93.9821 106.928Z" fill="#29009F"/>
<path d="M74.6669 141.063C74.6346 141.063 74.6024 141.059 74.5713 141.05C74.477 141.024 74.3967 140.961 74.348 140.876C74.2994 140.791 74.2863 140.689 74.3118 140.594L78.4011 125.426L84.2221 121.264C84.302 121.207 84.401 121.184 84.4975 121.201C84.5939 121.218 84.6798 121.272 84.7363 121.353C84.7928 121.433 84.8153 121.533 84.7988 121.63C84.7823 121.727 84.7281 121.814 84.6482 121.871L79.0484 125.877L75.0261 140.789C75.0045 140.869 74.9576 140.938 74.8927 140.988C74.8277 141.037 74.7484 141.064 74.6669 141.063Z" fill="#29009F"/>
<path d="M77.1045 67.4158L86.4207 86.0856C89.5006 83.6654 92.7744 81.8203 94.8149 80.7773C88.1211 67.4433 77.1045 67.4158 77.1045 67.4158Z" fill="#29009F"/>
<path d="M110.551 74.528C110.551 74.528 111.443 71.4336 110.649 70.6342C109.855 69.8348 107.281 74.7275 107.281 74.7275L97.6683 85.4088C96.7123 83.7082 95.7562 82.1699 94.8152 80.7761C92.7746 81.8245 89.5008 83.6655 86.4209 86.0844L91.611 96.4987C92.1041 97.4873 92.8496 98.3257 93.7708 98.928C94.6921 99.5302 95.7559 99.8745 96.8529 99.9255C97.95 99.9765 99.0407 99.7323 100.013 99.2181C100.985 98.7039 101.804 97.9382 102.386 96.9996L112.725 80.3179C113.491 77.9252 112.5 76.0842 110.551 74.528Z" fill="#F9B384"/>
<path d="M62.5765 98.3576C62.1039 100.156 61.8608 101.247 61.8608 101.247L62.0971 107.174C62.0971 107.174 52.0898 107.363 49.141 103.696C47.1565 101.231 47.3873 97.166 50.7991 89.6783C51.6855 87.7328 52.2769 86.3761 53.11 84.9011C56.5755 85.1393 60.0126 85.6919 63.3796 86.5522L58.1403 97.3091L62.5765 98.3576Z" fill="#F9B384"/>
<path d="M77.105 67.4159C77.105 67.4159 62.5031 66.6096 53.1118 84.8984C56.4294 85.1419 61.2206 85.7583 65.8849 87.2952C68.5851 79.414 72.4858 70.5365 77.105 67.4159Z" fill="#29009F"/>
<path d="M93.982 106.928L62.0972 107.18C61.8841 103.644 62.3403 97.4108 62.9372 91.4201C62.974 91.0775 63.0041 90.7431 63.041 90.4019C63.3059 87.8028 63.5873 85.278 63.8604 83.0944C63.9424 82.3885 64.023 81.7184 64.0967 81.0965C64.4873 77.9911 64.7673 75.9341 64.7673 75.9341L77.1074 67.4158C82.9094 69.265 91.2544 80.2503 91.2544 80.2503L93.982 106.928Z" fill="#29009F"/>
<path d="M111.905 71.0181L107.759 80.2188L108.806 80.7486L113.659 71.9055L111.905 71.0181Z" fill="#29009F"/>
<path d="M114.771 69.8926L112.859 68.9294C112.837 69.3686 112.729 69.799 112.54 70.1953L113.974 70.9204C114.177 70.5331 114.447 70.1851 114.771 69.8926Z" fill="#1F0076"/>
<path d="M112.532 70.1885C112.378 70.502 112.166 70.7824 111.906 71.014L113.66 71.9015C113.701 71.5548 113.805 71.2186 113.966 70.9095L112.532 70.1885Z" fill="#29009F"/>
<path d="M118.605 70.0617C121.927 68.8924 123.679 65.2315 122.518 61.885C121.358 58.5385 117.724 56.7735 114.402 57.9428C111.08 59.1121 109.328 62.773 110.489 66.1195C111.649 69.466 115.283 71.231 118.605 70.0617Z" fill="#29009F"/>
<path d="M120.255 67.3177C122.064 65.2335 121.853 62.0669 119.784 60.2449C117.715 58.4229 114.572 58.6355 112.763 60.7196C110.955 62.8038 111.166 65.9704 113.235 67.7924C115.303 69.6144 118.447 69.4019 120.255 67.3177Z" fill="#F8D4FF"/>
<path d="M119.331 66.1129C119.285 66.1132 119.238 66.1048 119.195 66.0881C119.104 66.0525 119.03 65.9819 118.991 65.8919C118.952 65.8018 118.949 65.6997 118.984 65.6079C119.658 63.8633 119.236 62.1681 117.959 61.4898C117.914 61.4683 117.873 61.4379 117.84 61.4004C117.807 61.3628 117.782 61.3189 117.766 61.2713C117.751 61.2237 117.745 61.1734 117.749 61.1234C117.753 61.0734 117.767 61.0248 117.79 60.9804C117.814 60.9361 117.845 60.8969 117.884 60.8654C117.923 60.8338 117.967 60.8104 118.015 60.7967C118.063 60.7829 118.113 60.7791 118.163 60.7854C118.212 60.7918 118.26 60.8081 118.303 60.8335C119.921 61.6948 120.488 63.7683 119.669 65.8763C119.642 65.9452 119.596 66.0046 119.536 66.0468C119.476 66.089 119.405 66.112 119.331 66.1129Z" fill="white"/>
<path d="M113.041 76.3332C112.324 76.8836 111.469 77.1587 111.093 76.746C110.717 76.3332 111.41 75.2173 111.639 74.8926C111.962 74.4317 113.374 73.1039 113.961 73.8497C114.548 74.5954 113.901 75.6714 113.041 76.3332Z" fill="#E28B6D"/>
<path d="M113.62 78.1796C112.903 78.73 112.047 79.0052 111.671 78.5924C111.296 78.1796 111.989 77.0652 112.217 76.7391C112.54 76.2781 113.952 74.9504 114.539 75.6961C115.127 76.4419 114.479 77.5164 113.62 78.1796Z" fill="#E28B6D"/>
<path d="M113.789 80.1171C113.148 80.611 112.385 80.8587 112.049 80.4913C111.713 80.1239 112.333 79.1264 112.537 78.8402C112.825 78.4274 114.087 77.2442 114.614 77.9101C115.141 78.576 114.558 79.524 113.789 80.1171Z" fill="#E28B6D"/>
<path d="M59.046 107.085C59.046 107.085 67.0674 107.898 67.2122 107.038C67.357 106.178 65.4599 105.746 65.4599 105.746C65.4599 105.746 69.4207 105.918 69.3019 105.196C69.1831 104.474 67.469 103.969 67.469 103.969C67.469 103.969 70.247 104.046 69.9575 103.238C69.6679 102.43 67.3338 101.843 67.3338 101.843C67.3338 101.843 71.0214 101.166 69.6201 100.449C68.2188 99.7322 60.5484 97.9614 60.5484 97.9614L59.046 107.085Z" fill="#F9B384"/>
<path d="M62.3801 98.6986C62.3502 98.6982 62.3204 98.6945 62.2913 98.6876L54.9487 96.8604C54.8569 96.834 54.7788 96.7728 54.7309 96.6896C54.6829 96.6064 54.6689 96.5077 54.6917 96.4143C54.7145 96.3209 54.7724 96.24 54.8532 96.1888C54.934 96.1375 55.0314 96.1198 55.1249 96.1394L62.4688 97.9611C62.5562 97.983 62.6325 98.0363 62.6836 98.111C62.7346 98.1857 62.7567 98.2766 62.7458 98.3666C62.7349 98.4566 62.6917 98.5395 62.6243 98.5996C62.5569 98.6598 62.4701 98.693 62.3801 98.6931V98.6986Z" fill="#E28B6D"/>
<path d="M95.3095 88.2392C95.2374 88.2402 95.1666 88.2198 95.1059 88.1806C95.0452 88.1414 94.9973 88.085 94.9682 88.0186C94.9391 87.9521 94.93 87.8785 94.9421 87.8069C94.9542 87.7353 94.987 87.6689 95.0363 87.6159L101.487 80.5602C101.553 80.4872 101.646 80.4437 101.744 80.4393C101.842 80.4349 101.938 80.47 102.01 80.5368C102.083 80.6036 102.126 80.6966 102.13 80.7954C102.134 80.8942 102.1 80.9908 102.033 81.0638L95.5813 88.1195C95.5469 88.1576 95.5049 88.1879 95.458 88.2085C95.4112 88.2292 95.3606 88.2396 95.3095 88.2392Z" fill="#E28B6D"/>
<path d="M76.1362 76.0444C73.8963 76.0444 72.3216 74.6093 72.297 74.5859C72.2245 74.519 72.1814 74.4258 72.1772 74.3268C72.173 74.2279 72.208 74.1313 72.2744 74.0583C72.3409 73.9853 72.4334 73.9419 72.5317 73.9377C72.6299 73.9334 72.7258 73.9686 72.7982 74.0356C72.9457 74.1732 76.4586 77.3378 80.388 73.1261C80.4555 73.0572 80.5471 73.0176 80.6432 73.0157C80.7393 73.0138 80.8323 73.0498 80.9025 73.116C80.9726 73.1822 81.0144 73.2733 81.0188 73.3701C81.0232 73.4668 80.9899 73.5614 80.9261 73.6338C79.2134 75.4775 77.543 76.0444 76.1362 76.0444Z" fill="#AA45BE"/>
<path d="M63.4753 86.3665C63.3291 87.664 63.1816 89.0179 63.0409 90.3966C63.0041 90.7378 62.974 91.0721 62.9371 91.4147C65.5322 87.8896 65.4557 83.4138 65.4516 83.239C64.7249 84.2363 64.0647 85.2811 63.4753 86.3665Z" fill="#1F0076"/>
<path d="M80.5454 59.1301V68.4767C80.5552 69.0085 80.4597 69.5369 80.2644 70.0311C80.0692 70.5252 79.7782 70.9753 79.4083 71.3548C79.0385 71.7344 78.5972 72.0359 78.1104 72.2417C77.6236 72.4475 77.1009 72.5535 76.573 72.5535C76.045 72.5535 75.5224 72.4475 75.0355 72.2417C74.5487 72.0359 74.1075 71.7344 73.7376 71.3548C73.3678 70.9753 73.0767 70.5252 72.8815 70.0311C72.6863 69.5369 72.5907 69.0085 72.6005 68.4767V59.1301H80.5454Z" fill="#F9B384"/>
<path d="M80.5456 61.6494V68.0199C78.3526 66.8743 76.5717 65.0644 75.4539 62.8451L80.5456 61.6494Z" fill="#1F0076"/>
<path d="M82.87 52.9688C82.87 52.9688 86.0974 68.0283 75.4523 62.8369L71.7646 57.7612L74.2067 50.3546L79.756 50.012L82.87 52.9688Z" fill="#F9B384"/>
<path d="M82.8699 52.969C82.8699 52.969 75.3388 46.8654 72.6263 57.5329L70.2457 57.0816C70.2457 57.0816 68.2352 48.9045 75.4563 47.3841C81.6803 46.0715 82.8699 52.969 82.8699 52.969Z" fill="#1F0076"/>
<path d="M73.465 59.6696C74.2139 58.9152 74.0949 57.5723 73.1994 56.6701C72.3038 55.768 70.9708 55.6482 70.2219 56.4026C69.473 57.157 69.5919 58.4999 70.4875 59.4021C71.383 60.3043 72.7161 60.424 73.465 59.6696Z" fill="#F9B384"/>
<path d="M72.6862 58.8094C72.6522 58.8094 72.6188 58.8 72.5897 58.7823C72.5606 58.7646 72.5368 58.7393 72.5209 58.709C72.5209 58.6966 71.9186 57.5477 70.9775 57.6481C70.9528 57.6523 70.9274 57.6513 70.9031 57.6452C70.8787 57.6392 70.8558 57.6282 70.8359 57.6129C70.8159 57.5976 70.7992 57.5784 70.7868 57.5564C70.7745 57.5343 70.7667 57.51 70.764 57.4849C70.7613 57.4598 70.7637 57.4343 70.7711 57.4102C70.7785 57.386 70.7907 57.3636 70.807 57.3444C70.8233 57.3252 70.8433 57.3095 70.8658 57.2983C70.8883 57.2871 70.9129 57.2807 70.9379 57.2794C72.133 57.1515 72.8214 58.4833 72.8501 58.5397C72.8661 58.5681 72.8743 58.6003 72.8739 58.6329C72.8735 58.6655 72.8645 58.6975 72.8478 58.7255C72.8311 58.7534 72.8074 58.7765 72.779 58.7922C72.7506 58.8079 72.7186 58.8157 72.6862 58.8149V58.8094Z" fill="#1F0076"/>
<path d="M82.0884 57.0531C82.3532 56.9426 82.479 56.6368 82.3693 56.37C82.2596 56.1032 81.956 55.9765 81.6912 56.087C81.4264 56.1975 81.3006 56.5034 81.4103 56.7702C81.52 57.0369 81.8236 57.1636 82.0884 57.0531Z" fill="#1F0076"/>
<path d="M78.6184 57.1392C78.905 57.1392 79.1374 56.9051 79.1374 56.6164C79.1374 56.3276 78.905 56.0935 78.6184 56.0935C78.3317 56.0935 78.0994 56.3276 78.0994 56.6164C78.0994 56.9051 78.3317 57.1392 78.6184 57.1392Z" fill="#1F0076"/>
<path d="M80.9658 59.6158C80.8172 59.6192 80.6694 59.5921 80.5315 59.536C80.4905 59.5141 80.4591 59.4775 80.4438 59.4333C80.4284 59.3892 80.4301 59.3409 80.4485 59.298C80.467 59.2551 80.5008 59.2208 80.5433 59.2019C80.5858 59.183 80.6337 59.181 80.6776 59.1961C80.8342 59.2493 81.0017 59.2607 81.1639 59.2292C81.2218 59.2241 81.2781 59.2073 81.3295 59.1799C81.3809 59.1525 81.4263 59.115 81.463 59.0696C81.4837 59.0394 81.4979 59.0052 81.5045 58.9691C81.511 58.9331 81.51 58.896 81.5013 58.8604C81.4439 58.5935 81.0642 58.2523 80.735 58.05C80.6955 58.0233 80.6677 57.9822 80.6575 57.9354C80.6473 57.8885 80.6556 57.8395 80.6805 57.7986C80.7053 57.7577 80.745 57.7281 80.791 57.716C80.8371 57.7039 80.886 57.7102 80.9276 57.7336C81.0642 57.8175 81.7471 58.2633 81.8605 58.7834C81.8798 58.8679 81.8815 58.9556 81.8655 59.0408C81.8495 59.1261 81.8162 59.2071 81.7676 59.2787C81.7032 59.3667 81.6214 59.4404 81.5274 59.4951C81.4334 59.5498 81.3291 59.5843 81.2213 59.5965C81.1367 59.6094 81.0513 59.6158 80.9658 59.6158Z" fill="#1F0076"/>
<path d="M80.0438 61.1761C78.9825 61.1761 78.2778 60.2969 78.2682 60.2873C78.2378 60.2486 78.2239 60.1993 78.2295 60.1503C78.2351 60.1013 78.2599 60.0565 78.2983 60.0258C78.3367 59.9952 78.3856 59.9812 78.4342 59.9868C78.4829 59.9925 78.5273 60.0174 78.5578 60.0561C78.5933 60.1015 79.4182 61.1211 80.5955 60.7083C80.6183 60.7001 80.6425 60.6965 80.6666 60.6978C80.6908 60.6991 80.7144 60.7053 80.7362 60.7159C80.7579 60.7266 80.7773 60.7415 80.7933 60.7598C80.8092 60.7781 80.8214 60.7994 80.8291 60.8225C80.8371 60.8455 80.8405 60.8699 80.8391 60.8943C80.8377 60.9187 80.8316 60.9425 80.8211 60.9645C80.8106 60.9865 80.7958 61.0061 80.7778 61.0224C80.7597 61.0386 80.7386 61.0511 80.7157 61.0592C80.4998 61.1357 80.2727 61.1752 80.0438 61.1761Z" fill="#1F0076"/>
<path d="M79.6097 55.0602C79.4922 55.3753 79.1549 55.3065 78.3804 55.4427C78.2029 55.4743 77.27 55.7014 77.2208 55.506C77.1867 55.3684 77.6306 55.0038 78.2575 54.8483C78.5846 54.7635 78.9232 54.7329 79.26 54.7575C79.3413 54.7603 79.4216 54.7766 79.4977 54.8057C79.5232 54.8128 79.5467 54.8255 79.5667 54.8429C79.5867 54.8603 79.6027 54.882 79.6134 54.9063C79.6241 54.9306 79.6293 54.957 79.6287 54.9837C79.628 55.0103 79.6216 55.0364 79.6097 55.0602Z" fill="#1F0076"/>
<path d="M81.0492 55.0409C81.1503 55.3546 81.459 55.2858 82.1419 55.422C82.3003 55.4537 83.1362 55.6793 83.1826 55.4853C83.2167 55.3477 82.8207 54.9831 82.2634 54.8276C81.9709 54.7449 81.666 54.716 81.3634 54.7423C81.2895 54.7446 81.2167 54.761 81.1489 54.7905C81.126 54.8002 81.1052 54.8145 81.0877 54.8324C81.0703 54.8503 81.0565 54.8715 81.0472 54.8948C81.038 54.918 81.0334 54.9429 81.0337 54.968C81.034 54.9931 81.0393 55.0179 81.0492 55.0409Z" fill="#1F0076"/>
<path d="M39.3688 24.3716C42.5028 24.3704 45.5828 25.1939 48.3039 26.7605C51.0249 28.327 53.2926 30.5824 54.8825 33.3032C56.4724 36.024 57.3293 39.1159 57.3685 42.2729C57.4076 45.4299 56.6276 48.5425 55.1057 51.3025L58.878 60.5514L50.0317 57.0923C47.7412 58.792 45.0832 59.9204 42.276 60.3848C39.4687 60.8492 36.5922 60.6363 33.8824 59.7638C31.1726 58.8913 28.7067 57.3839 26.6873 55.3654C24.6678 53.3468 23.1522 50.8747 22.2648 48.1517C21.3775 45.4288 21.1437 42.5327 21.5827 39.7011C22.0216 36.8695 23.1208 34.1832 24.79 31.8624C26.4592 29.5417 28.6508 27.6527 31.1851 26.3506C33.7193 25.0485 36.524 24.3702 39.3688 24.3716Z" fill="white"/>
<path d="M59.5472 61.2103L50.0876 57.5119C46.9725 59.7911 43.2202 61.0167 39.3701 61.0122C29.2413 61.0122 21 52.7099 21 42.5061C21 32.3023 29.2413 24 39.3701 24C49.499 24 57.7403 32.3023 57.7403 42.5061C57.7384 45.5868 56.9731 48.6183 55.514 51.3257L59.5472 61.2103ZM39.3701 24.7485C36.5803 24.7433 33.829 25.4051 31.3424 26.6795C28.8558 27.9539 26.7049 29.8046 25.0664 32.0793C23.4279 34.3541 22.3486 36.988 21.9172 39.7647C21.4858 42.5414 21.7146 45.3817 22.5848 48.052C23.4549 50.7223 24.9417 53.1465 26.9228 55.1254C28.9039 57.1042 31.3229 58.5813 33.9809 59.4351C36.6389 60.289 39.4601 60.4952 42.2126 60.037C44.9652 59.5788 47.5705 58.4691 49.8145 56.7991L49.977 56.6781L58.2115 59.8977L54.6973 51.2776L54.7833 51.1221C56.2762 48.419 57.042 45.3697 57.0047 42.2766C56.9674 39.1835 56.1283 36.1539 54.5705 33.4881C53.0128 30.8223 50.7905 28.613 48.1241 27.079C45.4576 25.5451 42.4394 24.7398 39.3688 24.743L39.3701 24.7485Z" fill="#8257FF"/>
<path d="M36.9852 49.182C36.9852 47.9093 37.9768 46.9585 39.3658 46.9585C40.7548 46.9585 41.745 47.9093 41.745 49.182C41.745 50.4299 40.7535 51.455 39.3658 51.455C37.9782 51.455 36.9852 50.4299 36.9852 49.182Z" fill="#8257FF"/>
<path d="M37.0593 33.7717H41.6703L40.9013 45.185H37.8283L37.0593 33.7717Z" fill="#8257FF"/>
<path d="M239.628 70.8649H207.364V53.9177H208.1V70.1233H239.628V70.8649Z" fill="#8257FF"/>
<path d="M210.893 68.1723L210.266 67.7788L213.241 62.9644L215.283 66.3327L219.578 57.103L223.968 65.4562L235.862 54.032L236.37 54.5686L223.771 66.6698L219.618 58.7651L215.369 67.8971L213.236 64.3789L210.893 68.1723Z" fill="#8257FF"/>
<path d="M274.971 64.9122H278.931C278.931 63.1422 280.011 62.0922 281.841 62.0922C283.611 62.0922 284.691 63.1722 284.691 64.9122C284.721 67.6122 282.381 68.1822 279.261 68.1822H277.911L278.061 73.2822H281.751L281.871 70.9722C285.861 70.9722 288.771 68.9922 288.771 64.9422C288.771 60.8922 285.921 58.5822 281.841 58.5822C277.461 58.5822 274.911 61.2822 274.971 64.9122ZM282.441 77.9922C282.441 76.6122 281.361 75.5322 279.891 75.5322C278.361 75.5322 277.281 76.6122 277.281 77.9922C277.281 79.3722 278.361 80.4522 279.891 80.4522C281.361 80.4522 282.441 79.3722 282.441 77.9922Z" fill="#8257FF"/>
</g>
</g>
<defs>
<filter id="filter0_d_442_2806" x="0" y="0" width="320" height="194" filterUnits="userSpaceOnUse" color-interpolation-filters="sRGB">
<feFlood flood-opacity="0" result="BackgroundImageFix"/>
<feColorMatrix in="SourceAlpha" type="matrix" values="0 0 0 0 0 0 0 0 0 0 0 0 0 0 0 0 0 0 127 0" result="hardAlpha"/>
<feOffset dy="3"/>
<feGaussianBlur stdDeviation="5"/>
<feComposite in2="hardAlpha" operator="out"/>
<feColorMatrix type="matrix" values="0 0 0 0 0 0 0 0 0 0 0 0 0 0 0 0 0 0 0.05 0"/>
<feBlend mode="normal" in2="BackgroundImageFix" result="effect1_dropShadow_442_2806"/>
<feBlend mode="normal" in="SourceGraphic" in2="effect1_dropShadow_442_2806" result="shape"/>
</filter>
<clipPath id="clip0_442_2806">
<rect x="10" y="7" width="300" height="174" rx="20" fill="white"/>
</clipPath>
</defs>
</svg>
