<svg width="321" height="194" viewBox="0 0 321 194" fill="none" xmlns="http://www.w3.org/2000/svg">
<g filter="url(#filter0_d_442_2816)">
<g clip-path="url(#clip0_442_2816)">
<rect x="10.3333" y="7" width="300" height="174" rx="20" fill="#EFECF9"/>
<g clip-path="url(#clip1_442_2816)">
<path d="M34.68 155.385C34.8683 152.223 37.366 147.273 37.366 147.273L45.6985 147.734L41.6362 188.091L43.3877 188.772C43.3877 188.772 40.584 190.018 39.2913 190.149C37.9987 190.279 36.123 189.018 35.9257 188.971C35.7283 188.924 36.757 187.779 36.757 187.779C36.757 187.779 34.4931 158.547 34.68 155.385Z" fill="#E28B6D"/>
<path d="M45.1755 155.093C45.3624 151.931 47.8615 146.981 47.8615 146.981L56.1875 147.435L52.1251 187.792L53.6152 188.667C53.6152 188.667 51.073 189.714 49.7803 189.845C48.4876 189.976 46.612 188.716 46.4146 188.667C46.2173 188.619 47.2459 187.477 47.2459 187.477C47.2459 187.477 44.9899 158.256 45.1755 155.093Z" fill="#E28B6D"/>
<path d="M53.5776 102.974C53.5776 102.974 61.7337 148.276 57.5589 159.836C57.5589 159.836 40.1632 167.045 31.5171 160.701C22.8709 154.356 32.347 150.818 32.9888 147.765C33.6306 144.711 23.9832 111.417 34.8292 103.388L53.5776 102.974Z" fill="#AA45BE"/>
<path d="M27.899 120.587C27.899 120.587 41.9851 122.942 49.4863 115.369C56.9876 107.796 56.819 107.321 56.819 107.321L55.0452 104.405C55.0452 104.405 30.849 105.895 30.1994 106.79C29.5498 107.685 26.8089 117.493 27.899 120.587Z" fill="#8A309C"/>
<path d="M32.8462 145.579C32.8462 145.579 32.4985 148.232 37.481 150.698C42.4635 153.165 31.7535 151.443 30.7797 153.507C29.806 155.572 29.7497 159.871 29.7497 159.871C29.7497 159.871 25.4534 158.724 25.8547 155.457C26.256 152.19 32.8462 145.579 32.8462 145.579Z" fill="#8A309C"/>
<path d="M52.1173 68.6484C52.1173 68.6484 63.5893 82.1627 62.8351 83.5012C62.081 84.8396 53.9798 87.688 53.9798 87.688C53.9798 87.688 51.6742 70.1884 52.1173 68.6484Z" fill="#B3417E"/>
<path d="M36.1375 65.5933C36.1375 65.5933 25.5935 70.5102 24.2433 74.0847C22.8931 77.6592 31.1863 98.1943 30.8177 100.784C30.4492 103.373 27.92 106.731 29.5525 107.687C31.185 108.642 55.4467 106.823 55.8166 105.837C56.1865 104.85 55.3238 100.582 55.2009 99.203C55.0781 97.824 54.4559 70.908 52.1176 68.6484C49.7793 66.3888 43.3237 65.0347 43.3237 65.0347L36.1375 65.5933Z" fill="#D5569A"/>
<path d="M54.6217 109.199C54.6217 109.199 44.7077 81.5516 44.7835 79.7134C44.8593 77.8751 54.4557 75.4729 54.4557 75.4729C54.4557 75.4729 63.1281 104.799 62.6105 105.783C62.0929 106.767 54.6217 109.199 54.6217 109.199Z" fill="#B3417E"/>
<path d="M41.0348 47.1045C41.8883 47.2131 42.7496 47.323 43.5613 47.6082C44.373 47.8935 45.1428 48.3723 45.6265 49.0854C46.331 50.1216 46.3375 51.485 46.8917 52.6089C47.5792 54.001 49.0274 54.8842 49.7672 56.2501C50.1892 57.0156 50.3342 57.9034 50.1776 58.7635C49.9489 59.924 49.1189 60.8988 48.1282 61.5425C47.1374 62.1862 45.9885 62.5395 44.8448 62.8417C42.554 63.4482 40.2209 63.8816 37.8652 64.1383C37.0096 62.1707 36.2993 60.1429 35.7399 58.0714C35.0301 55.52 34.5635 52.7436 35.4954 50.2643C35.7289 49.5978 36.1019 48.9889 36.5895 48.4783C37.6704 47.4015 39.5199 46.9135 41.0348 47.1045Z" fill="#29009F"/>
<path opacity="0.24" d="M45.3967 50.4435C45.3967 50.4435 50.3164 59.0291 47.2514 61.3986C44.1863 63.7681 41.0298 60.9603 41.0298 60.9603L40.5658 50.1282L45.3967 50.4435Z" fill="#1F0076"/>
<path d="M34.9543 50.6595C35.5726 49.4951 38.3788 47.7523 40.9341 47.6738C41.6403 47.6576 42.3356 47.85 42.9332 48.227C43.5309 48.6039 44.0043 49.1487 44.2946 49.7934C45.6526 52.7621 47.4407 59.7371 45.3729 60.8989C44.4514 61.4157 43.6397 61.3202 42.798 61.1122C42.9875 63.059 43.7208 67.8398 43.3836 68.354C42.134 70.2669 37.3279 67.6541 36.213 66.8429C35.0981 66.0317 38.09 58.7139 38.09 58.7139C37.2809 57.5455 34.0943 52.2806 34.9543 50.6595Z" fill="#E28B6D"/>
<path d="M43.1837 61.277C42.0993 60.8259 41.0506 60.2932 40.0468 59.6833C40.0468 59.6833 41.3107 63.7393 43.8372 63.636L43.1837 61.2809" fill="#D5569A"/>
<path d="M46.0761 52.4047C45.9454 52.3733 44.8998 52.5892 42.9993 51.0244C42.9993 51.0244 42.2948 52.0358 39.9342 50.5939L39.567 48.6314L44.4397 47.9863L46.0761 52.4047Z" fill="#D5569A"/>
<path d="M42.4307 52.6626C42.4307 52.6626 45.7767 54.5035 45.5349 54.9889C45.2931 55.4743 42.9208 54.807 42.6725 54.9287C42.4241 55.0504 43.1548 55.6222 43.4815 55.5999C43.8083 55.5777 46.0813 55.6366 46.0813 55.0269C46.0813 54.4171 45.0108 53.5471 42.4307 52.6626Z" fill="#D5569A"/>
<path d="M42.0559 50.3089C42.1179 50.3077 42.1789 50.2935 42.235 50.267C42.3787 50.1885 42.397 49.987 42.3552 49.8287C42.2939 49.6774 42.2556 49.5177 42.2415 49.3551C43.1081 50.4881 44.555 51.022 45.964 51.2326C45.9989 51.2437 46.036 51.246 46.072 51.2394C46.108 51.2328 46.1418 51.2174 46.1705 51.1947C46.189 51.1692 46.2023 51.1403 46.2097 51.1096C46.4175 50.3655 46.4428 49.5822 46.2835 48.8262C46.1242 48.0702 45.785 47.3638 45.2948 46.7671C44.7953 46.1981 44.1992 45.7219 43.5342 45.3606C41.7043 44.3139 39.4313 43.8756 37.4511 44.603C36.812 44.8385 36.1937 45.2101 35.833 45.7884C35.6928 45.9988 35.6152 46.2447 35.6095 46.4976C35.6095 46.8901 35.8709 47.2447 36.1637 47.505C36.5353 47.8167 36.9617 48.0563 37.4211 48.2116C37.6485 48.294 37.8798 48.3568 38.1099 48.4301C38.2498 48.468 38.3765 48.5441 38.4759 48.6499C38.7407 48.9716 39.0391 49.2642 39.366 49.5225C39.733 49.7884 40.1403 49.9934 40.5724 50.1296C41.0038 50.2674 41.4556 50.3307 41.9082 50.3167C41.9526 50.3154 42.0049 50.3128 42.0559 50.3089Z" fill="#29009F"/>
<path d="M45.5257 56.8689C44.9961 57.1219 44.4167 57.2532 43.8298 57.2532C43.243 57.2532 42.6636 57.1219 42.1339 56.8689C42.1339 56.8689 43.1796 58.3081 44.2997 58.2309C45.7741 58.1341 45.5257 56.8689 45.5257 56.8689Z" fill="white"/>
<path d="M39.8167 47.8073C39.8167 47.8073 41.4479 50.3102 40.3683 52.6627C39.2886 55.0151 39.8167 62.9191 39.8167 62.9191C39.8167 62.9191 35.6106 63.0172 33.7951 61.5453C31.9796 60.0734 33.7951 57.8622 33.7951 57.8622C33.7951 57.8622 32.5207 60.3664 32.5207 61.103C32.5207 61.8397 28.6936 59.8849 28.8413 56.614C28.989 53.343 31.096 46.0881 35.8302 45.7884C40.5643 45.4888 39.8167 47.8073 39.8167 47.8073Z" fill="#29009F"/>
<path d="M80.8137 79.1966C81.5936 78.9429 82.4257 78.8948 83.2296 79.057C84.0335 79.2193 84.782 79.5865 85.4027 80.123L81.9626 69.5172C81.8228 69.0899 81.5197 68.7353 81.1194 68.531C80.7192 68.3268 80.2544 68.2895 79.8268 68.4274L66.9 72.6325C67.4664 71.8112 67.7614 70.8328 67.7434 69.835C67.7255 68.8372 67.3956 67.8701 66.8 67.0697C66.2044 66.2694 65.3732 65.676 64.4232 65.3731C63.4733 65.0702 62.4524 65.073 61.5041 65.3811C60.5558 65.6892 59.7279 66.287 59.1367 67.0906C58.5455 67.8942 58.2208 68.8631 58.2083 69.861C58.1958 70.8589 58.4961 71.8357 59.0669 72.6539C59.6378 73.4721 60.4505 74.0906 61.3908 74.4224L48.464 78.6236C48.037 78.7635 47.6828 79.0669 47.4788 79.4676C47.2747 79.8682 47.2375 80.3334 47.3752 80.7615L55.7809 106.68C55.9207 107.108 56.2238 107.462 56.624 107.667C57.0243 107.871 57.489 107.908 57.9166 107.77L89.286 97.5781C89.7126 97.4382 90.0666 97.1349 90.2706 96.7346C90.4746 96.3343 90.5121 95.8694 90.3748 95.4415L86.9346 84.8345C86.7454 85.647 86.3467 86.3956 85.7784 87.0059C85.2101 87.6161 84.492 88.0667 83.6956 88.3126C82.8992 88.5585 82.0523 88.5912 81.2393 88.4075C80.4263 88.2238 79.6756 87.83 79.062 87.2654C78.4484 86.7008 77.9934 85.9851 77.7421 85.1896C77.4909 84.3942 77.4523 83.5467 77.6301 82.7316C77.808 81.9165 78.1961 81.1623 78.7558 80.5442C79.3155 79.926 80.0273 79.4655 80.8202 79.2084L80.8137 79.1966Z" fill="#8257FF"/>
<path opacity="0.59" d="M77.575 82.9907C77.575 82.9907 75.1831 88.4571 75.3739 88.9962C75.5648 89.5353 76.5228 89.1715 76.5228 89.1715C76.5228 89.1715 76.0706 90.5126 76.3137 90.7036C76.5568 90.8947 77.2888 90.8606 77.6012 90.5466C77.6012 90.5466 77.9319 90.8436 78.6978 90.599C78.7976 90.5574 78.8881 90.4963 78.964 90.4193C79.0399 90.3422 79.0996 90.2507 79.1396 90.1502C79.2703 89.8074 79.401 88.9085 79.401 88.9085C79.401 88.9085 79.3239 90.1816 79.597 90.298C79.6866 90.3395 79.7877 90.3484 79.8831 90.3233C79.9785 90.2983 80.0622 90.2408 80.1199 90.1607C80.1787 90.0822 80.3708 88.9504 80.3813 88.1117C80.3813 88.1117 77.7136 84.1866 77.5776 82.9907" fill="#4214C8"/>
<path opacity="0.59" d="M53.8023 100.566C53.8127 100.596 56.9209 101.944 57.5731 101.967C58.2253 101.991 62.9503 101.575 63.3686 102.107C63.7869 102.64 62.0367 103.51 62.0367 103.51C62.0367 103.51 65.8154 104.673 66.1487 105.094C66.482 105.516 63.5032 108.938 62.106 108.889C60.7087 108.839 55.274 106.093 55.274 106.093C55.274 106.093 53.4951 102.313 53.797 100.567" fill="#4214C8"/>
<path d="M34.9728 89.3364C34.9728 89.3364 34.8761 96.0942 35.0068 96.2708C35.1375 96.4475 48.7009 99.0773 56.1812 102.225L56.0582 105.549C56.0582 105.549 28.6519 105.062 27.6036 103.586C26.5553 102.11 25.4653 93.119 25.7737 89.3443L34.9728 89.3364Z" fill="#E28B6D"/>
<path d="M35.2563 93.713C35.2563 93.713 27.4976 95.724 24.5711 95.3602C24.5711 95.3602 24.5711 90.1267 24.7136 90.1267H35.1792L35.2563 93.7077" fill="#B23B38"/>
<path d="M24.2393 74.0846C24.2393 74.0846 23.7008 91.9675 24.2393 91.9675C24.7778 91.9675 35.9231 92.6845 36.2303 91.2505C36.5374 89.8165 36.6093 76.4082 34.7834 75.0776C32.9574 73.747 26.3542 69.9187 24.2393 74.0846Z" fill="#D5569A"/>
<path d="M34.9203 91.8877C34.9203 91.8877 36.7123 91.7032 37.2011 91.3264C37.6899 90.9495 35.579 75.3131 34.8079 74.5464C34.8079 74.5464 36.5711 77.1919 38.1709 86.6934C38.1709 86.6934 39.3473 92.1886 38.9343 92.568C38.5212 92.9474 34.9386 93.828 34.9386 93.828L34.9203 91.8877Z" fill="#B3417E"/>
<path d="M56.185 102.223C56.185 102.223 58.8841 102.55 59.003 102.55C59.1219 102.55 62.7098 102.045 62.8288 102.386C62.9477 102.728 60.3676 103.647 60.3676 103.647C60.3676 103.647 65.4141 105.15 65.3527 105.348C65.2913 105.547 64.8756 106.379 64.3071 106.349C64.3071 106.349 64.1293 107.299 63.3581 107.299C63.3581 107.299 62.8249 107.987 62.2615 107.953C62.2615 107.953 61.638 108.337 61.1048 108.189C60.5715 108.041 55.4373 105.627 55.3655 105.403C55.2936 105.18 56.185 102.223 56.185 102.223Z" fill="#E28B6D"/>
<path d="M65.2403 105.223C65.2403 105.223 64.9031 106.128 64.2352 106.203L62.6066 105.783C62.6066 105.783 64.1371 106.361 64.145 106.444C64.1528 106.526 63.9868 107.127 63.4313 107.202L62.089 106.767C62.089 106.767 63.1987 107.21 63.1765 107.29C63.1543 107.37 62.8536 107.748 62.3582 107.846C62.3582 107.846 61.0681 107.323 61.1884 107.403C61.3086 107.482 62.119 107.846 62.1033 107.913C62.0876 107.98 61.842 108.215 61.3008 108.222C61.6577 108.297 62.0289 108.263 62.3661 108.124C62.3661 108.124 63.4248 107.951 63.5816 107.433C63.5816 107.433 64.2757 107.082 64.5044 106.523C64.5044 106.523 65.5344 105.876 65.5004 105.297L65.239 105.22" fill="#D5569A"/>
<path d="M77.5279 83.4057C77.5279 83.4057 75.8653 87.7011 75.8457 88.2467C75.8261 88.7923 76.3686 88.6589 76.6862 88.4037C77.0038 88.1486 77.9763 85.7752 77.9763 85.7752C77.9763 85.7752 76.6496 89.6794 76.7868 90.0719C76.9241 90.4644 77.473 90.1897 77.5711 90.0719C77.6691 89.9542 78.7095 87.1267 78.7095 87.1267C78.7095 87.1267 77.6887 90.1858 78.2194 90.276C78.75 90.3663 78.8664 90.0719 78.9252 89.9542C78.984 89.8364 79.6114 87.8333 79.6114 87.8333C79.6114 87.8333 79.3173 90.2224 79.8663 90.0575C80.1473 89.9712 80.3956 87.9078 80.3172 86.852C80.2388 85.7961 78.171 82.0751 77.5279 83.4057Z" fill="#E28B6D"/>
<path d="M249.738 81.7661C249.738 81.7661 245.574 90.3713 245.198 90.3713C244.774 90.3713 230.706 87.8645 220.91 87.0886C220.086 86.6294 218.697 85.898 217.974 85.7527C216.905 85.5382 209.49 84.5399 209.418 84.9677C209.346 85.3956 210.365 86.0929 210.61 86.1636C210.856 86.2342 215.725 87.472 215.725 87.472C215.725 87.472 214.594 88.4572 214.594 89.1454C214.594 89.8336 216.069 93.4277 217.249 93.378C217.931 93.3505 219.676 93.1019 221.027 92.8965C225.657 94.6183 247.667 102.737 250.106 102.317C253.41 101.754 258.09 86.2238 258.09 86.2238L249.738 81.7661Z" fill="#F9B384"/>
<path d="M246.38 84.5491C246.38 84.5491 251.034 87.7442 251.366 89.4084C251.698 91.0727 251.366 102.851 251.366 102.851C251.366 102.851 257.721 99.5235 257.602 98.5919C257.483 97.6604 259.943 84.6158 259.943 84.6158L249.04 80.3518L246.38 84.5491Z" fill="#C66A42"/>
<path d="M215.724 87.4654C215.724 87.4654 219.469 88.2348 219.703 88.8549C219.937 89.4751 219.213 89.8807 219.213 89.8807C219.213 89.8807 219.874 90.2863 219.895 90.8424C219.916 91.3984 219.383 91.5685 219.383 91.5685C219.383 91.5685 220.023 92.0173 220.002 92.381C219.982 92.7447 219.097 93.166 219.097 93.166C219.097 93.166 220.205 93.0143 220.299 92.6571C220.393 92.2999 219.932 91.4795 219.932 91.4795C220.047 91.4045 220.142 91.3018 220.208 91.1807C220.274 91.0596 220.309 90.924 220.31 90.7861C220.299 90.3242 219.629 89.8087 219.629 89.8087C219.629 89.8087 220.489 89.5889 220.289 88.9583C220.209 88.7071 219.932 88.4794 219.627 88.3041C219.16 88.0284 218.641 87.8504 218.103 87.7808L215.724 87.4602" fill="#C66A42"/>
<path d="M220.363 86.7903C220.363 86.7903 217.332 89.4528 217.668 89.9108C218.004 90.3687 218.422 90.3923 219.003 90.2928C219.583 90.1934 221.817 88.9949 221.817 88.9949L221.645 87.1501L220.91 87.0886L220.363 86.7903Z" fill="#F9B384"/>
<path d="M221.464 91.3946C221.099 90.8415 220.824 90.2338 220.651 89.5942C220.651 89.5942 219.116 90.3937 218.477 90.3387C217.838 90.2838 217.184 89.7578 217.184 89.7578C217.312 90.0335 217.521 90.2639 217.782 90.4188C218.043 90.5736 218.345 90.6456 218.648 90.6253C219.293 90.5814 219.922 90.4074 220.498 90.1137C220.645 90.6481 220.991 91.1061 221.464 91.3946Z" fill="#C66A42"/>
<path d="M254.125 180.557L253.808 186.901H259.566L260.302 180.557H254.125Z" fill="#F9B384"/>
<path d="M279.176 180.697L280.548 187.04H286.306L285.354 180.697H279.176Z" fill="#F9B384"/>
<path d="M284.863 100.951H254.533L250.162 182.753C250.159 182.802 250.166 182.851 250.183 182.897C250.199 182.943 250.225 182.985 250.258 183.021C250.291 183.057 250.331 183.086 250.376 183.106C250.42 183.126 250.468 183.137 250.517 183.138C252.739 183.192 264.056 183.451 264.572 183.105C264.862 182.913 267.327 161.979 269.698 141.294C272.068 161.979 274.534 182.913 274.823 183.105C275.346 183.451 286.661 183.192 288.878 183.138C288.927 183.137 288.975 183.126 289.019 183.106C289.064 183.086 289.104 183.057 289.137 183.021C289.17 182.985 289.196 182.943 289.212 182.897C289.229 182.851 289.236 182.802 289.234 182.753L284.863 100.951Z" fill="#AA45BE"/>
<path d="M253.39 112.249C253.39 112.249 281.795 109.438 285.921 104.66L285.687 101.833L254.128 102.365L253.39 112.249Z" fill="#4214C8"/>
<path d="M283.008 184.44C282.951 184.44 282.896 184.419 282.853 184.381C282.811 184.343 282.784 184.29 282.777 184.233C282.391 180.932 273.336 103.349 274.034 100.89C274.042 100.86 274.057 100.833 274.076 100.809C274.095 100.785 274.119 100.765 274.146 100.75C274.173 100.735 274.202 100.726 274.233 100.723C274.263 100.719 274.294 100.722 274.323 100.731C274.353 100.739 274.38 100.753 274.404 100.773C274.428 100.792 274.448 100.816 274.463 100.843C274.477 100.869 274.487 100.899 274.49 100.929C274.493 100.96 274.491 100.991 274.482 101.02C273.944 102.919 279.972 156.25 283.24 184.185C283.244 184.216 283.242 184.247 283.234 184.277C283.226 184.307 283.212 184.334 283.193 184.359C283.174 184.383 283.15 184.404 283.123 184.419C283.096 184.434 283.066 184.443 283.036 184.447L283.008 184.44Z" fill="white"/>
<path d="M255.481 184.607H255.467C255.406 184.603 255.348 184.575 255.307 184.529C255.266 184.482 255.245 184.422 255.249 184.36C255.448 181.132 260.149 105.276 262.668 101.074C262.702 101.026 262.753 100.992 262.811 100.98C262.869 100.967 262.929 100.978 262.98 101.008C263.03 101.039 263.068 101.087 263.084 101.144C263.1 101.201 263.094 101.262 263.068 101.315C260.608 105.419 255.762 183.6 255.714 184.389C255.71 184.448 255.684 184.504 255.641 184.544C255.598 184.585 255.541 184.608 255.481 184.607Z" fill="white"/>
<path d="M274.695 59.9412L277.883 60.9211C277.883 60.9211 286.755 64.09 289.879 66.7173C293.003 69.3445 297.001 85.1039 297.001 85.1039L284.629 87.6029L286.613 106.115C286.613 106.115 261.511 108.493 252.638 106.741L255.013 86.2278L245.766 81.222C245.766 81.222 257.203 64.9771 259.525 63.6557C262.171 62.1497 267.86 60.5155 267.86 60.5155L274.695 59.9412Z" fill="#29009F"/>
<path d="M263.935 39.8262C263.935 39.8262 260.506 40.9226 260.125 42.3121C259.745 43.7016 260.941 48.5923 260.941 48.5923L264.986 44.2106L263.935 39.8262Z" fill="#1F0076"/>
<path d="M261.543 44.8515C261.684 44.0869 262.046 43.3805 262.584 42.8207C263.123 42.2608 263.815 41.8723 264.573 41.7036C267.318 41.1135 270.776 42.2348 271.742 43.3155C273.087 44.8188 271.069 51.2796 270.512 52.7358C270.512 52.7358 274.282 58.9742 274.687 59.9188C274.688 59.924 274.688 59.9293 274.687 59.9345L277.875 60.9145C277.875 60.9145 275.078 69.4779 269.041 70.6541C269.041 70.6541 265.176 67.5637 264.989 61.413L266.544 60.9119C266.215 59.4269 265.884 57.8189 265.738 56.814C264.497 57.3937 263.198 57.692 262.078 57.3845C259.578 56.6963 260.874 48.3789 261.543 44.8515Z" fill="#F9B384"/>
<path d="M261.545 43.8324C261.545 43.8324 261.503 44.9759 266.414 45.6549C266.414 45.6549 267.198 48.2612 269.046 48.1003C269.046 48.1003 269.122 44.4787 268.604 43.8965C268.087 43.3142 263.662 41.2444 263.662 41.2444C263.662 41.2444 261.546 42.8131 261.545 43.8324Z" fill="#C66A42"/>
<path d="M262.932 46.0815C262.932 46.0815 261.115 50.1375 261.776 50.5732C262.438 51.0089 264.074 50.0682 264.074 50.0682C264.052 50.3586 264.056 50.5614 263.781 50.6583C262.986 50.9383 261.719 51.4224 261.388 50.7891C260.812 49.6731 262.932 46.0815 262.932 46.0815Z" fill="#C66A42"/>
<path d="M265.748 56.8179C265.748 56.8179 268.232 55.0895 269.046 54.052C269.046 54.052 268.379 57.5846 266.063 58.5869L265.748 56.8179Z" fill="#C66A42"/>
<path d="M261.546 53.5562C261.546 53.5562 262.33 53.9854 263.326 53.2854C263.326 53.2854 263.469 54.2536 262.345 54.4525C261.592 54.5859 261.546 53.5562 261.546 53.5562Z" fill="white"/>
<path d="M262.001 40.6347C262.001 40.6347 261.855 44.446 267.705 44.879C267.705 44.879 267.663 47.8883 269.046 48.1003C269.046 48.1003 269.407 46.5525 270.336 46.5839C271.266 46.6153 270.429 50.5182 269.47 49.9294C269.47 49.9294 269.6 52.4834 270.515 52.7398C270.515 52.7398 274.003 50.0838 273.44 43.8951C272.918 38.1082 270.458 38.0872 263.53 38.7113C263.118 38.7482 262.733 38.9372 262.452 39.2415C262.17 39.5458 262.012 39.9438 262.006 40.3586L262.001 40.6347Z" fill="#29009F"/>
<path d="M255.014 86.2277C255.014 86.2277 257.523 72.5617 257.602 71.6105C257.68 70.6593 251.865 84.5229 251.865 84.5229L255.014 86.2277Z" fill="#29009F"/>
<path d="M284.629 87.6029C284.629 87.6029 282.701 73.9958 282.799 73.1388C282.897 72.2818 287.58 87.0076 287.58 87.0076L284.629 87.6029Z" fill="#29009F"/>
<path d="M255.753 86.793H260.427C260.998 86.793 261.545 87.0199 261.948 87.4237C262.352 87.8276 262.578 88.3754 262.578 88.9466V93.7876H253.603V88.9466C253.603 88.3756 253.829 87.828 254.233 87.4242C254.636 87.0204 255.183 86.7933 255.753 86.793Z" fill="#4214C8"/>
<path d="M264.991 93.781H251.187C250.676 93.781 250.262 94.1957 250.262 94.7073V98.6574C250.262 99.169 250.676 99.5837 251.187 99.5837H264.991C265.502 99.5837 265.917 99.169 265.917 98.6574V94.7073C265.917 94.1957 265.502 93.781 264.991 93.781Z" fill="#29009F"/>
<path d="M263.425 92.5774H252.755V93.7811H263.425V92.5774Z" fill="#1F0076"/>
<path d="M293.964 85.7161L284.629 87.6028L285.448 95.2555L263.346 95.9764C263.346 95.9764 258.204 92.4778 258.09 92.8598C257.942 93.3531 258.101 94.1787 258.613 94.8368C259.125 95.4949 259.966 95.9764 259.966 95.9764C259.966 95.9764 254.215 93.7849 253.978 95.1652C253.931 95.4517 253.343 101.175 255.939 101.541C257.986 101.829 261.847 101.459 263.389 101.288C267.251 101.962 290.885 105.999 293.391 104.126C296.189 102.049 293.964 85.7161 293.964 85.7161Z" fill="#F9B384"/>
<path d="M285.448 95.2557C285.448 95.2557 289.139 95.1785 290.517 97.0521C290.517 97.0521 288.88 89.5289 287.579 87.0063L283.633 87.1306L285.448 95.2557Z" fill="#C66A42"/>
<path d="M255.272 94.7233C255.272 94.7233 253.986 94.7468 254.081 95.4677C254.177 96.1887 256.117 96.3692 256.117 96.3692C256.117 96.3692 254.251 96.0094 254.145 96.3915C254.04 96.7735 254.015 97.675 254.347 97.7967C254.679 97.9183 256.307 98.0348 256.307 98.0348C256.307 98.0348 254.293 97.8869 254.315 98.4064C254.338 98.9258 254.315 99.6048 254.697 99.669C255.079 99.7331 256.318 99.754 256.318 99.754C256.318 99.754 255.079 99.8181 255.011 100.167C254.943 100.517 255.646 101.476 256.484 101.706C256.484 101.706 254.99 102.088 254.301 100.847C253.612 99.6048 253.463 96.7722 253.474 96.6348C253.484 96.4974 253.289 94.9339 253.885 94.5767C254.481 94.2195 255.268 94.7233 255.268 94.7233" fill="#C66A42"/>
<path d="M250.588 96.2237C249.511 96.2193 248.469 96.602 247.651 97.3019C246.833 98.0019 246.293 98.9727 246.129 100.038L237.917 152.212C237.826 152.792 237.654 153.357 237.405 153.889C236.966 153.705 236.484 153.653 236.017 153.738C235.549 153.823 235.116 154.042 234.771 154.369C234.425 154.696 234.182 155.116 234.071 155.579C233.96 156.041 233.985 156.526 234.144 156.974C233.408 157.269 232.623 157.42 231.831 157.419H169.661V158.335H231.831C232.786 158.337 233.731 158.147 234.61 157.775C234.826 158.03 235.091 158.238 235.389 158.386C235.688 158.535 236.014 158.621 236.347 158.64C236.679 158.658 237.013 158.608 237.326 158.494C237.639 158.379 237.925 158.202 238.168 157.973C238.41 157.744 238.603 157.467 238.736 157.161C238.868 156.855 238.937 156.525 238.937 156.191C238.938 155.857 238.871 155.527 238.739 155.22C238.608 154.913 238.416 154.636 238.175 154.406C238.492 153.76 238.71 153.07 238.822 152.36L247.034 100.185C247.164 99.3364 247.594 98.5623 248.246 98.0042C248.899 97.4461 249.73 97.1411 250.588 97.1448H251.865V96.2289L250.588 96.2237Z" fill="#1F0076"/>
<path d="M172.633 77.5505H172.577C174.592 72.8858 175.6 67.8476 175.535 62.7658C175.307 42.7711 158.982 26.7984 139.008 27.0052C119.22 27.2066 103.243 43.3246 103.243 63.1832C103.23 71.4307 106.044 79.4329 111.216 85.8535C113.834 89.0824 116.253 92.4677 118.46 95.9908C123.735 104.485 128.785 113.591 129.12 117.76H149.753C150.093 113.442 155.491 103.852 160.959 95.1155C163.008 91.8689 165.241 88.742 167.647 85.7501C169.597 83.3101 171.222 80.6274 172.483 77.769L172.633 77.5505Z" fill="#D4C5FF"/>
<path d="M154.941 51.0037H125.645C125.447 51.0037 125.251 51.0426 125.068 51.1184C124.886 51.1941 124.72 51.3052 124.58 51.4451C124.44 51.5851 124.329 51.7512 124.254 51.9341C124.178 52.117 124.139 52.313 124.139 52.5109V61.4799C123.749 60.9238 123.231 60.4698 122.628 60.1565C122.026 59.8431 121.357 59.6795 120.678 59.6795C119.554 59.6795 118.476 60.1264 117.681 60.9219C116.887 61.7174 116.44 62.7963 116.44 63.9213C116.44 65.0463 116.887 66.1252 117.681 66.9207C118.476 67.7162 119.554 68.1631 120.678 68.1631C121.357 68.1634 122.025 68.0002 122.628 67.6873C123.23 67.3744 123.748 66.921 124.139 66.3654V76.7199C124.139 76.9178 124.178 77.1138 124.254 77.2967C124.329 77.4795 124.44 77.6457 124.58 77.7857C124.72 77.9256 124.886 78.0367 125.068 78.1124C125.251 78.1881 125.447 78.2271 125.645 78.2271H137.658C136.969 77.6797 136.468 76.9314 136.223 76.0859C135.978 75.2404 136.002 74.3397 136.292 73.5085C136.581 72.6773 137.122 71.9569 137.839 71.4471C138.556 70.9373 139.413 70.6634 140.293 70.6634C141.172 70.6634 142.03 70.9373 142.747 71.4471C143.464 71.9569 144.004 72.6773 144.294 73.5085C144.584 74.3397 144.608 75.2404 144.363 76.0859C144.118 76.9314 143.617 77.6797 142.928 78.2271H154.941C155.341 78.2271 155.724 78.0684 156.006 77.7857C156.289 77.5031 156.448 77.1197 156.448 76.7199V52.5148C156.448 52.3165 156.41 52.1201 156.334 51.9367C156.259 51.7534 156.148 51.5868 156.008 51.4464C155.868 51.3061 155.701 51.1947 155.518 51.1187C155.335 51.0428 155.139 51.0037 154.941 51.0037Z" fill="#8257FF"/>
<path d="M153.893 116.916H124.935V135.708H153.893V116.916Z" fill="#4214C8"/>
<path d="M154.123 119.966H124.705C124.24 119.966 123.863 120.343 123.863 120.808V124.064C123.863 124.529 124.24 124.906 124.705 124.906H154.123C154.588 124.906 154.965 124.529 154.965 124.064V120.808C154.965 120.343 154.588 119.966 154.123 119.966Z" fill="#29009F"/>
<path d="M154.123 127.718H124.705C124.24 127.718 123.863 128.095 123.863 128.56V131.816C123.863 132.281 124.24 132.658 124.705 132.658H154.123C154.588 132.658 154.965 132.281 154.965 131.816V128.56C154.965 128.095 154.588 127.718 154.123 127.718Z" fill="#29009F"/>
<path d="M110.94 135.708H167.842C168.331 135.708 168.799 135.902 169.145 136.248C169.491 136.594 169.685 137.064 169.685 137.553V194.409H109.097V137.558C109.097 137.315 109.144 137.075 109.236 136.85C109.329 136.626 109.464 136.422 109.635 136.25C109.807 136.078 110.01 135.942 110.234 135.849C110.458 135.756 110.698 135.708 110.94 135.708Z" fill="#29009F"/>
<path d="M131.37 150.146C131.736 147.889 130.205 145.762 127.949 145.395C125.694 145.029 123.569 146.562 123.203 148.819C122.837 151.077 124.369 153.204 126.624 153.57C128.879 153.937 131.004 152.404 131.37 150.146Z" fill="#1F0076"/>
<path d="M143.086 152.403C144.702 150.786 144.702 148.164 143.086 146.546C141.47 144.929 138.851 144.929 137.236 146.546C135.62 148.164 135.62 150.786 137.236 152.403C138.851 154.02 141.471 154.02 143.086 152.403Z" fill="#1F0076"/>
<path d="M157.061 150.416C157.586 148.19 156.209 145.96 153.985 145.434C151.762 144.909 149.534 146.287 149.009 148.513C148.484 150.739 149.861 152.97 152.085 153.495C154.309 154.02 156.537 152.642 157.061 150.416Z" fill="#1F0076"/>
<path d="M128.844 152.512C130.954 151.637 131.957 149.214 131.083 147.101C130.208 144.989 127.788 143.985 125.677 144.86C123.567 145.736 122.564 148.158 123.439 150.271C124.313 152.384 126.733 153.387 128.844 152.512Z" fill="#4214C8"/>
<path d="M144.162 149.628C144.687 147.402 143.309 145.172 141.086 144.647C138.862 144.121 136.634 145.5 136.109 147.726C135.585 149.951 136.962 152.182 139.185 152.707C141.409 153.232 143.637 151.854 144.162 149.628Z" fill="#4214C8"/>
<path d="M155.987 151.615C157.603 149.998 157.603 147.376 155.987 145.759C154.372 144.142 151.753 144.142 150.137 145.759C148.522 147.376 148.522 149.998 150.137 151.615C151.753 153.233 154.372 153.233 155.987 151.615Z" fill="#4214C8"/>
<path d="M163.786 162.012H114.958C114.542 162.012 114.205 162.349 114.205 162.765V164.367C114.205 164.783 114.542 165.12 114.958 165.12H163.786C164.202 165.12 164.539 164.783 164.539 164.367V162.765C164.539 162.349 164.202 162.012 163.786 162.012Z" fill="#1F0076"/>
<path d="M126.636 165.915C127.931 165.377 128.547 163.89 128.01 162.593C127.473 161.296 125.988 160.68 124.692 161.217C123.396 161.755 122.781 163.242 123.317 164.539C123.854 165.836 125.34 166.452 126.636 165.915Z" fill="#4214C8"/>
<path d="M163.804 169.301H114.976C114.561 169.301 114.224 169.638 114.224 170.054V171.656C114.224 172.072 114.561 172.409 114.976 172.409H163.804C164.22 172.409 164.557 172.072 164.557 171.656V170.054C164.557 169.638 164.22 169.301 163.804 169.301Z" fill="#1F0076"/>
<path d="M151.141 173.204C152.437 172.667 153.052 171.18 152.516 169.882C151.979 168.585 150.493 167.969 149.198 168.507C147.902 169.044 147.286 170.531 147.823 171.828C148.36 173.125 149.845 173.741 151.141 173.204Z" fill="#4214C8"/>
<path d="M163.824 176.59H114.996C114.58 176.59 114.243 176.927 114.243 177.343V178.945C114.243 179.361 114.58 179.699 114.996 179.699H163.824C164.24 179.699 164.577 179.361 164.577 178.945V177.343C164.577 176.927 164.24 176.59 163.824 176.59Z" fill="#1F0076"/>
<path d="M135.777 180.686C137.179 180.686 138.316 179.548 138.316 178.144C138.316 176.74 137.179 175.602 135.777 175.602C134.374 175.602 133.237 176.74 133.237 178.144C133.237 179.548 134.374 180.686 135.777 180.686Z" fill="#4214C8"/>
</g>
</g>
</g>
<defs>
<filter id="filter0_d_442_2816" x="0.333252" y="0" width="320" height="194" filterUnits="userSpaceOnUse" color-interpolation-filters="sRGB">
<feFlood flood-opacity="0" result="BackgroundImageFix"/>
<feColorMatrix in="SourceAlpha" type="matrix" values="0 0 0 0 0 0 0 0 0 0 0 0 0 0 0 0 0 0 127 0" result="hardAlpha"/>
<feOffset dy="3"/>
<feGaussianBlur stdDeviation="5"/>
<feComposite in2="hardAlpha" operator="out"/>
<feColorMatrix type="matrix" values="0 0 0 0 0 0 0 0 0 0 0 0 0 0 0 0 0 0 0.05 0"/>
<feBlend mode="normal" in2="BackgroundImageFix" result="effect1_dropShadow_442_2816"/>
<feBlend mode="normal" in="SourceGraphic" in2="effect1_dropShadow_442_2816" result="shape"/>
</filter>
<clipPath id="clip0_442_2816">
<rect x="10.3333" y="7" width="300" height="174" rx="20" fill="white"/>
</clipPath>
<clipPath id="clip1_442_2816">
<rect width="273" height="168" fill="white" transform="translate(24 27)"/>
</clipPath>
</defs>
</svg>
