<svg width="320" height="220" viewBox="0 0 320 220" fill="none" xmlns="http://www.w3.org/2000/svg">
<g filter="url(#filter0_d_442_2811)">
<g clip-path="url(#clip0_442_2811)">
<rect x="10" y="7" width="300" height="200" rx="50" fill="#F0EAFF"/>
<g clip-path="url(#clip1_442_2811)">
<path d="M230.975 156.347H210.241V145.06H230.975V156.347ZM210.779 155.809H230.437V145.598H210.779V155.809Z" fill="#D2D2D2"/>
<path d="M210.774 156.347H190.039V145.06H210.774V156.347ZM190.577 155.809H210.236V145.598H190.577V155.809Z" fill="#D2D2D2"/>
<path d="M38.9352 165.215H18.2012V153.928H38.9352V165.215ZM18.7391 164.677H38.3972V154.466H18.7391V164.677Z" fill="#D2D2D2"/>
<path d="M18.7353 165.215H-2V153.928H18.7353V165.215ZM-1.46205 164.677H18.1974V154.466H-1.46205V164.677Z" fill="#D2D2D2"/>
<path d="M304.001 106.17C304.001 78.9104 281.884 56.813 254.6 56.813C227.317 56.813 205.199 78.9104 205.199 106.17C205.199 122.417 213.058 136.829 225.184 145.823V177.979H284.017V145.823C296.142 136.829 304.001 122.417 304.001 106.17Z" fill="#D3DFFF"/>
<path d="M284.017 193.903H225.184V219.901H284.017V193.903Z" fill="black"/>
<path d="M253.803 177.942C253.626 172.164 253.534 167.258 253.443 162.518C253.353 157.778 253.261 152.896 253.086 147.128C253.057 146.241 255.238 145.236 259.253 143.694C259.957 143.425 260.512 143.211 260.77 143.086C266.266 140.429 269.692 136.055 271.664 129.076C269.667 130.936 266.949 132.109 264.091 132.402C263.928 132.703 263.748 132.994 263.553 133.275C261.67 136.001 258.454 137.717 255.349 137.659C250.529 137.561 245.615 134.314 241.867 128.75C241.082 127.604 240.401 126.39 239.835 125.122C239.492 125.024 239.15 124.916 238.807 124.795C233.04 122.78 228.573 118.163 227.146 112.765C226.025 108.523 226.948 103.957 229.359 100.599C224.839 100.636 220.408 99.9907 216.372 97.5425C206.166 91.3497 199.561 79.9853 193.735 69.9564L193.048 68.7727C190.248 63.9638 187.861 58.596 185.332 52.9178C179.803 40.4905 174.086 27.64 163.641 20.3776C158.651 16.9097 152.478 15.6749 146.249 16.8842C139.495 18.2023 133.495 22.2238 129.786 27.9168C127.087 32.0605 125.403 36.9191 123.773 41.6057C120.025 52.4032 116.493 62.5973 101.363 62.2063C97.509 62.1055 92.7427 60.9527 87.6981 59.7327C78.0688 57.4028 67.1564 54.7612 60.6459 59.3296L60.3984 58.9776C67.0677 54.295 78.0809 56.9621 87.799 59.3108C92.8221 60.52 97.5655 61.6729 101.374 61.7723C116.176 62.162 119.664 52.1062 123.367 41.4606C125.005 36.7431 126.698 31.8657 129.419 27.6776C133.185 21.8879 139.293 17.7992 146.16 16.4582C152.5 15.2208 158.794 16.4865 163.88 20.0229C174.424 27.3538 180.165 40.2594 185.718 52.7404C188.242 58.4132 190.624 63.7703 193.412 68.559L194.101 69.7441C199.901 79.7273 206.474 91.0421 216.588 97.1771C220.633 99.6319 225.099 100.25 229.68 100.165C230.526 99.0742 231.551 98.1339 232.711 97.384C233.651 96.7835 234.676 96.3261 235.752 96.0269C235.83 95.6982 235.919 95.3726 236.021 95.0501C235.166 93.7911 234.53 92.3976 234.138 90.9278C233.308 87.7663 233.756 84.7082 235.398 82.3151C237.907 78.6578 242.987 76.6464 249.266 76.8062C260.551 77.0871 271.52 83.0434 277.892 92.3534C281.658 97.8489 283.164 103.682 282.142 108.775C281.347 112.738 278.876 116.446 275.405 119.163C275.619 122.545 274.445 126.063 272.262 128.45C270.285 135.988 266.748 140.66 260.936 143.468C260.667 143.602 260.098 143.817 259.385 144.09C257.615 144.77 253.468 146.359 253.492 147.109C253.668 152.887 253.761 157.772 253.851 162.505C253.941 167.237 254.034 172.144 254.209 177.923L253.803 177.942ZM240.385 125.271C240.913 126.4 241.532 127.485 242.235 128.515C245.904 133.962 250.692 137.139 255.369 137.235C258.298 137.298 261.435 135.606 263.209 133.036C263.343 132.843 263.467 132.648 263.58 132.45C262.768 132.504 261.953 132.485 261.144 132.391C260.772 132.348 260.406 132.29 260.049 132.218C259.62 132.513 259.165 132.77 258.69 132.985C255.095 134.597 250.498 134.204 246.079 131.903C243.466 130.545 241.208 128.112 241.715 125.588L241.703 125.576C241.263 125.489 240.824 125.389 240.385 125.275V125.271ZM242.094 125.967C241.888 128.168 244.001 130.33 246.277 131.514C250.58 133.751 255.038 134.142 258.515 132.582C258.844 132.434 259.162 132.265 259.469 132.075C258.12 131.744 256.852 131.146 255.739 130.316C255.345 130.408 254.948 130.482 254.546 130.54C250.13 131.167 245.42 129.321 242.094 125.971V125.967ZM260.519 131.86C260.738 131.897 260.961 131.929 261.191 131.954C262.064 132.055 262.945 132.067 263.821 131.992C264.696 130.245 264.813 128.421 264.138 126.752C264.083 126.617 264.024 126.483 263.959 126.349C263.869 126.812 263.741 127.266 263.574 127.707C262.954 129.344 261.899 130.781 260.524 131.864L260.519 131.86ZM264.061 125.626C264.242 125.936 264.4 126.258 264.535 126.591C265.226 128.3 265.144 130.157 264.321 131.94C267.181 131.589 269.872 130.327 271.769 128.368L271.891 128.234C272.038 127.671 272.175 127.089 272.304 126.487C272.742 124.46 273.073 122.503 273.297 120.615C272.183 121.285 271.009 121.851 269.79 122.304C268.347 122.835 266.842 123.183 265.312 123.34C264.944 123.933 264.538 124.5 264.095 125.039C264.096 125.244 264.085 125.436 264.067 125.63L264.061 125.626ZM256.277 130.179C257.388 130.942 258.638 131.477 259.957 131.754C261.417 130.7 262.536 129.241 263.175 127.558C263.399 126.968 263.55 126.352 263.624 125.725C263.611 125.701 263.596 125.678 263.581 125.654C261.624 127.821 259.094 129.391 256.283 130.183L256.277 130.179ZM242.398 125.672C245.626 128.92 250.198 130.721 254.479 130.114C254.756 130.075 255.03 130.027 255.302 129.97C254.557 129.334 253.921 128.58 253.419 127.739C252.72 126.598 252.327 125.296 252.276 123.958C249.476 125.577 245.978 126.175 242.403 125.676L242.398 125.672ZM252.702 123.7C252.705 125.049 253.08 126.37 253.786 127.519C254.323 128.417 255.019 129.209 255.84 129.858C258.74 129.117 261.352 127.526 263.34 125.29C262.875 124.623 262.371 123.985 261.83 123.378C259.579 123.151 257.403 122.437 255.618 121.094C255.101 121.765 254.506 122.373 253.846 122.904C253.482 123.193 253.102 123.46 252.708 123.704L252.702 123.7ZM273.763 120.341C273.526 122.441 273.182 124.528 272.733 126.593C272.666 126.901 272.597 127.204 272.526 127.504C274.216 125.311 275.131 122.362 275.017 119.484C274.611 119.784 274.195 120.07 273.769 120.343L273.763 120.341ZM242.251 125.219C245.896 125.771 249.472 125.157 252.281 123.459C252.313 122.733 252.489 122.02 252.799 121.363C253.11 120.718 253.571 120.157 254.144 119.727C254.019 119.586 253.899 119.441 253.782 119.292C252.424 117.56 251.731 115.502 251.286 113.353C250.292 113.529 249.286 113.623 248.276 113.634C248.691 113.98 249.053 114.384 249.352 114.834C250.271 116.214 250.409 117.79 249.721 119.045C248.935 120.48 247.413 121.264 245.94 122.024C244.327 122.853 242.804 123.636 242.253 125.193C242.262 125.204 242.261 125.212 242.257 125.22L242.251 125.219ZM239.138 120.843C239.189 120.965 239.242 121.086 239.297 121.207C239.942 122.622 240.8 123.93 241.843 125.086L241.855 125.049C242.464 123.334 244.141 122.472 245.755 121.641C247.17 120.912 248.633 120.163 249.355 118.838C249.975 117.708 249.847 116.335 249.005 115.076C248.62 114.499 248.126 114.004 247.549 113.619C246.378 113.572 245.221 113.345 244.118 112.947C241.173 113.598 239.277 116.709 239.125 119.561C239.102 119.988 239.109 120.417 239.143 120.844L239.138 120.843ZM240.156 124.77C240.515 124.868 240.873 124.958 241.232 125.039C240.513 124.194 239.886 123.276 239.361 122.299C239.55 123.146 239.818 123.974 240.161 124.771L240.156 124.77ZM262.434 123.417C262.858 123.905 263.256 124.414 263.627 124.943L263.666 124.898C263.666 124.41 263.611 123.923 263.502 123.448C263.155 123.444 262.794 123.44 262.439 123.418L262.434 123.417ZM229.904 100.595C227.425 103.871 226.452 108.431 227.569 112.66C228.96 117.923 233.323 122.42 238.956 124.394C239.18 124.473 239.404 124.546 239.629 124.615C239.145 123.443 238.838 122.206 238.717 120.945C237.125 117.095 237.507 113.212 239.695 110.03C239.343 109.68 238.995 109.299 238.648 108.887C236.616 106.46 235.516 103.367 235.375 100.228C233.554 100.411 231.725 100.556 229.909 100.597L229.904 100.595ZM263.942 123.437C264.009 123.747 264.054 124.061 264.076 124.378C264.321 124.059 264.553 123.73 264.773 123.393C264.502 123.422 264.225 123.437 263.947 123.444L263.942 123.437ZM254.443 120.05C253.907 120.441 253.476 120.957 253.187 121.553C252.945 122.064 252.792 122.612 252.735 123.174C253.023 122.982 253.302 122.771 253.571 122.561C254.206 122.048 254.778 121.461 255.275 120.814C254.983 120.576 254.705 120.321 254.443 120.05ZM262.041 122.963C262.49 123.003 262.938 123.024 263.386 123.025C263.308 122.77 263.212 122.521 263.1 122.279C262.469 120.911 261.14 119.86 259.542 119.385C260.068 120.676 261 121.759 261.981 122.894L262.041 122.963ZM259.366 118.89C261.213 119.359 262.77 120.535 263.492 122.097C263.63 122.396 263.745 122.705 263.835 123.022C264.244 123.012 264.651 122.989 265.056 122.952C265.781 121.752 266.324 120.451 266.67 119.093C267.379 116.271 267.167 113.24 266.196 110.464C265.389 110.406 264.58 110.413 263.775 110.486C260.075 112.351 258.569 116.094 259.33 118.763C259.346 118.803 259.36 118.84 259.372 118.888L259.366 118.89ZM266.665 110.51C267.606 113.314 267.803 116.361 267.089 119.199C266.761 120.494 266.257 121.738 265.592 122.897C266.976 122.73 268.337 122.402 269.645 121.92C270.942 121.437 272.188 120.826 273.362 120.094C273.383 119.909 273.401 119.726 273.419 119.542C272.998 119.906 272.505 120.178 271.972 120.34C271.439 120.502 270.878 120.551 270.326 120.482L270.16 120.46L269.057 111.038C268.282 110.775 267.479 110.598 266.665 110.51ZM255.874 120.742C257.473 121.951 259.404 122.623 261.42 122.892C260.469 121.786 259.529 120.632 259.039 119.252C258.585 119.154 258.121 119.102 257.656 119.098C257.377 119.094 257.099 119.109 256.823 119.144C256.551 119.7 256.233 120.233 255.874 120.738V120.742ZM254.814 119.809C255.043 120.046 255.284 120.27 255.537 120.481C255.819 120.085 256.074 119.671 256.3 119.241C255.778 119.349 255.276 119.539 254.814 119.805V119.809ZM270.549 120.078C271.625 120.169 272.652 119.754 273.477 118.908C273.601 117.435 273.657 116.002 273.645 114.608C272.919 113.378 271.866 112.374 270.603 111.707C270.249 111.52 269.885 111.354 269.512 111.207L270.549 120.078ZM273.894 119.089C273.872 119.323 273.851 119.558 273.826 119.793C274.223 119.531 274.608 119.257 274.983 118.972C274.957 118.675 274.923 118.381 274.875 118.088C274.858 117.974 274.838 117.861 274.816 117.749C274.714 117.95 274.601 118.145 274.479 118.334C274.305 118.601 274.11 118.853 273.894 119.088V119.089ZM240.003 110.327C238.12 113.062 237.655 116.286 238.694 119.616V119.531C238.85 116.701 240.639 113.619 243.463 112.679C242.183 112.098 241.012 111.303 240.001 110.326L240.003 110.327ZM251.723 113.283C252.158 115.377 252.83 117.372 254.132 119.034C254.256 119.19 254.384 119.343 254.514 119.489C255.134 119.113 255.823 118.863 256.541 118.755C257.564 116.558 257.851 114.071 257.301 111.86L256.675 112.038C255.032 112.499 253.375 112.969 251.722 113.278L251.723 113.283ZM257.599 118.671H257.661C258.075 118.674 258.488 118.713 258.896 118.788C258.032 115.563 260.027 112.384 262.749 110.604C261.069 110.838 259.386 111.276 257.711 111.743C258.266 113.971 258.011 116.465 257.038 118.693C257.219 118.674 257.401 118.666 257.598 118.666L257.599 118.671ZM275.111 117.082C275.186 117.388 275.245 117.702 275.302 118.022C275.337 118.233 275.364 118.444 275.386 118.658C278.661 116.022 280.987 112.477 281.744 108.699C282.743 103.719 281.258 98.0034 277.561 92.6033C271.266 83.4062 260.429 77.5211 249.28 77.2429C246.368 77.1731 239.223 77.5439 235.777 82.5651C234.208 84.8492 233.781 87.7864 234.579 90.8244C234.927 92.1393 235.478 93.3921 236.212 94.5382C236.633 93.3434 237.218 92.2129 237.951 91.1791C240.274 87.9114 243.868 85.9967 247.311 86.1794C249.146 86.2899 250.89 87.0205 252.255 88.2513C253.782 87.9384 255.355 87.9151 256.892 88.1828C259.623 88.6504 262.367 90.0007 264.827 92.0874C268.483 95.1912 271.207 99.5768 272.702 104.771C273.308 106.881 273.713 109.044 273.913 111.23C274.247 111.56 274.541 111.927 274.789 112.325C275.61 113.663 275.708 115.452 275.109 117.076L275.111 117.082ZM274.078 115.42C274.068 116.374 274.027 117.347 273.956 118.338C274.012 118.261 274.067 118.181 274.121 118.099C274.335 117.768 274.515 117.417 274.659 117.051C274.514 116.491 274.32 115.945 274.078 115.42ZM274.078 114.487C274.415 115.069 274.689 115.685 274.897 116.324C275.23 114.995 275.079 113.615 274.42 112.546C274.284 112.325 274.133 112.113 273.968 111.913C274.029 112.757 274.066 113.615 274.078 114.487ZM269.46 110.725C269.92 110.896 270.37 111.098 270.804 111.327C271.927 111.918 272.895 112.766 273.629 113.801C273.605 112.994 273.561 112.196 273.494 111.405C272.386 110.347 270.891 109.747 269.325 109.544L269.46 110.725ZM247.718 113.216C248.89 113.248 250.062 113.158 251.215 112.947C251 111.824 250.845 110.682 250.692 109.551C250.518 108.267 250.341 106.964 250.076 105.697L249.835 105.668C247.05 105.358 244.204 106.188 242.226 107.883C241.493 108.505 240.832 109.206 240.253 109.973C241.361 111.062 242.676 111.92 244.119 112.497C244.294 112.462 244.472 112.434 244.657 112.415C245.686 112.31 246.777 112.611 247.718 113.216ZM245.105 112.826C245.599 112.962 246.101 113.062 246.609 113.126C246.13 112.936 245.62 112.834 245.105 112.826ZM250.532 105.763C250.781 106.992 250.951 108.249 251.12 109.487C251.271 110.612 251.426 111.75 251.64 112.864C253.254 112.558 254.892 112.091 256.556 111.618L257.185 111.44C256.92 110.548 256.501 109.709 255.946 108.961C254.697 107.285 252.793 106.167 250.532 105.763ZM250.436 105.31C252.88 105.713 254.944 106.898 256.292 108.704C256.877 109.494 257.318 110.381 257.596 111.324C259.614 110.76 261.654 110.239 263.687 110.057C263.978 109.907 264.277 109.772 264.583 109.654C264.962 109.515 265.348 109.397 265.74 109.301C264.759 107.034 263.24 105.04 261.314 103.492L261.203 103.406C260.253 103.588 259.259 103.823 258.245 104.059C255.529 104.699 252.752 105.352 250.391 105.121C250.408 105.181 250.423 105.246 250.436 105.31ZM269.265 109.062C270.79 109.238 272.235 109.839 273.434 110.798C273.226 108.797 272.843 106.819 272.289 104.886C270.818 99.7797 268.142 95.4599 264.549 92.4112C262.149 90.3743 259.477 89.0521 256.82 88.602C255.436 88.3611 254.019 88.3643 252.635 88.6114C253.859 89.865 254.631 91.4841 254.653 93.1905C254.687 95.4492 253.458 97.6608 251.508 99.0743C254.958 99.5177 258.274 100.629 261.308 102.945C264.342 102.382 266.957 102.368 268.283 104.445C268.821 105.278 268.934 106.287 269.037 107.178L269.265 109.062ZM266.509 110.053C267.358 110.134 268.196 110.306 269.008 110.568L268.883 109.493C268.034 109.425 267.18 109.467 266.342 109.618C266.396 109.766 266.451 109.909 266.505 110.053H266.509ZM265.164 109.989C265.457 109.989 265.75 109.998 266.041 110.016C266.002 109.913 265.962 109.811 265.92 109.709C265.589 109.785 265.263 109.878 264.942 109.99L265.164 109.989ZM235.812 100.187C235.947 103.24 237.012 106.252 238.99 108.611C239.312 108.996 239.635 109.351 239.96 109.678C240.541 108.899 241.208 108.186 241.947 107.554C244.013 105.782 246.977 104.914 249.882 105.238L249.98 105.248L249.936 105.063C248.968 104.937 248.045 104.578 247.246 104.016C246.208 103.262 245.462 102.142 244.994 100.622C243.728 100.472 242.494 100.128 241.333 99.6037C240.293 99.7045 239.254 99.8187 238.219 99.9315C237.422 100.016 236.614 100.105 235.804 100.187H235.812ZM261.768 103.3C263.682 104.89 265.19 106.912 266.167 109.199C267.041 109.013 267.937 108.951 268.828 109.017L268.618 107.226C268.52 106.382 268.408 105.424 267.928 104.673C266.781 102.892 264.482 102.834 261.763 103.3H261.768ZM250.292 104.672C252.612 104.941 255.415 104.281 258.155 103.637C259.034 103.429 259.903 103.225 260.746 103.054C257.723 100.845 254.408 99.8214 250.958 99.4438C250.537 99.6994 250.094 99.9162 249.633 100.091C249.279 100.225 248.916 100.337 248.548 100.426C249.379 101.725 249.91 103.168 250.287 104.672H250.292ZM245.471 100.662C245.914 102.006 246.59 102.996 247.511 103.665C248.202 104.153 248.996 104.474 249.831 104.606C249.453 103.151 248.921 101.762 248.096 100.523C247.229 100.682 246.345 100.729 245.466 100.662H245.471ZM245.337 100.22C246.166 100.296 247.001 100.267 247.823 100.133C247.596 99.8274 247.351 99.5361 247.088 99.2611C246.435 99.2611 245.783 99.2839 245.127 99.3161C245.183 99.6265 245.253 99.9342 245.333 100.22H245.337ZM242.268 99.515C243.11 99.8322 243.986 100.052 244.878 100.171C244.808 99.902 244.743 99.6332 244.692 99.339C243.881 99.3833 243.073 99.4438 242.264 99.515H242.268ZM235.67 96.5066C234.715 96.7955 233.805 97.2137 232.965 97.7495C231.946 98.4083 231.034 99.2205 230.263 100.157C231.958 100.108 233.666 99.9678 235.374 99.7999C235.35 98.6948 235.448 97.5904 235.666 96.5066H235.67ZM247.67 99.2611C247.89 99.5107 248.097 99.7717 248.29 100.043C248.694 99.954 249.092 99.8354 249.479 99.6883C249.724 99.5956 249.964 99.4898 250.198 99.3712C249.358 99.3014 248.515 99.2678 247.666 99.2611H247.67ZM236.135 96.3763C235.892 97.4863 235.778 98.6207 235.796 99.7569C236.594 99.6749 237.39 99.5876 238.185 99.5016C238.979 99.4156 239.798 99.3256 240.605 99.2423C239.189 98.4771 237.934 97.4461 236.908 96.2056C236.646 96.254 236.387 96.3109 236.131 96.3763H236.135ZM237.403 96.125C238.429 97.3192 239.681 98.2984 241.088 99.0058C241.197 99.0595 241.306 99.1119 241.416 99.1616C242.484 99.0595 243.555 98.9708 244.62 98.9104C244.561 98.5301 244.513 98.1297 244.485 97.7119C244.474 97.5775 244.466 97.4431 244.464 97.3088C242.288 96.194 239.82 95.7804 237.399 96.125H237.403ZM247.383 98.8284C248.542 98.8249 249.699 98.8809 250.852 98.9964C252.903 97.6823 254.264 95.4277 254.229 93.1959C254.202 91.511 253.396 89.9134 252.135 88.7135C250.848 89.0006 249.63 89.5359 248.548 90.2896C246.294 91.8845 244.902 94.4818 244.885 97.0468C245.759 97.5239 246.561 98.1239 247.265 98.8284H247.383ZM244.898 97.5452C244.898 97.5882 244.898 97.6326 244.908 97.6796C244.943 98.1042 244.99 98.5073 245.051 98.8889C245.589 98.8629 246.123 98.845 246.653 98.8351C246.115 98.3429 245.525 97.9105 244.894 97.5452H244.898ZM239.059 95.5835C240.93 95.5793 242.778 96.004 244.46 96.8251C244.552 94.1969 245.997 91.5674 248.299 89.9389C249.342 89.21 250.509 88.6772 251.744 88.3669C250.486 87.3192 248.925 86.7014 247.291 86.604C243.985 86.4213 240.543 88.2742 238.304 91.4223C237.532 92.5133 236.929 93.714 236.514 94.9843C236.693 95.2449 236.883 95.4975 237.082 95.7421C237.734 95.6366 238.394 95.5836 239.055 95.5835H239.059ZM236.355 95.5002C236.316 95.6346 236.28 95.769 236.245 95.9033C236.365 95.8751 236.485 95.8482 236.604 95.824C236.516 95.7219 236.433 95.6118 236.351 95.5002H236.355Z" fill="black"/>
<path d="M30.9456 208.441L29.6074 219.919H43.6775L46.4305 206.065L30.9456 208.441Z" fill="black"/>
<path d="M48.161 136.422L47.853 141.576L43.9744 206.441L43.8574 208.441H30.9452L30.7139 145.161L30.6763 135.078L44.8688 136.169L48.161 136.422Z" fill="#3A6BEA"/>
<path d="M30.7388 176.596L30.6221 177.121L35.4638 178.196L35.5806 177.672L30.7388 176.596Z" fill="black"/>
<path d="M43.8575 208.441L43.6772 219.996H68.0653L59.2778 212.83L59.727 208.441L52.1056 204.59L43.8575 208.441Z" fill="black"/>
<path d="M65.9134 134.541L59.727 208.441H43.8574V208.301L43.8843 206.457L44.7814 142.221L44.8688 136.169L44.9333 131.585L61.0167 133.853L65.9134 134.541Z" fill="#3A6BEA"/>
<path d="M44.1269 208.445L43.5889 208.437L44.3918 152.046L38.1045 149.43L38.3116 148.932L44.9351 151.691L44.1269 208.445Z" fill="black"/>
<path d="M62.3902 176.856L56.4731 177.395L56.522 177.93L62.4391 177.391L62.3902 176.856Z" fill="black"/>
<path opacity="0.2" d="M65.015 137.986L47.853 141.576L44.7813 142.221L30.7139 145.161L30.6763 135.078L44.8688 136.169L44.9333 131.585L61.0167 133.853L65.015 137.986Z" fill="black"/>
<path d="M51.3811 90.0637L51.3919 90.4453L51.5627 95.4678L51.6554 98.1631L44.2411 98.7382L44.2492 92.532L43.4302 90.0583L45.7461 87.9797L51.3811 90.0637Z" fill="#F9B384"/>
<path d="M51.393 90.4454L51.5638 95.4679C50.0374 95.0473 48.4074 94.1149 46.6416 92.5428L49.9285 89.9375L51.393 90.4454Z" fill="black"/>
<path d="M53.1239 82.7329C53.1239 82.7329 55.7868 90.5515 54.3531 91.8696C52.9195 93.1877 46.6416 92.5414 46.6416 92.5414L44.5073 88.8088L45.8912 82.698L53.1239 82.7329Z" fill="#F9B384"/>
<path d="M47.825 86.6953C47.9259 85.1756 48.4504 83.9677 49.9997 83.5122C49.9997 83.5122 53.694 85.1514 54.9649 83.2435C57.227 79.8548 52.4635 77.1313 50.3614 79.7285C46.4492 78.4709 42.6836 80.1316 42.2465 83.0876C38.8251 85.3288 39.624 89.0789 44.249 92.5347C44.8488 90.3217 45.9973 88.8773 47.6677 88.36L47.825 86.6953Z" fill="black"/>
<path d="M53.6617 85.5034C53.6617 85.5034 56.0556 86.8027 55.5069 87.707C55.1034 88.3788 53.2407 88.2901 53.2407 88.2901L53.6617 85.5034Z" fill="#F9B384"/>
<path d="M48.8348 86.53C49.3728 87.2179 49.2854 88.1773 48.6465 88.6798C48.0077 89.1823 47.0542 89.0237 46.5189 88.3371C45.9837 87.6505 46.0684 86.6898 46.7086 86.1873C47.3487 85.6848 48.2996 85.8434 48.8348 86.53Z" fill="#F9B384"/>
<path d="M48.1776 87.7944C47.7916 87.0688 47.4056 87.0285 47.146 87.0594L47.1138 86.7907C47.6423 86.7248 48.0673 87.0124 48.4143 87.6681L48.1776 87.7944Z" fill="black"/>
<path d="M63.6272 98.1283C53.6887 95.9521 43.4154 95.779 33.4091 97.6191C32.6631 97.7551 31.9826 98.1322 31.4723 98.6926C30.9619 99.253 30.6501 99.9654 30.5849 100.72L27.5777 134.724C27.5278 135.29 27.597 135.86 27.7809 136.398C27.9648 136.936 28.2592 137.43 28.6454 137.848C29.0316 138.265 29.5009 138.597 30.0232 138.823C30.5455 139.049 31.1093 139.163 31.6783 139.158L64.5121 138.878C65.0913 138.873 65.6628 138.745 66.1886 138.502C66.7145 138.259 67.1825 137.907 67.5618 137.47C67.941 137.033 68.2227 136.519 68.3881 135.965C68.5535 135.41 68.5989 134.827 68.5212 134.253L63.6272 98.1283Z" fill="#1F3C88"/>
<path d="M33.4093 97.6191L32.4275 97.8462C31.0081 98.1745 29.7059 98.8853 28.6626 99.9014C27.6193 100.917 26.8748 102.2 26.5101 103.609L21.2005 124.132C21.0091 124.87 20.9759 125.641 21.1032 126.393C21.2304 127.146 21.5152 127.863 21.9388 128.497C22.6248 129.525 23.6413 130.288 24.8203 130.66C25.9993 131.032 27.2701 130.991 28.4225 130.544L31.6206 129.301L33.4093 97.6191Z" fill="#599BFF"/>
<path d="M91.4435 58.4481C90.6715 55.3578 85.908 55.8764 85.908 55.8764C85.908 55.8764 85.6511 54.9762 84.2349 54.4616C82.8188 53.947 82.3117 63.7004 82.3117 63.7004L81.3945 67.6601L90.022 71.5566C91.0172 65.2295 91.7461 59.6601 91.4435 58.4481Z" fill="#F9B384"/>
<path d="M81.3934 67.6602L76.6729 84.9554L55.4238 97.8543L61.3184 111.952L84.1423 94.5557C85.528 93.5006 86.4706 91.9678 86.7864 90.2561C87.522 86.2641 88.9301 78.463 90.0141 71.5554L81.3934 67.6602Z" fill="#1F3C88"/>
<path d="M81.3916 67.6599L90.3901 68.5628L90.0203 71.5525L81.3916 67.6599Z" fill="#CC7260"/>
<path d="M81.3932 67.6602L76.6727 84.9554L56.8707 96.9756C49.0638 95.9803 41.1498 96.1974 33.4093 97.6192L32.4275 97.8463C31.0081 98.1746 29.7059 98.8854 28.6626 99.9014C27.6193 100.917 26.8748 102.2 26.5101 103.609L21.2005 124.132C21.0091 124.87 20.9759 125.641 21.1032 126.393C21.2304 127.146 21.5152 127.862 21.9388 128.497C22.5761 129.451 23.4994 130.179 24.5764 130.576C25.6533 130.972 26.8284 131.018 27.9329 130.706L27.5779 134.724C27.528 135.29 27.5972 135.86 27.7811 136.398C27.9649 136.936 28.2594 137.43 28.6456 137.848C29.0317 138.265 29.501 138.597 30.0233 138.823C30.5456 139.049 31.1094 139.163 31.6784 139.158L64.5123 138.878C65.0915 138.873 65.663 138.745 66.1888 138.502C66.7147 138.259 67.1827 137.908 67.562 137.47C67.9412 137.033 68.2229 136.52 68.3883 135.965C68.5537 135.41 68.5991 134.827 68.5214 134.253L65.1094 109.062L84.1448 94.5503C85.5304 93.4953 86.473 91.9624 86.7888 90.2507C87.5245 86.2587 88.9326 78.4576 90.0165 71.55L81.3932 67.6602Z" fill="#1F3C88"/>
<path d="M28.8735 117.006L27.6392 130.689L28.1749 130.737L29.4093 117.054L28.8735 117.006Z" fill="black"/>
<path d="M65.4605 108.126L61.1353 111.743L61.4805 112.155L65.8058 108.538L65.4605 108.126Z" fill="black"/>
<path d="M76.8342 84.7263L76.5469 85.1807L79.1018 86.7931L79.3891 86.3387L76.8342 84.7263Z" fill="black"/>
<path d="M166.369 42.2412C166.289 40.7268 165.984 39.2325 165.465 37.8072C164.948 36.3815 164.223 35.0399 163.313 33.826L166.577 29.8973L161.108 25.3679L157.847 29.294C155.189 27.9745 152.205 27.4532 149.257 27.7931L147.509 22.999L140.833 25.4176L142.581 30.2117C140.1 31.8399 138.145 34.1515 136.953 36.8667L131.931 35.945L130.646 42.9224L135.672 43.8455C135.753 45.36 136.057 46.8542 136.576 48.2795C137.093 49.7049 137.818 51.046 138.728 52.2594L135.464 56.1882L140.928 60.7189L144.189 56.7928C146.848 58.1123 149.832 58.6336 152.78 58.2936L154.522 63.0877L161.198 60.6692L159.456 55.8751C161.937 54.2463 163.892 51.9343 165.085 49.2187L170.106 50.1405L171.391 43.163L166.369 42.2412ZM153.819 50.7424C151.775 51.4817 149.521 51.3804 147.552 50.4609C145.583 49.5414 144.06 47.8788 143.317 45.8381C142.577 43.7965 142.679 41.5451 143.599 39.5782C144.519 37.6112 146.183 36.0895 148.225 35.347C150.269 34.6078 152.523 34.709 154.492 35.6285C156.461 36.548 157.984 38.2106 158.727 40.2513C159.467 42.293 159.365 44.5443 158.445 46.5113C157.525 48.4782 155.861 49.9999 153.819 50.7424Z" fill="#86A7FF"/>
<path d="M154.365 63.4342L152.604 58.5864C149.744 58.8796 146.858 58.3754 144.266 57.1299L140.969 61.1003L135.089 56.227L138.39 52.2538C137.523 51.0644 136.828 49.7585 136.326 48.3748C135.823 46.9914 135.518 45.5438 135.42 44.0751L130.336 43.1346L131.717 35.6277L136.797 36.5602C137.985 33.9443 139.876 31.7084 142.258 30.1L140.498 25.2522L147.679 22.6482L149.44 27.496C152.301 27.2035 155.186 27.7076 157.778 28.9525L161.076 24.9821L166.954 29.8568L163.654 33.8299C164.521 35.0196 165.215 36.3255 165.717 37.709C166.221 39.0924 166.526 40.5399 166.625 42.0086L171.707 42.9492L170.327 50.4493L165.248 49.5169C164.059 52.1325 162.168 54.3684 159.786 55.977L161.546 60.8249L154.365 63.4342ZM152.965 58.0046L154.688 62.7463L160.858 60.5091L159.135 55.7674L159.313 55.6505C161.751 54.0528 163.672 51.7812 164.841 49.1124L164.927 48.9176L169.895 49.8299L171.082 43.3805L166.106 42.4681L166.095 42.2558C166.016 40.7684 165.717 39.3009 165.207 37.9011C164.699 36.5001 163.986 35.182 163.092 33.9898L162.965 33.8205L166.193 29.9361L161.143 25.7466L157.915 29.6297L157.726 29.5357C155.115 28.2358 152.183 27.7223 149.285 28.0577L149.074 28.0819L147.351 23.3402L141.181 25.5773L142.904 30.319L142.725 30.4359C140.286 32.0339 138.365 34.306 137.196 36.9754L137.111 37.1702L132.143 36.2565L130.957 42.706L135.933 43.6183L135.944 43.8306C136.023 45.318 136.322 46.7855 136.832 48.1853C137.34 49.5863 138.053 50.9044 138.947 52.0966L139.074 52.2659L135.846 56.1504L140.896 60.3398L144.124 56.4567L144.313 56.5508C146.924 57.8495 149.856 58.3629 152.754 58.0288L152.965 58.0046ZM151.031 51.5027C149.291 51.5025 147.594 50.9677 146.169 49.971C144.743 48.9742 143.659 47.5637 143.064 45.9307C142.3 43.8219 142.404 41.4963 143.355 39.4645C144.306 37.4328 146.024 35.861 148.134 35.0943C149.178 34.7123 150.288 34.5412 151.399 34.5908C152.511 34.6404 153.601 34.9097 154.607 35.3832C155.616 35.8506 156.522 36.5135 157.272 37.3335C158.023 38.1534 158.603 39.1141 158.979 40.1598C159.743 42.2683 159.638 44.5934 158.688 46.6248C157.738 48.6562 156.019 50.2278 153.91 50.9948C152.988 51.3309 152.013 51.5028 151.031 51.5027ZM151.031 35.1198C150.107 35.121 149.189 35.2833 148.321 35.5995C146.346 36.3177 144.737 37.7896 143.846 39.692C142.956 41.5944 142.858 43.7719 143.574 45.7466C144.292 47.72 145.766 49.3277 147.67 50.217C149.574 51.1062 151.754 51.2043 153.73 50.4896C155.705 49.7717 157.315 48.2999 158.205 46.3975C159.096 44.495 159.194 42.3173 158.479 40.3425C158.126 39.3636 157.582 38.4643 156.879 37.6966C156.176 36.9289 155.328 36.3079 154.384 35.8696C153.332 35.3758 152.184 35.1198 151.021 35.1198H151.031Z" fill="#7698E5"/>
<path d="M124.639 156.603H124.101V216.094H124.639V156.603Z" fill="black"/>
<path d="M152.096 156.603H96.6426V158.753H152.096V156.603Z" fill="black"/>
<path d="M129.126 139.867H119.317V156.681H129.126V139.867Z" fill="white"/>
<path d="M129.396 156.949H119.048V139.598H129.396V156.949ZM119.586 156.411H128.858V140.136H119.586V156.411Z" fill="black"/>
<path d="M143.704 115.058H104.739C103.125 115.058 101.816 116.365 101.816 117.978V143.703C101.816 145.316 103.125 146.623 104.739 146.623H143.704C145.318 146.623 146.626 145.316 146.626 143.703V117.978C146.626 116.365 145.318 115.058 143.704 115.058Z" fill="white"/>
<path d="M143.705 146.891H104.74C103.893 146.89 103.081 146.553 102.483 145.954C101.884 145.356 101.548 144.544 101.549 143.698V117.978C101.55 117.132 101.886 116.322 102.484 115.724C103.083 115.126 103.894 114.79 104.74 114.789H143.705C144.552 114.79 145.363 115.127 145.961 115.724C146.559 116.322 146.896 117.132 146.897 117.978V143.698C146.897 144.544 146.561 145.356 145.963 145.954C145.364 146.553 144.552 146.89 143.705 146.891ZM104.74 115.327C104.037 115.327 103.362 115.607 102.865 116.104C102.367 116.601 102.087 117.275 102.087 117.978V143.698C102.087 144.4 102.367 145.074 102.865 145.571C103.362 146.068 104.037 146.348 104.74 146.349H143.705C144.409 146.348 145.083 146.068 145.581 145.571C146.078 145.074 146.358 144.4 146.359 143.698V117.978C146.358 117.275 146.078 116.601 145.581 116.104C145.083 115.607 144.409 115.327 143.705 115.327H104.74Z" fill="black"/>
<path d="M133.928 156.681H114.518C114.518 155.806 114.866 154.966 115.485 154.347C116.104 153.728 116.944 153.38 117.821 153.38H130.624C131.5 153.38 132.341 153.728 132.96 154.347C133.58 154.966 133.928 155.806 133.928 156.681Z" fill="white"/>
<path d="M134.197 156.949H114.249V156.68C114.25 155.734 114.626 154.827 115.296 154.158C115.966 153.488 116.874 153.112 117.821 153.111H130.624C131.571 153.112 132.479 153.488 133.149 154.157C133.819 154.826 134.196 155.734 134.197 156.68V156.949ZM114.797 156.411H133.647C133.579 155.657 133.231 154.955 132.672 154.444C132.112 153.933 131.382 153.649 130.624 153.649H117.821C117.063 153.649 116.332 153.933 115.773 154.444C115.214 154.955 114.866 155.657 114.797 156.411Z" fill="black"/>
<path d="M116.456 120.427H106.1V129.161H116.456V120.427Z" fill="#F4F4F4"/>
<path d="M142.344 120.427H122.238V129.161H142.344V120.427Z" fill="#F4F4F4"/>
<path d="M142.324 132.52H106.1V141.254H142.324V132.52Z" fill="#F4F4F4"/>
</g>
</g>
</g>
<defs>
<filter id="filter0_d_442_2811" x="0" y="0" width="320" height="220" filterUnits="userSpaceOnUse" color-interpolation-filters="sRGB">
<feFlood flood-opacity="0" result="BackgroundImageFix"/>
<feColorMatrix in="SourceAlpha" type="matrix" values="0 0 0 0 0 0 0 0 0 0 0 0 0 0 0 0 0 0 127 0" result="hardAlpha"/>
<feOffset dy="3"/>
<feGaussianBlur stdDeviation="5"/>
<feComposite in2="hardAlpha" operator="out"/>
<feColorMatrix type="matrix" values="0 0 0 0 0 0 0 0 0 0 0 0 0 0 0 0 0 0 0.05 0"/>
<feBlend mode="normal" in2="BackgroundImageFix" result="effect1_dropShadow_442_2811"/>
<feBlend mode="normal" in="SourceGraphic" in2="effect1_dropShadow_442_2811" result="shape"/>
</filter>
<clipPath id="clip0_442_2811">
<rect x="10" y="7" width="300" height="200" rx="50" fill="white"/>
</clipPath>
<clipPath id="clip1_442_2811">
<rect width="306" height="204" fill="white" transform="translate(-2 16)"/>
</clipPath>
</defs>
</svg>
