<svg width="320" height="220" viewBox="0 0 320 220" fill="none" xmlns="http://www.w3.org/2000/svg">
<g filter="url(#filter0_d_442_2806)">
<g clip-path="url(#clip0_442_2806)">
<rect x="10" y="7" width="300" height="200" rx="50" fill="#F0EAFF"/>
<path d="M204.346 28.903H198.532V23.041H196.062V28.903H190.247V31.3931H196.062V37.255H198.532V31.3931H204.346V28.903Z" fill="#86A7FF"/>
<path d="M125.234 21.1989H120.437V16.3608H118.399V21.1989H113.602V23.253H118.399V28.0895H120.437V23.253H125.234V21.1989Z" fill="#86A7FF"/>
<path d="M167.431 51.5496C174.205 44.7202 174.205 33.6475 167.431 26.818C160.657 19.9886 149.674 19.9886 142.9 26.8181C136.126 33.6475 136.126 44.7202 142.9 51.5496C149.674 58.3791 160.657 58.3791 167.431 51.5496Z" fill="#86A7FF"/>
<path d="M157.145 47.8624V50.5485H153.764V47.9841C151.366 47.8387 149.042 47.1846 147.604 46.2918L149.425 42.1348C151.112 43.1137 153.017 43.6459 154.963 43.6816C156.57 43.6816 157.145 43.3419 157.145 42.762C157.145 40.6353 147.867 42.3512 147.867 36.0437C147.867 33.3118 149.832 31.016 153.764 30.4599V27.8259H157.145V30.4109C158.918 30.5815 160.646 31.0429 162.003 31.8139L160.309 35.9473C158.654 35.1004 157.096 34.6833 155.634 34.6833C153.979 34.6833 153.452 35.1668 153.452 35.7467C153.452 37.777 162.731 36.0848 162.731 42.3212C162.731 44.9377 160.861 47.2035 157.145 47.8624Z" fill="white"/>
<path d="M23.0603 124.21H6.54785V205.659H23.0603V124.21Z" fill="#86A7FF"/>
<path d="M80.1022 124.21H23.0625V205.659H80.1022V124.21Z" fill="#D3DFFF"/>
<path d="M23.4384 124.21H22.6846V205.659H23.4384V124.21Z" fill="#3A6BEA"/>
<path d="M138.497 62.5061H121.985V205.397H138.497V62.5061Z" fill="#86A7FF"/>
<path d="M195.541 62.5029H138.501V205.394H195.541V62.5029Z" fill="#D3DFFF"/>
<path d="M138.875 62.5061H138.121V205.397H138.875V62.5061Z" fill="#3A6BEA"/>
<path d="M247.165 154.112H230.653V205.823H247.165V154.112Z" fill="#86A7FF"/>
<path d="M304.207 154.112H247.167V205.823H304.207V154.112Z" fill="#D3DFFF"/>
<path d="M246.011 187.375L248.546 205.658H226.01L236.412 197.054L236.279 187.914L246.011 187.375Z" fill="#102048"/>
<path d="M230.845 135.64C230.845 135.64 206.903 135.64 234.528 192.735H245.118L230.845 135.64Z" fill="#1F3C88"/>
<path d="M253.734 187.375L256.266 205.658H233.732L244.133 197.054L243.999 187.914L253.734 187.375Z" fill="#1F3C88"/>
<path d="M281.648 130.999C281.648 130.999 293.559 163.344 249.049 154.068L257.086 192.873L240.589 192.731C240.589 192.731 214.123 146.014 230.852 135.647L281.648 130.999Z" fill="#3A6BEA"/>
<path d="M243.235 187.907C239.892 187.907 237.729 187.857 237.687 187.855C237.645 187.855 237.603 187.847 237.564 187.83C237.525 187.814 237.49 187.789 237.461 187.759C237.432 187.728 237.409 187.692 237.394 187.653C237.379 187.613 237.372 187.571 237.373 187.528C237.376 187.443 237.412 187.362 237.473 187.303C237.534 187.244 237.615 187.212 237.699 187.212C237.785 187.212 246.476 187.421 256.077 186.999C256.16 186.995 256.241 187.025 256.302 187.081C256.364 187.138 256.401 187.217 256.404 187.301C256.408 187.384 256.379 187.466 256.322 187.528C256.266 187.59 256.188 187.627 256.105 187.631C251.254 187.854 246.634 187.907 243.235 187.907Z" fill="white"/>
<path d="M246.435 182.591C241.42 182.591 236.162 182.33 235.778 182.311C235.737 182.309 235.696 182.299 235.659 182.281C235.622 182.263 235.588 182.238 235.561 182.207C235.533 182.177 235.512 182.141 235.498 182.101C235.484 182.062 235.478 182.021 235.48 181.979C235.482 181.938 235.492 181.897 235.51 181.86C235.527 181.822 235.552 181.788 235.583 181.761C235.613 181.733 235.649 181.711 235.688 181.697C235.727 181.683 235.768 181.677 235.809 181.679C235.851 181.679 240.088 181.892 244.576 181.945C252.028 182.033 254.417 181.629 255.11 181.286C255.185 181.248 255.272 181.242 255.352 181.268C255.432 181.295 255.497 181.353 255.535 181.429C255.573 181.505 255.579 181.592 255.552 181.673C255.526 181.753 255.468 181.82 255.393 181.858C254.248 182.428 250.416 182.591 246.435 182.591Z" fill="white"/>
<path d="M247.772 200.72C247.693 200.72 247.617 200.69 247.559 200.636L243.917 197.291C243.854 197.234 243.817 197.154 243.813 197.07C243.809 196.985 243.838 196.902 243.895 196.839C243.951 196.776 244.03 196.739 244.114 196.735C244.198 196.73 244.281 196.76 244.343 196.817L247.985 200.162C248.035 200.204 248.07 200.261 248.085 200.325C248.101 200.388 248.097 200.455 248.074 200.516C248.051 200.577 248.009 200.629 247.955 200.666C247.901 200.702 247.837 200.72 247.772 200.718V200.72Z" fill="white"/>
<path d="M259.239 93.399C259.239 93.399 239.575 89.8708 235.861 133.474L283.643 131.152C283.643 131.152 291.009 101.29 267.988 93.7056L259.239 93.399Z" fill="#FFCC59"/>
<path d="M252.646 134.274H230.393V137.885H252.646V134.274Z" fill="#E5ECFF"/>
<path d="M254.329 128.678C254.329 128.678 243.125 126.589 239.284 128.561C235.942 130.279 236.712 132.004 237.978 131.694L237.884 132.149C237.84 132.36 237.843 132.577 237.894 132.786C237.945 132.994 238.042 133.189 238.177 133.355C238.313 133.52 238.484 133.653 238.677 133.743C238.87 133.833 239.081 133.878 239.295 133.875C239.968 133.866 240.639 133.949 241.29 134.123C244.424 134.957 254.163 137.46 256.475 136.879L258.199 134.403L254.329 128.678Z" fill="#E28B6D"/>
<path d="M256.478 136.879C256.478 136.879 277.656 142.603 283.643 131.152L273.666 124.042C273.666 124.042 266.456 129.147 254.329 128.684L256.478 136.879Z" fill="#FFCC59"/>
<path d="M243.983 137.885H218.285L210.689 112.24H236.387L243.983 137.885Z" fill="#102048"/>
<path d="M254.327 129.105C254.221 129.104 254.118 129.063 254.04 128.99C253.962 128.917 253.915 128.816 253.907 128.709C253.899 128.602 253.932 128.496 253.998 128.412C254.065 128.328 254.161 128.272 254.266 128.256C254.449 128.228 272.678 125.482 276.96 123.951C277.013 123.928 277.07 123.917 277.127 123.918C277.185 123.919 277.241 123.931 277.294 123.955C277.346 123.978 277.393 124.012 277.432 124.054C277.471 124.097 277.501 124.147 277.521 124.201C277.54 124.256 277.548 124.314 277.544 124.372C277.541 124.429 277.526 124.486 277.5 124.537C277.474 124.589 277.438 124.635 277.394 124.672C277.349 124.709 277.298 124.737 277.243 124.753C272.883 126.313 255.145 128.986 254.39 129.1C254.369 129.103 254.348 129.105 254.327 129.105Z" fill="#F7974D"/>
<path d="M245.518 127.835C245.412 127.834 245.31 127.794 245.232 127.721C245.154 127.649 245.106 127.549 245.098 127.443C245.098 127.398 244.737 122.906 244.821 117.157C244.899 111.84 245.38 104.32 247.233 98.7033C247.271 98.6006 247.348 98.517 247.447 98.4699C247.545 98.4228 247.658 98.4158 247.761 98.4504C247.865 98.4851 247.951 98.5586 248.002 98.6558C248.053 98.753 248.065 98.8662 248.035 98.9719C244.549 109.542 245.927 127.196 245.941 127.373C245.95 127.486 245.915 127.598 245.842 127.684C245.769 127.77 245.666 127.824 245.554 127.833L245.518 127.835Z" fill="#F7974D"/>
<path d="M259.509 100.787C258.606 100.794 257.71 100.625 256.87 100.291C256.771 100.242 256.696 100.156 256.66 100.051C256.623 99.9472 256.628 99.8327 256.673 99.732C256.719 99.6314 256.801 99.5526 256.904 99.5121C257.006 99.4716 257.119 99.4727 257.221 99.5152C257.368 99.5815 260.716 101.054 263.736 98.2053C263.818 98.1315 263.926 98.093 264.036 98.0981C264.146 98.1032 264.25 98.1515 264.326 98.2327C264.401 98.3138 264.442 98.4214 264.44 98.5326C264.438 98.6438 264.393 98.7497 264.314 98.8278C263.027 100.087 261.303 100.79 259.509 100.787Z" fill="#F7974D"/>
<path d="M272.731 125.774C272.713 125.776 272.695 125.776 272.676 125.774C272.566 125.76 272.465 125.702 272.397 125.613C272.328 125.524 272.298 125.412 272.311 125.3C273.546 115.749 268.602 106.463 268.55 106.369C268.524 106.32 268.507 106.267 268.501 106.211C268.495 106.155 268.5 106.099 268.516 106.046C268.531 105.992 268.557 105.942 268.592 105.898C268.627 105.855 268.67 105.819 268.719 105.792C268.767 105.765 268.821 105.748 268.876 105.742C268.931 105.736 268.987 105.742 269.04 105.757C269.093 105.773 269.143 105.799 269.186 105.834C269.229 105.869 269.265 105.913 269.291 105.962C269.343 106.057 274.419 115.578 273.147 125.411C273.132 125.511 273.082 125.603 273.005 125.67C272.929 125.736 272.832 125.773 272.731 125.774Z" fill="#F7974D"/>
<path d="M264.071 92.6863C264.07 93.6232 263.733 94.5282 263.123 95.2349C262.513 95.9416 261.671 96.4025 260.751 96.5328C259.83 96.6632 258.894 96.4542 258.115 95.9443C257.335 95.4344 256.764 94.6579 256.507 93.7576C256.483 93.6882 256.463 93.6168 256.449 93.5443L255.368 88.771L255.31 88.5071L259.741 84.083L262.593 85.5224L263.977 91.8268C264.038 92.1092 264.07 92.3973 264.071 92.6863Z" fill="#E28B6D"/>
<path d="M259.213 88.771C259.213 88.771 258.892 90.942 256.503 93.7576C256.478 93.6881 256.459 93.6168 256.445 93.5443L255.364 88.771H259.213Z" fill="#102048"/>
<path d="M248.185 77.8215C248.185 77.8215 247.447 97.0727 259.211 88.7759L262.007 83.5618L257.681 76.4358L248.185 77.8215Z" fill="#E28B6D"/>
<path d="M248.373 78.3334C248.373 78.3334 249.519 80.4997 256.904 79.8613C256.904 79.8613 257.645 87.5656 262.217 89.0556L265.734 88.3462C267.351 72.1792 260.875 68.0663 253.003 71.4697C244.352 68.0663 240.764 77.3854 248.339 81.6025C248.315 80.3843 248.254 79.5485 248.373 78.3334Z" fill="#102048"/>
<path d="M262.217 89.0556C262.217 89.0556 260.179 103.663 265.665 102.669C271.15 101.675 272.348 93.5935 265.735 88.3462L262.217 89.0556Z" fill="#102048"/>
<path d="M264.116 89.6831C265.747 89.2097 266.965 88.4636 266.837 88.0166C266.709 87.5697 265.284 87.5912 263.654 88.0646C262.024 88.5381 260.806 89.2842 260.933 89.7311C261.061 90.178 262.486 90.1565 264.116 89.6831Z" fill="#F76EB8"/>
<path d="M249.248 82.9454C249.248 83.0392 249.276 83.1308 249.327 83.2088C249.379 83.2867 249.452 83.3475 249.538 83.3834C249.624 83.4192 249.719 83.4286 249.81 83.4103C249.901 83.392 249.985 83.3469 250.051 83.2806C250.116 83.2143 250.161 83.1298 250.179 83.0379C250.197 82.946 250.188 82.8507 250.153 82.764C250.117 82.6774 250.057 82.6034 249.979 82.5513C249.902 82.4992 249.811 82.4714 249.718 82.4714C249.593 82.4714 249.474 82.5214 249.386 82.6103C249.298 82.6992 249.248 82.8197 249.248 82.9454Z" fill="#102048"/>
<path d="M252.638 82.9692C252.933 82.9692 253.171 82.7287 253.171 82.432C253.171 82.1353 252.933 81.8948 252.638 81.8948C252.344 81.8948 252.105 82.1353 252.105 82.432C252.105 82.7287 252.344 82.9692 252.638 82.9692Z" fill="#102048"/>
<path d="M250.892 85.818C250.805 85.8182 250.718 85.8113 250.632 85.7975C250.517 85.7855 250.406 85.7493 250.306 85.6913C250.206 85.6334 250.119 85.5549 250.051 85.4609C249.999 85.3846 249.963 85.2983 249.946 85.2076C249.929 85.1168 249.93 85.0234 249.95 84.9332C250.068 84.3897 250.779 83.9267 250.92 83.8398C250.944 83.8238 250.971 83.8128 250.999 83.8074C251.027 83.8021 251.056 83.8025 251.083 83.8086C251.111 83.8148 251.138 83.8265 251.161 83.8432C251.184 83.8598 251.204 83.881 251.219 83.9055C251.234 83.93 251.243 83.9573 251.248 83.9857C251.252 84.0142 251.25 84.0431 251.243 84.071C251.236 84.0988 251.223 84.1248 251.206 84.1475C251.188 84.1703 251.166 84.1892 251.141 84.2032C250.808 84.4086 250.422 84.7531 250.358 85.0232C250.349 85.0568 250.348 85.0919 250.354 85.126C250.361 85.1601 250.374 85.1924 250.394 85.2208C250.429 85.2658 250.474 85.3031 250.524 85.3302C250.575 85.3574 250.63 85.3739 250.687 85.3788C250.849 85.4112 251.018 85.3997 251.174 85.3456C251.2 85.3345 251.227 85.3286 251.255 85.3281C251.283 85.3277 251.311 85.3328 251.336 85.3432C251.362 85.3535 251.386 85.3689 251.406 85.3884C251.426 85.408 251.442 85.4312 251.453 85.457C251.464 85.4827 251.469 85.5104 251.47 85.5384C251.47 85.5664 251.465 85.5942 251.455 85.6203C251.445 85.6463 251.429 85.6701 251.41 85.6902C251.391 85.7103 251.368 85.7263 251.342 85.7374C251.199 85.7942 251.046 85.8216 250.892 85.818Z" fill="#102048"/>
<path d="M251.524 87.6177C251.285 87.6169 251.049 87.5752 250.825 87.4944C250.774 87.4743 250.733 87.4352 250.71 87.3852C250.687 87.3353 250.684 87.2783 250.702 87.2263C250.72 87.1743 250.757 87.1313 250.805 87.1062C250.854 87.081 250.91 87.0758 250.962 87.0915C252.16 87.5134 253 86.4737 253.034 86.4279C253.069 86.3835 253.12 86.3549 253.176 86.3483C253.232 86.3418 253.288 86.3579 253.332 86.3931C253.376 86.4283 253.405 86.4797 253.411 86.536C253.417 86.5923 253.401 86.6489 253.367 86.6933C253.357 86.6981 252.63 87.6177 251.524 87.6177Z" fill="#102048"/>
<path d="M251.756 81.1773C252.035 81.5423 252.344 81.3685 253.201 81.3353C253.397 81.3353 254.462 81.3701 254.414 81.1126C254.379 80.9309 253.742 80.5896 253.027 80.5564C252.665 80.5369 252.303 80.5906 251.963 80.7144C251.881 80.7384 251.806 80.7805 251.743 80.8376C251.649 80.9293 251.659 81.0509 251.756 81.1773Z" fill="#102048"/>
<path d="M250.436 81.2404C250.331 81.6244 250.036 81.5564 249.356 81.7303C249.199 81.7713 248.38 82.0636 248.339 81.8298C248.311 81.6718 248.704 81.2152 249.253 81.0129C249.533 80.9078 249.832 80.8652 250.13 80.8881C250.203 80.8895 250.274 80.9079 250.339 80.9418C250.388 80.9715 250.425 81.018 250.442 81.0729C250.46 81.1277 250.458 81.1872 250.436 81.2404Z" fill="#102048"/>
<path d="M299.911 33.0132C296.519 33.0123 293.186 33.9043 290.242 35.6009C287.297 37.2975 284.843 39.7398 283.123 42.6863C281.402 45.6327 280.474 48.981 280.431 52.3999C280.388 55.8188 281.232 59.1898 282.878 62.1791L278.803 72.2013L288.363 68.455C290.842 70.2959 293.719 71.518 296.758 72.0209C299.796 72.5238 302.909 72.2933 305.842 71.3482C308.775 70.4031 311.444 68.7704 313.629 66.5841C315.815 64.3977 317.455 61.7201 318.416 58.7708C319.376 55.8215 319.629 52.6847 319.154 49.6177C318.679 46.5507 317.49 43.641 315.683 41.1273C313.877 38.6136 311.505 36.5676 308.762 35.1571C306.019 33.7466 302.984 33.0119 299.905 33.0132H299.911Z" fill="white"/>
<path d="M278.029 72.9581L282.417 62.2138C280.061 57.8594 279.378 52.7825 280.499 47.9527C281.62 43.123 284.467 38.8788 288.495 36.0307C292.523 33.1827 297.451 31.9304 302.337 32.513C307.223 33.0956 311.725 35.4723 314.983 39.1892C318.241 42.9061 320.027 47.7027 320 52.6629C319.972 57.6231 318.133 62.3993 314.834 66.0793C311.535 69.7594 307.008 72.0854 302.115 72.6131C297.223 73.1408 292.31 71.8332 288.313 68.9401L278.029 72.9581ZM288.434 67.9731L288.62 68.1121C292.399 70.9028 297.068 72.1874 301.729 71.7189C306.39 71.2505 310.715 69.0622 313.874 65.5743C317.032 62.0864 318.8 57.545 318.839 52.8226C318.878 48.1002 317.185 43.5297 314.085 39.9894C310.985 36.449 306.696 34.1884 302.043 33.6419C297.39 33.0953 292.701 34.3014 288.877 37.0283C285.052 39.7553 282.362 43.8108 281.323 48.4158C280.284 53.0207 280.97 57.8504 283.248 61.9768L283.346 62.1569L279.562 71.4444L288.434 67.9731Z" fill="#86A7FF"/>
<path d="M71.0854 181.976L73.4285 205.774L96.4372 205.522L85.9805 194.7L83.5936 181.518L71.0854 181.976Z" fill="#102048"/>
<path d="M90.3109 200.598C88.4035 200.598 87.0306 200.071 86.2219 199.018C84.8599 197.252 85.6451 194.706 85.6796 194.594C85.7052 194.514 85.7615 194.446 85.8361 194.408C85.8731 194.388 85.9135 194.377 85.9549 194.373C85.9964 194.37 86.0381 194.374 86.0777 194.387C86.1173 194.4 86.1541 194.42 86.1858 194.448C86.2176 194.475 86.2437 194.508 86.2628 194.545C86.2819 194.582 86.2935 194.623 86.2969 194.665C86.3004 194.707 86.2957 194.749 86.283 194.789C86.283 194.812 85.5668 197.127 86.725 198.623C87.4929 199.616 88.9191 200.055 90.9723 199.928C91.0554 199.923 91.1372 199.951 91.1996 200.007C91.2621 200.063 91.3001 200.141 91.3053 200.225C91.3105 200.308 91.2824 200.391 91.2273 200.454C91.1722 200.517 91.0946 200.555 91.0114 200.56C90.7701 200.59 90.5366 200.598 90.3109 200.598Z" fill="white"/>
<path d="M33.4106 181.583L29.7715 193.811L19.7646 212L40.5353 204.969L45.0834 181.888L33.4106 181.583Z" fill="#102048"/>
<path d="M25.4306 202.425C25.3474 202.432 25.2649 202.405 25.2011 202.351C25.1374 202.297 25.0976 202.219 25.0905 202.136C25.0834 202.052 25.1097 201.969 25.1635 201.904C25.2172 201.84 25.2942 201.8 25.3773 201.793C28.4365 201.265 30.2671 200.221 30.8203 198.691C31.6039 196.527 29.5509 194.046 29.5305 194.021C29.4762 193.956 29.4497 193.872 29.4568 193.788C29.4638 193.703 29.5039 193.625 29.5681 193.57C29.6323 193.516 29.7154 193.489 29.7992 193.496C29.883 193.503 29.9605 193.543 30.0148 193.608C30.1088 193.72 32.3233 196.402 31.4159 198.911C30.7796 200.671 28.7845 201.853 25.4839 202.423C25.4662 202.425 25.4483 202.426 25.4306 202.425Z" fill="white"/>
<path d="M84.744 98.2325L87.8032 183.713C87.8529 185.097 87.3577 186.445 86.4256 187.463C85.4935 188.481 84.2 189.086 82.8272 189.146L72.2279 189.611C70.855 189.671 69.5141 189.181 68.498 188.249C67.4818 187.316 66.8727 186.016 66.8037 184.632L62.1411 93.0042L84.744 98.2325Z" fill="#3A6BEA"/>
<path d="M75.1104 93.4463L74.3409 96.1497L72.8614 101.318L48.3278 187.075C48.0544 188.032 47.4654 188.867 46.6579 189.442C45.8504 190.016 44.8727 190.296 43.8863 190.235L30.7575 189.408C30.1205 189.367 29.5003 189.185 28.941 188.875C28.3818 188.565 27.8971 188.134 27.5216 187.614C27.1461 187.093 26.8889 186.496 26.7682 185.864C26.6476 185.232 26.6666 184.581 26.8237 183.957L46.0177 108.291L48.5394 98.3365L67.6597 94.8225L75.1104 93.4463Z" fill="#3A6BEA"/>
<g opacity="0.8">
<path opacity="0.8" d="M78.7085 97.9938C78.7602 98.6543 83.9509 164.411 80.9716 188.814L81.5985 188.892C84.5856 164.425 79.3902 98.6037 79.337 97.9417L78.7085 97.9938Z" fill="white"/>
<path opacity="0.8" d="M55.3348 97.4915C54.3036 100.81 30.0567 179.048 31.182 188.89L31.8089 188.816C30.6977 179.11 55.6843 98.4964 55.9445 97.6826L55.3348 97.4915Z" fill="white"/>
</g>
<path opacity="0.6" d="M84.7457 98.2309L72.8598 101.318L46.0176 108.286L48.5393 98.3336L67.6581 94.8196L74.3408 96.15L84.7457 98.2309Z" fill="#1F3C88"/>
<path d="M62.5818 137.43C62.5447 137.43 62.5077 137.425 62.4721 137.414C62.3638 137.384 62.2717 137.313 62.2158 137.215C62.16 137.117 62.1451 137 62.1743 136.891L66.8666 119.473L73.5462 114.693C73.6378 114.628 73.7515 114.602 73.8621 114.621C73.9728 114.64 74.0714 114.703 74.1362 114.795C74.2011 114.887 74.2269 115.002 74.2079 115.114C74.189 115.225 74.1268 115.325 74.0352 115.39L67.6095 119.991L62.994 137.115C62.9691 137.206 62.9153 137.286 62.8408 137.343C62.7663 137.4 62.6752 137.43 62.5818 137.43Z" fill="#1F3C88"/>
<path d="M65.3789 52.8567L76.0691 74.2962C79.6032 71.5169 83.3599 69.3981 85.7013 68.2004C78.0203 52.8883 65.3789 52.8567 65.3789 52.8567Z" fill="#1F3C88"/>
<path d="M103.758 61.0238C103.758 61.0238 104.781 57.4703 103.871 56.5523C102.96 55.6343 100.006 61.2529 100.006 61.2529L88.9756 73.5188C87.8785 71.5659 86.7814 69.7994 85.7016 68.1988C83.3601 69.4028 79.6035 71.5169 76.0693 74.2946L82.0249 86.2539C82.5907 87.3891 83.4461 88.3519 84.5033 89.0435C85.5604 89.7351 86.7811 90.1305 88.0399 90.189C89.2987 90.2476 90.5504 89.9672 91.6662 89.3767C92.7819 88.7862 93.7217 87.9069 94.3888 86.8291L106.253 67.6726C107.132 64.9249 105.994 62.8108 103.758 61.0238Z" fill="#F9B384"/>
<path d="M48.7082 88.3888C48.1659 90.4539 47.887 91.7069 47.887 91.7069L48.1581 98.5136C48.1581 98.5136 36.6749 98.7301 33.2913 94.5193C31.0141 91.6879 31.2789 87.0205 35.1939 78.4219C36.211 76.1877 36.8897 74.6298 37.8457 72.936C41.8223 73.2095 45.7663 73.8441 49.6297 74.8321L43.6178 87.1848L48.7082 88.3888Z" fill="#F9B384"/>
<path d="M65.3794 52.8567C65.3794 52.8567 48.624 51.9308 37.8477 72.9327C41.6545 73.2123 47.1524 73.9202 52.5045 75.6851C55.6029 66.6346 60.079 56.4402 65.3794 52.8567Z" fill="#1F3C88"/>
<path d="M84.7455 98.2307L48.1583 98.5198C47.9138 94.4591 48.4372 87.3015 49.1221 80.4221C49.1644 80.0286 49.1989 79.6447 49.2412 79.2528C49.5453 76.2681 49.8681 73.3688 50.1816 70.8612C50.2756 70.0507 50.3681 69.2812 50.4527 68.567C50.9009 65.0009 51.2222 62.6387 51.2222 62.6387L65.3822 52.8567C72.0399 54.9803 81.6157 67.5953 81.6157 67.5953L84.7455 98.2307Z" fill="#1F3C88"/>
<path d="M105.312 56.9932L100.554 67.5589L101.756 68.1672L107.325 58.0123L105.312 56.9932Z" fill="#1F3C88"/>
<path d="M108.601 55.7008L106.407 54.5947C106.382 55.0991 106.257 55.5933 106.04 56.0484L107.686 56.881C107.919 56.4363 108.229 56.0367 108.601 55.7008Z" fill="#102048"/>
<path d="M106.031 56.0405C105.855 56.4006 105.611 56.7226 105.313 56.9885L107.325 58.0077C107.373 57.6095 107.492 57.2235 107.676 56.8685L106.031 56.0405Z" fill="#1F3C88"/>
<path d="M113 55.895C116.812 54.5523 118.822 50.3484 117.49 46.5054C116.159 42.6624 111.989 40.6356 108.177 41.9783C104.365 43.3211 102.355 47.525 103.687 51.368C105.018 55.211 109.188 57.2378 113 55.895Z" fill="#1F3C88"/>
<path d="M114.894 52.744C116.969 50.3506 116.727 46.7143 114.353 44.622C111.979 42.5297 108.372 42.7737 106.297 45.1671C104.221 47.5605 104.464 51.1969 106.838 53.2892C109.212 55.3815 112.818 55.1374 114.894 52.744Z" fill="#E5ECFF"/>
<path d="M113.833 51.3605C113.78 51.3608 113.727 51.3511 113.677 51.332C113.572 51.2911 113.488 51.21 113.443 51.1066C113.398 51.0033 113.395 50.886 113.435 50.7806C114.208 48.7771 113.724 46.8305 112.258 46.0515C112.207 46.0269 112.16 45.9919 112.123 45.9488C112.085 45.9057 112.056 45.8553 112.038 45.8006C112.02 45.746 112.013 45.6882 112.018 45.6308C112.022 45.5734 112.038 45.5175 112.065 45.4666C112.092 45.4157 112.128 45.3707 112.173 45.3344C112.217 45.2982 112.268 45.2713 112.323 45.2556C112.378 45.2398 112.436 45.2354 112.493 45.2427C112.549 45.2499 112.604 45.2687 112.653 45.2978C114.51 46.2869 115.161 48.6681 114.221 51.0887C114.19 51.1679 114.137 51.2361 114.068 51.2846C113.999 51.333 113.918 51.3595 113.833 51.3605Z" fill="white"/>
<path d="M106.615 63.097C105.792 63.729 104.811 64.045 104.38 63.571C103.949 63.097 104.744 61.8156 105.007 61.4427C105.377 60.9134 106.997 59.3887 107.671 60.245C108.345 61.1014 107.602 62.337 106.615 63.097Z" fill="#E28B6D"/>
<path d="M107.28 65.2173C106.457 65.8494 105.474 66.1654 105.043 65.6913C104.613 65.2173 105.409 63.9375 105.67 63.5631C106.04 63.0338 107.661 61.509 108.335 62.3654C109.009 63.2218 108.266 64.4558 107.28 65.2173Z" fill="#E28B6D"/>
<path d="M107.474 67.442C106.739 68.0093 105.863 68.2937 105.477 67.8718C105.092 67.4499 105.803 66.3044 106.037 65.9758C106.367 65.5018 107.815 64.1429 108.42 64.9077C109.025 65.6724 108.356 66.761 107.474 67.442Z" fill="#E28B6D"/>
<path d="M44.6572 98.4108C44.6572 98.4108 53.8616 99.3446 54.0278 98.3571C54.1939 97.3696 52.017 96.8734 52.017 96.8734C52.017 96.8734 56.562 97.0709 56.4257 96.2414C56.2893 95.4119 54.3224 94.832 54.3224 94.832C54.3224 94.832 57.5102 94.9205 57.1779 93.993C56.8457 93.0656 54.1673 92.3909 54.1673 92.3909C54.1673 92.3909 58.3988 91.6135 56.7908 90.7903C55.1828 89.9671 46.3812 87.9336 46.3812 87.9336L44.6572 98.4108Z" fill="#F9B384"/>
<path d="M48.4829 88.7803C48.4486 88.7799 48.4145 88.7756 48.3811 88.7677L39.9556 86.6694C39.8502 86.6391 39.7606 86.5688 39.7056 86.4733C39.6506 86.3777 39.6345 86.2644 39.6607 86.1571C39.6869 86.0499 39.7533 85.957 39.8461 85.8982C39.9388 85.8393 40.0505 85.819 40.1578 85.8415L48.5848 87.9334C48.685 87.9586 48.7727 88.0198 48.8312 88.1056C48.8897 88.1914 48.9151 88.2958 48.9026 88.3991C48.8901 88.5025 48.8405 88.5976 48.7632 88.6667C48.6859 88.7357 48.5862 88.7739 48.4829 88.774V88.7803Z" fill="#E28B6D"/>
<path d="M86.2688 76.7692C86.1861 76.7703 86.1049 76.7469 86.0352 76.7019C85.9656 76.6568 85.9106 76.5921 85.8772 76.5158C85.8438 76.4395 85.8334 76.355 85.8473 76.2727C85.8612 76.1905 85.8988 76.1142 85.9554 76.0534L93.3575 67.951C93.4336 67.8671 93.5395 67.8172 93.6521 67.8122C93.7647 67.8072 93.8746 67.8474 93.9577 67.9241C94.0409 68.0008 94.0904 68.1076 94.0954 68.2211C94.1004 68.3346 94.0605 68.4454 93.9844 68.5292L86.5807 76.6317C86.5413 76.6754 86.4931 76.7103 86.4393 76.734C86.3856 76.7577 86.3275 76.7696 86.2688 76.7692Z" fill="#E28B6D"/>
<path d="M64.2679 62.7652C61.6976 62.7652 59.8906 61.1173 59.8624 61.0904C59.7793 61.0135 59.7299 60.9065 59.725 60.7928C59.7202 60.6792 59.7603 60.5683 59.8365 60.4845C59.9128 60.4006 60.019 60.3508 60.1317 60.3459C60.2444 60.341 60.3545 60.3815 60.4376 60.4584C60.6068 60.6164 64.6378 64.2504 69.1467 59.414C69.2242 59.3349 69.3293 59.2894 69.4395 59.2872C69.5498 59.285 69.6566 59.3263 69.7371 59.4023C69.8176 59.4784 69.8655 59.5831 69.8705 59.6941C69.8756 59.8052 69.8374 59.9139 69.7642 59.997C67.7989 62.1143 65.8822 62.7652 64.2679 62.7652Z" fill="#3A6BEA"/>
<path d="M49.7396 74.6188C49.5719 76.1087 49.4026 77.6635 49.2412 79.2467C49.1989 79.6386 49.1644 80.0225 49.1221 80.4159C52.0999 76.3679 52.0121 71.228 52.0074 71.0273C51.1735 72.1726 50.4159 73.3724 49.7396 74.6188Z" fill="#102048"/>
<path d="M69.3273 43.3418V54.075C69.3386 54.6857 69.229 55.2925 69.0049 55.8599C68.7809 56.4274 68.4469 56.9442 68.0225 57.38C67.5982 57.8159 67.0919 58.1621 66.5332 58.3985C65.9746 58.6348 65.3749 58.7565 64.769 58.7565C64.1632 58.7565 63.5635 58.6348 63.0049 58.3985C62.4462 58.1621 61.9399 57.8159 61.5155 57.38C61.0911 56.9442 60.7572 56.4274 60.5331 55.8599C60.3091 55.2925 60.1995 54.6857 60.2107 54.075V43.3418H69.3273Z" fill="#F9B384"/>
<path d="M69.3275 46.2349V53.5505C66.8111 52.2349 64.7675 50.1564 63.4849 47.6079L69.3275 46.2349Z" fill="#102048"/>
<path d="M71.9946 36.2664C71.9946 36.2664 75.698 53.5599 63.483 47.5984L59.2515 41.7696L62.0537 33.2643L68.4213 32.8708L71.9946 36.2664Z" fill="#F9B384"/>
<path d="M71.9946 36.2665C71.9946 36.2665 63.3528 29.2574 60.2402 41.5075L57.5085 40.9892C57.5085 40.9892 55.2015 31.5991 63.4876 29.8531C70.6295 28.3458 71.9946 36.2665 71.9946 36.2665Z" fill="#EB5D60"/>
<path d="M61.2026 43.9612C62.0619 43.0949 61.9254 41.5527 60.8978 40.5167C59.8702 39.4807 58.3405 39.3431 57.4812 40.2094C56.6219 41.0758 56.7583 42.6179 57.786 43.6539C58.8136 44.69 60.3433 44.8275 61.2026 43.9612Z" fill="#F9B384"/>
<path d="M60.309 42.9735C60.2699 42.9734 60.2317 42.9627 60.1983 42.9423C60.1648 42.922 60.1375 42.8929 60.1193 42.8581C60.1193 42.8439 59.4281 41.5246 58.3483 41.6399C58.3199 41.6447 58.2908 41.6435 58.2629 41.6366C58.2349 41.6296 58.2087 41.617 58.1857 41.5994C58.1628 41.5819 58.1436 41.5598 58.1295 41.5345C58.1153 41.5092 58.1064 41.4813 58.1033 41.4525C58.1002 41.4236 58.103 41.3944 58.1114 41.3667C58.1199 41.3389 58.1339 41.3132 58.1526 41.2911C58.1713 41.269 58.1943 41.251 58.2201 41.2382C58.2459 41.2253 58.2741 41.218 58.3029 41.2165C59.6742 41.0695 60.4641 42.599 60.497 42.6638C60.5154 42.6964 60.5248 42.7333 60.5243 42.7708C60.5238 42.8083 60.5135 42.8449 60.4944 42.8771C60.4753 42.9092 60.448 42.9356 60.4154 42.9537C60.3829 42.9717 60.3461 42.9807 60.309 42.9798V42.9735Z" fill="#102048"/>
<path d="M71.0978 40.9566C71.4017 40.8297 71.546 40.4784 71.4202 40.1721C71.2943 39.8657 70.9459 39.7202 70.642 39.8471C70.3381 39.974 70.1938 40.3253 70.3197 40.6316C70.4456 40.938 70.794 41.0835 71.0978 40.9566Z" fill="#102048"/>
<path d="M67.1161 41.0556C67.445 41.0556 67.7116 40.7868 67.7116 40.4552C67.7116 40.1236 67.445 39.8547 67.1161 39.8547C66.7871 39.8547 66.5205 40.1236 66.5205 40.4552C66.5205 40.7868 66.7871 41.0556 67.1161 41.0556Z" fill="#102048"/>
<path d="M69.8098 43.8995C69.6392 43.9035 69.4696 43.8723 69.3113 43.8079C69.2643 43.7827 69.2283 43.7407 69.2107 43.69C69.193 43.6393 69.195 43.5838 69.2162 43.5346C69.2373 43.4853 69.2762 43.4459 69.3249 43.4242C69.3736 43.4025 69.4287 43.4002 69.4791 43.4176C69.6587 43.4786 69.8509 43.4917 70.037 43.4555C70.1035 43.4497 70.1681 43.4305 70.2271 43.399C70.286 43.3675 70.3381 43.3244 70.3803 43.2722C70.404 43.2376 70.4202 43.1983 70.4278 43.1569C70.4354 43.1155 70.4341 43.073 70.4241 43.0321C70.3583 42.7256 69.9226 42.3337 69.5449 42.1014C69.4995 42.0708 69.4676 42.0236 69.456 41.9698C69.4443 41.916 69.4537 41.8597 69.4823 41.8128C69.5108 41.7658 69.5563 41.7318 69.6092 41.7179C69.662 41.7039 69.7182 41.7112 69.7659 41.738C69.9226 41.8344 70.7063 42.3463 70.8363 42.9436C70.8585 43.0407 70.8604 43.1413 70.8421 43.2392C70.8237 43.3371 70.7855 43.4301 70.7298 43.5124C70.6558 43.6135 70.562 43.6981 70.4541 43.7609C70.3462 43.8237 70.2266 43.8634 70.1028 43.8774C70.0058 43.8921 69.9079 43.8995 69.8098 43.8995Z" fill="#102048"/>
<path d="M68.7517 45.6914C67.534 45.6914 66.7253 44.6817 66.7143 44.6706C66.6794 44.6262 66.6634 44.5696 66.6699 44.5133C66.6763 44.457 66.7047 44.4056 66.7488 44.3704C66.7928 44.3352 66.849 44.3191 66.9048 44.3256C66.9606 44.3322 67.0116 44.3608 67.0465 44.4052C67.0873 44.4573 68.0339 45.6281 69.3849 45.1541C69.411 45.1447 69.4387 45.1406 69.4664 45.1421C69.4941 45.1436 69.5212 45.1507 69.5462 45.1629C69.5712 45.1751 69.5935 45.1922 69.6118 45.2133C69.6301 45.2343 69.644 45.2588 69.6528 45.2853C69.662 45.3117 69.6659 45.3397 69.6643 45.3677C69.6628 45.3957 69.6557 45.4231 69.6437 45.4483C69.6316 45.4736 69.6147 45.4962 69.5939 45.5148C69.5732 45.5335 69.549 45.5478 69.5228 45.557C69.275 45.6449 69.0144 45.6903 68.7517 45.6914Z" fill="#102048"/>
<path d="M68.2535 38.6681C68.1188 39.0299 67.7316 38.9509 66.843 39.1073C66.6392 39.1437 65.5688 39.4044 65.5124 39.18C65.4732 39.022 65.9825 38.6033 66.7019 38.4248C67.0773 38.3274 67.4658 38.2922 67.8523 38.3205C67.9456 38.3238 68.0377 38.3424 68.125 38.3758C68.1542 38.384 68.1813 38.3986 68.2043 38.4186C68.2272 38.4385 68.2455 38.4634 68.2578 38.4914C68.2701 38.5193 68.276 38.5496 68.2753 38.5802C68.2746 38.6108 68.2672 38.6408 68.2535 38.6681Z" fill="#102048"/>
<path d="M69.9055 38.6459C70.0215 39.0062 70.3757 38.9272 71.1593 39.0836C71.3411 39.12 72.3002 39.3791 72.3535 39.1563C72.3927 38.9983 71.9382 38.5796 71.2988 38.401C70.9632 38.306 70.6133 38.2728 70.266 38.3031C70.1812 38.3057 70.0977 38.3244 70.0199 38.3584C69.9936 38.3695 69.9697 38.3859 69.9497 38.4064C69.9297 38.427 69.9139 38.4514 69.9032 38.4781C69.8926 38.5048 69.8873 38.5334 69.8877 38.5622C69.8881 38.591 69.8941 38.6195 69.9055 38.6459Z" fill="#102048"/>
<path opacity="0.4" d="M65.4645 42.5519C65.6457 41.7782 65.1704 41.0029 64.4029 40.8203C63.6355 40.6377 62.8665 41.1169 62.6854 41.8906C62.5043 42.6643 62.9796 43.4395 63.747 43.6222C64.5144 43.8048 65.2834 43.3256 65.4645 42.5519Z" fill="#EB5D60"/>
<path d="M22.0779 3.42652C25.6742 3.4252 29.2084 4.37083 32.3307 6.16979C35.4531 7.96875 38.0552 10.5587 39.8796 13.6831C41.704 16.8076 42.6873 20.3582 42.7322 23.9836C42.7771 27.6089 41.8821 31.1832 40.1357 34.3526L44.4644 44.9737L34.3134 41.0014C31.685 42.9533 28.6351 44.249 25.4138 44.7823C22.1926 45.3156 18.8918 45.0712 15.7823 44.0693C12.6729 43.0673 9.84339 41.3363 7.52606 39.0183C5.20874 36.7003 3.46962 33.8614 2.45142 30.7345C1.43322 27.6076 1.16496 24.2819 1.66864 21.0302C2.17233 17.7786 3.43361 14.6936 5.34898 12.0286C7.26436 9.36361 9.77923 7.19444 12.6872 5.69912C15.5952 4.20381 18.8135 3.42497 22.0779 3.42652Z" fill="white"/>
<path d="M45.2323 45.7306L34.3775 41.4834C30.803 44.1008 26.4973 45.5081 22.0794 45.503C10.4567 45.503 1 35.9691 1 24.2515C1 12.534 10.4567 3 22.0794 3C33.7021 3 43.1588 12.534 43.1588 24.2515C43.1566 27.7893 42.2785 31.2705 40.6042 34.3796L45.2323 45.7306ZM22.0794 3.85954C18.8781 3.85361 15.721 4.61359 12.8677 6.07705C10.0144 7.54051 7.5463 9.66567 5.66616 12.2779C3.78602 14.8901 2.54754 17.9148 2.05249 21.1035C1.55745 24.2921 1.81996 27.5537 2.81847 30.6201C3.81699 33.6866 5.52299 36.4704 7.79628 38.7429C10.0696 41.0153 12.8453 42.7115 15.8953 43.692C18.9453 44.6725 22.1826 44.9094 25.3411 44.3832C28.4996 43.8569 31.4891 42.5826 34.0641 40.665L34.2506 40.5259L43.6995 44.2232L39.667 34.3243L39.7657 34.1457C41.4789 31.0416 42.3576 27.54 42.3147 23.988C42.2719 20.436 41.309 16.9569 39.5216 13.8957C37.7341 10.8345 35.1841 8.29733 32.1244 6.53581C29.0646 4.77429 25.6013 3.84954 22.0778 3.85322L22.0794 3.85954Z" fill="#86A7FF"/>
<path d="M19.3428 31.9179C19.3428 30.4563 20.4806 29.3645 22.0745 29.3645C23.6683 29.3645 24.8046 30.4563 24.8046 31.9179C24.8046 33.3509 23.6668 34.5281 22.0745 34.5281C20.4822 34.5281 19.3428 33.3509 19.3428 31.9179Z" fill="#86A7FF"/>
<path d="M19.4277 14.2214H24.7187L23.8364 27.3279H20.3101L19.4277 14.2214Z" fill="#86A7FF"/>
<path d="M251.872 56.8175H214.849V37.3562H215.694V55.9659H251.872V56.8175Z" fill="#86A7FF"/>
<path d="M218.899 53.7254L218.18 53.2735L221.593 47.7449L223.936 51.6129L228.865 41.014L233.902 50.6064L247.55 37.4873L248.133 38.1035L233.677 52L228.911 42.9226L224.035 53.4094L221.587 49.3692L218.899 53.7254Z" fill="#86A7FF"/>
<path d="M293.462 48.8436H297.422C297.422 47.0736 298.502 46.0236 300.332 46.0236C302.102 46.0236 303.182 47.1036 303.182 48.8436C303.212 51.5436 300.872 52.1136 297.752 52.1136H296.402L296.552 57.2136H300.242L300.362 54.9036C304.352 54.9036 307.262 52.9236 307.262 48.8736C307.262 44.8236 304.412 42.5136 300.332 42.5136C295.952 42.5136 293.402 45.2136 293.462 48.8436ZM300.932 61.9236C300.932 60.5436 299.852 59.4636 298.382 59.4636C296.852 59.4636 295.772 60.5436 295.772 61.9236C295.772 63.3036 296.852 64.3836 298.382 64.3836C299.852 64.3836 300.932 63.3036 300.932 61.9236Z" fill="#86A7FF"/>
</g>
</g>
<defs>
<filter id="filter0_d_442_2806" x="0" y="0" width="320" height="220" filterUnits="userSpaceOnUse" color-interpolation-filters="sRGB">
<feFlood flood-opacity="0" result="BackgroundImageFix"/>
<feColorMatrix in="SourceAlpha" type="matrix" values="0 0 0 0 0 0 0 0 0 0 0 0 0 0 0 0 0 0 127 0" result="hardAlpha"/>
<feOffset dy="3"/>
<feGaussianBlur stdDeviation="5"/>
<feComposite in2="hardAlpha" operator="out"/>
<feColorMatrix type="matrix" values="0 0 0 0 0 0 0 0 0 0 0 0 0 0 0 0 0 0 0.05 0"/>
<feBlend mode="normal" in2="BackgroundImageFix" result="effect1_dropShadow_442_2806"/>
<feBlend mode="normal" in="SourceGraphic" in2="effect1_dropShadow_442_2806" result="shape"/>
</filter>
<clipPath id="clip0_442_2806">
<rect x="10" y="7" width="300" height="200" rx="50" fill="white"/>
</clipPath>
</defs>
</svg>
