<svg width="321" height="194" viewBox="0 0 321 194" fill="none" xmlns="http://www.w3.org/2000/svg">
<g filter="url(#filter0_d_442_2811)">
<g clip-path="url(#clip0_442_2811)">
<rect x="10.6666" y="7" width="300" height="174" rx="20" fill="#EFECF9"/>
<g clip-path="url(#clip1_442_2811)">
<path d="M230.225 154.027H210.982V143.57H230.225V154.027ZM211.481 153.529H229.726V144.068H211.481V153.529Z" fill="#D2D2D2"/>
<path d="M211.477 154.027H192.232V143.57H211.477V154.027ZM192.732 153.529H210.978V144.068H192.732V153.529Z" fill="#D2D2D2"/>
<path d="M51.9921 162.243H32.7488V151.786H51.9921V162.243ZM33.2481 161.745H51.4928V152.284H33.2481V161.745Z" fill="#D2D2D2"/>
<path d="M33.2446 162.243H14V151.786H33.2446V162.243ZM14.4993 161.745H32.7453V152.284H14.4993V161.745Z" fill="#D2D2D2"/>
<path d="M298.001 115.54C298.001 90.2846 277.474 69.812 252.152 69.812C226.83 69.812 206.302 90.2846 206.302 115.54C206.302 130.592 213.597 143.945 224.85 152.278V182.069H279.453V152.278C290.707 143.945 298.001 130.592 298.001 115.54Z" fill="#D4C5FF"/>
<path d="M252.291 176C252.127 170.649 252.04 166.105 251.956 161.714C251.872 157.323 251.786 152.802 251.623 147.459C251.597 146.638 253.629 145.707 257.372 144.278C258.028 144.029 258.546 143.832 258.787 143.716C263.909 141.254 267.104 137.203 268.941 130.739C267.08 132.462 264.546 133.548 261.882 133.819C261.73 134.098 261.563 134.368 261.38 134.628C259.625 137.153 256.628 138.743 253.733 138.689C249.24 138.598 244.659 135.59 241.165 130.437C240.433 129.376 239.799 128.251 239.27 127.077C238.951 126.986 238.632 126.885 238.312 126.774C232.937 124.907 228.772 120.631 227.442 115.631C226.397 111.702 227.257 107.473 229.505 104.363C225.292 104.396 221.161 103.799 217.398 101.532C207.884 95.7955 201.727 85.2693 196.296 75.9802L195.656 74.8838C193.045 70.4296 190.82 65.4578 188.463 60.1984C183.309 48.6878 177.98 36.7852 168.242 30.0586C163.591 26.8464 157.837 25.7027 152.03 26.8228C145.733 28.0437 140.141 31.7685 136.683 37.0416C134.167 40.8797 132.597 45.3799 131.078 49.7208C127.584 59.7218 124.292 69.164 110.188 68.8018C106.594 68.7085 102.151 67.6407 97.4487 66.5106C88.4723 64.3526 78.2998 61.9059 72.2307 66.1373L72 65.8112C78.2171 61.474 88.4836 63.9444 97.5428 66.1198C102.225 67.2399 106.647 68.3077 110.198 68.3998C123.996 68.7607 127.248 59.4467 130.699 49.5864C132.226 45.2168 133.805 40.6992 136.341 36.8201C139.851 31.4574 145.545 27.6703 151.947 26.4283C157.857 25.2821 163.724 26.4544 168.465 29.73C178.294 36.5201 183.646 48.4738 188.823 60.0341C191.176 65.2885 193.396 70.2504 195.995 74.6859L196.637 75.7836C202.044 85.0304 208.171 95.5105 217.6 101.193C221.37 103.467 225.534 104.039 229.804 103.961C230.593 102.95 231.548 102.079 232.629 101.385C233.506 100.828 234.462 100.405 235.464 100.128C235.537 99.8232 235.62 99.5216 235.715 99.2229C234.918 98.0568 234.325 96.7661 233.96 95.4047C233.186 92.4764 233.604 89.6438 235.134 87.4273C237.474 84.0397 242.209 82.1767 248.062 82.3248C258.582 82.5849 268.807 88.1019 274.747 96.7252C278.258 101.815 279.662 107.218 278.709 111.936C277.968 115.606 275.665 119.041 272.429 121.557C272.629 124.69 271.534 127.948 269.499 130.159C267.656 137.141 264.359 141.468 258.941 144.069C258.69 144.194 258.16 144.393 257.495 144.646C255.845 145.275 251.979 146.747 252.002 147.442C252.166 152.793 252.252 157.318 252.336 161.702C252.42 166.085 252.507 170.63 252.67 175.983L252.291 176ZM239.783 127.215C240.276 128.261 240.853 129.265 241.508 130.219C244.928 135.264 249.391 138.208 253.752 138.296C256.482 138.354 259.406 136.788 261.06 134.407C261.185 134.228 261.3 134.047 261.406 133.864C260.649 133.914 259.889 133.896 259.135 133.809C258.788 133.77 258.447 133.716 258.115 133.649C257.714 133.923 257.29 134.161 256.847 134.36C253.496 135.853 249.211 135.488 245.091 133.358C242.655 132.099 240.55 129.846 241.023 127.508L241.012 127.497C240.602 127.417 240.193 127.324 239.783 127.218V127.215ZM241.377 127.859C241.185 129.898 243.154 131.9 245.276 132.997C249.287 135.069 253.443 135.431 256.684 133.986C256.991 133.85 257.288 133.693 257.573 133.517C256.316 133.21 255.134 132.656 254.096 131.888C253.729 131.973 253.359 132.041 252.984 132.094C248.867 132.676 244.477 130.966 241.377 127.863V127.859ZM258.552 133.318C258.756 133.351 258.965 133.381 259.179 133.405C259.993 133.498 260.814 133.51 261.63 133.44C262.446 131.822 262.555 130.132 261.926 128.586C261.874 128.462 261.819 128.337 261.759 128.213C261.675 128.641 261.555 129.062 261.401 129.471C260.822 130.987 259.839 132.318 258.557 133.322L258.552 133.318ZM261.854 127.543C262.022 127.83 262.17 128.129 262.296 128.437C262.94 130.02 262.864 131.74 262.096 133.391C264.763 133.066 267.272 131.898 269.039 130.083L269.153 129.959C269.29 129.437 269.418 128.899 269.538 128.341C269.947 126.463 270.255 124.651 270.463 122.902C269.425 123.523 268.331 124.047 267.195 124.467C265.849 124.959 264.447 125.281 263.02 125.426C262.678 125.975 262.299 126.501 261.886 126.999C261.887 127.19 261.877 127.368 261.859 127.547L261.854 127.543ZM254.598 131.761C255.633 132.467 256.799 132.963 258.028 133.22C259.389 132.243 260.433 130.892 261.028 129.333C261.237 128.786 261.377 128.216 261.447 127.635C261.434 127.613 261.421 127.592 261.407 127.569C259.583 129.576 257.224 131.031 254.603 131.765L254.598 131.761ZM241.66 127.586C244.669 130.595 248.931 132.263 252.922 131.7C253.18 131.664 253.436 131.62 253.689 131.567C252.995 130.978 252.402 130.28 251.934 129.501C251.282 128.443 250.915 127.238 250.868 125.999C248.258 127.498 244.997 128.052 241.665 127.589L241.66 127.586ZM251.266 125.76C251.268 127.009 251.617 128.233 252.276 129.297C252.777 130.128 253.425 130.862 254.191 131.464C256.894 130.777 259.329 129.303 261.182 127.232C260.749 126.615 260.279 126.023 259.774 125.461C257.676 125.251 255.647 124.59 253.984 123.345C253.502 123.967 252.947 124.53 252.331 125.022C251.993 125.289 251.639 125.537 251.271 125.764L251.266 125.76ZM270.898 122.649C270.677 124.594 270.357 126.526 269.938 128.439C269.875 128.724 269.811 129.005 269.745 129.283C271.321 127.252 272.174 124.52 272.067 121.855C271.689 122.132 271.301 122.398 270.904 122.65L270.898 122.649ZM241.523 127.166C244.921 127.678 248.254 127.109 250.873 125.536C250.903 124.863 251.067 124.203 251.356 123.594C251.645 122.997 252.075 122.477 252.61 122.08C252.493 121.949 252.381 121.815 252.272 121.677C251.006 120.072 250.36 118.166 249.946 116.176C249.019 116.339 248.081 116.426 247.14 116.436C247.526 116.757 247.864 117.131 248.143 117.547C248.999 118.825 249.128 120.285 248.486 121.448C247.754 122.777 246.335 123.504 244.962 124.207C243.458 124.975 242.038 125.7 241.524 127.143C241.533 127.152 241.532 127.16 241.528 127.167L241.523 127.166ZM238.621 123.113C238.669 123.226 238.717 123.338 238.769 123.45C239.37 124.761 240.171 125.973 241.142 127.043L241.153 127.009C241.721 125.42 243.285 124.622 244.789 123.852C246.108 123.177 247.472 122.483 248.145 121.256C248.723 120.209 248.604 118.937 247.819 117.771C247.46 117.237 246.999 116.779 246.462 116.422C245.37 116.378 244.291 116.168 243.263 115.8C240.518 116.402 238.75 119.285 238.608 121.925C238.588 122.322 238.594 122.719 238.626 123.114L238.621 123.113ZM239.57 126.751C239.904 126.842 240.239 126.925 240.573 126.999C239.903 126.217 239.318 125.366 238.829 124.462C239.005 125.247 239.255 126.013 239.575 126.752L239.57 126.751ZM260.337 125.497C260.732 125.949 261.104 126.421 261.449 126.911L261.486 126.869C261.486 126.417 261.434 125.966 261.333 125.526C261.009 125.522 260.673 125.518 260.342 125.499L260.337 125.497ZM230.013 104.359C227.702 107.393 226.795 111.617 227.837 115.534C229.133 120.408 233.2 124.574 238.452 126.402C238.66 126.475 238.869 126.544 239.079 126.607C238.628 125.522 238.341 124.376 238.229 123.207C236.744 119.642 237.1 116.045 239.14 113.098C238.812 112.774 238.487 112.421 238.165 112.039C236.27 109.791 235.245 106.927 235.113 104.019C233.416 104.189 231.711 104.323 230.018 104.36L230.013 104.359ZM261.743 125.516C261.805 125.803 261.847 126.094 261.868 126.387C262.096 126.092 262.313 125.788 262.518 125.475C262.266 125.502 262.007 125.516 261.748 125.522L261.743 125.516ZM252.888 122.379C252.389 122.74 251.986 123.219 251.717 123.771C251.491 124.244 251.349 124.752 251.296 125.272C251.564 125.094 251.825 124.899 252.076 124.705C252.667 124.229 253.2 123.686 253.664 123.087C253.392 122.866 253.133 122.629 252.888 122.379ZM259.971 125.077C260.389 125.114 260.807 125.133 261.225 125.134C261.152 124.898 261.063 124.667 260.958 124.443C260.37 123.176 259.131 122.203 257.642 121.762C258.132 122.958 259.001 123.962 259.915 125.013L259.971 125.077ZM257.478 121.304C259.199 121.739 260.651 122.828 261.324 124.275C261.452 124.552 261.559 124.838 261.644 125.131C262.025 125.122 262.404 125.101 262.782 125.067C263.457 123.955 263.964 122.751 264.287 121.492C264.947 118.879 264.749 116.071 263.844 113.5C263.092 113.446 262.338 113.453 261.587 113.52C258.138 115.247 256.734 118.715 257.444 121.186C257.459 121.224 257.471 121.258 257.483 121.302L257.478 121.304ZM264.281 113.542C265.159 116.14 265.342 118.962 264.676 121.591C264.371 122.79 263.901 123.942 263.281 125.016C264.572 124.861 265.84 124.557 267.06 124.111C268.269 123.664 269.43 123.097 270.525 122.42C270.544 122.248 270.561 122.079 270.578 121.908C270.185 122.245 269.726 122.497 269.229 122.647C268.732 122.798 268.209 122.842 267.694 122.779L267.54 122.758L266.512 114.031C265.789 113.788 265.041 113.624 264.281 113.542ZM254.222 123.019C255.712 124.14 257.513 124.762 259.392 125.011C258.506 123.986 257.629 122.917 257.173 121.639C256.749 121.548 256.317 121.501 255.883 121.497C255.624 121.493 255.364 121.507 255.107 121.54C254.853 122.055 254.557 122.549 254.222 123.016V123.019ZM253.234 122.156C253.447 122.375 253.672 122.583 253.908 122.778C254.171 122.411 254.408 122.027 254.619 121.629C254.132 121.729 253.665 121.906 253.234 122.152V122.156ZM267.902 122.405C268.905 122.489 269.863 122.105 270.631 121.321C270.748 119.957 270.8 118.629 270.788 117.338C270.112 116.199 269.13 115.269 267.952 114.651C267.622 114.478 267.283 114.324 266.936 114.188L267.902 122.405ZM271.02 121.489C271 121.705 270.98 121.923 270.957 122.141C271.327 121.898 271.686 121.644 272.036 121.38C272.012 121.105 271.979 120.833 271.935 120.562C271.919 120.456 271.9 120.351 271.88 120.248C271.785 120.434 271.68 120.614 271.565 120.789C271.404 121.037 271.221 121.27 271.02 121.487V121.489ZM239.427 113.373C237.672 115.906 237.238 118.893 238.207 121.977V121.898C238.353 119.277 240.02 116.422 242.653 115.551C241.459 115.014 240.368 114.277 239.426 113.372L239.427 113.373ZM250.353 116.111C250.758 118.05 251.385 119.898 252.598 121.438C252.714 121.582 252.833 121.724 252.954 121.86C253.533 121.511 254.175 121.28 254.844 121.179C255.798 119.144 256.065 116.84 255.552 114.793L254.969 114.957C253.437 115.384 251.893 115.82 250.352 116.106L250.353 116.111ZM255.83 121.102H255.888C256.274 121.104 256.659 121.14 257.039 121.21C256.234 118.223 258.093 115.278 260.631 113.63C259.065 113.846 257.497 114.252 255.934 114.685C256.452 116.748 256.214 119.058 255.308 121.122C255.476 121.104 255.646 121.097 255.829 121.097L255.83 121.102ZM272.155 119.629C272.225 119.913 272.28 120.204 272.333 120.501C272.365 120.696 272.39 120.891 272.412 121.089C275.464 118.647 277.632 115.364 278.338 111.865C279.269 107.253 277.885 101.958 274.439 96.9566C268.57 88.4379 258.468 82.9869 248.075 82.7293C245.361 82.6645 238.7 83.008 235.488 87.6588C234.025 89.7745 233.627 92.495 234.371 95.3089C234.696 96.5268 235.209 97.6872 235.893 98.7487C236.285 97.6421 236.831 96.595 237.514 95.6374C239.68 92.6108 243.03 90.8373 246.24 91.0066C247.951 91.1089 249.576 91.7856 250.848 92.9256C252.272 92.6358 253.739 92.6142 255.171 92.8622C257.717 93.2952 260.275 94.546 262.568 96.4787C265.977 99.3536 268.515 103.416 269.909 108.227C270.474 110.182 270.852 112.185 271.038 114.209C271.349 114.515 271.624 114.855 271.855 115.224C272.62 116.463 272.711 118.12 272.153 119.624L272.155 119.629ZM271.192 118.09C271.183 118.974 271.145 119.875 271.078 120.793C271.13 120.722 271.182 120.647 271.232 120.571C271.432 120.265 271.6 119.94 271.733 119.601C271.598 119.082 271.417 118.577 271.192 118.09ZM271.192 117.226C271.506 117.765 271.762 118.335 271.955 118.927C272.266 117.697 272.125 116.418 271.51 115.428C271.384 115.223 271.243 115.027 271.089 114.842C271.147 115.623 271.181 116.418 271.192 117.226ZM266.887 113.742C267.316 113.9 267.735 114.087 268.14 114.299C269.187 114.847 270.089 115.632 270.773 116.59C270.751 115.844 270.71 115.104 270.648 114.371C269.615 113.392 268.221 112.836 266.761 112.648L266.887 113.742ZM246.619 116.049C247.712 116.079 248.804 115.995 249.879 115.8C249.678 114.76 249.534 113.702 249.391 112.654C249.23 111.465 249.064 110.258 248.817 109.085L248.593 109.057C245.996 108.771 243.344 109.539 241.499 111.109C240.817 111.685 240.2 112.334 239.66 113.045C240.694 114.054 241.919 114.849 243.265 115.383C243.428 115.351 243.593 115.325 243.766 115.307C244.725 115.21 245.742 115.489 246.619 116.049ZM244.184 115.688C244.644 115.813 245.112 115.906 245.585 115.965C245.139 115.789 244.664 115.695 244.184 115.688ZM249.242 109.145C249.474 110.284 249.633 111.448 249.79 112.595C249.932 113.637 250.076 114.691 250.275 115.723C251.78 115.439 253.307 115.007 254.857 114.569L255.444 114.404C255.197 113.577 254.806 112.8 254.29 112.107C253.125 110.556 251.35 109.52 249.242 109.145ZM249.153 108.726C251.431 109.099 253.356 110.197 254.612 111.87C255.157 112.602 255.569 113.423 255.828 114.297C257.708 113.774 259.61 113.291 261.506 113.123C261.777 112.983 262.056 112.859 262.341 112.75C262.694 112.621 263.054 112.511 263.419 112.422C262.505 110.323 261.089 108.476 259.293 107.042L259.19 106.963C258.304 107.131 257.377 107.348 256.432 107.567C253.901 108.16 251.312 108.765 249.111 108.551C249.127 108.607 249.141 108.666 249.153 108.726ZM266.705 112.201C268.127 112.364 269.474 112.921 270.591 113.809C270.397 111.956 270.04 110.124 269.524 108.333C268.153 103.604 265.658 99.6025 262.309 96.7787C260.072 94.892 257.581 93.6674 255.104 93.2504C253.813 93.0273 252.493 93.0303 251.203 93.2592C252.344 94.4203 253.063 95.9199 253.084 97.5005C253.116 99.5925 251.97 101.641 250.152 102.95C253.368 103.361 256.46 104.39 259.288 106.536C262.116 106.014 264.554 106.001 265.79 107.925C266.291 108.696 266.396 109.631 266.493 110.456L266.705 112.201ZM264.136 113.119C264.928 113.194 265.709 113.354 266.465 113.596L266.349 112.6C265.558 112.538 264.762 112.576 263.981 112.716C264.031 112.853 264.082 112.986 264.132 113.119H264.136ZM262.882 113.06C263.156 113.06 263.428 113.068 263.7 113.084C263.664 112.99 263.626 112.895 263.587 112.801C263.279 112.871 262.974 112.957 262.676 113.061L262.882 113.06ZM235.521 103.981C235.646 106.808 236.639 109.598 238.483 111.784C238.783 112.14 239.084 112.469 239.387 112.772C239.929 112.05 240.55 111.39 241.24 110.804C243.166 109.163 245.929 108.359 248.637 108.659L248.728 108.669L248.687 108.497C247.784 108.381 246.924 108.048 246.179 107.528C245.212 106.829 244.516 105.792 244.079 104.384C242.9 104.245 241.749 103.927 240.667 103.441C239.698 103.534 238.729 103.64 237.765 103.744C237.021 103.823 236.268 103.905 235.513 103.981H235.521ZM259.717 106.864C261.501 108.337 262.906 110.21 263.818 112.328C264.632 112.155 265.467 112.099 266.297 112.16L266.102 110.501C266.01 109.719 265.906 108.832 265.459 108.136C264.389 106.486 262.247 106.432 259.712 106.864H259.717ZM249.019 108.135C251.182 108.384 253.794 107.773 256.348 107.177C257.168 106.984 257.978 106.795 258.764 106.637C255.946 104.591 252.855 103.642 249.64 103.293C249.247 103.529 248.834 103.73 248.405 103.892C248.074 104.016 247.736 104.119 247.393 104.202C248.168 105.406 248.663 106.742 249.014 108.135H249.019ZM244.525 104.421C244.937 105.666 245.568 106.583 246.426 107.203C247.07 107.654 247.81 107.952 248.589 108.074C248.237 106.726 247.74 105.439 246.972 104.292C246.163 104.439 245.339 104.482 244.52 104.421H244.525ZM244.399 104.012C245.172 104.082 245.951 104.055 246.717 103.931C246.506 103.648 246.277 103.378 246.031 103.123C245.423 103.123 244.815 103.144 244.204 103.174C244.256 103.462 244.321 103.747 244.395 104.012H244.399ZM241.538 103.358C242.323 103.652 243.14 103.856 243.972 103.966C243.906 103.717 243.846 103.468 243.799 103.195C243.043 103.236 242.289 103.293 241.534 103.358H241.538ZM235.388 100.572C234.498 100.84 233.65 101.227 232.866 101.723C231.916 102.333 231.067 103.086 230.348 103.953C231.927 103.907 233.52 103.778 235.112 103.622C235.09 102.599 235.181 101.576 235.384 100.572H235.388ZM246.574 103.123C246.78 103.354 246.973 103.596 247.152 103.848C247.529 103.765 247.9 103.655 248.261 103.519C248.489 103.433 248.713 103.335 248.931 103.225C248.148 103.161 247.362 103.129 246.571 103.123H246.574ZM235.821 100.451C235.595 101.479 235.489 102.53 235.505 103.582C236.249 103.507 236.991 103.426 237.732 103.346C238.473 103.266 239.236 103.183 239.989 103.106C238.668 102.397 237.498 101.442 236.542 100.293C236.298 100.338 236.057 100.391 235.818 100.451H235.821ZM237.004 100.219C237.96 101.325 239.127 102.232 240.439 102.887C240.54 102.937 240.642 102.985 240.745 103.031C241.74 102.937 242.738 102.854 243.731 102.798C243.676 102.446 243.632 102.075 243.606 101.688C243.596 101.564 243.588 101.439 243.586 101.315C241.557 100.282 239.257 99.8993 237 100.219H237.004ZM246.307 102.723C247.387 102.719 248.466 102.771 249.541 102.878C251.452 101.661 252.721 99.5726 252.689 97.5055C252.664 95.9448 251.913 94.4651 250.737 93.3537C249.537 93.6196 248.401 94.1155 247.393 94.8136C245.292 96.2908 243.994 98.6965 243.978 101.072C244.793 101.514 245.541 102.07 246.197 102.723H246.307ZM243.99 101.534C243.99 101.574 243.99 101.615 243.999 101.658C244.032 102.052 244.077 102.425 244.133 102.779C244.635 102.754 245.133 102.738 245.627 102.729C245.125 102.273 244.575 101.872 243.987 101.534H243.99ZM238.547 99.717C240.292 99.7131 242.014 100.106 243.582 100.867C243.668 98.4326 245.015 95.9971 247.161 94.4887C248.133 93.8136 249.221 93.3201 250.372 93.0326C249.199 92.0622 247.745 91.49 246.221 91.3998C243.139 91.2306 239.931 92.9468 237.844 95.8627C237.124 96.8732 236.561 97.9854 236.175 99.1619C236.342 99.4034 236.518 99.6373 236.704 99.8638C237.312 99.7661 237.927 99.717 238.543 99.717H238.547ZM236.027 99.6398C235.991 99.7643 235.957 99.8887 235.924 100.013C236.036 99.9871 236.147 99.9622 236.259 99.9398C236.176 99.8452 236.1 99.7431 236.023 99.6398H236.027Z" fill="#1F0076"/>
<path d="M60.5547 135.567L60.2689 140.343L56.6691 200.438L56.5605 202.291H44.5767L44.362 143.664L44.327 134.323L57.4991 135.333L60.5547 135.567Z" fill="#8A309C"/>
<path d="M44.3851 172.788L44.2767 173.274L48.7704 174.27L48.8787 173.784L44.3851 172.788Z" fill="#1F0076"/>
<path d="M77.0308 133.825L71.2892 202.291H56.5605V202.161L56.5855 200.453L57.4181 140.94L57.4992 135.333L57.5591 131.086L72.4862 133.187L77.0308 133.825Z" fill="#8A309C"/>
<path d="M56.8106 202.294L56.3113 202.287L57.0565 150.042L51.2212 147.619L51.4134 147.158L57.5607 149.714L56.8106 202.294Z" fill="#1F0076"/>
<path d="M73.7609 173.028L68.2692 173.527L68.3145 174.023L73.8062 173.524L73.7609 173.028Z" fill="#1F0076"/>
<path opacity="0.2" d="M76.197 137.016L60.2689 140.343L57.418 140.94L44.362 143.664L44.327 134.323L57.4991 135.333L57.5591 131.086L72.4861 133.187L76.197 137.016Z" fill="#1F0076"/>
<path d="M63.5432 92.6177L63.5532 92.9713L63.7117 97.6245L63.7979 100.122L56.9166 100.654L56.9241 94.9045L56.1639 92.6128L58.3133 90.687L63.5432 92.6177Z" fill="#F9B384"/>
<path d="M63.5542 92.9715L63.7128 97.6247C62.2961 97.2351 60.7833 96.3712 59.1444 94.9147L62.195 92.501L63.5542 92.9715Z" fill="#1F0076"/>
<path d="M65.1608 85.8261C65.1608 85.8261 67.6322 93.0697 66.3016 94.2909C64.9711 95.5121 59.1446 94.9133 59.1446 94.9133L57.1637 91.4552L58.4481 85.7937L65.1608 85.8261Z" fill="#F9B384"/>
<path d="M60.2429 89.4972C60.3365 88.0893 60.8233 86.9702 62.2612 86.5482C62.2612 86.5482 65.69 88.0669 66.8695 86.2992C68.9689 83.1598 64.5479 80.6365 62.597 83.0428C58.966 81.8776 55.4711 83.4162 55.0654 86.1548C51.89 88.2312 52.6315 91.7055 56.924 94.9073C57.4807 92.857 58.5466 91.5188 60.0969 91.0396L60.2429 89.4972Z" fill="#1F0076"/>
<path d="M65.6598 88.3928C65.6598 88.3928 67.8816 89.5966 67.3724 90.4343C66.9979 91.0568 65.2692 90.9746 65.2692 90.9746L65.6598 88.3928Z" fill="#F9B384"/>
<path d="M61.18 89.344C61.6793 89.9813 61.5981 90.8701 61.0053 91.3357C60.4124 91.8013 59.5274 91.6544 59.0306 91.0183C58.5339 90.3822 58.6125 89.4921 59.2066 89.0265C59.8008 88.561 60.6832 88.7079 61.18 89.344Z" fill="#F9B384"/>
<path d="M60.5701 90.5153C60.2119 89.8431 59.8536 89.8058 59.6127 89.8344L59.5828 89.5854C60.0733 89.5244 60.4677 89.7908 60.7898 90.3983L60.5701 90.5153Z" fill="#1F0076"/>
<path d="M74.9089 100.089C65.6849 98.0731 56.1503 97.9127 46.8634 99.6176C46.171 99.7435 45.5394 100.093 45.0658 100.612C44.5921 101.131 44.3027 101.791 44.2422 102.491L41.4512 133.994C41.4049 134.518 41.4691 135.047 41.6398 135.545C41.8104 136.044 42.0837 136.501 42.4421 136.888C42.8005 137.275 43.2361 137.583 43.7209 137.792C44.2056 138.001 44.7289 138.106 45.257 138.102L75.7302 137.843C76.2678 137.838 76.7982 137.719 77.2862 137.494C77.7742 137.27 78.2086 136.944 78.5606 136.538C78.9125 136.133 79.174 135.658 79.3275 135.144C79.481 134.63 79.5231 134.089 79.451 133.558L74.9089 100.089Z" fill="#29009F"/>
<path d="M46.8636 99.6177L45.9524 99.828C44.635 100.132 43.4265 100.791 42.4582 101.732C41.4899 102.673 40.7989 103.862 40.4604 105.167L35.5325 124.181C35.3549 124.865 35.3241 125.579 35.4422 126.276C35.5603 126.973 35.8246 127.637 36.2178 128.225C36.8544 129.177 37.7979 129.884 38.8921 130.229C39.9863 130.574 41.1657 130.536 42.2353 130.121L45.2035 128.97L46.8636 99.6177Z" fill="#29009F"/>
<path d="M100.725 63.3269C100.009 60.4638 95.5877 60.9443 95.5877 60.9443C95.5877 60.9443 95.3493 60.1102 94.035 59.6335C92.7206 59.1567 92.2501 68.193 92.2501 68.193L91.3988 71.8615L99.406 75.4715C100.33 69.6096 101.006 64.4497 100.725 63.3269Z" fill="#F9B384"/>
<path d="M91.3978 71.8616L87.0166 87.8851L67.2953 99.8356L72.7661 112.896L93.9491 96.7795C95.2351 95.802 96.1099 94.3819 96.403 92.796C97.0858 89.0976 98.3926 81.8701 99.3987 75.4704L91.3978 71.8616Z" fill="#29009F"/>
<path d="M91.3961 71.8613L99.7477 72.6979L99.4044 75.4677L91.3961 71.8613Z" fill="#CC7260"/>
<path d="M91.3976 71.8616L87.0165 87.8851L68.6382 99.0215C61.3926 98.0993 54.0475 98.3005 46.8636 99.6177L45.9524 99.8281C44.635 100.132 43.4265 100.791 42.4582 101.732C41.4899 102.673 40.7989 103.862 40.4604 105.167L35.5325 124.181C35.3549 124.865 35.3241 125.579 35.4422 126.276C35.5603 126.973 35.8246 127.637 36.2178 128.225C36.8092 129.109 37.6662 129.783 38.6657 130.151C39.6652 130.518 40.7558 130.561 41.7809 130.272L41.4514 133.994C41.4051 134.519 41.4693 135.047 41.64 135.546C41.8106 136.044 42.0839 136.501 42.4423 136.888C42.8007 137.275 43.2363 137.583 43.721 137.792C44.2058 138.001 44.729 138.107 45.2571 138.102L75.7304 137.843C76.268 137.838 76.7984 137.72 77.2864 137.495C77.7744 137.27 78.2089 136.944 78.5608 136.538C78.9128 136.133 79.1742 135.658 79.3277 135.144C79.4812 134.63 79.5234 134.09 79.4512 133.558L76.2846 110.219L93.9514 96.7745C95.2374 95.797 96.1123 94.3769 96.4054 92.791C97.0881 89.0926 98.395 81.8651 99.401 75.4654L91.3976 71.8616Z" fill="#29009F"/>
<path d="M42.6539 117.579L41.5083 130.256L42.0056 130.301L43.1512 117.623L42.6539 117.579Z" fill="#1F0076"/>
<path d="M76.6104 109.352L72.5961 112.703L72.9165 113.085L76.9308 109.734L76.6104 109.352Z" fill="#1F0076"/>
<path d="M87.1664 87.6728L86.8998 88.0938L89.271 89.5876L89.5377 89.1666L87.1664 87.6728Z" fill="#1F0076"/>
<path d="M170.264 48.3117C170.19 46.9086 169.907 45.5242 169.425 44.2037C168.946 42.8828 168.273 41.6399 167.428 40.5153L170.458 36.8754L165.381 32.679L162.354 36.3165C159.888 35.094 157.119 34.611 154.382 34.926L152.76 30.4844L146.564 32.7251L148.186 37.1667C145.884 38.6752 144.07 40.8168 142.963 43.3324L138.302 42.4784L137.11 48.9428L141.774 49.798C141.849 51.2011 142.132 52.5855 142.613 53.906C143.093 55.2266 143.766 56.4691 144.61 57.5932L141.581 61.2331L146.652 65.4307L149.679 61.7933C152.146 63.0158 154.916 63.4987 157.652 63.1838L159.269 67.6254L165.465 65.3847L163.848 60.9431C166.151 59.4341 167.965 57.292 169.072 54.7762L173.733 55.6301L174.925 49.1657L170.264 48.3117ZM158.616 56.1878C156.719 56.8727 154.628 56.7789 152.8 55.927C150.973 55.0751 149.559 53.5348 148.869 51.6441C148.183 49.7526 148.277 47.6668 149.131 45.8445C149.985 44.0222 151.529 42.6123 153.425 41.9244C155.322 41.2395 157.413 41.3334 159.241 42.1852C161.068 43.0371 162.482 44.5775 163.172 46.4681C163.858 48.3596 163.764 50.4455 162.91 52.2678C162.056 54.0901 160.511 55.4999 158.616 56.1878Z" fill="#8257FF"/>
<path d="M159.123 67.9465L157.489 63.4551C154.834 63.7267 152.155 63.2597 149.75 62.1057L146.69 65.7842L141.233 61.2692L144.297 57.5882C143.492 56.4862 142.847 55.2763 142.381 53.9943C141.914 52.7126 141.631 51.3716 141.54 50.0109L136.822 49.1395L138.103 42.1845L142.818 43.0485C143.921 40.625 145.675 38.5534 147.887 37.0633L146.253 32.5719L152.918 30.1594L154.552 34.6508C157.207 34.3798 159.885 34.8468 162.291 36.0002L165.351 32.3217L170.807 36.838L167.744 40.519C168.549 41.6211 169.193 42.831 169.659 44.1128C170.126 45.3945 170.41 46.7355 170.501 48.0963L175.218 48.9677L173.938 55.9164L169.223 55.0524C168.12 57.4758 166.365 59.5473 164.154 61.0376L165.788 65.529L159.123 67.9465ZM157.823 62.9161L159.422 67.3091L165.149 65.2365L163.55 60.8434L163.715 60.7351C165.978 59.2549 167.761 57.1503 168.846 54.6777L168.926 54.4972L173.537 55.3425L174.638 49.3673L170.02 48.522L170.01 48.3253C169.936 46.9473 169.659 45.5877 169.186 44.2908C168.714 42.9928 168.053 41.7717 167.222 40.6671L167.105 40.5102L170.101 36.9114L165.414 33.03L162.418 36.6276L162.242 36.5405C159.819 35.3362 157.098 34.8604 154.408 35.1711L154.213 35.1936L152.614 30.8005L146.887 32.8732L148.486 37.2662L148.32 37.3745C146.056 38.855 144.274 40.96 143.189 43.4331L143.11 43.6136L138.499 42.7671L137.398 48.7424L142.016 49.5876L142.026 49.7843C142.1 51.1623 142.377 52.522 142.85 53.8188C143.322 55.1168 143.983 56.338 144.814 57.4425L144.931 57.5994L141.935 61.1982L146.622 65.0796L149.618 61.482L149.794 61.5692C152.217 62.7724 154.938 63.2481 157.628 62.9385L157.823 62.9161ZM156.029 56.8923C154.414 56.8921 152.839 56.3966 151.516 55.4732C150.193 54.5497 149.187 53.2429 148.634 51.73C147.925 49.7762 148.022 47.6216 148.905 45.7393C149.787 43.8569 151.382 42.4007 153.34 41.6904C154.309 41.3365 155.339 41.1779 156.371 41.2239C157.402 41.2698 158.414 41.5193 159.348 41.958C160.284 42.3911 161.125 43.0052 161.821 43.7649C162.518 44.5246 163.056 45.4146 163.405 46.3834C164.114 48.3368 164.017 50.491 163.135 52.373C162.253 54.255 160.658 55.7112 158.701 56.4218C157.845 56.7331 156.94 56.8923 156.029 56.8923ZM156.029 41.714C155.171 41.7151 154.32 41.8655 153.514 42.1584C151.68 42.8238 150.187 44.1875 149.361 45.95C148.535 47.7125 148.444 49.73 149.107 51.5594C149.775 53.3877 151.142 54.8772 152.909 55.7011C154.676 56.5249 156.699 56.6158 158.534 55.9537C160.367 55.2885 161.861 53.925 162.687 52.1624C163.514 50.3999 163.605 48.3823 162.941 46.5527C162.613 45.6458 162.109 44.8126 161.457 44.1013C160.804 43.39 160.017 42.8147 159.14 42.4086C158.164 41.9512 157.099 41.714 156.02 41.714H156.029Z" fill="#4214C8"/>
<path d="M131.534 154.265H131.035V209.381H131.534V154.265Z" fill="#1F0076"/>
<path d="M157.017 154.265H105.551V156.257H157.017V154.265Z" fill="#1F0076"/>
<path d="M135.698 138.759H126.595V154.337H135.698V138.759Z" fill="white"/>
<path d="M135.949 154.585H126.346V138.51H135.949V154.585ZM126.845 154.087H135.45V139.008H126.845V154.087Z" fill="#1F0076"/>
<path d="M149.229 115.774H113.065C111.567 115.774 110.353 116.985 110.353 118.479V142.313C110.353 143.807 111.567 145.018 113.065 145.018H149.229C150.727 145.018 151.941 143.807 151.941 142.313V118.479C151.941 116.985 150.727 115.774 149.229 115.774Z" fill="white"/>
<path d="M149.23 145.267H113.066C112.28 145.266 111.526 144.954 110.971 144.399C110.416 143.844 110.104 143.092 110.104 142.308V118.479C110.105 117.696 110.417 116.945 110.972 116.391C111.528 115.837 112.281 115.526 113.066 115.525H149.23C150.015 115.526 150.768 115.838 151.323 116.392C151.878 116.945 152.191 117.696 152.192 118.479V142.308C152.192 143.092 151.88 143.844 151.325 144.399C150.77 144.954 150.016 145.266 149.23 145.267ZM113.066 116.023C112.413 116.024 111.787 116.283 111.325 116.743C110.864 117.204 110.604 117.828 110.603 118.479V142.308C110.604 142.959 110.864 143.584 111.325 144.044C111.787 144.504 112.413 144.763 113.066 144.764H149.23C149.883 144.763 150.509 144.504 150.971 144.044C151.432 143.584 151.692 142.959 151.693 142.308V118.479C151.692 117.828 151.432 117.204 150.971 116.743C150.509 116.283 149.883 116.024 149.23 116.023H113.066Z" fill="#1F0076"/>
<path d="M140.155 154.337H122.14C122.14 153.526 122.463 152.748 123.038 152.175C123.613 151.601 124.393 151.279 125.206 151.279H137.089C137.902 151.279 138.682 151.601 139.257 152.174C139.832 152.748 140.155 153.526 140.155 154.337Z" fill="white"/>
<path d="M140.405 154.585H121.891V154.336C121.892 153.459 122.241 152.619 122.863 151.999C123.484 151.379 124.327 151.03 125.206 151.029H137.089C137.968 151.03 138.811 151.379 139.432 151.999C140.054 152.619 140.404 153.459 140.405 154.336V154.585ZM122.4 154.087H139.895C139.831 153.388 139.508 152.738 138.989 152.264C138.47 151.791 137.792 151.528 137.089 151.527H125.206C124.502 151.528 123.825 151.791 123.306 152.265C122.786 152.738 122.464 153.388 122.4 154.087Z" fill="#1F0076"/>
<path d="M123.939 120.749H114.328V128.84H123.939V120.749Z" fill="#D6D2E2"/>
<path d="M147.967 120.749H129.306V128.84H147.967V120.749Z" fill="#D6D2E2"/>
<path d="M147.948 131.952H114.328V140.044H147.948V131.952Z" fill="#D6D2E2"/>
</g>
</g>
</g>
<defs>
<filter id="filter0_d_442_2811" x="0.666626" y="0" width="320" height="194" filterUnits="userSpaceOnUse" color-interpolation-filters="sRGB">
<feFlood flood-opacity="0" result="BackgroundImageFix"/>
<feColorMatrix in="SourceAlpha" type="matrix" values="0 0 0 0 0 0 0 0 0 0 0 0 0 0 0 0 0 0 127 0" result="hardAlpha"/>
<feOffset dy="3"/>
<feGaussianBlur stdDeviation="5"/>
<feComposite in2="hardAlpha" operator="out"/>
<feColorMatrix type="matrix" values="0 0 0 0 0 0 0 0 0 0 0 0 0 0 0 0 0 0 0.05 0"/>
<feBlend mode="normal" in2="BackgroundImageFix" result="effect1_dropShadow_442_2811"/>
<feBlend mode="normal" in="SourceGraphic" in2="effect1_dropShadow_442_2811" result="shape"/>
</filter>
<clipPath id="clip0_442_2811">
<rect x="10.6666" y="7" width="300" height="174" rx="20" fill="white"/>
</clipPath>
<clipPath id="clip1_442_2811">
<rect width="284" height="189" fill="white" transform="translate(14 24)"/>
</clipPath>
</defs>
</svg>
