<svg width="320" height="220" viewBox="0 0 320 220" fill="none" xmlns="http://www.w3.org/2000/svg">
<g filter="url(#filter0_d_442_2816)">
<g clip-path="url(#clip0_442_2816)">
<rect x="10" y="7" width="300" height="200" rx="50" fill="#F0EAFF"/>
<g clip-path="url(#clip1_442_2816)">
<path d="M29.4234 166.555C29.6247 163.167 32.2963 157.864 32.2963 157.864L41.2087 158.357L36.8636 201.597L38.737 202.327C38.737 202.327 35.7382 203.662 34.3556 203.802C32.9729 203.942 30.9668 202.591 30.7557 202.54C30.5446 202.49 31.6448 201.263 31.6448 201.263C31.6448 201.263 29.2234 169.943 29.4234 166.555Z" fill="#E28B6D"/>
<path d="M40.6493 166.243C40.8492 162.854 43.5223 157.551 43.5223 157.551L52.4277 158.038L48.0826 201.277L49.6764 202.215C49.6764 202.215 46.9572 203.337 45.5745 203.477C44.1919 203.617 42.1857 202.267 41.9746 202.215C41.7635 202.163 42.8638 200.939 42.8638 200.939C42.8638 200.939 40.4508 169.631 40.6493 166.243Z" fill="#E28B6D"/>
<path d="M38.4503 202.218C38.4503 202.218 47.4746 205.582 47.7011 206.185C47.8772 206.656 48.1205 207.712 48.2225 208.159C48.2279 208.184 48.2277 208.21 48.2219 208.234C48.2161 208.259 48.2048 208.283 48.1888 208.302C48.1728 208.322 48.1527 208.338 48.1297 208.349C48.1068 208.36 48.0816 208.366 48.0562 208.366H30.4298C30.39 208.367 30.3512 208.353 30.3207 208.327C30.2901 208.301 30.2698 208.266 30.2635 208.226L29.5966 204.737C29.5559 204.526 29.5577 204.309 29.6019 204.098C29.6461 203.888 29.7317 203.688 29.8539 203.512L30.9122 202.099C30.9122 202.099 32.7142 203.289 34.2674 203.24C35.8207 203.191 38.4503 202.218 38.4503 202.218Z" fill="#1B3D9E"/>
<path d="M49.6795 202.218C49.6795 202.218 58.7023 205.582 58.9288 206.185C59.1361 206.834 59.3102 207.493 59.4502 208.159C59.4559 208.184 59.456 208.21 59.4503 208.235C59.4447 208.259 59.4335 208.283 59.4176 208.303C59.4018 208.323 59.3816 208.339 59.3587 208.35C59.3358 208.361 59.3107 208.367 59.2852 208.367H41.6576C41.6178 208.366 41.5794 208.352 41.549 208.327C41.5185 208.301 41.4981 208.266 41.4912 208.226L40.8244 204.737C40.7839 204.526 40.7859 204.309 40.8303 204.098C40.8747 203.888 40.9606 203.689 41.083 203.512L42.0127 202.018C42.0127 202.018 43.9419 203.289 45.4965 203.24C47.0511 203.191 49.6795 202.218 49.6795 202.218Z" fill="#1B3D9E"/>
<path d="M41.083 203.514C41.083 203.514 48.171 207.33 48.1989 208.366H49.3677C49.3677 208.366 45.8992 203.645 41.234 203.272L41.083 203.514Z" fill="#1C056D"/>
<path d="M49.6361 110.4C49.6361 110.4 58.3598 158.939 53.8945 171.324C53.8945 171.324 35.2881 179.048 26.0402 172.251C16.7922 165.453 26.9279 161.663 27.6144 158.391C28.3008 155.119 17.982 119.446 29.5828 110.845L49.6361 110.4Z" fill="#3A6BEA"/>
<path d="M22.1704 129.272C22.1704 129.272 37.2369 131.795 45.2602 123.681C53.2834 115.568 53.1031 115.059 53.1031 115.059L51.2059 111.934C51.2059 111.934 25.3257 113.531 24.6309 114.49C23.9361 115.448 21.0044 125.957 22.1704 129.272Z" fill="#0D3AA0"/>
<path d="M27.4619 156.049C27.4619 156.049 27.09 158.892 32.4193 161.534C37.7486 164.176 26.2932 162.332 25.2516 164.544C24.2101 166.756 24.15 171.362 24.15 171.362C24.15 171.362 19.5547 170.133 19.9839 166.632C20.4131 163.132 27.4619 156.049 27.4619 156.049Z" fill="#0D3AA0"/>
<path d="M48.0742 73.6233C48.0742 73.6233 60.3446 88.1029 59.5379 89.5369C58.7313 90.971 50.0664 94.0228 50.0664 94.0228C50.0664 94.0228 47.6002 75.2733 48.0742 73.6233Z" fill="#F7974D"/>
<path d="M30.9822 70.35C30.9822 70.35 19.7044 75.6182 18.2602 79.448C16.8161 83.2778 25.6865 105.28 25.2923 108.054C24.898 110.828 22.1928 114.427 23.939 115.45C25.6851 116.473 51.6353 114.525 52.0309 113.468C52.4266 112.411 51.5039 107.838 51.3725 106.36C51.241 104.883 50.5756 76.0443 48.0745 73.6233C45.5734 71.2024 38.6686 69.7515 38.6686 69.7515L30.9822 70.35Z" fill="#FFCC59"/>
<path d="M50.7529 117.07C50.7529 117.07 40.1489 87.4482 40.23 85.4787C40.311 83.5091 50.5753 80.9353 50.5753 80.9353C50.5753 80.9353 59.8513 112.356 59.2976 113.41C58.744 114.464 50.7529 117.07 50.7529 117.07Z" fill="#F7974D"/>
<path d="M36.2204 50.5405C37.1333 50.6569 38.0545 50.7746 38.9227 51.0802C39.7909 51.3858 40.6143 51.8989 41.1316 52.6629C41.8851 53.7732 41.8921 55.2339 42.4849 56.4381C43.2202 57.9296 44.7693 58.8758 45.5605 60.3394C46.0119 61.1595 46.167 62.1107 45.9995 63.0323C45.7549 64.2757 44.8671 65.3201 43.8074 66.0098C42.7477 66.6995 41.5189 67.078 40.2956 67.4018C37.8453 68.0516 35.3498 68.5159 32.8301 68.791C31.9151 66.6829 31.1553 64.5103 30.5569 62.2907C29.7978 59.5571 29.2987 56.5824 30.2955 53.926C30.5452 53.2119 30.9442 52.5595 31.4657 52.0125C32.6218 50.8587 34.6 50.3359 36.2204 50.5405Z" fill="#1B3D9E"/>
<path opacity="0.24" d="M40.8858 54.1181C40.8858 54.1181 46.148 63.317 42.8696 65.8557C39.5913 68.3944 36.2151 65.3861 36.2151 65.3861L35.7188 53.7803L40.8858 54.1181Z" fill="#1C056D"/>
<path d="M29.7167 54.3494C30.378 53.1018 33.3795 51.2345 36.1127 51.1504C36.868 51.1331 37.6117 51.3392 38.2509 51.7431C38.8901 52.147 39.3966 52.7307 39.707 53.4214C41.1595 56.6022 43.072 64.0753 40.8603 65.3202C39.8747 65.8739 39.0066 65.7716 38.1062 65.5487C38.309 67.6346 39.0932 72.7569 38.7326 73.3078C37.396 75.3573 32.2555 72.5579 31.063 71.6887C29.8705 70.8196 33.0706 62.9791 33.0706 62.9791C32.2052 61.7273 28.7968 56.0863 29.7167 54.3494Z" fill="#E28B6D"/>
<path d="M38.5188 65.7253C37.359 65.242 36.2373 64.6712 35.1636 64.0178C35.1636 64.0178 36.5155 68.3635 39.2179 68.2528L38.5188 65.7295" fill="#E57492"/>
<path d="M41.6125 56.2194C41.4727 56.1857 40.3543 56.417 38.3216 54.7404C38.3216 54.7404 37.568 55.824 35.0432 54.2792L34.6504 52.1765L39.8622 51.4854L41.6125 56.2194Z" fill="#E57492"/>
<path d="M37.7134 56.4956C37.7134 56.4956 41.2923 58.468 41.0337 58.9881C40.7751 59.5082 38.2377 58.7932 37.972 58.9236C37.7064 59.054 38.4879 59.6666 38.8374 59.6427C39.1869 59.6189 41.6181 59.682 41.6181 59.0287C41.6181 58.3755 40.4731 57.4433 37.7134 56.4956Z" fill="#E57492"/>
<path d="M37.3125 53.9738C37.3788 53.9726 37.4441 53.9573 37.5041 53.929C37.6578 53.8449 37.6774 53.629 37.6327 53.4593C37.5671 53.2972 37.5261 53.1262 37.5111 52.9519C38.438 54.1659 39.9856 54.7378 41.4926 54.9635C41.53 54.9754 41.5696 54.9779 41.6081 54.9708C41.6467 54.9637 41.6829 54.9473 41.7135 54.9229C41.7333 54.8955 41.7476 54.8646 41.7554 54.8317C41.9777 54.0345 42.0048 53.1952 41.8344 52.3852C41.664 51.5752 41.3012 50.8184 40.7768 50.1791C40.2425 49.5694 39.605 49.0592 38.8937 48.6721C36.9365 47.5506 34.5053 47.081 32.3873 47.8604C31.7036 48.1127 31.0424 48.5109 30.6565 49.1305C30.5065 49.3558 30.4236 49.6194 30.4175 49.8903C30.4175 50.3108 30.6971 50.6907 31.0102 50.9697C31.4078 51.3036 31.8638 51.5603 32.3551 51.7267C32.5984 51.815 32.8458 51.8823 33.0919 51.9608C33.2416 52.0015 33.3771 52.083 33.4833 52.1963C33.7666 52.5411 34.0858 52.8545 34.4354 53.1313C34.8279 53.4162 35.2636 53.6358 35.7258 53.7818C36.1872 53.9294 36.6704 53.9972 37.1546 53.9822C37.2021 53.9808 37.258 53.978 37.3125 53.9738Z" fill="#1B3D9E"/>
<path d="M41.0239 61.0024C40.4574 61.2735 39.8376 61.4141 39.2099 61.4141C38.5823 61.4141 37.9625 61.2735 37.396 61.0024C37.396 61.0024 38.5144 62.5445 39.7125 62.4618C41.2895 62.358 41.0239 61.0024 41.0239 61.0024Z" fill="white"/>
<path d="M34.9175 51.2935C34.9175 51.2935 36.6622 53.9752 35.5075 56.4957C34.3527 59.0162 34.9175 67.4847 34.9175 67.4847C34.9175 67.4847 30.4186 67.5898 28.4768 66.0128C26.5349 64.4357 28.4768 62.0666 28.4768 62.0666C28.4768 62.0666 27.1137 64.7497 27.1137 65.5389C27.1137 66.3282 23.0203 64.2338 23.1783 60.7292C23.3363 57.2246 25.5899 49.4515 30.6535 49.1304C35.7172 48.8094 34.9175 51.2935 34.9175 51.2935Z" fill="#1B3D9E"/>
<path d="M78.7677 84.925C79.6019 84.6531 80.492 84.6015 81.3518 84.7754C82.2117 84.9493 83.0123 85.3426 83.6762 85.9175L79.9966 74.5542C79.8471 74.0963 79.5229 73.7164 79.0948 73.4975C78.6667 73.2787 78.1696 73.2388 77.7122 73.3865L63.8857 77.892C64.4915 77.012 64.807 75.9638 64.7878 74.8947C64.7686 73.8256 64.4158 72.7894 63.7788 71.9319C63.1418 71.0743 62.2526 70.4386 61.2366 70.114C60.2205 69.7895 59.1286 69.7925 58.1143 70.1226C57.1 70.4527 56.2144 71.0933 55.5821 71.9542C54.9498 72.8152 54.6025 73.8533 54.5891 74.9225C54.5757 75.9917 54.8969 77.0382 55.5075 77.9149C56.1181 78.7915 56.9874 79.4542 57.9931 79.8097L44.1666 84.311C43.7099 84.4609 43.331 84.786 43.1128 85.2152C42.8946 85.6445 42.8548 86.143 43.0021 86.6016L51.9928 114.372C52.1422 114.83 52.4665 115.21 52.8946 115.429C53.3227 115.647 53.8197 115.687 54.2771 115.54L87.8297 104.619C88.286 104.469 88.6647 104.145 88.8829 103.716C89.1011 103.287 89.1411 102.789 88.9943 102.33L85.3147 90.9655C85.1123 91.836 84.6859 92.6382 84.078 93.292C83.4702 93.9459 82.702 94.4286 81.8502 94.6921C80.9984 94.9555 80.0925 94.9906 79.223 94.7937C78.3534 94.5969 77.5505 94.175 76.8942 93.5701C76.2379 92.9651 75.7512 92.1983 75.4824 91.346C75.2137 90.4937 75.1724 89.5857 75.3626 88.7124C75.5529 87.8391 75.968 87.0311 76.5667 86.3688C77.1653 85.7065 77.9266 85.213 78.7747 84.9376L78.7677 84.925Z" fill="#86A7FF"/>
<path opacity="0.59" d="M75.3038 88.9902C75.3038 88.9902 72.7455 94.8471 72.9496 95.4247C73.1537 96.0022 74.1785 95.6125 74.1785 95.6125C74.1785 95.6125 73.6947 97.0494 73.9548 97.2541C74.2148 97.4587 74.9977 97.4223 75.3318 97.0859C75.3318 97.0859 75.6855 97.4041 76.5048 97.1419C76.6115 97.0974 76.7084 97.032 76.7895 96.9494C76.8707 96.8668 76.9345 96.7688 76.9773 96.6611C77.1171 96.2938 77.2569 95.3308 77.2569 95.3308C77.2569 95.3308 77.1744 96.6947 77.4666 96.8195C77.5624 96.8639 77.6705 96.8735 77.7726 96.8466C77.8746 96.8197 77.9641 96.7581 78.0258 96.6723C78.0887 96.5882 78.2942 95.3756 78.3054 94.477C78.3054 94.477 75.452 90.2715 75.3066 88.9902" fill="#8C9EF4"/>
<path opacity="0.59" d="M49.8765 107.821C49.8877 107.853 53.2122 109.297 53.9098 109.322C54.6074 109.348 59.6613 108.902 60.1086 109.472C60.556 110.043 58.684 110.975 58.684 110.975C58.684 110.975 62.7257 112.221 63.0822 112.673C63.4387 113.124 60.2526 116.791 58.7581 116.738C57.2636 116.685 51.4506 113.742 51.4506 113.742C51.4506 113.742 49.5479 109.692 49.8709 107.822" fill="#8C9EF4"/>
<path d="M29.7365 95.7891C29.7365 95.7891 29.633 103.03 29.7728 103.219C29.9126 103.408 44.42 106.226 52.4209 109.599L52.2894 113.159C52.2894 113.159 22.9756 112.638 21.8544 111.056C20.7332 109.475 19.5672 99.8418 19.8972 95.7975L29.7365 95.7891Z" fill="#E28B6D"/>
<path d="M30.0397 100.478C30.0397 100.478 21.741 102.633 18.6108 102.243C18.6108 102.243 18.6108 96.6357 18.7632 96.6357H29.9572L30.0397 100.473" fill="#B23B38"/>
<path d="M18.256 79.4478C18.256 79.4478 17.68 98.6081 18.256 98.6081C18.832 98.6081 30.7529 99.3763 31.0815 97.8399C31.41 96.3035 31.4869 81.9375 29.5339 80.5118C27.5808 79.0861 20.518 74.9844 18.256 79.4478Z" fill="#FFCC59"/>
<path d="M29.6803 98.5226C29.6803 98.5226 31.597 98.3249 32.1199 97.9212C32.6427 97.5174 30.3849 80.7641 29.5601 79.9426C29.5601 79.9426 31.446 82.7771 33.1572 92.9573C33.1572 92.9573 34.4154 98.845 33.9736 99.2515C33.5319 99.658 29.6999 100.601 29.6999 100.601L29.6803 98.5226Z" fill="#F7974D"/>
<path d="M52.4249 109.596C52.4249 109.596 55.3118 109.946 55.4391 109.946C55.5663 109.946 59.4039 109.405 59.5311 109.771C59.6583 110.137 56.8986 111.122 56.8986 111.122C56.8986 111.122 62.2964 112.732 62.2307 112.945C62.165 113.158 61.7204 114.049 61.1123 114.017C61.1123 114.017 60.9221 115.035 60.0973 115.035C60.0973 115.035 59.5269 115.772 58.9244 115.736C58.9244 115.736 58.2575 116.146 57.6871 115.988C57.1167 115.83 51.6252 113.243 51.5484 113.004C51.4715 112.764 52.4249 109.596 52.4249 109.596Z" fill="#E28B6D"/>
<path d="M62.1104 112.81C62.1104 112.81 61.7497 113.78 61.0353 113.86L59.2934 113.41C59.2934 113.41 60.9305 114.03 60.9389 114.118C60.9473 114.206 60.7697 114.85 60.1756 114.931L58.7398 114.464C58.7398 114.464 59.9268 114.94 59.903 115.025C59.8792 115.111 59.5576 115.516 59.0278 115.621C59.0278 115.621 57.6479 115.06 57.7765 115.146C57.9051 115.231 58.7719 115.621 58.7551 115.692C58.7384 115.764 58.4756 116.016 57.8968 116.023C58.2785 116.104 58.6756 116.067 59.0362 115.918C59.0362 115.918 60.1686 115.733 60.3363 115.178C60.3363 115.178 61.0787 114.802 61.3233 114.204C61.3233 114.204 62.425 113.51 62.3886 112.89L62.109 112.807" fill="#E57492"/>
<path d="M75.2534 89.4345C75.2534 89.4345 73.4751 94.0368 73.4542 94.6213C73.4332 95.2059 74.0134 95.0629 74.3531 94.7895C74.6928 94.5162 75.733 91.9732 75.733 91.9732C75.733 91.9732 74.314 96.1563 74.4608 96.5769C74.6076 96.9974 75.1947 96.7031 75.2996 96.5769C75.4044 96.4507 76.5173 93.4214 76.5173 93.4214C76.5173 93.4214 75.4254 96.6989 75.993 96.7956C76.5606 96.8923 76.685 96.5769 76.7479 96.4507C76.8108 96.3246 77.4819 94.1783 77.4819 94.1783C77.4819 94.1783 77.1674 96.7381 77.7545 96.5615C78.0551 96.469 78.3207 94.2582 78.2368 93.127C78.1529 91.9957 75.9413 88.0088 75.2534 89.4345Z" fill="#E28B6D"/>
<path d="M259.449 87.678C259.449 87.678 254.995 96.8979 254.592 96.8979C254.139 96.8979 239.092 94.2119 228.614 93.3806C227.733 92.8886 226.247 92.105 225.474 91.9494C224.331 91.7195 216.4 90.6499 216.323 91.1083C216.246 91.5667 217.335 92.3138 217.598 92.3895C217.861 92.4652 223.068 93.7914 223.068 93.7914C223.068 93.7914 221.859 94.847 221.859 95.5843C221.859 96.3217 223.436 100.173 224.698 100.119C225.428 100.09 227.294 99.8235 228.74 99.6034C233.692 101.448 257.233 110.147 259.842 109.697C263.376 109.094 268.382 92.454 268.382 92.454L259.449 87.678Z" fill="#F9B384"/>
<path d="M255.857 90.6597C255.857 90.6597 260.835 94.083 261.19 95.8661C261.545 97.6492 261.19 110.269 261.19 110.269C261.19 110.269 267.988 106.704 267.86 105.706C267.733 104.707 270.364 90.7312 270.364 90.7312L258.702 86.1626L255.857 90.6597Z" fill="#C66A42"/>
<path d="M223.068 93.7844C223.068 93.7844 227.073 94.6087 227.323 95.2732C227.574 95.9376 226.799 96.3722 226.799 96.3722C226.799 96.3722 227.507 96.8068 227.529 97.4025C227.551 97.9983 226.981 98.1806 226.981 98.1806C226.981 98.1806 227.666 98.6614 227.644 99.0511C227.621 99.4408 226.675 99.8922 226.675 99.8922C226.675 99.8922 227.86 99.7296 227.961 99.3469C228.062 98.9642 227.568 98.0852 227.568 98.0852C227.692 98.0048 227.793 97.8948 227.864 97.7651C227.935 97.6353 227.972 97.49 227.972 97.3423C227.961 96.8474 227.244 96.2951 227.244 96.2951C227.244 96.2951 228.164 96.0596 227.95 95.3839C227.865 95.1148 227.568 94.8708 227.242 94.683C226.742 94.3876 226.188 94.1969 225.612 94.1223L223.068 93.7788" fill="#C66A42"/>
<path d="M228.03 93.061C228.03 93.061 224.788 95.9138 225.147 96.4044C225.506 96.8951 225.954 96.9203 226.574 96.8138C227.195 96.7072 229.584 95.4231 229.584 95.4231L229.401 93.4465L228.614 93.3807L228.03 93.061Z" fill="#F9B384"/>
<path d="M229.207 97.9941C228.816 97.4015 228.523 96.7504 228.337 96.0652C228.337 96.0652 226.696 96.9217 226.012 96.8628C225.328 96.804 224.629 96.2404 224.629 96.2404C224.766 96.5358 224.989 96.7827 225.269 96.9486C225.548 97.1145 225.871 97.1917 226.195 97.1698C226.885 97.1229 227.558 96.9364 228.173 96.6217C228.331 97.1943 228.701 97.6851 229.207 97.9941Z" fill="#C66A42"/>
<path d="M264.141 193.525L263.802 200.323H269.961L270.748 193.525H264.141Z" fill="#F9B384"/>
<path d="M269.959 200.323H263.808L253.043 204.75C252.431 204.999 251.892 205.401 251.479 205.918C251.065 206.435 250.791 207.049 250.68 207.702L250.595 208.214H271.773V205.089C271.772 203.921 271.451 202.776 270.846 201.778L269.959 200.323Z" fill="#1B3D9E"/>
<path d="M249.966 206.721H272.414C272.414 206.721 272.561 208.846 272.414 208.846H249.966V206.721Z" fill="#1C056D"/>
<path d="M270.743 201.919L270.702 201.674C270.785 201.659 270.831 201.654 270.831 201.654L270.859 201.902C270.859 201.902 270.816 201.907 270.743 201.919Z" fill="#1C056D"/>
<path d="M264.876 206.58L264.648 206.477C264.683 206.4 264.718 206.324 264.754 206.25L264.979 206.359C264.943 206.44 264.909 206.506 264.876 206.58ZM265.088 206.142L264.867 206.025C264.907 205.951 264.947 205.877 264.986 205.805L265.204 205.927C265.172 205.999 265.126 206.07 265.088 206.143V206.142ZM265.326 205.721L265.112 205.592C265.155 205.521 265.199 205.452 265.243 205.379L265.453 205.519C265.411 205.577 265.368 205.647 265.326 205.717V205.721ZM265.587 205.309L265.382 205.169C265.429 205.099 265.477 205.029 265.522 204.963L265.723 205.11C265.68 205.179 265.634 205.237 265.592 205.305L265.587 205.309ZM265.867 204.915L265.676 204.758C265.727 204.691 265.779 204.618 265.832 204.562L266.025 204.72C265.973 204.782 265.923 204.846 265.871 204.911L265.867 204.915ZM266.176 204.538L265.989 204.374C266.045 204.309 266.101 204.248 266.156 204.187L266.34 204.357C266.291 204.412 266.236 204.478 266.182 204.534L266.176 204.538ZM266.507 204.182L266.33 204.005C266.39 203.945 266.45 203.886 266.51 203.83L266.681 204.011C266.629 204.057 266.57 204.119 266.513 204.178L266.507 204.182ZM266.86 203.845L266.695 203.659L266.883 203.495L267.044 203.686C266.986 203.735 266.927 203.787 266.865 203.841L266.86 203.845ZM267.233 203.531L267.078 203.335C267.145 203.283 267.211 203.233 267.278 203.184L267.426 203.384L267.233 203.531ZM267.623 203.241L267.483 203.037C267.553 202.988 267.623 202.941 267.691 202.896L267.831 203.105C267.764 203.145 267.696 203.191 267.629 203.237L267.623 203.241ZM268.031 202.975L267.901 202.762L268.118 202.634L268.241 202.852C268.177 202.887 268.108 202.936 268.037 202.971L268.031 202.975ZM268.451 202.734L268.335 202.514C268.409 202.473 268.484 202.435 268.557 202.399L268.667 202.622L268.451 202.734ZM268.888 202.517L268.783 202.289L269.013 202.188L269.11 202.418L268.888 202.517ZM269.336 202.326L269.245 202.093L269.48 202.005L269.563 202.24C269.498 202.263 269.422 202.291 269.344 202.322L269.336 202.326ZM269.794 202.162L269.717 201.925C269.801 201.897 269.882 201.873 269.958 201.851L270.028 202.09C269.962 202.107 269.884 202.131 269.803 202.158L269.794 202.162ZM270.262 202.022L270.2 201.779C270.29 201.757 270.373 201.737 270.446 201.722L270.499 201.966C270.437 201.981 270.358 201.999 270.271 202.022H270.262Z" fill="#1C056D"/>
<path d="M264.728 206.921L264.499 206.827C264.514 206.788 264.531 206.749 264.547 206.709L264.776 206.808L264.728 206.921Z" fill="#1C056D"/>
<path d="M261.479 201.649C261.6 201.722 261.717 201.802 261.829 201.89L261.754 201.831C261.947 201.982 262.125 202.151 262.285 202.336C262.32 202.37 262.361 202.398 262.406 202.417C262.452 202.435 262.5 202.445 262.549 202.445C262.648 202.444 262.743 202.405 262.814 202.336C262.883 202.265 262.923 202.17 262.923 202.071C262.918 201.972 262.88 201.878 262.814 201.806C262.538 201.489 262.215 201.218 261.856 201.001C261.77 200.952 261.667 200.939 261.571 200.965C261.475 200.992 261.394 201.055 261.344 201.141C261.296 201.228 261.284 201.33 261.31 201.426C261.336 201.522 261.399 201.604 261.484 201.654L261.479 201.649Z" fill="#1C056D"/>
<path d="M259.173 202.424C259.483 202.68 259.77 202.962 260.033 203.265C260.068 203.3 260.109 203.327 260.155 203.346C260.2 203.365 260.248 203.375 260.297 203.375C260.396 203.374 260.491 203.335 260.562 203.265C260.631 203.195 260.671 203.099 260.671 203C260.666 202.902 260.628 202.808 260.562 202.735C260.299 202.432 260.011 202.15 259.702 201.894C259.631 201.826 259.536 201.786 259.438 201.783C259.338 201.784 259.243 201.824 259.173 201.894C259.139 201.929 259.111 201.97 259.092 202.016C259.074 202.061 259.064 202.11 259.064 202.159C259.064 202.208 259.073 202.257 259.092 202.303C259.111 202.348 259.138 202.39 259.173 202.424Z" fill="#1C056D"/>
<path d="M256.738 203.585C256.822 203.638 256.903 203.694 256.982 203.754L256.906 203.695C257.109 203.855 257.292 204.039 257.45 204.244L257.393 204.168L257.434 204.224C257.486 204.306 257.565 204.368 257.658 204.396C257.755 204.421 257.859 204.408 257.946 204.359C258.03 204.308 258.091 204.228 258.118 204.134C258.132 204.086 258.136 204.036 258.129 203.986C258.123 203.936 258.106 203.888 258.08 203.845C257.95 203.665 257.804 203.497 257.643 203.344C257.48 203.192 257.304 203.057 257.116 202.939C257.029 202.89 256.927 202.877 256.831 202.903C256.735 202.93 256.654 202.993 256.604 203.079C256.557 203.166 256.545 203.267 256.571 203.363C256.597 203.458 256.659 203.54 256.744 203.59L256.738 203.585Z" fill="#1C056D"/>
<path d="M253.962 204.654C254.278 204.918 254.589 205.188 254.895 205.465C254.966 205.533 255.061 205.572 255.16 205.574C255.259 205.573 255.353 205.534 255.424 205.465C255.494 205.394 255.533 205.299 255.533 205.2C255.533 205.1 255.494 205.005 255.424 204.935C255.117 204.654 254.806 204.384 254.49 204.124C254.419 204.056 254.325 204.016 254.226 204.014C254.127 204.014 254.032 204.054 253.962 204.124C253.892 204.195 253.853 204.29 253.853 204.389C253.853 204.489 253.892 204.584 253.962 204.654Z" fill="#1C056D"/>
<path d="M264.226 200.245C264.785 199.367 265.88 198.681 266.908 199.203C267.32 199.411 267.696 199.838 267.639 200.332C267.563 200.979 266.638 200.851 266.181 200.809C265.452 200.74 264.745 200.526 264.1 200.18C263.888 200.067 263.699 200.39 263.912 200.503C264.596 200.87 265.346 201.099 266.118 201.178C266.734 201.241 267.681 201.318 267.953 200.61C268.173 200.034 267.833 199.403 267.377 199.057C267.129 198.873 266.843 198.747 266.54 198.687C266.237 198.628 265.925 198.636 265.626 198.712C264.893 198.896 264.299 199.43 263.903 200.056C263.775 200.261 264.097 200.449 264.226 200.245Z" fill="#1C056D"/>
<path d="M264.083 200.264C263.98 199.565 263.687 198.908 263.238 198.364C263.015 198.09 262.75 197.854 262.453 197.663C262.128 197.474 261.748 197.404 261.377 197.464C261.05 197.487 260.736 197.598 260.467 197.785C260.333 197.897 260.224 198.035 260.147 198.192C260.071 198.348 260.028 198.519 260.022 198.694C259.999 199.008 260.075 199.322 260.239 199.59C260.404 199.859 260.649 200.069 260.939 200.189C261.338 200.344 261.778 200.33 262.198 200.33L263.727 200.356C263.774 200.352 263.817 200.331 263.849 200.296C263.88 200.261 263.898 200.216 263.898 200.169C263.898 200.122 263.88 200.077 263.849 200.042C263.817 200.008 263.774 199.986 263.727 199.982C263.017 199.969 262.301 199.982 261.592 199.939C261.287 199.942 260.99 199.838 260.753 199.644C260.568 199.469 260.445 199.237 260.404 198.985C260.375 198.843 260.377 198.696 260.41 198.555C260.443 198.414 260.506 198.281 260.595 198.167C260.793 197.98 261.049 197.866 261.32 197.846C261.64 197.775 261.975 197.825 262.26 197.986C262.507 198.146 262.728 198.344 262.916 198.57C263.349 199.081 263.627 199.704 263.719 200.367C263.754 200.606 264.114 200.508 264.079 200.268L264.083 200.264Z" fill="#1C056D"/>
<path d="M290.935 193.675L292.403 200.471H298.561L297.544 193.675H290.935Z" fill="#F9B384"/>
<path d="M298.56 200.471H292.409L281.644 204.898C281.033 205.15 280.496 205.554 280.085 206.071C279.673 206.589 279.4 207.203 279.291 207.856L279.206 208.366H300.383V205.237C300.383 204.069 300.062 202.924 299.456 201.926L298.56 200.471Z" fill="#1B3D9E"/>
<path d="M278.567 206.874H301.015C301.015 206.874 301.162 209 301.015 209H278.567V206.874Z" fill="#1C056D"/>
<path d="M299.344 202.069L299.302 201.823L299.43 201.803L299.46 202.051L299.344 202.069Z" fill="#1C056D"/>
<path d="M293.477 206.73L293.249 206.627C293.284 206.55 293.32 206.474 293.357 206.4L293.58 206.509C293.552 206.58 293.51 206.656 293.477 206.73ZM293.689 206.292L293.468 206.175C293.508 206.101 293.548 206.027 293.587 205.955L293.805 206.077C293.766 206.147 293.727 206.219 293.692 206.292H293.689ZM293.927 205.871L293.713 205.743C293.756 205.671 293.8 205.603 293.845 205.529L294.056 205.669C294.012 205.725 293.972 205.795 293.927 205.865V205.871ZM294.188 205.46L293.983 205.32C294.031 205.25 294.078 205.18 294.123 205.115L294.324 205.256C294.282 205.319 294.235 205.386 294.188 205.459V205.46ZM294.468 205.065L294.271 204.912C294.323 204.845 294.376 204.78 294.428 204.716L294.62 204.874C294.574 204.93 294.531 204.995 294.474 205.059L294.468 205.065ZM294.777 204.688L294.59 204.524C294.646 204.461 294.702 204.398 294.758 204.337L294.941 204.507C294.89 204.562 294.838 204.621 294.783 204.682L294.777 204.688ZM295.108 204.332L294.932 204.155C294.991 204.095 295.051 204.037 295.111 203.98L295.282 204.161C295.23 204.211 295.171 204.267 295.114 204.326L295.108 204.332ZM295.461 203.995L295.296 203.809C295.358 203.753 295.421 203.698 295.484 203.645L295.645 203.836C295.587 203.884 295.528 203.936 295.466 203.99L295.461 203.995ZM295.834 203.683L295.679 203.486C295.746 203.433 295.812 203.383 295.879 203.334L296.027 203.534C295.968 203.576 295.904 203.625 295.84 203.677L295.834 203.683ZM296.224 203.393L296.084 203.187C296.153 203.139 296.224 203.091 296.293 203.046L296.432 203.255L296.224 203.393ZM296.632 203.126L296.502 202.912L296.719 202.784L296.842 203.001C296.779 203.035 296.708 203.076 296.638 203.121L296.632 203.126ZM297.052 202.884L296.934 202.664C297.01 202.623 297.084 202.585 297.156 202.549L297.268 202.773C297.207 202.802 297.134 202.839 297.061 202.878L297.052 202.884ZM297.488 202.668L297.383 202.441C297.461 202.404 297.538 202.371 297.612 202.338L297.71 202.568C297.647 202.594 297.573 202.627 297.498 202.662L297.488 202.668ZM297.937 202.476L297.844 202.243C297.925 202.212 298.004 202.183 298.081 202.156L298.163 202.392C298.1 202.411 298.026 202.441 297.946 202.47L297.937 202.476ZM298.394 202.312L298.318 202.075C298.402 202.047 298.482 202.023 298.557 202.001L298.627 202.24C298.563 202.256 298.486 202.281 298.404 202.306L298.394 202.312ZM298.862 202.172L298.801 201.93C298.891 201.907 298.973 201.887 299.045 201.872L299.098 202.116C299.038 202.13 298.959 202.148 298.872 202.17L298.862 202.172Z" fill="#1C056D"/>
<path d="M293.329 207.071L293.099 206.976L293.148 206.858L293.376 206.956C293.361 207.001 293.344 207.032 293.329 207.071Z" fill="#1C056D"/>
<path d="M290.08 201.797C290.201 201.871 290.319 201.952 290.432 202.038L290.355 201.981C290.548 202.131 290.726 202.3 290.886 202.484C290.956 202.555 291.051 202.595 291.15 202.595C291.249 202.594 291.344 202.554 291.415 202.484C291.449 202.45 291.477 202.408 291.496 202.363C291.514 202.317 291.524 202.268 291.524 202.219C291.52 202.121 291.482 202.027 291.415 201.954C291.139 201.638 290.816 201.367 290.457 201.15C290.414 201.121 290.367 201.102 290.316 201.093C290.266 201.084 290.215 201.085 290.165 201.097C290.115 201.108 290.069 201.13 290.027 201.16C289.986 201.19 289.952 201.229 289.926 201.273C289.9 201.317 289.884 201.366 289.878 201.417C289.872 201.468 289.876 201.519 289.89 201.568C289.904 201.617 289.929 201.663 289.961 201.702C289.994 201.742 290.034 201.774 290.08 201.797Z" fill="#1C056D"/>
<path d="M287.774 202.573C288.083 202.829 288.371 203.11 288.634 203.414C288.704 203.484 288.799 203.523 288.898 203.523C288.997 203.523 289.092 203.484 289.162 203.414C289.197 203.379 289.225 203.338 289.243 203.292C289.262 203.247 289.271 203.198 289.271 203.149C289.268 203.05 289.229 202.956 289.162 202.884C288.899 202.58 288.612 202.299 288.303 202.043C288.231 201.975 288.137 201.936 288.038 201.933C287.939 201.934 287.845 201.973 287.774 202.043C287.704 202.113 287.665 202.208 287.665 202.308C287.665 202.357 287.674 202.406 287.693 202.451C287.711 202.497 287.739 202.538 287.774 202.573Z" fill="#1C056D"/>
<path d="M285.34 203.735C285.423 203.786 285.504 203.843 285.582 203.903L285.507 203.845C285.711 204.004 285.894 204.187 286.052 204.392L285.993 204.316L286.035 204.372C286.087 204.455 286.166 204.516 286.259 204.545C286.307 204.558 286.357 204.561 286.407 204.555C286.456 204.548 286.504 204.532 286.547 204.507C286.631 204.457 286.692 204.377 286.719 204.283C286.733 204.235 286.737 204.184 286.73 204.134C286.724 204.085 286.707 204.037 286.681 203.994C286.552 203.813 286.406 203.645 286.245 203.492C286.082 203.341 285.905 203.206 285.718 203.087C285.631 203.038 285.529 203.025 285.433 203.051C285.337 203.077 285.256 203.141 285.206 203.227C285.159 203.314 285.147 203.416 285.173 203.512C285.199 203.608 285.261 203.69 285.346 203.74L285.34 203.735Z" fill="#1C056D"/>
<path d="M282.562 204.803C282.879 205.067 283.19 205.337 283.496 205.613C283.567 205.682 283.661 205.722 283.76 205.724C283.859 205.723 283.954 205.683 284.024 205.613C284.095 205.543 284.134 205.448 284.135 205.348C284.134 205.249 284.094 205.154 284.025 205.083C283.718 204.803 283.407 204.533 283.091 204.273C283.019 204.205 282.925 204.165 282.826 204.162C282.727 204.164 282.633 204.203 282.562 204.273C282.493 204.344 282.453 204.439 282.453 204.538C282.453 204.587 282.462 204.636 282.481 204.682C282.499 204.727 282.527 204.768 282.562 204.803Z" fill="#1C056D"/>
<path d="M292.827 200.394C293.386 199.515 294.481 198.83 295.508 199.351C295.921 199.561 296.298 199.986 296.239 200.481C296.164 201.127 295.238 201 294.781 200.959C294.053 200.889 293.346 200.675 292.701 200.33C292.488 200.216 292.3 200.54 292.512 200.652C293.197 201.019 293.947 201.249 294.72 201.328C295.335 201.391 296.281 201.468 296.554 200.759C296.773 200.184 296.434 199.552 295.978 199.205C295.729 199.022 295.443 198.896 295.14 198.837C294.838 198.777 294.525 198.785 294.226 198.861C293.495 199.044 292.899 199.578 292.504 200.205C292.375 200.41 292.698 200.597 292.827 200.394Z" fill="#1C056D"/>
<path d="M292.684 200.412C292.581 199.713 292.289 199.056 291.839 198.513C291.617 198.236 291.352 197.997 291.054 197.805C290.729 197.616 290.349 197.546 289.978 197.607C289.651 197.629 289.336 197.739 289.068 197.927C288.934 198.038 288.825 198.177 288.748 198.334C288.671 198.491 288.629 198.662 288.623 198.837C288.6 199.151 288.677 199.465 288.841 199.733C289.006 200.002 289.251 200.211 289.542 200.332C289.939 200.485 290.38 200.466 290.8 200.473L292.328 200.499C292.375 200.495 292.418 200.474 292.45 200.439C292.481 200.404 292.499 200.359 292.499 200.312C292.499 200.265 292.481 200.22 292.45 200.185C292.418 200.15 292.375 200.129 292.328 200.125C291.618 200.112 290.902 200.125 290.193 200.081C289.888 200.084 289.592 199.981 289.354 199.788C289.169 199.612 289.047 199.381 289.005 199.128C288.976 198.986 288.978 198.839 289.011 198.698C289.045 198.556 289.108 198.424 289.198 198.31C289.395 198.122 289.65 198.009 289.92 197.989C290.241 197.919 290.575 197.969 290.861 198.129C291.108 198.29 291.329 198.488 291.517 198.715C291.95 199.225 292.228 199.848 292.321 200.512C292.354 200.749 292.715 200.652 292.68 200.412H292.684Z" fill="#1C056D"/>
<path d="M297.018 108.233H264.577L259.902 195.879C259.899 195.931 259.907 195.983 259.925 196.033C259.942 196.082 259.97 196.127 260.005 196.165C260.041 196.204 260.083 196.235 260.131 196.256C260.179 196.278 260.23 196.29 260.282 196.291C262.659 196.348 274.763 196.626 275.315 196.256C275.626 196.05 278.262 173.62 280.798 151.457C283.333 173.62 285.971 196.05 286.28 196.256C286.839 196.626 298.942 196.348 301.313 196.291C301.365 196.29 301.417 196.278 301.464 196.256C301.512 196.235 301.555 196.204 301.59 196.165C301.625 196.127 301.653 196.082 301.671 196.033C301.688 195.983 301.696 195.931 301.693 195.879L297.018 108.233Z" fill="#3A6BEA"/>
<path d="M263.355 120.338C263.355 120.338 293.737 117.327 298.15 112.208L297.9 109.178L264.145 109.749L263.355 120.338Z" fill="#0D3AA0"/>
<path d="M295.034 197.686C294.973 197.686 294.914 197.663 294.869 197.622C294.823 197.581 294.794 197.525 294.787 197.464C294.375 193.928 284.689 110.803 285.436 108.167C285.445 108.136 285.46 108.106 285.481 108.081C285.501 108.055 285.526 108.034 285.555 108.018C285.584 108.002 285.616 107.992 285.648 107.989C285.681 107.985 285.714 107.988 285.745 107.997C285.777 108.006 285.806 108.022 285.832 108.042C285.857 108.063 285.879 108.088 285.894 108.117C285.91 108.146 285.92 108.178 285.924 108.21C285.927 108.243 285.924 108.276 285.915 108.308C285.339 110.342 291.787 167.482 295.282 197.413C295.286 197.445 295.284 197.479 295.276 197.511C295.267 197.543 295.252 197.573 295.232 197.599C295.212 197.625 295.186 197.647 295.157 197.663C295.128 197.679 295.097 197.689 295.064 197.693L295.034 197.686Z" fill="white"/>
<path d="M265.592 197.865H265.577C265.511 197.861 265.449 197.831 265.405 197.781C265.362 197.731 265.339 197.666 265.343 197.6C265.556 194.142 270.584 112.868 273.278 108.365C273.315 108.313 273.369 108.277 273.431 108.264C273.493 108.251 273.558 108.262 273.612 108.294C273.666 108.327 273.706 108.379 273.723 108.44C273.741 108.501 273.735 108.566 273.706 108.623C271.075 113.02 265.893 196.786 265.841 197.631C265.837 197.695 265.809 197.754 265.763 197.798C265.716 197.841 265.655 197.865 265.592 197.865Z" fill="white"/>
<path d="M286.143 64.2939L289.553 65.3439C289.553 65.3439 299.042 68.7392 302.384 71.5541C305.725 74.3689 310.001 91.2541 310.001 91.2541L296.768 93.9316L298.89 113.766C298.89 113.766 272.041 116.313 262.551 114.436L265.091 92.4582L255.2 87.0948C255.2 87.0948 267.433 69.6896 269.917 68.2738C272.747 66.6602 278.832 64.9094 278.832 64.9094L286.143 64.2939Z" fill="#1F3C88"/>
<path d="M274.634 42.7422C274.634 42.7422 270.966 43.9169 270.559 45.4057C270.152 46.8944 271.431 52.1345 271.431 52.1345L275.758 47.4397L274.634 42.7422Z" fill="#1C056D"/>
<path d="M272.076 48.1266C272.226 47.3073 272.613 46.5505 273.189 45.9507C273.766 45.3509 274.505 44.9345 275.316 44.7538C278.252 44.1215 281.951 45.3229 282.984 46.4808C284.423 48.0915 282.264 55.0138 281.669 56.5741C281.669 56.5741 285.701 63.258 286.134 64.2701C286.135 64.2757 286.135 64.2814 286.134 64.287L289.544 65.3369C289.544 65.3369 286.552 74.512 280.095 75.7722C280.095 75.7722 275.961 72.4611 275.761 65.871L277.424 65.3341C277.072 63.743 276.719 62.0202 276.562 60.9436C275.235 61.5646 273.846 61.8842 272.647 61.5548C269.973 60.8174 271.36 51.9059 272.076 48.1266Z" fill="#F9B384"/>
<path d="M272.077 47.0346C272.077 47.0346 272.032 48.2598 277.285 48.9873C277.285 48.9873 278.124 51.7798 280.1 51.6073C280.1 51.6073 280.181 47.7271 279.628 47.1032C279.074 46.4794 274.342 44.2617 274.342 44.2617C274.342 44.2617 272.079 45.9425 272.077 47.0346Z" fill="#C66A42"/>
<path d="M273.561 49.4443C273.561 49.4443 271.617 53.79 272.325 54.2568C273.032 54.7237 274.782 53.7157 274.782 53.7157C274.759 54.0269 274.763 54.2442 274.469 54.348C273.619 54.648 272.263 55.1666 271.909 54.4881C271.293 53.2924 273.561 49.4443 273.561 49.4443Z" fill="#C66A42"/>
<path d="M276.573 60.9479C276.573 60.9479 279.229 59.096 280.1 57.9844C280.1 57.9844 279.387 61.7693 276.91 62.8431L276.573 60.9479Z" fill="#C66A42"/>
<path d="M272.079 57.453C272.079 57.453 272.917 57.9128 273.983 57.1628C273.983 57.1628 274.135 58.2002 272.933 58.4133C272.128 58.5563 272.079 57.453 272.079 57.453Z" fill="white"/>
<path d="M272.565 43.6085C272.565 43.6085 272.409 47.6921 278.666 48.1561C278.666 48.1561 278.622 51.3803 280.101 51.6074C280.101 51.6074 280.486 49.949 281.48 49.9827C282.474 50.0163 281.58 54.198 280.554 53.5672C280.554 53.5672 280.693 56.3035 281.672 56.5783C281.672 56.5783 285.402 53.7326 284.801 47.1019C284.242 40.9016 281.611 40.8791 274.201 41.5478C273.76 41.5874 273.348 41.7898 273.047 42.1158C272.746 42.4419 272.576 42.8684 272.571 43.3127L272.565 43.6085Z" fill="#1B3D9E"/>
<path d="M265.091 92.4583C265.091 92.4583 267.776 77.8161 267.86 76.797C267.943 75.7778 261.724 90.6317 261.724 90.6317L265.091 92.4583Z" fill="#0C2866"/>
<path d="M296.768 93.9316C296.768 93.9316 294.706 79.3525 294.811 78.4343C294.915 77.5161 299.924 93.2938 299.924 93.2938L296.768 93.9316Z" fill="#0C2866"/>
<path d="M265.882 93.064H270.882C271.492 93.064 272.077 93.3071 272.509 93.7398C272.94 94.1725 273.183 94.7594 273.183 95.3714V100.558H263.583V95.3714C263.583 94.7597 263.825 94.173 264.256 93.7403C264.687 93.3076 265.272 93.0643 265.882 93.064Z" fill="#8C9EF4"/>
<path d="M275.764 100.551H260.999C260.452 100.551 260.009 100.995 260.009 101.544V105.776C260.009 106.324 260.452 106.768 260.999 106.768H275.764C276.31 106.768 276.753 106.324 276.753 105.776V101.544C276.753 100.995 276.31 100.551 275.764 100.551Z" fill="#1B3D9E"/>
<path d="M274.089 99.2615H262.675V100.551H274.089V99.2615Z" fill="#1C056D"/>
<path d="M306.752 91.9102L296.768 93.9316L297.644 102.131L274.004 102.903C274.004 102.903 268.504 99.1549 268.382 99.5642C268.224 100.093 268.393 100.977 268.941 101.682C269.489 102.387 270.388 102.903 270.388 102.903C270.388 102.903 264.237 100.555 263.984 102.034C263.934 102.341 263.304 108.473 266.081 108.865C268.27 109.174 272.4 108.777 274.05 108.595C278.181 109.317 303.46 113.641 306.14 111.635C309.133 109.409 306.752 91.9102 306.752 91.9102Z" fill="#F9B384"/>
<path d="M297.644 102.131C297.644 102.131 301.592 102.048 303.066 104.056C303.066 104.056 301.315 95.9952 299.923 93.2925L295.702 93.4257L297.644 102.131Z" fill="#C66A42"/>
<path d="M265.368 101.561C265.368 101.561 263.992 101.586 264.094 102.358C264.196 103.131 266.271 103.324 266.271 103.324C266.271 103.324 264.276 102.939 264.163 103.348C264.05 103.757 264.023 104.723 264.378 104.853C264.733 104.984 266.475 105.109 266.475 105.109C266.475 105.109 264.321 104.95 264.345 105.507C264.368 106.063 264.345 106.791 264.753 106.859C265.161 106.928 266.486 106.951 266.486 106.951C266.486 106.951 265.161 107.019 265.088 107.394C265.016 107.768 265.768 108.795 266.664 109.042C266.664 109.042 265.066 109.451 264.329 108.121C263.593 106.791 263.433 103.756 263.444 103.609C263.455 103.461 263.247 101.786 263.885 101.404C264.522 101.021 265.364 101.561 265.364 101.561" fill="#C66A42"/>
<path d="M260.358 103.168C259.206 103.164 258.092 103.574 257.217 104.324C256.341 105.073 255.764 106.114 255.589 107.255L246.805 163.156C246.708 163.778 246.524 164.383 246.257 164.953C245.788 164.756 245.272 164.699 244.772 164.791C244.272 164.882 243.809 165.117 243.44 165.467C243.071 165.817 242.81 166.267 242.691 166.763C242.572 167.258 242.599 167.778 242.769 168.258C241.983 168.574 241.143 168.736 240.296 168.735H173.799V169.716H240.296C241.317 169.718 242.328 169.514 243.268 169.116C243.499 169.389 243.782 169.612 244.102 169.771C244.421 169.93 244.769 170.023 245.125 170.042C245.481 170.062 245.838 170.009 246.173 169.886C246.508 169.763 246.814 169.573 247.073 169.328C247.333 169.082 247.539 168.787 247.681 168.458C247.822 168.13 247.896 167.776 247.896 167.419C247.897 167.061 247.825 166.707 247.685 166.378C247.544 166.05 247.339 165.753 247.08 165.506C247.42 164.815 247.653 164.076 247.773 163.314L256.556 107.413C256.695 106.503 257.156 105.674 257.853 105.076C258.551 104.478 259.44 104.151 260.358 104.155H261.723V103.174L260.358 103.168Z" fill="#1C056D"/>
<path d="M176.978 83.1613H176.918C179.073 78.1634 180.151 72.7653 180.081 67.3205C179.838 45.8977 162.377 28.7841 141.012 29.0055C119.847 29.2214 102.758 46.4907 102.758 67.7677C102.744 76.6043 105.754 85.1781 111.286 92.0573C114.086 95.5169 116.673 99.144 119.034 102.919C124.676 112.019 130.078 121.776 130.436 126.243H152.505C152.869 121.616 158.643 111.341 164.49 101.981C166.683 98.5024 169.071 95.1521 171.644 91.9466C173.73 89.3323 175.468 86.4579 176.817 83.3954L176.978 83.1613Z" fill="#D3DFFF"/>
<path d="M158.054 54.718H126.719C126.507 54.718 126.298 54.7598 126.103 54.8409C125.907 54.9221 125.73 55.0411 125.58 55.191C125.431 55.341 125.312 55.519 125.231 55.7149C125.15 55.9109 125.108 56.1209 125.108 56.3329V65.9425C124.691 65.3467 124.137 64.8604 123.492 64.5246C122.848 64.1889 122.133 64.0136 121.406 64.0136C120.204 64.0136 119.052 64.4924 118.202 65.3447C117.352 66.197 116.874 67.353 116.874 68.5583C116.874 69.7637 117.352 70.9197 118.202 71.772C119.052 72.6243 120.204 73.1031 121.406 73.1031C122.132 73.1034 122.848 72.9286 123.492 72.5933C124.136 72.2581 124.691 71.7723 125.108 71.177V82.2711C125.108 82.4832 125.15 82.6932 125.231 82.8891C125.312 83.085 125.431 83.2631 125.58 83.413C125.73 83.563 125.907 83.6819 126.103 83.7631C126.298 83.8442 126.507 83.886 126.719 83.886H139.568C138.832 83.2995 138.295 82.4978 138.033 81.5919C137.772 80.686 137.797 79.7209 138.107 78.8303C138.417 77.9397 138.995 77.1679 139.762 76.6217C140.529 76.0755 141.446 75.7821 142.387 75.7821C143.327 75.7821 144.244 76.0755 145.011 76.6217C145.778 77.1679 146.357 77.9397 146.666 78.8303C146.976 79.7209 147.002 80.686 146.74 81.5919C146.478 82.4978 145.942 83.2995 145.205 83.886H158.054C158.482 83.886 158.891 83.7159 159.194 83.4131C159.496 83.1103 159.666 82.6995 159.666 82.2711V56.3371C159.667 56.1246 159.625 55.9142 159.544 55.7177C159.463 55.5213 159.345 55.3428 159.195 55.1924C159.045 55.042 158.868 54.9227 158.672 54.8413C158.476 54.7599 158.266 54.718 158.054 54.718Z" fill="#86A7FF"/>
<path d="M156.933 125.338H125.96V145.473H156.933V125.338Z" fill="#8C9EF4"/>
<path d="M157.179 128.606H125.714C125.217 128.606 124.813 129.01 124.813 129.509V132.997C124.813 133.495 125.217 133.9 125.714 133.9H157.179C157.676 133.9 158.079 133.495 158.079 132.997V129.509C158.079 129.01 157.676 128.606 157.179 128.606Z" fill="#1B3D9E"/>
<path d="M157.179 136.912H125.714C125.217 136.912 124.813 137.316 124.813 137.815V141.302C124.813 141.801 125.217 142.205 125.714 142.205H157.179C157.676 142.205 158.079 141.801 158.079 141.302V137.815C158.079 137.316 157.676 136.912 157.179 136.912Z" fill="#1B3D9E"/>
<path d="M110.991 145.473H171.853C172.376 145.473 172.877 145.681 173.247 146.052C173.616 146.423 173.824 146.925 173.824 147.449V208.366H109.02V147.455C109.019 147.195 109.07 146.937 109.168 146.697C109.267 146.457 109.412 146.238 109.595 146.054C109.779 145.87 109.996 145.724 110.236 145.624C110.475 145.524 110.732 145.473 110.991 145.473Z" fill="#1B3D9E"/>
<path d="M132.843 160.943C133.234 158.524 131.596 156.245 129.184 155.852C126.772 155.46 124.499 157.102 124.107 159.521C123.716 161.94 125.354 164.219 127.766 164.611C130.178 165.004 132.451 163.361 132.843 160.943Z" fill="#1C056D"/>
<path d="M145.374 163.36C147.102 161.627 147.102 158.818 145.374 157.085C143.646 155.353 140.845 155.353 139.117 157.085C137.389 158.818 137.389 161.627 139.117 163.36C140.845 165.093 143.646 165.093 145.374 163.36Z" fill="#1C056D"/>
<path d="M160.322 161.231C160.883 158.846 159.41 156.457 157.032 155.894C154.654 155.331 152.271 156.808 151.709 159.193C151.148 161.578 152.621 163.968 154.999 164.53C157.378 165.093 159.761 163.616 160.322 161.231Z" fill="#1C056D"/>
<path d="M130.14 163.477C132.398 162.539 133.47 159.944 132.535 157.68C131.6 155.416 129.012 154.341 126.754 155.279C124.496 156.217 123.424 158.812 124.359 161.076C125.294 163.34 127.883 164.415 130.14 163.477Z" fill="#8C9EF4"/>
<path d="M146.525 160.387C147.086 158.002 145.613 155.613 143.235 155.05C140.856 154.487 138.473 155.964 137.912 158.349C137.351 160.734 138.824 163.123 141.202 163.686C143.58 164.249 145.963 162.772 146.525 160.387Z" fill="#8C9EF4"/>
<path d="M159.173 162.516C160.901 160.784 160.901 157.975 159.173 156.242C157.445 154.509 154.644 154.509 152.916 156.242C151.188 157.974 151.188 160.784 152.916 162.516C154.644 164.249 157.445 164.249 159.173 162.516Z" fill="#8C9EF4"/>
<path d="M167.515 173.656H115.289C114.844 173.656 114.483 174.017 114.483 174.463V176.179C114.483 176.625 114.844 176.986 115.289 176.986H167.515C167.959 176.986 168.32 176.625 168.32 176.179V174.463C168.32 174.017 167.959 173.656 167.515 173.656Z" fill="#1C056D"/>
<path d="M127.779 177.837C129.165 177.262 129.823 175.668 129.249 174.278C128.675 172.889 127.086 172.229 125.7 172.804C124.314 173.38 123.655 174.973 124.229 176.363C124.804 177.753 126.393 178.413 127.779 177.837Z" fill="#8C9EF4"/>
<path d="M167.534 181.465H115.308C114.863 181.465 114.503 181.827 114.503 182.273V183.988C114.503 184.434 114.863 184.796 115.308 184.796H167.534C167.979 184.796 168.339 184.434 168.339 183.988V182.273C168.339 181.827 167.979 181.465 167.534 181.465Z" fill="#1C056D"/>
<path d="M153.99 185.647C155.376 185.071 156.034 183.478 155.46 182.088C154.886 180.698 153.297 180.039 151.911 180.614C150.525 181.19 149.867 182.783 150.441 184.173C151.015 185.563 152.604 186.223 153.99 185.647Z" fill="#8C9EF4"/>
<path d="M167.555 189.275H115.329C114.884 189.275 114.524 189.636 114.524 190.082V191.798C114.524 192.244 114.884 192.605 115.329 192.605H167.555C168 192.605 168.36 192.244 168.36 191.798V190.082C168.36 189.636 168 189.275 167.555 189.275Z" fill="#1C056D"/>
<path d="M137.556 193.664C139.056 193.664 140.273 192.444 140.273 190.94C140.273 189.436 139.056 188.216 137.556 188.216C136.056 188.216 134.84 189.436 134.84 190.94C134.84 192.444 136.056 193.664 137.556 193.664Z" fill="#8C9EF4"/>
</g>
</g>
</g>
<defs>
<filter id="filter0_d_442_2816" x="0" y="0" width="320" height="220" filterUnits="userSpaceOnUse" color-interpolation-filters="sRGB">
<feFlood flood-opacity="0" result="BackgroundImageFix"/>
<feColorMatrix in="SourceAlpha" type="matrix" values="0 0 0 0 0 0 0 0 0 0 0 0 0 0 0 0 0 0 127 0" result="hardAlpha"/>
<feOffset dy="3"/>
<feGaussianBlur stdDeviation="5"/>
<feComposite in2="hardAlpha" operator="out"/>
<feColorMatrix type="matrix" values="0 0 0 0 0 0 0 0 0 0 0 0 0 0 0 0 0 0 0.05 0"/>
<feBlend mode="normal" in2="BackgroundImageFix" result="effect1_dropShadow_442_2816"/>
<feBlend mode="normal" in="SourceGraphic" in2="effect1_dropShadow_442_2816" result="shape"/>
</filter>
<clipPath id="clip0_442_2816">
<rect x="10" y="7" width="300" height="200" rx="50" fill="white"/>
</clipPath>
<clipPath id="clip1_442_2816">
<rect width="292" height="180" fill="white" transform="translate(18 29)"/>
</clipPath>
</defs>
</svg>
