<svg width="42" height="64" viewBox="0 0 42 64" fill="none" xmlns="http://www.w3.org/2000/svg">
<g clip-path="url(#clip0_286_574)">
<path d="M3.87993 62.5188H10.1982V64.0001H1.87195V62.6497L8.1538 52.4151H1.93999V51.8261C1.94041 51.5893 2.03395 51.3624 2.20008 51.1951C2.36621 51.0278 2.59136 50.9338 2.82609 50.9338H10.1681V52.2826L3.87993 62.5188Z" fill="white"/>
<path d="M20.1162 59.2643H12.7283C12.7895 60.2763 13.1334 61.0669 13.76 61.6362C14.383 62.2036 15.1979 62.5086 16.037 62.4885C16.6854 62.512 17.3251 62.3318 17.8677 61.973C18.35 61.6382 18.7119 61.1549 18.8994 60.5955H20.7207C20.4611 61.5619 19.8843 62.411 19.0845 63.0041C18.267 63.6224 17.2512 63.9315 16.037 63.9315C15.1303 63.9468 14.2358 63.7205 13.4435 63.2754C12.6824 62.8386 12.0604 62.1919 11.6508 61.4111C11.2035 60.547 10.9798 59.5829 11.0004 58.6083C10.9794 57.6387 11.1968 56.679 11.6333 55.815C12.0334 55.0375 12.6506 54.3954 13.4087 53.9682C14.2156 53.5289 15.1219 53.3088 16.0386 53.3297C16.9342 53.3123 17.8187 53.5325 18.6035 53.9682C19.3299 54.3771 19.9259 54.9861 20.3219 55.724C20.7308 56.4959 20.9393 57.3596 20.928 58.2348C20.928 58.3114 20.928 58.3944 20.928 58.4678C20.9226 58.6812 20.8346 58.884 20.683 59.0329C20.5313 59.1817 20.3278 59.2648 20.1162 59.2643ZM18.7507 56.1996C18.4731 55.7382 18.07 55.367 17.5892 55.1302C17.0824 54.8831 16.5255 54.758 15.9626 54.7647C15.1566 54.7461 14.3745 55.0417 13.779 55.5899C13.1777 56.1411 12.8338 56.9036 12.7473 57.8772H19.1779C19.194 57.2887 19.046 56.7075 18.7507 56.1996Z" fill="white"/>
<path d="M22.7539 55.8244C23.1514 55.0567 23.7544 54.4168 24.4945 53.9776C25.2473 53.5362 26.1049 53.3094 26.9756 53.3216C27.7482 53.3155 28.51 53.5054 29.1908 53.8739C29.8326 54.206 30.3721 54.7089 30.751 55.328V50.573C30.751 50.4844 30.7683 50.3967 30.802 50.3149C30.8356 50.233 30.885 50.1587 30.9471 50.0961C31.0093 50.0336 31.0831 49.984 31.1643 49.9502C31.2455 49.9165 31.3325 49.8992 31.4203 49.8994H32.4615V63.7717H30.7383V61.8404C30.3881 62.47 29.8745 62.9915 29.2525 63.3487C28.5518 63.7539 27.7546 63.9581 26.9471 63.9393C26.0787 63.952 25.2243 63.7178 24.4816 63.2636C23.739 62.8095 23.138 62.1536 22.7476 61.3711C22.3155 60.5123 22.0982 59.5599 22.1146 58.5969C22.0948 57.6334 22.3146 56.6802 22.7539 55.8244ZM30.281 56.5826C29.9941 56.0319 29.5592 55.5739 29.0263 55.2609C28.4968 54.9622 27.9007 54.8045 27.294 54.8029C26.6874 54.8012 26.0904 54.9556 25.5594 55.2514C25.0301 55.5619 24.5989 56.0174 24.3157 56.565C23.9938 57.1893 23.8338 57.8855 23.8504 58.589C23.8332 59.3016 23.9931 60.0073 24.3157 60.6416C24.5983 61.1942 25.0293 61.6555 25.5594 61.9728C26.0842 62.2805 26.6818 62.4394 27.2889 62.4325C27.8993 62.4389 28.5004 62.2802 29.0294 61.9728C29.5642 61.6579 29.9993 61.1962 30.2842 60.6416C30.6008 60.0124 30.7569 59.3135 30.7383 58.6081C30.7565 57.905 30.5992 57.2085 30.281 56.5826Z" fill="white"/>
<path d="M35.6752 51.7208C35.5135 51.5579 35.4033 51.3503 35.3587 51.1242C35.3141 50.8981 35.3371 50.6638 35.4247 50.4509C35.5124 50.238 35.6607 50.0562 35.851 49.9284C36.0412 49.8007 36.2648 49.7329 36.4933 49.7335C36.6413 49.7312 36.7881 49.7601 36.9243 49.8184C37.0606 49.8766 37.1832 49.963 37.2845 50.0719C37.4936 50.2946 37.6101 50.5896 37.6101 50.8963C37.6101 51.2031 37.4936 51.4981 37.2845 51.7208C37.1832 51.8295 37.0604 51.9156 36.9242 51.9736C36.7879 52.0316 36.6412 52.0602 36.4933 52.0575C36.3413 52.061 36.1903 52.0329 36.0495 51.975C35.9088 51.9171 35.7814 51.8305 35.6752 51.7208ZM37.3114 53.7271V64.0001H35.6198V54.4917C35.6198 54.2889 35.6997 54.0945 35.8418 53.9511C35.984 53.8077 36.1768 53.7271 36.3778 53.7271H37.3114Z" fill="white"/>
<path d="M12.0036 38.9944C27.7034 39.585 33.8888 34.7151 33.8888 34.7151C17.7743 48.2235 0 42.9912 0 42.9912C3.815 42.5235 9.74241 37.0008 12.5811 33.518C14.654 30.9769 18.594 27.9489 19.6921 27.1333C19.8772 26.9944 21.5545 25.8643 21.7491 25.7494C30.9899 20.4278 40.707 24.1772 40.707 24.1772C24.2698 23.4653 12.0036 38.9944 12.0036 38.9944ZM31.3301 7.95531C23.2428 21.5435 15.8233 24.1101 15.8233 24.1101C35.8414 17.8755 41.2055 0 41.2055 0C38.7323 2.96728 30.9108 4.9593 26.4661 5.45571C23.2239 5.81963 18.5544 7.4988 17.2775 7.97446C17.0623 8.05427 15.2078 8.85395 15.0037 8.96089C5.54132 13.8595 3.3498 24.1133 3.3498 24.1133C11.7346 9.84038 31.3301 7.95531 31.3301 7.95531Z" fill="white"/>
</g>
<defs>
<clipPath id="clip0_286_574">
<rect width="41.2055" height="64" fill="white"/>
</clipPath>
</defs>
</svg>
