<svg width="125" height="131" viewBox="0 0 125 131" fill="none" xmlns="http://www.w3.org/2000/svg">
<g clip-path="url(#clip0_696_2046)">
<path d="M11.2108 115.95L3.30276 128.358H11.2108V130.781H0V128.603L7.88208 116.195H0V114.919C-7.92755e-07 114.768 0.0296857 114.619 0.0873575 114.48C0.145029 114.341 0.229552 114.215 0.336081 114.109C0.442609 114.003 0.569048 113.919 0.708149 113.862C0.84725 113.804 0.996277 113.775 1.14669 113.776H11.2108V115.95Z" fill="#202045"/>
<path d="M19.8239 131C15.9571 131 13.0959 128.262 13.0959 124.028C13.0959 119.794 15.8346 117.078 19.8239 117.078C23.6685 117.078 26.3849 119.746 26.3849 123.709C26.3849 123.794 26.3849 123.876 26.3849 123.957C26.3771 124.256 26.2528 124.54 26.0385 124.748C25.8242 124.956 25.5369 125.072 25.2382 125.071H15.9831C16.1798 127.297 17.768 128.644 19.8239 128.644C21.5384 128.644 22.4921 127.813 23.0079 126.759H26.0175C25.2605 129.126 23.1304 131 19.8239 131ZM16.0091 122.818H23.4718C23.4236 120.737 21.7833 119.416 19.7052 119.416C17.8126 119.427 16.3022 120.7 16.0091 122.818Z" fill="#202045"/>
<path d="M34.3413 117.078C35.2212 117.079 36.0908 117.267 36.8924 117.63C37.694 117.993 38.4094 118.522 38.9911 119.182V113.817C38.9911 113.666 39.0208 113.517 39.0785 113.378C39.1361 113.239 39.2207 113.113 39.3272 113.007C39.4337 112.901 39.5602 112.817 39.6993 112.76C39.8384 112.702 39.9874 112.673 40.1378 112.674H41.804V130.781H38.9911V128.755C38.4512 129.48 37.7438 130.062 36.9296 130.454C36.1153 130.846 35.2183 131.034 34.3153 131.004C30.7676 131.004 27.9547 128.143 27.9547 123.983C27.9547 119.824 30.7676 117.078 34.3413 117.078ZM34.9016 119.501C32.8235 119.501 30.8196 121.067 30.8196 123.98C30.8196 126.892 32.8272 128.577 34.9016 128.577C36.9761 128.577 38.9837 126.941 38.9837 124.028C38.9837 121.115 37.0095 119.501 34.9016 119.501Z" fill="#202045"/>
<path d="M44.8655 113.724C44.8684 113.374 44.9746 113.033 45.1706 112.744C45.3667 112.455 45.6438 112.23 45.9673 112.097C46.2909 111.965 46.6463 111.931 46.989 112C47.3317 112.069 47.6464 112.237 47.8936 112.485C48.1407 112.732 48.3094 113.046 48.3783 113.389C48.4472 113.732 48.4133 114.087 48.2809 114.411C48.1485 114.734 47.9235 115.011 47.634 115.207C47.3446 115.403 47.0037 115.509 46.6542 115.512C46.4185 115.515 46.1845 115.471 45.9662 115.382C45.7478 115.293 45.5494 115.162 45.3827 114.995C45.216 114.828 45.0844 114.63 44.9956 114.412C44.9067 114.193 44.8625 113.96 44.8655 113.724ZM46.3796 117.297H48.0235V130.781H45.2329V118.444C45.2329 118.292 45.2628 118.143 45.3209 118.003C45.379 117.864 45.4641 117.737 45.5714 117.63C45.6786 117.524 45.8059 117.439 45.9459 117.382C46.0859 117.325 46.2358 117.296 46.387 117.297H46.3796Z" fill="#202045"/>
<path d="M67.8252 127.308H60.7039L59.4793 130.781H56.5662L62.3887 114.51C62.4683 114.288 62.6147 114.095 62.8081 113.959C63.0014 113.823 63.2321 113.75 63.4686 113.75H65.8918L71.9926 130.781H69.0536L67.8252 127.308ZM64.2738 117.126L61.4869 125.045H67.0533L64.2738 117.126Z" fill="#202045"/>
<path d="M74.7276 119.572H73.1356V118.458C73.1356 118.154 73.2564 117.863 73.4715 117.648C73.6865 117.433 73.9782 117.312 74.2823 117.312H74.7276V116.358C74.7276 113.249 76.3196 111.906 79.8413 111.906V114.228C78.1306 114.228 77.5405 114.815 77.5405 116.358V117.312H80.038V119.586H77.5591V130.796H74.7462L74.7276 119.572Z" fill="#202045"/>
<path d="M85.0552 130.781H82.2645V118.444C82.2645 118.14 82.3853 117.848 82.6004 117.633C82.8154 117.418 83.1071 117.297 83.4112 117.297H85.0552V119.256C85.8382 117.909 87.1853 117.078 89.0964 117.078V119.965H88.3839C86.328 119.965 85.044 120.822 85.044 123.675L85.0552 130.781Z" fill="#202045"/>
<path d="M91.0521 113.724C91.0543 113.373 91.1602 113.031 91.3563 112.741C91.5525 112.45 91.8302 112.224 92.1546 112.091C92.4789 111.958 92.8354 111.923 93.1792 111.992C93.5229 112.061 93.8386 112.23 94.0866 112.478C94.3345 112.726 94.5036 113.042 94.5725 113.386C94.6414 113.729 94.6072 114.086 94.474 114.41C94.3409 114.734 94.1148 115.012 93.8242 115.208C93.5336 115.404 93.1914 115.51 92.8408 115.512C92.6051 115.515 92.3712 115.471 92.1528 115.382C91.9344 115.293 91.7361 115.162 91.5694 114.995C91.4027 114.828 91.271 114.63 91.1822 114.412C91.0934 114.193 91.0492 113.96 91.0521 113.724ZM92.5662 117.297H94.2102V130.781H91.4195V118.444C91.4195 118.14 91.5403 117.848 91.7554 117.633C91.9704 117.418 92.2621 117.297 92.5662 117.297Z" fill="#202045"/>
<path d="M103.317 117.078C105.892 117.078 107.77 118.073 108.831 119.857C108.929 120.032 108.979 120.229 108.976 120.429C108.973 120.628 108.919 120.824 108.817 120.996C108.715 121.168 108.57 121.31 108.396 121.409C108.222 121.507 108.025 121.558 107.826 121.557H106.523C106.056 120.258 104.979 119.427 103.317 119.427C101.064 119.427 99.5725 121.089 99.5725 124.028C99.5725 126.967 101.057 128.651 103.317 128.651C104.979 128.651 106.007 127.909 106.523 126.525H109.533C108.772 129.167 106.62 131 103.317 131C99.45 131 96.7076 128.262 96.7076 124.028C96.7076 119.794 99.4538 117.078 103.317 117.078Z" fill="#202045"/>
<path d="M117.511 117.078C118.407 117.051 119.296 117.234 120.108 117.612C120.92 117.99 121.632 118.553 122.187 119.256V118.444C122.187 118.14 122.308 117.848 122.523 117.633C122.738 117.418 123.03 117.297 123.334 117.297H125V130.781H122.187V128.774C121.628 129.488 120.91 130.062 120.09 130.448C119.269 130.835 118.37 131.024 117.463 131C113.964 131 111.154 128.139 111.154 123.98C111.154 119.82 113.964 117.078 117.511 117.078ZM118.101 119.501C116.019 119.501 114.019 121.067 114.019 123.98C114.019 126.892 116.027 128.577 118.101 128.577C120.176 128.577 122.183 126.941 122.183 124.028C122.183 121.115 120.205 119.501 118.101 119.501Z" fill="#202045"/>
<path d="M42.7986 88.559C78.7689 89.8985 92.9411 78.8412 92.9411 78.8412C56.0356 109.52 15.2966 97.6387 15.2966 97.6387C24.0359 96.5738 37.6181 84.0322 44.1234 76.1177C48.8734 70.3478 57.9133 63.4685 60.4145 61.6095C60.8375 61.2978 64.6784 58.7302 65.1386 58.4704C86.291 46.389 108.557 54.9046 108.557 54.9046C70.9017 53.2905 42.7986 88.559 42.7986 88.559ZM87.0778 18.0777C68.5489 48.9344 51.5453 54.7636 51.5453 54.7636C97.4128 40.5968 109.703 0 109.703 0C104.041 6.74202 86.1166 11.2614 75.9337 12.3931C68.5118 13.2169 57.802 17.0313 54.8777 18.1111C54.3842 18.2929 50.1351 20.111 49.6824 20.3374C28.003 31.4689 22.982 54.7525 22.982 54.7525C42.1825 22.3485 87.0778 18.0777 87.0778 18.0777Z" fill="url(#paint0_linear_696_2046)"/>
</g>
<defs>
<linearGradient id="paint0_linear_696_2046" x1="10.9808" y1="92.2621" x2="122.791" y2="12.9298" gradientUnits="userSpaceOnUse">
<stop offset="0.09" stop-color="#2C2E85"/>
<stop offset="0.88" stop-color="#D4569A"/>
</linearGradient>
<clipPath id="clip0_696_2046">
<rect width="125" height="131" fill="white"/>
</clipPath>
</defs>
</svg>
