<svg width="120" height="120" viewBox="0 0 120 120" fill="none" xmlns="http://www.w3.org/2000/svg">
<g filter="url(#filter0_d_548_2999)">
<rect x="10" y="7" width="100" height="100" rx="24" fill="#8A309C"/>
<g clip-path="url(#clip0_548_2999)">
<path d="M31.3352 29.5H88.6387C90.7066 30.3972 91.513 31.927 91.5065 34.1925C91.4479 49.3803 91.474 64.5681 91.474 79.7558C91.474 83.151 90.1734 84.4677 86.7203 84.4677C68.9479 84.4677 51.169 84.4677 33.3966 84.5C31.0816 84.5 29.4364 83.8029 28.5065 81.66V32.3142L31.3352 29.5ZM32.3952 39.5628V80.5949H87.6112V39.5628H32.3952ZM71.3605 36.9809C71.8585 36.973 72.3429 36.8182 72.752 36.5362C73.1611 36.2543 73.4764 35.8579 73.6579 35.3975C73.8393 34.9372 73.8787 34.4336 73.771 33.951C73.6633 33.4683 73.4134 33.0284 73.053 32.6871C72.6927 32.3458 72.2382 32.1187 71.7474 32.0346C71.2566 31.9505 70.7517 32.0132 70.2969 32.2147C69.8422 32.4163 69.4581 32.7475 69.1935 33.1664C68.929 33.5852 68.796 34.0728 68.8114 34.5669C68.8367 35.2198 69.1168 35.8374 69.5925 36.2891C70.0682 36.7408 70.7022 36.9912 71.3605 36.9874V36.9809ZM80.7572 34.4378C80.7465 33.9433 80.5878 33.4632 80.3012 33.0586C80.0147 32.6539 79.6133 32.3431 79.1482 32.1657C78.6831 31.9882 78.1753 31.9522 77.6895 32.0622C77.2036 32.1722 76.7618 32.4232 76.4202 32.7833C76.0786 33.1433 75.8527 33.5962 75.7713 34.0842C75.6899 34.5721 75.7566 35.073 75.963 35.5232C76.1694 35.9734 76.5061 36.3524 76.9302 36.612C77.3543 36.8716 77.8467 37 78.3446 36.9809C79.0007 36.954 79.6202 36.6738 80.0709 36.1998C80.5217 35.7259 80.7679 35.0959 80.7572 34.4442V34.4378ZM85.2247 32.0044C84.575 32.0057 83.9512 32.2569 83.4842 32.7053C83.0173 33.1536 82.7438 33.7643 82.721 34.4087C82.6983 35.0532 82.9282 35.6812 83.3623 36.1609C83.7965 36.6406 84.4011 36.9345 85.0491 36.9809C85.3857 37.005 85.7237 36.9615 86.0429 36.8529C86.3621 36.7444 86.6561 36.5731 86.9071 36.3493C87.1581 36.1255 87.3611 35.8537 87.5039 35.5502C87.6467 35.2467 87.7264 34.9178 87.7382 34.5831C87.75 34.2483 87.6937 33.9147 87.5726 33.602C87.4516 33.2894 87.2682 33.0042 87.0336 32.7635C86.799 32.5228 86.5179 32.3315 86.2071 32.201C85.8962 32.0706 85.5621 32.0037 85.2247 32.0044Z" fill="white"/>
<path d="M54.5766 66.3818L47.4234 63.2964C45.7911 62.5993 44.1719 61.8183 42.5072 61.231C41.3822 60.8308 41.1026 60.2176 41.0635 59.0622C41.0115 57.6809 41.4992 57.0871 42.7608 56.5901C46.2594 55.2023 49.6929 53.6468 53.1654 52.1622C53.6271 51.9621 54.1018 51.7943 54.8237 51.5167C54.8866 52.5514 54.8692 53.5894 54.7716 54.6214C54.6805 54.8638 54.539 55.0844 54.3564 55.269C54.1738 55.4535 53.9541 55.598 53.7117 55.6929C51.052 56.7708 48.3663 57.7648 45.3229 58.9202L52.255 61.6441C55.1488 62.7994 55.2268 62.9479 54.5766 66.3818Z" fill="white"/>
<path d="M65.3843 51.5878C69.7413 53.4467 73.9746 55.2346 78.195 57.0678C79.1379 57.4809 79.2615 60.3855 78.3316 60.7986C74.0527 62.7349 69.7413 64.5422 65.1828 66.5109C65.1175 65.4613 65.1327 64.4083 65.2283 63.361C65.323 63.1186 65.4672 62.8983 65.6519 62.714C65.8365 62.5296 66.0576 62.3851 66.3013 62.2896C68.9609 61.1923 71.6466 60.1724 74.7225 58.9654L70.1705 57.2162L67.8294 56.3126C64.7926 55.1507 64.7926 55.0991 65.3843 51.5878Z" fill="white"/>
<path d="M56.3389 67.8922C57.3468 63.7419 58.2442 60.0046 59.1546 56.2738C59.6553 54.2084 60.1561 52.1364 60.6828 50.0709C60.9234 49.135 61.3851 48.3863 62.5491 48.6767C63.7131 48.9672 63.6091 49.8644 63.4075 50.6906C62.0289 56.3965 60.6503 62.1024 59.1611 67.7825C59.0027 68.0954 58.7735 68.3678 58.4915 68.5783C58.2095 68.7888 57.8823 68.9318 57.5354 68.996C57.1842 69.0476 56.6705 68.2085 56.3389 67.8922Z" fill="white"/>
</g>
</g>
<defs>
<filter id="filter0_d_548_2999" x="0" y="0" width="120" height="120" filterUnits="userSpaceOnUse" color-interpolation-filters="sRGB">
<feFlood flood-opacity="0" result="BackgroundImageFix"/>
<feColorMatrix in="SourceAlpha" type="matrix" values="0 0 0 0 0 0 0 0 0 0 0 0 0 0 0 0 0 0 127 0" result="hardAlpha"/>
<feOffset dy="3"/>
<feGaussianBlur stdDeviation="5"/>
<feComposite in2="hardAlpha" operator="out"/>
<feColorMatrix type="matrix" values="0 0 0 0 0 0 0 0 0 0 0 0 0 0 0 0 0 0 0.05 0"/>
<feBlend mode="normal" in2="BackgroundImageFix" result="effect1_dropShadow_548_2999"/>
<feBlend mode="normal" in="SourceGraphic" in2="effect1_dropShadow_548_2999" result="shape"/>
</filter>
<clipPath id="clip0_548_2999">
<rect width="63" height="55" fill="white" transform="translate(28.5 29.5)"/>
</clipPath>
</defs>
</svg>
