<svg width="120" height="120" viewBox="0 0 120 120" fill="none" xmlns="http://www.w3.org/2000/svg">
<g filter="url(#filter0_d_548_2977)">
<rect x="10" y="7" width="100" height="100" rx="24" fill="#D5569A"/>
<g clip-path="url(#clip0_548_2977)">
<path d="M85.3871 37.6912C85.3871 37.0242 85.3871 36.4723 85.3871 35.9127C85.3801 35.2234 85.6091 34.5591 86.0237 34.066C86.4383 33.5729 87.0046 33.2913 87.598 33.2832C88.1913 33.275 88.7632 33.541 89.1877 34.0227C89.6123 34.5043 89.8547 35.1621 89.8617 35.8513C89.8617 36.4186 89.8617 36.9782 89.8617 37.6912H91.0364C91.5627 37.664 92.088 37.7643 92.5791 37.9859C93.0701 38.2074 93.516 38.5452 93.8885 38.9779C94.261 39.4106 94.5518 39.9286 94.7426 40.499C94.9333 41.0693 95.0197 41.6796 94.9962 42.2909C94.9962 55.6759 94.9962 69.061 94.9962 82.4461C95.0132 83.041 94.9263 83.6337 94.7407 84.1885C94.5551 84.7433 94.2747 85.2487 93.9164 85.6742C93.5581 86.0998 93.1293 86.4366 92.6559 86.6644C92.1824 86.8922 91.6742 87.0063 91.1618 86.9997C90.7197 86.9997 90.2841 86.9997 89.8419 86.9997C69.6601 86.9997 49.4804 86.9997 29.303 86.9997C27.5475 86.9997 26.1483 86.3021 25.396 84.3856C25.1466 83.7125 25.0186 82.9872 25.0198 82.2544C24.9934 68.9664 24.9934 55.6938 25.0198 42.4365C25.0198 39.5311 26.6499 37.7142 29.1578 37.7065C33.7776 37.7065 38.4501 37.7065 43.0897 37.7065C43.3961 37.7389 43.7038 37.666 43.9748 37.497C44.2459 37.3281 44.4682 37.0704 44.6142 36.7559C46.317 33.7661 48.0791 30.8223 49.7884 27.8402C49.9331 27.5652 50.1402 27.3417 50.387 27.1943C50.6338 27.0469 50.9108 26.9813 51.1875 27.0046C57.0701 27.0046 62.9526 27.0046 68.8351 27.0046C69.1248 26.9837 69.4139 27.0564 69.6702 27.2147C69.9265 27.3731 70.14 27.6108 70.287 27.9015C72.0469 30.968 73.8355 34.0344 75.6526 37.1009C75.7292 37.2487 75.8306 37.3771 75.9508 37.4785C76.0709 37.5799 76.2074 37.6523 76.3521 37.6912C79.322 37.6989 82.2853 37.6912 85.3871 37.6912ZM60.0245 84.3932H90.7394C92.2442 84.3932 92.8117 83.734 92.8117 82.0014V42.6818C92.8117 40.9186 92.264 40.2747 90.7526 40.2747C85.8689 40.2747 80.9851 40.2747 76.0947 40.2747C75.6889 40.3075 75.2835 40.2042 74.9267 39.9773C74.5699 39.7504 74.2767 39.4092 74.0818 38.9944C72.4121 36.043 70.6764 33.1528 68.9869 30.2167C68.8827 30.0002 68.7272 29.823 68.5388 29.7061C68.3505 29.5893 68.1372 29.5376 67.9243 29.5574C62.671 29.5574 57.4176 29.5574 52.1643 29.5574C51.9516 29.5337 51.7376 29.5818 51.5479 29.6961C51.3582 29.8103 51.201 29.9858 51.0951 30.2014C49.3792 33.1758 47.6171 36.1196 45.921 39.1171C45.7351 39.4903 45.4627 39.7952 45.1348 39.9972C44.8069 40.1992 44.4367 40.29 44.0665 40.2594C39.1761 40.2594 34.2924 40.2594 29.4086 40.2594C27.7785 40.2594 27.2703 40.8573 27.2703 42.7355C27.2703 55.7832 27.2703 68.831 27.2703 81.8787C27.2703 82.1317 27.2703 82.3847 27.2703 82.6454C27.2961 83.0863 27.4577 83.5017 27.7255 83.8156C27.9933 84.1295 28.3495 84.3209 28.7288 84.3549C29.0918 84.3932 29.4614 84.3549 29.8244 84.3549L60.0245 84.3932Z" fill="white"/>
<path d="M59.9925 44.9895C63.3998 44.9824 66.7332 45.9834 69.5727 47.8666C72.4122 49.7498 74.6309 52.431 75.9495 55.5725C77.268 58.714 77.6274 62.1753 76.9824 65.5207C76.3374 68.866 74.7169 71.9457 72.3248 74.372C69.9328 76.7982 66.8762 78.4626 63.54 79.1554C60.2038 79.8482 56.7372 79.5386 53.5767 78.2654C50.4161 76.9922 47.7031 74.8125 45.7791 72.0007C43.8551 69.1889 42.8062 65.8707 42.7645 62.464C42.7366 60.1824 43.1613 57.918 44.0141 55.8015C44.8669 53.6851 46.1309 51.7587 47.7329 50.1337C49.335 48.5087 51.2433 47.2174 53.3476 46.3344C55.4519 45.4515 57.7104 44.9944 59.9925 44.9895ZM45.3291 62.2076C45.3201 65.1258 46.1779 67.9809 47.7936 70.4111C49.4093 72.8414 51.7103 74.7372 54.4049 75.8584C57.0995 76.9797 60.0663 77.2758 62.9294 76.7092C65.7924 76.1426 68.4228 74.7389 70.4871 72.676C72.5514 70.613 73.9566 67.9837 74.5247 65.1214C75.0928 62.259 74.7982 59.2924 73.6782 56.5977C72.5582 53.9029 70.6633 51.6012 68.2336 49.9845C65.8039 48.3677 62.9487 47.5086 60.0302 47.5161C56.1362 47.528 52.405 49.0794 49.6508 51.8318C46.8966 54.5842 45.343 58.3141 45.3291 62.2076Z" fill="white"/>
<path d="M60.0695 39.9957H54.9544C53.6326 39.9957 53.018 39.3433 53.0114 38.0973C53.0114 36.6816 53.0114 35.2593 53.0114 33.8437C52.9821 33.5971 53.0095 33.3471 53.0915 33.1124C53.1736 32.8777 53.3083 32.6643 53.4855 32.4881C53.6627 32.3119 53.8779 32.1774 54.1151 32.0947C54.3522 32.012 54.6052 31.9832 54.8552 32.0104H65.2242C65.4632 31.9831 65.7054 32.0096 65.9325 32.0879C66.1596 32.1662 66.3658 32.2943 66.5356 32.4626C66.7054 32.6308 66.8344 32.8349 66.9129 33.0594C66.9914 33.2839 67.0173 33.523 66.9887 33.7588C66.9887 35.2463 66.9887 36.7359 66.9887 38.2277C67.0142 38.463 66.9864 38.7008 66.9075 38.9242C66.8285 39.1475 66.7004 39.3508 66.5322 39.5193C66.364 39.6878 66.16 39.8173 65.935 39.8986C65.71 39.9799 65.4695 40.0108 65.2308 39.9892C63.5258 40.0088 61.7943 39.9957 60.0695 39.9957ZM55.298 37.7515H64.7418V34.2416H55.298V37.7515Z" fill="white"/>
<path d="M49.2362 61.6345C49.3869 58.9301 50.5498 56.3814 52.4937 54.495C54.4377 52.6086 57.0204 51.5227 59.7284 51.453C60.6713 51.453 61.237 51.9206 61.2822 52.6974C61.3275 53.4742 60.7618 53.9644 59.8566 53.9795C57.7225 54.0294 55.6897 54.8999 54.1809 56.4098C52.6722 57.9198 51.8035 59.9531 51.7556 62.087C51.7803 62.2751 51.7623 62.4664 51.7027 62.6466C51.6432 62.8268 51.5437 62.9912 51.4117 63.1275C51.2797 63.2639 51.1186 63.3686 50.9404 63.434C50.7623 63.4993 50.5716 63.5236 50.3828 63.5049C49.5455 63.4144 49.1834 62.8563 49.2362 61.6345Z" fill="white"/>
</g>
</g>
<defs>
<filter id="filter0_d_548_2977" x="0" y="0" width="120" height="120" filterUnits="userSpaceOnUse" color-interpolation-filters="sRGB">
<feFlood flood-opacity="0" result="BackgroundImageFix"/>
<feColorMatrix in="SourceAlpha" type="matrix" values="0 0 0 0 0 0 0 0 0 0 0 0 0 0 0 0 0 0 127 0" result="hardAlpha"/>
<feOffset dy="3"/>
<feGaussianBlur stdDeviation="5"/>
<feComposite in2="hardAlpha" operator="out"/>
<feColorMatrix type="matrix" values="0 0 0 0 0 0 0 0 0 0 0 0 0 0 0 0 0 0 0.05 0"/>
<feBlend mode="normal" in2="BackgroundImageFix" result="effect1_dropShadow_548_2977"/>
<feBlend mode="normal" in="SourceGraphic" in2="effect1_dropShadow_548_2977" result="shape"/>
</filter>
<clipPath id="clip0_548_2977">
<rect width="80" height="59" fill="white" transform="translate(20 27.5)"/>
</clipPath>
</defs>
</svg>
