<svg width="120" height="120" viewBox="0 0 120 120" fill="none" xmlns="http://www.w3.org/2000/svg">
<g filter="url(#filter0_d_548_2966)">
<rect x="10" y="7" width="100" height="100" rx="24" fill="#D5569A"/>
<g clip-path="url(#clip0_548_2966)">
<path d="M71.609 32.5C71.7302 32.5574 71.8574 32.5999 71.9882 32.6267C74.7161 32.8865 76.6 34.5277 77.1688 37.2904C79.6154 49.1987 82.0355 61.1113 84.4291 73.0281C84.7639 74.4148 84.5838 75.8811 83.9246 77.1368C83.2653 78.3924 82.1749 79.3458 80.8693 79.8081C78.3677 80.7206 75.2728 79.5737 74.3186 76.9124C73.707 75.2332 72.7956 75.1318 71.4622 75.0494C68.0064 74.834 64.5567 74.5235 61.1009 74.2574C60.8685 74.2574 60.6299 74.2574 60.3302 74.2574C60.4377 74.8856 60.503 75.5208 60.5259 76.1583C60.516 76.908 60.3571 77.6475 60.059 78.3307C59.7609 79.0138 59.3301 79.626 58.7935 80.129C58.2569 80.632 57.6259 81.0151 56.94 81.2542C56.2542 81.4934 55.528 81.5835 54.807 81.519C51.865 81.3416 48.923 81.0818 45.9871 80.8347C42.9288 80.5812 39.8706 77.3496 41.6383 72.7366L38.3231 72.4578C38.3231 72.7747 38.2864 73.0028 38.2742 73.2372C38.2159 74.6367 37.6625 75.965 36.7194 76.9689C35.7764 77.9728 34.5097 78.5819 33.1608 78.6802C31.8792 78.7873 30.6037 78.4089 29.571 77.6153C28.5383 76.8217 27.8188 75.6668 27.5459 74.3651C26.5102 69.5451 25.5275 64.7294 24.5978 59.9179C24.3311 58.6003 24.5406 57.2272 25.1867 56.0591C25.8328 54.891 26.8704 54.0093 28.1025 53.5814C29.3943 53.1009 30.8138 53.1448 32.0756 53.7043C33.3375 54.2639 34.348 55.2976 34.904 56.5976C34.9591 56.7243 35.008 56.8511 35.1059 57.0855C35.4667 56.9271 35.8032 56.8004 36.1212 56.6229C45.9076 51.2116 55.7062 45.796 65.517 40.3762C65.8311 40.2683 66.0937 40.0405 66.2516 39.7393C66.4095 39.438 66.4508 39.0858 66.3672 38.7541C66.1042 36.5553 67.0216 34.8255 68.7648 33.5582C69.04 33.3618 69.3031 33.159 69.5722 32.9245L71.609 32.5ZM72.9668 71.8812L67.1256 43.1516L35.9316 60.4375L37.6931 69.0932L72.9668 71.8812ZM77.6704 55.8563C77.2341 53.7441 76.8019 51.6214 76.3737 49.4881C75.5847 45.6228 74.814 41.7576 74.0067 37.8987C73.9692 37.5878 73.8707 37.2881 73.7175 37.018C73.5642 36.7479 73.3594 36.5131 73.1154 36.328C72.8714 36.1429 72.5935 36.0114 72.2987 35.9415C72.0039 35.8716 71.6984 35.8649 71.401 35.9217C69.982 36.1561 69.2358 37.4678 69.5661 39.1723C71.6742 49.5768 73.7885 59.9855 75.9089 70.3985C76.2086 71.8559 76.4838 73.3259 76.808 74.7833C76.9115 75.4049 77.2463 75.9595 77.7404 76.328C78.2346 76.6965 78.8485 76.8495 79.4503 76.754C80.8265 76.5322 81.5911 75.3029 81.2853 73.7188C80.0905 67.7625 78.8856 61.8083 77.6704 55.8563ZM33.6318 65.5194C33.167 63.2192 32.7082 60.9254 32.225 58.6316C31.9069 57.1045 30.7999 56.2681 29.5032 56.5406C28.2065 56.8131 27.4419 58.0804 27.76 59.6518C28.6734 64.1761 29.5929 68.7003 30.5185 73.2245C30.8427 74.796 31.9926 75.6577 33.326 75.3536C34.6594 75.0494 35.3077 73.8265 35.008 72.3057C34.5371 70.0373 34.0661 67.7688 33.6073 65.5194H33.6318ZM46.1033 73.1232C45.5731 73.1945 45.0885 73.4704 44.7463 73.8959C44.404 74.3213 44.2293 74.8649 44.2571 75.418C44.2849 75.9711 44.5132 76.4929 44.8963 76.8792C45.2794 77.2655 45.7891 77.4878 46.3235 77.5017C49.1778 77.7551 52.0464 77.9832 54.9293 78.186C55.4467 78.255 55.9708 78.1309 56.4079 77.836C56.845 77.5411 57.1665 77.0946 57.3148 76.5766C57.694 75.1762 56.8194 73.9215 55.2841 73.7758C52.4889 73.516 49.6875 73.3069 46.8862 73.0915C46.6158 73.0889 46.3457 73.1101 46.0788 73.1548L46.1033 73.1232Z" fill="white"/>
<path d="M89.4325 54.9882C88.3193 55.2289 87.2123 55.4824 86.0991 55.7105C84.8758 55.9639 84.0072 55.5141 83.7931 54.5446C83.5791 53.5751 84.1907 52.7387 85.3895 52.4725C87.671 51.9593 89.9585 51.4524 92.2522 50.9771C93.4388 50.73 94.2095 51.1799 94.4236 52.1684C94.6376 53.1569 94.0994 53.9426 92.8638 54.2341C91.7078 54.5002 90.5641 54.7347 89.4325 54.9882Z" fill="white"/>
<path d="M90.6558 39.8883C90.4701 40.4629 90.2174 41.0119 89.9034 41.5231C88.307 43.4811 86.6678 45.401 85.0103 47.3146C84.8795 47.4888 84.7158 47.6336 84.5294 47.7402C84.3429 47.8468 84.1374 47.9131 83.9255 47.9349C83.7135 47.9568 83.4995 47.9338 83.2964 47.8674C83.0933 47.801 82.9053 47.6924 82.7439 47.5484C82.5825 47.4045 82.4511 47.228 82.3575 47.0297C82.264 46.8315 82.2103 46.6157 82.1997 46.3953C82.1891 46.1749 82.222 45.9546 82.2961 45.7477C82.3702 45.5408 82.4841 45.3518 82.6309 45.1919C84.2702 43.2213 85.9094 41.2506 87.6281 39.356C87.8445 39.1533 88.0994 38.9996 88.3763 38.9047C88.6533 38.8097 88.9464 38.7757 89.2368 38.8047C89.6833 38.8427 90.0869 39.4257 90.6558 39.8883Z" fill="white"/>
<path d="M95.4694 64.8795C95.7141 66.2798 94.5825 67.414 93.5305 66.9578C91.0044 65.8426 88.5088 64.6323 86.05 63.365C85.8786 63.273 85.7279 63.1445 85.6075 62.9881C85.4871 62.8317 85.3999 62.6508 85.3514 62.4572C85.3029 62.2636 85.2944 62.0615 85.3262 61.8642C85.3581 61.6669 85.4296 61.4788 85.5363 61.312C85.6058 61.1258 85.7118 60.9565 85.8476 60.8148C85.9835 60.6732 86.1462 60.5622 86.3255 60.489C86.5049 60.4158 86.6969 60.3818 86.8895 60.3893C87.0821 60.3968 87.2711 60.4457 87.4446 60.5327C89.8912 61.6606 92.3378 62.8455 94.7293 64.0621C95.0902 64.2395 95.3165 64.7021 95.4694 64.8795Z" fill="white"/>
</g>
</g>
<defs>
<filter id="filter0_d_548_2966" x="0" y="0" width="120" height="120" filterUnits="userSpaceOnUse" color-interpolation-filters="sRGB">
<feFlood flood-opacity="0" result="BackgroundImageFix"/>
<feColorMatrix in="SourceAlpha" type="matrix" values="0 0 0 0 0 0 0 0 0 0 0 0 0 0 0 0 0 0 127 0" result="hardAlpha"/>
<feOffset dy="3"/>
<feGaussianBlur stdDeviation="5"/>
<feComposite in2="hardAlpha" operator="out"/>
<feColorMatrix type="matrix" values="0 0 0 0 0 0 0 0 0 0 0 0 0 0 0 0 0 0 0.05 0"/>
<feBlend mode="normal" in2="BackgroundImageFix" result="effect1_dropShadow_548_2966"/>
<feBlend mode="normal" in="SourceGraphic" in2="effect1_dropShadow_548_2966" result="shape"/>
</filter>
<clipPath id="clip0_548_2966">
<rect width="71" height="49" fill="white" transform="translate(24.5 32.5)"/>
</clipPath>
</defs>
</svg>
