<svg width="120" height="120" viewBox="0 0 120 120" fill="none" xmlns="http://www.w3.org/2000/svg">
<g filter="url(#filter0_d_548_2954)">
<rect x="10" y="7" width="100" height="100" rx="24" fill="#8A309C"/>
<g clip-path="url(#clip0_548_2954)">
<path d="M32.4552 41.1817C31.8961 40.2142 31.5217 39.1532 31.3508 38.0516C30.7516 34.2459 33.0544 30.5176 36.6284 29.5326C37.5975 29.2694 38.611 29.2072 39.6055 29.3499C40.6 29.4927 41.554 29.8373 42.4076 30.3621C43.2612 30.887 43.996 31.5808 44.5659 32.3999C45.1359 33.2191 45.5287 34.146 45.7197 35.1225C46.1486 37.0811 45.8528 39.1269 44.8861 40.8878L44.7923 41.0683C44.7796 41.1138 44.7709 41.1604 44.7663 41.2075C45.4592 41.4344 46.1573 41.6664 46.8502 41.883C46.9075 41.883 47.043 41.8005 47.0899 41.7232C47.9345 40.337 49.2942 39.3337 50.8775 38.9282C51.7892 38.6652 52.6853 38.3403 53.6335 38.0258C53.5554 37.8659 53.4877 37.7422 53.4199 37.6132C51.9195 34.6275 51.8569 31.652 53.7533 28.8468C54.5099 27.6073 55.6382 26.6321 56.9811 26.0572C58.3239 25.4823 59.8145 25.3362 61.2452 25.6393C64.4962 26.191 66.4968 28.2176 67.3356 31.3529C67.9028 33.4685 67.615 35.7196 66.5332 37.6287L66.377 37.9226C66.3735 37.9638 66.3735 38.0052 66.377 38.0464C67.3252 38.3558 68.2734 38.6807 69.232 38.9746C70.7568 39.3889 72.0625 40.3674 72.8789 41.7077C72.9362 41.7954 73.1081 41.8933 73.1863 41.8676C73.874 41.6664 74.5461 41.4344 75.1817 41.223C74.8847 40.3979 74.5304 39.6244 74.3273 38.8096C73.9237 37.2833 73.998 35.6717 74.5404 34.1882C75.0828 32.7047 76.0677 31.4192 77.3646 30.5021C78.3494 29.8449 79.4822 29.4372 80.6635 29.3148C81.8447 29.1923 83.0383 29.3589 84.1392 29.7999C85.2402 30.2409 86.2149 30.9428 86.9777 31.8439C87.7405 32.745 88.268 33.8177 88.5138 34.9678C88.9899 36.9599 88.7099 39.0557 87.7271 40.8568C87.6907 40.929 87.649 41.0012 87.6177 41.0786C87.5865 41.1559 87.6177 41.1301 87.6177 41.2075L89.2276 41.7232C89.8649 41.9058 90.4911 42.1245 91.1032 42.3781C93.2549 43.4094 94.4636 45.0957 94.4844 47.4575C94.5365 52.6142 94.5157 57.771 94.4844 62.9277C94.4702 64.2714 94.0483 65.5798 93.2735 66.6833C92.4987 67.7867 91.4067 68.6342 90.1393 69.1158C90.007 69.1444 89.8912 69.2228 89.8163 69.3345C89.7414 69.4461 89.7134 69.5822 89.7382 69.714C89.7382 73.1845 89.7382 76.6602 89.7382 80.1358C89.7619 80.9217 89.6232 81.704 89.3307 82.435C89.0382 83.1659 88.598 83.8301 88.0371 84.3867C87.4762 84.9434 86.8063 85.3808 86.0686 85.6722C85.3309 85.9636 84.5408 86.1029 83.7468 86.0815H75.4109C75.2026 86.1021 74.9922 86.0798 74.7929 86.016C74.5937 85.9521 74.41 85.8481 74.2535 85.7105C74.0969 85.5729 73.9708 85.4047 73.8831 85.2164C73.7955 85.0282 73.7482 84.824 73.7442 84.6168C73.7402 84.4096 73.7797 84.2038 73.8601 84.0124C73.9404 83.821 74.06 83.6482 74.2112 83.5048C74.3624 83.3614 74.542 83.2506 74.7386 83.1793C74.9352 83.108 75.1446 83.0778 75.3536 83.0906H83.7259C84.125 83.1149 84.5248 83.0548 84.8985 82.9142C85.2723 82.7735 85.6115 82.5557 85.8935 82.2751C86.1754 81.9945 86.3938 81.6577 86.5339 81.287C86.674 80.9163 86.7327 80.5204 86.706 80.1255V68.3578C86.706 67.2491 87.1124 66.7695 88.2117 66.5632C89.1202 66.4388 89.9514 65.9902 90.5492 65.3017C91.1469 64.6132 91.4699 63.7323 91.4574 62.8246C91.4887 57.7504 91.4574 52.6761 91.4574 47.6019C91.4627 47.0239 91.278 46.4599 90.9313 45.9949C90.5845 45.5298 90.0945 45.1889 89.535 45.0235C88.1839 44.5766 86.8328 44.14 85.4817 43.7137C85.3057 43.6697 85.1194 43.6936 84.9607 43.7807C83.8871 44.4333 82.6518 44.7787 81.3919 44.7787C80.132 44.7787 78.8967 44.4333 77.8231 43.7807C77.6475 43.6926 77.4451 43.6724 77.2552 43.724C76.1872 44.0489 75.1348 44.4201 74.0668 44.7553C73.9404 44.7779 73.8282 44.8493 73.7549 44.9537C73.6816 45.0582 73.6533 45.1871 73.676 45.3123C73.676 47.1326 73.676 48.922 73.676 50.7681C73.6881 50.9702 73.6583 51.1725 73.5884 51.3627C73.5186 51.553 73.4102 51.7271 73.27 51.8743C73.1297 52.0216 72.9605 52.1389 72.7727 52.2191C72.585 52.2993 72.3827 52.3407 72.1782 52.3407C71.9737 52.3407 71.7714 52.2993 71.5836 52.2191C71.3959 52.1389 71.2267 52.0216 71.0864 51.8743C70.9461 51.7271 70.8378 51.553 70.7679 51.3627C70.6981 51.1725 70.6683 50.9702 70.6803 50.7681C70.6803 48.8498 70.6803 46.9349 70.6803 45.0235C70.7397 44.319 70.5438 43.6166 70.1276 43.0421C69.7113 42.4675 69.102 42.0585 68.4088 41.8882C67.0595 41.4447 65.7101 41.0115 64.3607 40.5629C64.2545 40.5193 64.1391 40.5022 64.0247 40.513C63.9103 40.5238 63.8003 40.5621 63.7043 40.6248C62.5892 41.3133 61.3013 41.6784 59.987 41.6784C58.6727 41.6784 57.3848 41.3133 56.2697 40.6248C56.0698 40.525 55.8393 40.5029 55.6237 40.5629C54.2274 40.9909 52.8416 41.455 51.4558 41.9088C50.8183 42.091 50.2605 42.4785 49.8707 43.01C49.4809 43.5416 49.2815 44.1866 49.3041 44.843C49.3041 46.8387 49.3041 48.8343 49.3041 50.8352C49.3058 51.1524 49.2022 51.4615 49.0092 51.7149C48.8163 51.9683 48.5447 52.152 48.2361 52.2378C47.9384 52.3358 47.6163 52.3333 47.3203 52.2306C47.0242 52.1279 46.7709 51.931 46.6001 51.6705C46.4217 51.3663 46.3249 51.0219 46.3188 50.6701C46.2928 48.8807 46.3188 47.0604 46.3188 45.2968C46.3416 45.1716 46.3132 45.0427 46.2399 44.9383C46.1667 44.8338 46.0545 44.7625 45.9281 44.7399C44.86 44.415 43.8024 44.0437 42.7344 43.7085C42.5463 43.6572 42.3455 43.6775 42.1717 43.7652C41.0981 44.4178 39.8628 44.7633 38.6029 44.7633C37.3431 44.7633 36.1078 44.4178 35.0342 43.7652C34.8596 43.6798 34.6598 43.6597 34.4715 43.7085C33.1638 44.1107 31.8665 44.5388 30.5745 44.9668C29.9595 45.1285 29.4198 45.4955 29.0467 46.0058C28.6736 46.516 28.49 47.1381 28.527 47.7669C28.527 52.7483 28.527 57.7332 28.527 62.7215C28.4959 63.656 28.8149 64.569 29.4227 65.2848C30.0305 66.0006 30.8842 66.4688 31.8196 66.5993C32.8616 66.785 33.2888 67.2903 33.2888 68.3423C33.2888 72.215 33.3409 76.0774 33.2628 79.9553C33.2331 80.3843 33.2971 80.8146 33.4503 81.2169C33.6036 81.6193 33.8425 81.9842 34.1509 82.287C34.4593 82.5899 34.83 82.8234 35.2377 82.9719C35.6454 83.1203 36.0806 83.1802 36.5138 83.1473C39.2333 83.0648 41.9581 83.1215 44.6777 83.1473C44.8747 83.1301 45.0733 83.1514 45.262 83.2101C45.4507 83.2687 45.6259 83.3636 45.7776 83.4893C45.9293 83.615 46.0544 83.7691 46.1459 83.9426C46.2375 84.1162 46.2935 84.3059 46.311 84.501C46.3284 84.696 46.3069 84.8925 46.2476 85.0793C46.1883 85.2661 46.0925 85.4395 45.9655 85.5896C45.8385 85.7398 45.6829 85.8636 45.5075 85.9542C45.3321 86.0448 45.1404 86.1003 44.9434 86.1176C44.7699 86.1289 44.5959 86.1289 44.4224 86.1176H36.3523C32.7626 86.1176 30.2515 83.6372 30.2515 80.0739C30.2515 76.6361 30.2515 73.1896 30.2515 69.7346C30.273 69.603 30.2421 69.4682 30.1654 69.3586C30.0886 69.249 29.972 69.173 29.8399 69.1467C28.5612 68.6584 27.4623 67.7976 26.6884 66.678C25.9145 65.5584 25.5019 64.2327 25.5052 62.8761C25.5052 57.8019 25.5052 52.7277 25.5052 47.6534C25.4916 46.4402 25.8714 45.2546 26.5887 44.2708C27.3061 43.2869 28.3232 42.5567 29.4908 42.1873L32.0072 41.3673L32.4552 41.1817ZM64.6056 33.1939C64.5608 32.7613 64.486 32.3323 64.3816 31.9099C63.8606 30.1772 62.7665 28.986 60.943 28.6095C60.1322 28.4086 59.2795 28.4482 58.4912 28.7233C57.7029 28.9983 57.0137 29.4968 56.5094 30.1566C54.7016 32.343 55.1496 36.0043 57.4055 37.7473C58.1636 38.3582 59.1172 38.6809 60.0944 38.6573C61.0717 38.6336 62.0082 38.2652 62.7352 37.6184C64.0273 36.5252 64.5483 35.0916 64.6056 33.1939ZM42.8959 36.7469C42.8698 36.4004 42.8211 36.0559 42.75 35.7156C42.3124 33.9829 41.286 32.7659 39.4782 32.3895C38.6924 32.1911 37.8639 32.236 37.1047 32.5181C36.3454 32.8003 35.6919 33.3061 35.2321 33.9674C34.5012 35.0097 34.179 36.2799 34.3257 37.5403C34.4724 38.8007 35.078 39.9651 36.0293 40.8156C36.765 41.4658 37.7248 41.8117 38.7107 41.7819C39.6966 41.7522 40.6333 41.349 41.3277 40.6557C41.8471 40.1452 42.2545 39.5341 42.5243 38.8607C42.7941 38.1872 42.9206 37.4658 42.8959 36.7417V36.7469ZM77.1093 36.6386C77.0566 37.8668 77.4237 39.0768 78.1513 40.073C78.5003 40.5838 78.9677 41.0044 79.5145 41.2997C80.0613 41.5951 80.6716 41.7566 81.2943 41.7707C81.9171 41.7848 82.5342 41.6512 83.0941 41.381C83.654 41.1107 84.1404 40.7118 84.5126 40.2174C85.1549 39.4712 85.5643 38.5563 85.691 37.5841C85.8177 36.6118 85.6563 35.6241 85.2264 34.7409C84.9979 34.21 84.6585 33.7329 84.2306 33.3408C83.8027 32.9488 83.2959 32.6507 82.7435 32.4662C82.191 32.2816 81.6054 32.2148 81.025 32.27C80.4446 32.3252 79.8825 32.5012 79.3757 32.7865C78.6833 33.1668 78.1074 33.7248 77.7085 34.4018C77.3097 35.0788 77.1027 35.8498 77.1093 36.6334V36.6386Z" fill="white"/>
<path d="M60.0052 56.6106C61.2058 55.507 62.6458 54.6903 64.2148 54.2231C67.7419 53.233 70.9877 53.9807 73.9417 55.9815C76.8958 57.9823 78.4535 60.9268 78.7244 64.4798C79.0318 68.5485 77.6251 72.1015 75.2546 75.3451C73.7923 77.2178 72.1619 78.9558 70.3834 80.538C67.5524 83.2684 64.4938 85.7576 61.24 87.9791C60.198 88.6856 59.7916 88.6805 58.7288 87.9791C54.5978 85.1138 50.7591 81.8565 47.267 78.2535C45.8497 76.8649 44.6139 75.3057 43.5888 73.6125C42.1874 71.2922 41.3774 68.6694 41.2287 65.9701C41.0528 63.0323 42.0225 60.1396 43.938 57.8886C45.8535 55.6377 48.5686 54.2001 51.5235 53.8724C52.9746 53.6899 54.4482 53.8119 55.8485 54.2304C57.2488 54.6488 58.5444 55.3544 59.651 56.3012L60.0052 56.6106ZM44.2296 66.197C44.2922 66.6044 44.3599 67.3418 44.5162 68.0586C45.1448 70.7262 46.4956 73.1739 48.4236 75.1389C51.8084 78.7683 55.5463 82.0588 59.5832 84.9625C59.6884 85.0642 59.8296 85.1212 59.9766 85.1212C60.1236 85.1212 60.2648 85.0642 60.3699 84.9625C63.1672 82.9538 65.8186 80.7533 68.3046 78.3773C69.994 76.8807 71.5393 75.2321 72.9206 73.4526C74.8535 70.7659 76.0049 67.8317 75.6506 64.4695C75.4161 62.2728 74.6086 60.3441 72.8164 58.9157C70.7689 57.3068 68.4661 56.4972 65.8299 56.9355C64.049 57.2769 62.4411 58.2147 61.2765 59.5913C60.4116 60.5263 59.5433 60.5263 58.6715 59.5913C56.4729 57.2295 53.8159 56.2445 50.6326 57.1366C48.0277 57.8689 45.9437 59.3437 44.9017 61.9479C44.3929 63.3056 44.1644 64.7504 44.2296 66.197Z" fill="white"/>
</g>
</g>
<defs>
<filter id="filter0_d_548_2954" x="0" y="0" width="120" height="120" filterUnits="userSpaceOnUse" color-interpolation-filters="sRGB">
<feFlood flood-opacity="0" result="BackgroundImageFix"/>
<feColorMatrix in="SourceAlpha" type="matrix" values="0 0 0 0 0 0 0 0 0 0 0 0 0 0 0 0 0 0 127 0" result="hardAlpha"/>
<feOffset dy="3"/>
<feGaussianBlur stdDeviation="5"/>
<feComposite in2="hardAlpha" operator="out"/>
<feColorMatrix type="matrix" values="0 0 0 0 0 0 0 0 0 0 0 0 0 0 0 0 0 0 0.05 0"/>
<feBlend mode="normal" in2="BackgroundImageFix" result="effect1_dropShadow_548_2954"/>
<feBlend mode="normal" in="SourceGraphic" in2="effect1_dropShadow_548_2954" result="shape"/>
</filter>
<clipPath id="clip0_548_2954">
<rect width="69" height="63" fill="white" transform="translate(25.5 25.5)"/>
</clipPath>
</defs>
</svg>
