<svg width="120" height="120" viewBox="0 0 120 120" fill="none" xmlns="http://www.w3.org/2000/svg">
<g filter="url(#filter0_d_548_2988)">
<rect x="10" y="7" width="100" height="100" rx="24" fill="#8A309C"/>
<g clip-path="url(#clip0_548_2988)">
<path d="M100.5 81.8817C99.6345 82.2545 98.7743 82.9622 97.9087 82.9622C72.6257 83.0235 47.3427 83.0397 22.0597 83.0109C21.0358 83.0109 20.0225 83.0109 19.6214 81.7413C19.2203 80.4716 19.917 79.2398 21.2891 79.2236C23.8118 79.1912 26.3397 79.2236 28.7463 79.2236C28.5689 78.2906 28.4508 77.3468 28.3927 76.3981C28.3646 65.6793 28.3646 54.9588 28.3927 44.2364C28.3927 42.0159 28.6249 41.7728 30.7465 41.7728H38.8001L38.3356 44.0959H31.0051V77.2247H88.7997V44.1716H81.7014L80.9889 41.7836C84.1026 41.7836 87.0845 41.7404 90.0663 41.8323C90.441 41.8323 90.9107 42.5184 91.1218 42.9884C91.2442 43.4586 91.273 43.9492 91.2063 44.4309C91.2063 55.002 91.2063 65.5749 91.2063 76.1496C91.2063 77.1382 91.0215 78.1161 90.916 79.1858C93.2434 79.1858 95.7186 79.229 98.1885 79.1858C99.244 79.1588 100.025 79.483 100.505 80.4662L100.5 81.8817ZM59.9736 81.8817C60.6769 81.9415 61.3843 81.927 62.0847 81.8385C62.4805 81.7467 63.1032 81.1578 63.0557 80.9147C62.9608 80.4824 62.4699 79.8341 62.1005 79.8071C60.6766 79.6775 59.2443 79.6775 57.8204 79.8071C57.451 79.8395 57.1343 80.504 56.7649 80.8876C57.1502 81.2226 57.4932 81.7304 57.9312 81.8439C58.6082 81.9415 59.2945 81.9506 59.9736 81.8709V81.8817Z" fill="white"/>
<path d="M63.5728 31L64.1006 33.7283C66.8027 33.7283 69.5998 33.7283 72.3916 33.7013C72.6819 33.7013 73.0197 33.3447 73.2413 33.0746C74.6082 31.4538 76.4554 31.1945 77.8486 32.5343C78.1532 32.8255 78.3961 33.1776 78.5621 33.5689C78.7282 33.9602 78.8138 34.3822 78.8138 34.8088C78.8138 35.2354 78.7282 35.6575 78.5621 36.0488C78.3961 36.44 78.1532 36.7922 77.8486 37.0833C76.4923 38.3529 74.4974 38.045 73.236 36.4512C72.922 36.0799 72.4869 35.838 72.0117 35.7705C70.9562 35.6733 69.8637 35.7381 68.4493 35.7381C68.9243 36.1379 69.1143 36.3216 69.3254 36.4728C72.9588 39.0388 75.5141 42.9124 76.4817 47.3212C76.5684 47.5565 76.7098 47.7666 76.8938 47.9333C77.0777 48.0999 77.2986 48.2181 77.5373 48.2775C78.5189 48.4018 78.8514 48.8556 78.8039 49.8118C78.7537 50.8341 78.7537 51.8583 78.8039 52.8805C78.8672 54.0421 78.3447 54.4257 77.2628 54.4041C72.2386 54.2906 73.0777 55.155 72.9352 50.163C72.893 48.7908 73.3944 48.1857 74.6874 48.2343C73.7691 41.6755 67.9004 36.5917 64.0056 36.1811C63.7839 38.3908 63.7839 38.3907 61.4618 38.3907H59.1714C56.9389 38.3907 56.9389 38.3907 56.6803 36.2297C52.0519 36.77 46.748 42.7128 46.1252 48.1965C47.7613 48.1965 47.909 49.2284 47.8774 50.6114C47.7876 54.8741 48.3154 54.3933 44.0828 54.3933C42.0087 54.3933 41.9349 54.3176 41.9296 52.1566V50.4061C41.9296 48.4342 41.9296 48.4234 43.7028 48.2829C44.8006 45.8679 45.6027 43.3828 46.9644 41.2865C48.326 39.1903 50.2048 37.5587 51.8567 35.7219C50.6164 35.7219 49.1651 35.6787 47.7243 35.7543C47.3376 35.859 46.9993 36.1001 46.7691 36.435C45.4603 38.0288 43.5128 38.2611 42.1512 36.9483C41.8477 36.6552 41.6074 36.3004 41.446 35.9065C41.2846 35.5126 41.2055 35.0885 41.214 34.6615C41.2224 34.2345 41.3182 33.814 41.4951 33.4271C41.6719 33.0403 41.926 32.6957 42.2409 32.4155C43.6448 31.1135 45.5183 31.3998 46.8271 33.0746C47.0382 33.3501 47.3549 33.6959 47.661 33.7013C50.6534 33.7445 53.6457 33.7283 56.5167 33.7283C56.8123 32.7072 57.0445 31.8536 57.3031 31H63.5728Z" fill="white"/>
<path d="M60.7124 43.2963H61.9474C63.8684 47.7373 65.6153 52.0864 67.6366 56.3004C68.4018 57.8779 68.6287 59.1422 67.8371 60.7251C67.1246 62.146 66.7183 63.7235 66.0533 65.1768C65.9256 65.3995 65.7499 65.5893 65.5395 65.7316C65.3291 65.874 65.0896 65.9651 64.8395 65.998C61.8365 65.998 58.8336 65.9386 55.8307 65.8198C55.4296 65.8198 55.0337 65.3551 54.6696 65.0634C54.5377 64.9553 54.5007 64.7176 54.4321 64.5231C53.6563 62.535 52.2472 60.5414 52.2842 58.5803C52.3211 56.6191 53.9044 54.8471 54.7118 52.94C56.084 49.6984 57.3823 46.4136 58.7544 43.0316C59.5619 42.8641 59.9102 43.2531 59.8944 44.3012C59.8416 48.0506 59.8944 51.8054 59.8416 55.5548C59.8416 56.0248 59.4405 56.4787 59.3983 56.9595C59.2635 57.6365 59.3091 58.3381 59.5302 58.9909C59.6622 59.2448 60.818 59.2502 61.2402 58.9585C61.9526 58.4722 61.9421 57.678 61.3193 56.9379C61.0058 56.6132 60.8007 56.1953 60.7335 55.7439C60.6913 51.6596 60.7124 47.5698 60.7124 43.2963Z" fill="white"/>
<path d="M65.5098 67.3486V69.1963H55.0813V67.3486H65.5098Z" fill="white"/>
</g>
</g>
<defs>
<filter id="filter0_d_548_2988" x="0" y="0" width="120" height="120" filterUnits="userSpaceOnUse" color-interpolation-filters="sRGB">
<feFlood flood-opacity="0" result="BackgroundImageFix"/>
<feColorMatrix in="SourceAlpha" type="matrix" values="0 0 0 0 0 0 0 0 0 0 0 0 0 0 0 0 0 0 127 0" result="hardAlpha"/>
<feOffset dy="3"/>
<feGaussianBlur stdDeviation="5"/>
<feComposite in2="hardAlpha" operator="out"/>
<feColorMatrix type="matrix" values="0 0 0 0 0 0 0 0 0 0 0 0 0 0 0 0 0 0 0.05 0"/>
<feBlend mode="normal" in2="BackgroundImageFix" result="effect1_dropShadow_548_2988"/>
<feBlend mode="normal" in="SourceGraphic" in2="effect1_dropShadow_548_2988" result="shape"/>
</filter>
<clipPath id="clip0_548_2988">
<rect width="81" height="52" fill="white" transform="translate(19.5 31)"/>
</clipPath>
</defs>
</svg>
