<svg width="120" height="120" viewBox="0 0 120 120" fill="none" xmlns="http://www.w3.org/2000/svg">
<g filter="url(#filter0_d_548_2844)">
<rect x="10" y="7" width="100" height="100" rx="24" fill="#D5569A"/>
<g clip-path="url(#clip0_548_2844)">
<path d="M45.0241 86.5062L42.7114 89.5074C41.1456 85.9794 39.5949 82.478 38.0177 78.9198L49.5472 80.1741L47.4885 83.0995C47.5681 83.1488 47.6364 83.1904 47.7084 83.2283C49.905 84.3626 52.2589 85.1622 54.6921 85.6005C56.7515 85.9833 58.8472 86.1345 60.9403 86.0514C65.4241 85.9087 69.8144 84.7334 73.7693 82.617C77.7242 80.5006 81.1369 77.5002 83.7415 73.8496C85.9816 70.7542 87.5576 67.2297 88.3707 63.4969C88.9099 61.1358 89.1645 58.7187 89.129 56.2971C89.071 52.5196 88.2401 48.794 86.6874 45.3495C86.1339 44.1179 85.4666 42.9319 84.8334 41.7382C84.6428 41.4296 84.5459 41.0722 84.5547 40.7096C84.5634 40.347 84.6774 39.9948 84.8827 39.6957C85.0711 39.3844 85.3469 39.1353 85.676 38.9797C86.005 38.824 86.3726 38.7686 86.7329 38.8204C87.0692 38.8695 87.3889 38.9983 87.6652 39.1961C87.9416 39.3938 88.1666 39.6548 88.3215 39.9572C89.8061 42.3287 90.9545 44.8946 91.7337 47.5814C92.3278 49.6321 92.7164 51.7367 92.8938 53.8643C93.0777 56.0533 93.0511 58.2549 92.8142 60.4389C92.4734 63.6306 91.6767 66.7571 90.4484 69.7229C88.7714 73.7469 86.3142 77.3993 83.2183 80.4697C80.7962 82.9124 77.9836 84.9346 74.8963 86.4531C72.1738 87.7927 69.2864 88.7674 66.3088 89.352C63.7082 89.8839 61.0523 90.0965 58.4 89.9848C55.1717 89.8345 51.9848 89.1957 48.9482 88.0901C47.6364 87.5975 46.3511 87.0405 45.0241 86.5062Z" fill="white"/>
<path d="M74.9759 27.4332L77.2848 24.4282L81.9899 35.0385L70.4604 33.7918L72.5608 30.7603C71.7532 30.4116 70.9949 30.0517 70.2367 29.7333C68.164 28.89 65.9872 28.3291 63.7648 28.066C61.871 27.8279 59.9577 27.7848 58.055 27.9372C53.3739 28.2789 48.8418 29.7313 44.8346 32.1737C41.2831 34.2961 38.2351 37.1641 35.9014 40.5794C33.5677 43.9947 32.004 47.8758 31.3184 51.9544C30.9625 54.0006 30.8215 56.0784 30.8975 58.1539C31.0237 61.8283 31.8781 65.4411 33.4112 68.7831C33.9382 69.92 34.5486 71.0568 35.1628 72.1633C35.4283 72.601 35.5089 73.1261 35.3869 73.6232C35.265 74.1203 34.9505 74.5486 34.5126 74.814C34.0747 75.0793 33.5492 75.1599 33.0519 75.038C32.5545 74.9161 32.126 74.6018 31.8605 74.1641C29.8949 71.0295 28.4997 67.5721 27.7393 63.9516C26.4509 57.929 26.8564 51.6674 28.9108 45.861C31.0673 39.7985 34.9569 34.5022 40.0973 30.6288C45.2377 26.7555 51.4027 24.4756 57.8276 24.072C59.3839 23.964 60.9459 23.964 62.5023 24.072C65.3179 24.2791 68.0947 24.8498 70.7637 25.7696C72.1627 26.2812 73.5427 26.8723 74.9759 27.4332Z" fill="white"/>
<path d="M65.414 45.8913C65.2724 45.9457 65.1355 46.0116 65.0046 46.0884C64.2046 46.6568 62.8549 46.3119 62.3885 45.1069C62.2795 44.8597 62.2412 44.5871 62.278 44.3195C62.3149 44.0519 62.4253 43.7997 62.5971 43.5911C63.7572 42.1322 64.9136 40.6695 66.1003 39.2371C66.2508 39.0421 66.4441 38.8842 66.6653 38.7755C66.8865 38.6669 67.1296 38.6104 67.3761 38.6104C67.6225 38.6104 67.8657 38.6669 68.0869 38.7755C68.308 38.8842 68.5013 39.0421 68.6519 39.2371C69.4101 40.1504 70.1153 41.1015 70.8281 42.0489C71.1845 42.5225 71.5143 43.0151 71.8404 43.5116C72.0509 43.8328 72.1532 44.2129 72.1322 44.5963C72.1112 44.9798 71.968 45.3465 71.7236 45.6428C71.4792 45.9391 71.1464 46.1495 70.7739 46.2433C70.4013 46.3371 70.0085 46.3094 69.6528 46.1641C69.4594 46.0884 69.2736 45.9898 69.0689 45.8913C68.9628 46.4521 68.868 46.9902 68.7542 47.5245C68.2196 50.2457 66.8711 52.7405 64.887 54.6789C63.4913 55.9997 61.8468 57.0302 60.0493 57.7104C58.3394 58.3812 56.5461 58.7904 54.7831 59.2944C53.4637 59.6734 52.1291 60.0068 50.859 60.507C48.3188 61.515 46.9274 63.4855 46.461 66.1419C46.4345 66.3086 46.408 66.4753 46.3852 66.6421C46.3056 67.2256 46.4535 67.4719 46.9577 67.7789C47.3504 68.0112 47.709 68.2968 48.0231 68.6277C49.9756 70.8824 48.6904 74.6263 45.7672 75.2478C44.7221 75.4894 43.6238 75.311 42.709 74.751C41.7942 74.1911 41.1361 73.2944 40.8764 72.2542C40.6633 71.5136 40.6789 70.726 40.9211 69.9945C41.1633 69.2629 41.6208 68.6215 42.2337 68.154C42.3991 68.0323 42.5338 67.8737 42.6273 67.6908C42.7207 67.508 42.7703 67.3059 42.772 67.1006C42.7942 65.3028 43.241 63.5356 44.0763 61.9432C45.334 59.5399 47.4805 57.7221 50.059 56.8768C51.5756 56.3425 53.1452 55.9787 54.6883 55.5315C55.8484 55.1943 57.0313 54.9101 58.1612 54.4932C61.2663 53.3564 63.5676 51.3139 64.8074 48.1915C65.0463 47.5965 65.2131 46.9713 65.3989 46.3574C65.4194 46.2029 65.4245 46.0468 65.414 45.8913V45.8913ZM46.7757 71.4167C46.7848 71.1608 46.7427 70.9056 46.6519 70.6661C46.5611 70.4266 46.4234 70.2076 46.2469 70.022C46.0703 69.8364 45.8585 69.6878 45.6238 69.5851C45.3891 69.4823 45.1362 69.4274 44.88 69.4235C44.3659 69.4153 43.8692 69.6093 43.4968 69.9637C43.1245 70.3181 42.9064 70.8046 42.8896 71.3182C42.8825 71.5777 42.9276 71.836 43.0222 72.0778C43.1168 72.3196 43.259 72.54 43.4403 72.7259C43.6217 72.9117 43.8386 73.0593 44.078 73.1599C44.3175 73.2605 44.5748 73.312 44.8345 73.3114C45.0873 73.3175 45.3387 73.2729 45.574 73.1804C45.8092 73.0879 46.0236 72.9493 46.2045 72.7728C46.3854 72.5963 46.5291 72.3853 46.6272 72.1524C46.7253 71.9195 46.7758 71.6694 46.7757 71.4167Z" fill="white"/>
<path d="M45.7483 44.0724C46.1919 43.667 46.7189 43.1895 47.2383 42.7045C47.6174 42.3483 47.97 41.9466 48.3757 41.6207C48.6477 41.3845 48.9875 41.2404 49.3464 41.2091C49.7053 41.1778 50.0649 41.2608 50.3737 41.4464C50.7054 41.6223 50.9757 41.8948 51.1491 42.2277C51.3224 42.5606 51.3905 42.9383 51.3443 43.3108C51.2705 43.7762 51.0422 44.2034 50.696 44.5234C49.9719 45.2471 49.2363 45.9633 48.5084 46.6833C48.4558 46.7373 48.4065 46.7942 48.3605 46.8538C49.0733 47.5435 49.7899 48.2294 50.4951 48.9229C50.6802 49.0976 50.8501 49.2878 51.0031 49.4913C51.2529 49.8326 51.3775 50.2494 51.3561 50.6717C51.3347 51.094 51.1686 51.4961 50.8856 51.8104C50.6111 52.1302 50.2328 52.3434 49.817 52.4127C49.4012 52.4819 48.9742 52.4029 48.6108 52.1893C48.1846 51.8985 47.7929 51.5604 47.443 51.1813C46.8819 50.6205 46.3511 50.0256 45.8127 49.4534C45.4677 49.7868 45.1189 50.1165 44.7815 50.4538C44.3531 50.8782 43.9398 51.3178 43.5114 51.7384C43.1353 52.1496 42.6154 52.4006 42.0593 52.4394C41.7177 52.4581 41.378 52.3775 41.0813 52.2074C40.7846 52.0373 40.5435 51.7849 40.3873 51.4807C40.2102 51.1977 40.123 50.8678 40.1372 50.5343C40.1515 50.2008 40.2664 49.8794 40.4669 49.6125C40.7756 49.209 41.114 48.829 41.4792 48.4757L43.0602 46.7932C42.8668 46.5886 42.6166 46.3195 42.355 46.0581C41.8204 45.5276 41.2707 45.0122 40.7475 44.4665C40.5149 44.2467 40.3418 43.9715 40.2443 43.6667C40.1468 43.3619 40.1282 43.0373 40.1901 42.7234C40.2441 42.422 40.374 42.1392 40.5675 41.9019C40.7611 41.6645 41.0119 41.4802 41.2963 41.3665C41.5808 41.2528 41.8896 41.2133 42.1935 41.2518C42.4974 41.2903 42.7866 41.4055 43.0337 41.5866C43.5718 42.0377 44.0845 42.5185 44.5692 43.0266C44.9711 43.3941 45.4033 43.7541 45.7483 44.0724Z" fill="white"/>
<path d="M77.7094 58.2941C77.6646 58.775 77.4447 59.2227 77.0914 59.5522C75.4687 61.121 73.8448 62.6848 72.2195 64.2435C70.6044 65.7971 68.9855 67.3394 67.3666 68.8893C67.2808 68.99 67.1742 69.0709 67.0541 69.1263C66.9339 69.1818 66.8032 69.2105 66.6709 69.2105C66.5386 69.2105 66.4078 69.1818 66.2877 69.1263C66.1676 69.0709 66.0609 68.99 65.9752 68.8893C64.4586 67.3735 62.9421 65.8805 61.4255 64.3648C61.1906 64.1388 61.0201 63.8544 60.9317 63.5408C60.8432 63.2272 60.8399 62.8957 60.9221 62.5804C61.0044 62.2651 61.1692 61.9774 61.3996 61.7469C61.63 61.5163 61.9177 61.3513 62.2331 61.2688C62.5631 61.1775 62.9118 61.1783 63.2413 61.2711C63.5708 61.364 63.8686 61.5454 64.1022 61.7955C64.7506 62.4284 65.3837 63.0764 66.0244 63.7206C66.5363 64.2283 66.904 64.2321 67.4197 63.7206C69.6945 61.5151 71.9693 59.3173 74.2176 57.1005C74.5969 56.6645 75.123 56.3828 75.6962 56.3085C75.9627 56.2916 76.2298 56.3312 76.4799 56.4246C76.73 56.5181 76.9576 56.6633 77.1476 56.8508C77.3377 57.0382 77.486 57.2637 77.5828 57.5125C77.6796 57.7612 77.7228 58.0276 77.7094 58.2941V58.2941Z" fill="white"/>
</g>
</g>
<defs>
<filter id="filter0_d_548_2844" x="0" y="0" width="120" height="120" filterUnits="userSpaceOnUse" color-interpolation-filters="sRGB">
<feFlood flood-opacity="0" result="BackgroundImageFix"/>
<feColorMatrix in="SourceAlpha" type="matrix" values="0 0 0 0 0 0 0 0 0 0 0 0 0 0 0 0 0 0 127 0" result="hardAlpha"/>
<feOffset dy="3"/>
<feGaussianBlur stdDeviation="5"/>
<feComposite in2="hardAlpha" operator="out"/>
<feColorMatrix type="matrix" values="0 0 0 0 0 0 0 0 0 0 0 0 0 0 0 0 0 0 0.05 0"/>
<feBlend mode="normal" in2="BackgroundImageFix" result="effect1_dropShadow_548_2844"/>
<feBlend mode="normal" in="SourceGraphic" in2="effect1_dropShadow_548_2844" result="shape"/>
</filter>
<clipPath id="clip0_548_2844">
<rect width="66" height="66" fill="white" transform="translate(27 24)"/>
</clipPath>
</defs>
</svg>
