<svg width="120" height="120" viewBox="0 0 120 120" fill="none" xmlns="http://www.w3.org/2000/svg">
<g filter="url(#filter0_d_548_3010)">
<rect x="10" y="7" width="100" height="100" rx="24" fill="#D5569A"/>
<g clip-path="url(#clip0_548_3010)">
<path d="M72.9849 56.99C71.8877 54.9065 70.3648 53.0769 68.5149 51.62C68.6749 51.49 68.7848 51.39 68.9048 51.31L89.0649 36.68C89.3547 36.3971 89.7269 36.2137 90.1277 36.1562C90.5285 36.0987 90.9372 36.1701 91.2949 36.36C91.7039 36.5952 92.005 36.9808 92.1339 37.4347C92.2627 37.8886 92.2093 38.3749 91.9849 38.79C91.7767 39.1314 91.5208 39.4411 91.2249 39.71L73.2249 56.71L72.9849 56.99Z" fill="white"/>
<path d="M50.7449 70.62C51.0783 68.3171 51.8524 66.1 53.0249 64.09C53.7011 62.9776 54.625 62.0364 55.7249 61.34C56.6446 60.7119 57.742 60.3964 58.8549 60.44C59.3874 60.4407 59.9135 60.5554 60.398 60.7764C60.8825 60.9975 61.314 61.3196 61.6636 61.7213C62.0132 62.1229 62.2727 62.5948 62.4247 63.1052C62.5767 63.6155 62.6177 64.1525 62.5449 64.68C62.3049 67.3 60.6848 68.92 57.9048 69.29C57.0948 69.39 56.2749 69.44 55.4549 69.52C54.6596 69.5777 53.8683 69.6812 53.0849 69.83C52.2918 70.0528 51.5107 70.3165 50.7449 70.62Z" fill="white"/>
<path d="M61.9548 59.33L67.4748 52.27C69.4487 53.6667 71.0045 55.5751 71.9748 57.79L64.1748 62.08C63.7771 60.9331 62.9921 59.9606 61.9548 59.33Z" fill="white"/>
<path d="M72.9949 90.41H44.525C42.7382 90.4073 41.0254 89.6964 39.762 88.433C38.4985 87.1696 37.7876 85.4567 37.7849 83.67V30.33C37.7849 28.5424 38.495 26.8281 39.759 25.5641C41.023 24.3001 42.7374 23.59 44.525 23.59H72.9949C74.7817 23.5926 76.4945 24.3036 77.7579 25.567C79.0214 26.8304 79.7323 28.5432 79.7349 30.33V41.1H76.7349V30.33C76.7323 29.3389 76.3374 28.3891 75.6366 27.6883C74.9358 26.9875 73.986 26.5926 72.9949 26.59H44.525C43.5331 26.59 42.5818 26.984 41.8804 27.6854C41.179 28.3868 40.7849 29.3381 40.7849 30.33V83.67C40.7849 84.6619 41.179 85.6132 41.8804 86.3146C42.5818 87.016 43.5331 87.41 44.525 87.41H72.9949C73.986 87.4073 74.9358 87.0125 75.6366 86.3116C76.3374 85.6108 76.7323 84.6611 76.7349 83.67V59.03H79.7349V83.67C79.7296 85.4559 79.0179 87.1672 77.755 88.4301C76.4922 89.6929 74.7809 90.4047 72.9949 90.41Z" fill="white"/>
<path d="M72.765 34.6899H45.145V38.9899H72.765V34.6899Z" fill="white"/>
<path d="M72.765 41.01H45.145V45.31H72.765V41.01Z" fill="white"/>
<path d="M72.765 77.5599H45.145V81.8599H72.765V77.5599Z" fill="white"/>
<path d="M60.695 47.33H45.145V51.63H60.695V47.33Z" fill="white"/>
</g>
</g>
<defs>
<filter id="filter0_d_548_3010" x="0" y="0" width="120" height="120" filterUnits="userSpaceOnUse" color-interpolation-filters="sRGB">
<feFlood flood-opacity="0" result="BackgroundImageFix"/>
<feColorMatrix in="SourceAlpha" type="matrix" values="0 0 0 0 0 0 0 0 0 0 0 0 0 0 0 0 0 0 127 0" result="hardAlpha"/>
<feOffset dy="3"/>
<feGaussianBlur stdDeviation="5"/>
<feComposite in2="hardAlpha" operator="out"/>
<feColorMatrix type="matrix" values="0 0 0 0 0 0 0 0 0 0 0 0 0 0 0 0 0 0 0.05 0"/>
<feBlend mode="normal" in2="BackgroundImageFix" result="effect1_dropShadow_548_3010"/>
<feBlend mode="normal" in="SourceGraphic" in2="effect1_dropShadow_548_3010" result="shape"/>
</filter>
<clipPath id="clip0_548_3010">
<rect width="64" height="66" fill="white" transform="translate(28 24)"/>
</clipPath>
</defs>
</svg>
