<svg width="120" height="120" viewBox="0 0 120 120" fill="none" xmlns="http://www.w3.org/2000/svg">
<g filter="url(#filter0_d_548_3021)">
<rect x="10" y="7" width="100" height="100" rx="24" fill="#D5569A"/>
<g clip-path="url(#clip0_548_3021)">
<path d="M36.2893 84C32.921 82.7613 31.203 80.2345 30.3747 76.7662C28.4175 68.6281 26.2639 60.5333 24.2392 52.42C23.4662 49.3729 24.7055 47.0628 27.4726 46.3196C29.9821 45.6383 32.3074 47.2114 33.0682 50.1409C35.1829 58.312 37.2874 66.4831 39.3816 74.6542C39.4675 74.9763 39.6516 75.3789 39.535 75.6328C39.1644 76.3908 38.7548 77.1289 38.3079 77.8438C37.6391 77.3298 36.5654 76.9334 36.3752 76.2769C35.185 72.2326 34.1849 68.1326 33.1295 64.045C32.0436 59.8335 30.9821 55.6096 29.8839 51.3981C29.6507 50.5125 29.4483 49.28 28.1782 49.7631C27.7549 49.9241 27.399 51.2309 27.5647 51.875C29.7571 60.4425 32.0068 68.9914 34.3137 77.5218C34.4232 78.0354 34.635 78.5213 34.9362 78.9498C35.2373 79.3783 35.6217 79.7405 36.0658 80.0145C36.5099 80.2884 37.0046 80.4684 37.5198 80.5435C38.0349 80.6186 38.5598 80.5872 39.0626 80.4512C41.2652 79.962 42.5721 78.0172 41.9708 75.4965C40.3756 68.8572 38.6331 62.2551 36.9336 55.6344C36.1175 52.4572 35.3015 49.28 34.4794 46.109C34.0315 44.4492 34.4303 43.4706 36.2341 43.0123C52.6568 38.7513 69.0693 34.4489 85.4715 30.1053C87.4962 29.5727 87.9257 30.8547 88.2938 32.2854C90.3492 40.2624 92.38 48.2457 94.4293 56.2228C94.914 58.0808 95.4968 59.9388 96.0306 61.7968V65.0235C95.444 66.5115 94.5055 67.8318 93.2969 68.8693C92.0884 69.9068 90.6466 70.6299 89.0975 70.9754C78.0536 73.7438 67.065 76.6609 56.064 79.5718C50.6771 80.99 45.3147 82.5198 39.94 83.9938L36.2893 84ZM45.8975 78.6428C59.7146 75.0258 73.9306 71.3098 88.1404 67.5814C92.3616 66.4728 93.1592 65.0607 92.0548 60.7687C90.7971 55.814 89.5577 50.9027 88.2876 45.9789C87.2507 41.978 86.1832 37.9833 85.0972 33.8771L37.8539 46.2019C39.8418 53.8693 41.8051 61.3075 43.6826 68.7705C44.5232 71.9477 45.1551 75.1869 45.9159 78.6428H45.8975Z" fill="white"/>
<path d="M48.4928 65.073C47.2167 60.1184 45.965 55.2999 44.6643 50.2957L58.7759 46.5797C60.0583 51.5343 61.2915 56.3094 62.5861 61.3323L48.4928 65.073Z" fill="white"/>
<path d="M85.2322 59.0222L86.0298 61.7349L50.1065 71.155L49.3396 68.4175L85.2322 59.0222Z" fill="white"/>
<path d="M82.9191 49.7754L64.304 54.6372L63.5187 51.9307L82.1951 47.0256L82.9191 49.7754Z" fill="white"/>
<path d="M80.5998 40.9189L81.3606 43.6316L62.7271 48.5429L61.9602 45.8055L80.5998 40.9189Z" fill="white"/>
<path d="M83.7413 53.027L84.5389 55.7335L65.8563 60.6448L65.0894 57.9074L83.7413 53.027Z" fill="white"/>
</g>
</g>
<defs>
<filter id="filter0_d_548_3021" x="0" y="0" width="120" height="120" filterUnits="userSpaceOnUse" color-interpolation-filters="sRGB">
<feFlood flood-opacity="0" result="BackgroundImageFix"/>
<feColorMatrix in="SourceAlpha" type="matrix" values="0 0 0 0 0 0 0 0 0 0 0 0 0 0 0 0 0 0 127 0" result="hardAlpha"/>
<feOffset dy="3"/>
<feGaussianBlur stdDeviation="5"/>
<feComposite in2="hardAlpha" operator="out"/>
<feColorMatrix type="matrix" values="0 0 0 0 0 0 0 0 0 0 0 0 0 0 0 0 0 0 0.05 0"/>
<feBlend mode="normal" in2="BackgroundImageFix" result="effect1_dropShadow_548_3021"/>
<feBlend mode="normal" in="SourceGraphic" in2="effect1_dropShadow_548_3021" result="shape"/>
</filter>
<clipPath id="clip0_548_3021">
<rect width="72" height="54" fill="white" transform="translate(24 30)"/>
</clipPath>
</defs>
</svg>
