<svg width="120" height="120" viewBox="0 0 120 120" fill="none" xmlns="http://www.w3.org/2000/svg">
<g filter="url(#filter0_d_548_2943)">
<rect x="10" y="7" width="100" height="100" rx="24" fill="#8A309C"/>
<g clip-path="url(#clip0_548_2943)">
<path d="M95.5813 59.5037C95.3141 59.1597 94.9744 58.8855 94.5887 58.7027C94.203 58.5198 93.7821 58.4334 93.359 58.4502C89.5228 58.4502 85.6742 58.4502 81.838 58.4502C81.3041 58.4502 81.3662 58.5283 81.3662 57.982V38.655L79.6902 40.4108V52.7275V58.086C79.6902 58.4762 79.6902 58.4763 79.3053 58.4763H67.3125C66.6958 58.4526 66.0904 58.6535 65.5993 59.0448C65.1081 59.436 64.7615 59.9935 64.6184 60.6222C64.5941 60.8078 64.5941 60.996 64.6184 61.1815V83.2918C64.6184 83.9421 64.6184 84.5925 64.6184 85.2558C64.6403 85.4847 64.6818 85.711 64.7426 85.9321H44.9407V85.854C44.9798 85.8038 45.0258 85.76 45.0772 85.724C46.5527 84.8401 47.8613 83.6808 48.9383 82.3034C49.9884 80.9882 50.8042 79.4859 51.3468 77.8683C51.7905 76.5744 52.0579 75.2215 52.1413 73.8494C52.2611 72.0966 52.0846 70.3355 51.6199 68.647C51.1171 66.8023 50.2735 65.0789 49.1369 63.5746C48.8142 63.1584 48.4417 62.7943 48.1065 62.4041C46.5559 60.6998 44.6224 59.4298 42.4825 58.7104C41.4351 58.3527 40.3521 58.1214 39.2546 58.021C38.907 58.021 38.907 58.021 38.907 57.6308V31.0594C38.902 30.6696 38.9714 30.2828 39.1112 29.9215C39.2509 29.5602 39.4581 29.2318 39.7206 28.9556C39.9831 28.6793 40.2957 28.4608 40.6399 28.3129C40.9842 28.1649 41.3532 28.0905 41.7252 28.094H73.5572C74.7987 28.094 75.9657 28.094 77.17 28.094C77.8769 28.147 78.5378 28.4807 79.0177 29.027C79.4977 29.5734 79.7603 30.291 79.7522 31.0334V44.0395C80.3233 43.4586 80.882 42.8733 81.4283 42.2837V31.5406C81.4283 31.3846 81.4283 31.2155 81.4283 31.0464C81.4283 30.8773 81.4283 30.7212 81.4283 30.5652C81.3453 29.4155 80.857 28.3393 80.0584 27.546C79.2598 26.7527 78.2082 26.299 77.1079 26.2732C75.2456 26.2732 73.3833 26.2732 71.5335 26.2732H41.539C41.3323 26.2599 41.125 26.2599 40.9182 26.2732C39.8664 26.4462 38.9078 27.0058 38.214 27.8518C37.5202 28.6978 37.1365 29.775 37.1317 30.8903C37.1317 35.5985 37.1317 31.7097 37.1317 36.4049C37.1317 43.4802 37.1317 50.5555 37.1317 57.6308C37.1317 57.8649 37.0572 57.943 36.8337 57.956C35.6397 58.0499 34.4626 58.3079 33.3327 58.7233C31.1254 59.5274 29.1413 60.8893 27.5562 62.6883C25.971 64.4873 24.8337 66.6679 24.2449 69.0372C23.9202 70.3841 23.774 71.7714 23.8104 73.1601C23.8414 74.5559 24.063 75.94 24.4684 77.27C24.9171 78.7917 25.619 80.2183 26.5417 81.484C26.9638 82.0172 27.3487 82.5895 27.7832 83.0837C29.0493 84.4686 30.5639 85.578 32.2402 86.3483C33.8946 87.1349 35.6874 87.5513 37.5041 87.5709H58.8827H59.6525H61.8499H93.4584C93.8113 87.5779 94.162 87.5104 94.4896 87.3726C94.8172 87.2347 95.1148 87.0292 95.365 86.7683C95.6152 86.5074 95.8128 86.1964 95.9459 85.8539C96.0791 85.5114 96.145 85.1443 96.14 84.7746V72.2627V61.3766C96.1601 60.7042 95.9632 60.0444 95.5813 59.5037V59.5037ZM25.5113 72.5098C25.5875 69.9473 26.3847 67.4656 27.8031 65.3764C29.2215 63.2872 31.1976 61.6837 33.4832 60.7675C35.7688 59.8512 38.2618 59.663 40.6492 60.2266C43.0365 60.7901 45.2117 62.0802 46.9013 63.9348C48.5909 65.7894 49.7196 68.1258 50.1456 70.6504C50.5716 73.1749 50.276 75.7751 49.2958 78.1241C48.3155 80.4732 46.6944 82.4664 44.6362 83.8533C42.578 85.2402 40.1745 85.9588 37.7276 85.9191C36.0783 85.8888 34.4511 85.5162 32.9402 84.8229C31.4293 84.1296 30.0645 83.1293 28.925 81.8798C27.7854 80.6304 26.8937 79.1567 26.3013 77.5439C25.709 75.931 25.4278 74.2112 25.474 72.4838L25.5113 72.5098ZM94.4764 84.6835C94.5104 84.8619 94.5018 85.0464 94.4515 85.2205C94.4011 85.3946 94.3105 85.553 94.1877 85.6817C94.0649 85.8104 93.9138 85.9053 93.7475 85.958C93.5813 86.0108 93.4052 86.0197 93.2349 85.9841H67.4118C67.2542 86.0028 67.0946 85.9839 66.945 85.9291C66.7953 85.8742 66.6593 85.7848 66.5472 85.6673C66.4351 85.5498 66.3497 85.4074 66.2973 85.2506C66.245 85.0938 66.227 84.9266 66.2448 84.7615C66.2448 84.1893 66.2448 83.63 66.2448 83.0577C66.2448 79.971 66.2448 76.8755 66.2448 73.7714C66.2448 73.5243 66.3814 73.5373 66.5552 73.5373H74.0042C73.7218 74.7571 73.7722 76.0354 74.1498 77.2266C74.5273 78.4178 75.2168 79.4738 76.1395 80.2744C77.2812 81.2901 78.7249 81.8574 80.2225 81.8787C81.7202 81.9001 83.1781 81.3742 84.3458 80.3915C85.3026 79.5905 86.0213 78.52 86.4171 77.3057C86.813 76.0915 86.8697 74.7841 86.5804 73.5373H94.0294C94.4019 73.5373 94.4019 73.5373 94.4019 73.8884L94.4764 84.6835ZM75.6057 75.033C75.592 73.7879 76.0286 72.5837 76.8278 71.662C77.6269 70.7404 78.7293 70.1697 79.9136 70.0646C80.5604 69.9957 81.2139 70.0657 81.8341 70.2704C82.4542 70.475 83.0279 70.8101 83.5202 71.2551C84.0125 71.7001 84.4129 72.2456 84.697 72.8582C84.9811 73.4709 85.1429 74.1379 85.1725 74.8183C85.2021 75.4987 85.0989 76.1783 84.8691 76.8155C84.6394 77.4527 84.288 78.0341 83.8364 78.5241C83.3848 79.0142 82.8426 79.4025 82.2428 79.6655C81.643 79.9284 80.9983 80.0604 80.3482 80.0533C79.7191 80.0534 79.0962 79.9224 78.5159 79.6678C77.9356 79.4133 77.4095 79.0403 76.9681 78.5707C76.5267 78.101 76.179 77.5441 75.945 76.9322C75.7111 76.3204 75.5958 75.666 75.6057 75.007V75.033ZM94.4764 71.4043C94.4764 71.6384 94.4019 71.7034 94.1908 71.7034H86.2329C86.1569 71.7093 86.0809 71.6915 86.0146 71.6521C85.9482 71.6128 85.8946 71.5537 85.8604 71.4823C85.1599 70.235 84.0736 69.2759 82.7815 68.764C81.783 68.3296 80.6948 68.1709 79.621 68.303C78.5473 68.4351 77.5238 68.8535 76.6485 69.5184C75.9342 70.0235 75.3328 70.6846 74.8856 71.4563C74.8473 71.5345 74.7883 71.5995 74.7156 71.6433C74.6429 71.6872 74.5596 71.7081 74.4758 71.7034H66.5179C66.2944 71.7034 66.2324 71.6384 66.2324 71.4043C66.2324 68.1441 66.2324 64.8709 66.2324 61.5847C66.198 61.3384 66.2412 61.087 66.3554 60.8687C66.4697 60.6505 66.6488 60.4772 66.8655 60.3751C67.0484 60.306 67.2424 60.2751 67.4366 60.2841H80.3482C84.6686 60.2841 88.9766 60.2841 93.2846 60.2841C93.4504 60.2726 93.6167 60.2984 93.7723 60.3596C93.9279 60.4209 94.0693 60.5164 94.1868 60.6395C94.3044 60.7627 94.3954 60.9107 94.4539 61.0737C94.5124 61.2367 94.537 61.4109 94.526 61.5847C94.464 64.7712 94.4764 68.0747 94.4764 71.3783V71.4043Z" fill="white" stroke="white" stroke-width="0.7" stroke-miterlimit="10"/>
<path d="M72.3528 54.4054C72.3798 54.6263 72.3273 54.8498 72.2057 55.0325C72.0841 55.2152 71.902 55.3439 71.6948 55.3938C71.5506 55.4137 71.4045 55.4137 71.2603 55.3938H47.2249C47.0078 55.4238 46.787 55.4016 46.5793 55.3288C46.4197 55.2331 46.2974 55.0816 46.2338 54.9008C46.1702 54.7201 46.1694 54.5216 46.2317 54.3403C46.2773 54.148 46.3852 53.9781 46.5368 53.8596C46.6884 53.7411 46.8745 53.6811 47.0635 53.69H71.372C71.9306 53.625 72.2783 53.8851 72.3528 54.4054Z" fill="white"/>
<path d="M71.2603 55.758H47.225C46.937 55.7617 46.6521 55.6949 46.3931 55.5629C46.1721 55.4275 46.0022 55.2167 45.9118 54.9657C45.8214 54.7148 45.816 54.4389 45.8966 54.1843C45.9655 53.9281 46.114 53.7033 46.3186 53.5455C46.5232 53.3876 46.7723 53.3058 47.0263 53.3129H71.3348C71.4876 53.2892 71.6433 53.2977 71.7929 53.3382C71.9424 53.3786 72.0826 53.4501 72.2053 53.5483C72.328 53.6465 72.4307 53.7695 72.5072 53.91C72.5837 54.0506 72.6325 54.2058 72.6508 54.3664C72.6817 54.6606 72.6075 54.9564 72.4424 55.1966C72.2773 55.4369 72.0331 55.6045 71.757 55.667C71.5967 55.7232 71.4293 55.7539 71.2603 55.758V55.758ZM47.0263 53.9502C46.9061 53.9403 46.7865 53.9754 46.6888 54.0493C46.591 54.1231 46.5215 54.2309 46.4925 54.3534C46.4518 54.4655 46.4494 54.5889 46.4856 54.7026C46.5218 54.8164 46.5944 54.9136 46.6911 54.9777C46.857 55.0628 47.0405 55.1031 47.225 55.0947H71.2603C71.3799 55.109 71.5007 55.109 71.6203 55.0947C71.7518 55.0636 71.8677 54.9826 71.9456 54.8674C72.0236 54.7521 72.058 54.6107 72.0425 54.4704V54.4704C72.0425 54.2233 71.8935 53.9632 71.3348 53.9632L47.0263 53.9502Z" fill="white"/>
<path d="M72.3404 40.8529C72.3638 40.9683 72.3651 41.0874 72.3439 41.2033C72.3227 41.3192 72.2796 41.4294 72.2171 41.5276C72.1546 41.6258 72.0741 41.7099 71.9801 41.7749C71.8861 41.84 71.7807 41.8846 71.67 41.9063C71.5503 41.9197 71.4296 41.9197 71.3099 41.9063H48.6775C48.1064 41.9063 47.5229 41.9063 46.9518 41.9063C46.8403 41.9089 46.7295 41.8865 46.627 41.8406C46.5245 41.7947 46.4325 41.7263 46.3572 41.6401C46.282 41.5538 46.2253 41.4518 46.1908 41.3407C46.1563 41.2296 46.1448 41.112 46.1572 40.9959C46.162 40.8798 46.1886 40.7657 46.2355 40.6603C46.2825 40.5549 46.3487 40.4602 46.4306 40.3817C46.5125 40.3032 46.6084 40.2423 46.7127 40.2027C46.817 40.163 46.9278 40.1453 47.0387 40.1505H71.4093C71.6194 40.1291 71.8299 40.1886 72.0012 40.3179C72.1726 40.4471 72.2931 40.6373 72.3404 40.8529V40.8529Z" fill="white"/>
<path d="M71.3099 42.3226H48.6775C48.094 42.3226 47.5104 42.3226 46.9394 42.3226C46.7822 42.3267 46.6261 42.2944 46.4823 42.2281C46.3384 42.1617 46.2104 42.0628 46.1072 41.9386C46.004 41.8143 45.9283 41.6678 45.8854 41.5093C45.8426 41.3509 45.8336 41.1845 45.8593 41.022C45.86 40.8578 45.8938 40.6956 45.9583 40.5459C46.0228 40.3963 46.1167 40.2625 46.2337 40.1533C46.3508 40.0442 46.4886 39.962 46.6379 39.9123C46.7873 39.8625 46.945 39.8462 47.1008 39.8644H71.4093C71.6949 39.8364 71.9803 39.9207 72.2098 40.1011C72.4393 40.2814 72.5965 40.5448 72.6508 40.8399V40.8399C72.6833 40.9963 72.6855 41.1581 72.6572 41.3154C72.629 41.4728 72.5709 41.6226 72.4864 41.756C72.4019 41.8894 72.2927 42.0037 72.1652 42.0921C72.0378 42.1805 71.8948 42.2412 71.7445 42.2706C71.6014 42.3013 71.456 42.3187 71.3099 42.3226ZM48.0816 40.5277H47.0387C46.9688 40.5206 46.8983 40.5286 46.8315 40.5513C46.7648 40.5741 46.7033 40.611 46.6508 40.6599C46.5983 40.7087 46.5561 40.7684 46.5267 40.8352C46.4973 40.902 46.4814 40.9745 46.48 41.048C46.48 41.4208 46.6414 41.6159 46.9642 41.6333C47.5353 41.6333 48.1064 41.6333 48.6775 41.6333H71.6079C71.678 41.6211 71.7451 41.5941 71.8048 41.5539C71.8646 41.5136 71.9159 41.461 71.9555 41.3992C71.9951 41.3342 72.0221 41.2617 72.0349 41.1858C72.0477 41.1099 72.046 41.0322 72.03 40.957C72.03 40.7619 71.881 40.5018 71.3844 40.5018H48.0816V40.5277Z" fill="white"/>
<path d="M72.3404 34.1158C72.3843 34.3486 72.3384 34.5901 72.2128 34.7875C72.0872 34.9849 71.892 35.1222 71.67 35.1693C71.5503 35.1826 71.4296 35.1826 71.3099 35.1693H48.6775C48.1064 35.1693 47.5229 35.1693 46.9518 35.1693C46.8403 35.1719 46.7295 35.1495 46.627 35.1035C46.5245 35.0576 46.4325 34.9892 46.3572 34.903C46.282 34.8168 46.2253 34.7147 46.1908 34.6036C46.1563 34.4925 46.1448 34.375 46.1572 34.2589C46.162 34.1427 46.1886 34.0287 46.2355 33.9233C46.2825 33.8179 46.3487 33.7232 46.4306 33.6447C46.5125 33.5661 46.6084 33.5053 46.7127 33.4656C46.817 33.4259 46.9278 33.4082 47.0387 33.4135H71.4093C71.6189 33.3948 71.8281 33.4554 71.9989 33.5842C72.1696 33.713 72.2908 33.9016 72.3404 34.1158V34.1158Z" fill="white"/>
<path d="M71.3099 35.5203H48.6775C48.094 35.5203 47.5104 35.5203 46.9394 35.5203C46.7822 35.5245 46.6261 35.4922 46.4823 35.4258C46.3384 35.3594 46.2104 35.2606 46.1072 35.1363C46.004 35.0121 45.9283 34.8655 45.8854 34.7071C45.8426 34.5486 45.8336 34.3822 45.8593 34.2197C45.8619 34.0562 45.8969 33.8949 45.9621 33.7462C46.0272 33.5975 46.1211 33.4646 46.2378 33.3558C46.3544 33.247 46.4914 33.1648 46.6399 33.1143C46.7884 33.0637 46.9454 33.046 47.1008 33.0622H71.4093C71.6967 33.0346 71.9836 33.1207 72.2134 33.3037C72.4432 33.4867 72.5992 33.7532 72.6508 34.0507V34.0507C72.6833 34.2071 72.6855 34.3688 72.6572 34.5262C72.629 34.6836 72.5709 34.8334 72.4864 34.9668C72.4019 35.1002 72.2927 35.2145 72.1652 35.3028C72.0378 35.3912 71.8948 35.4519 71.7445 35.4813C71.6019 35.5143 71.4558 35.5274 71.3099 35.5203V35.5203ZM48.0816 33.7125H47.0387C46.9682 33.7072 46.8974 33.717 46.8306 33.7412C46.7638 33.7655 46.7025 33.8037 46.6502 33.8536C46.598 33.9035 46.5559 33.9639 46.5266 34.0314C46.4974 34.0988 46.4815 34.1717 46.48 34.2458C46.4669 34.319 46.4697 34.3943 46.4882 34.4662C46.5067 34.5381 46.5406 34.6047 46.5872 34.661C46.6337 34.7172 46.6918 34.7618 46.7571 34.7912C46.8224 34.8207 46.8932 34.8343 46.9642 34.831H48.6775H71.3099C71.4088 34.8445 71.509 34.8445 71.6079 34.831C71.6787 34.8213 71.7467 34.7953 71.8068 34.7548C71.8669 34.7143 71.9177 34.6604 71.9555 34.5969C71.9948 34.5343 72.0216 34.464 72.0344 34.3903C72.0471 34.3165 72.0457 34.2409 72.03 34.1677C72.03 33.9596 71.881 33.6995 71.3844 33.6995H48.0816V33.7125Z" fill="white"/>
<path d="M72.3404 47.6031C72.3639 47.7185 72.3651 47.8377 72.3439 47.9535C72.3227 48.0694 72.2796 48.1797 72.2171 48.2779C72.1547 48.376 72.0741 48.4601 71.9801 48.5252C71.8861 48.5902 71.7807 48.6349 71.67 48.6566C71.5503 48.6695 71.4297 48.6695 71.31 48.6566H48.6651H46.9518C46.8391 48.6594 46.7272 48.6367 46.6237 48.59C46.5202 48.5433 46.4276 48.4738 46.3521 48.3861C46.2767 48.2984 46.2202 48.1946 46.1866 48.0819C46.1529 47.9692 46.1429 47.8503 46.1572 47.7332C46.162 47.6175 46.1887 47.5041 46.2357 47.3994C46.2828 47.2947 46.3493 47.2008 46.4314 47.1233C46.5134 47.0458 46.6094 46.9862 46.7136 46.948C46.8179 46.9098 46.9284 46.8937 47.0387 46.9008H71.4093C71.6195 46.8793 71.8299 46.9389 72.0013 47.0681C72.1726 47.1973 72.2932 47.3875 72.3404 47.6031V47.6031Z" fill="white"/>
<path d="M71.31 49.0077H48.6651C48.094 49.0077 47.5105 49.0077 46.9394 49.0077C46.7825 49.0092 46.6271 48.9753 46.4838 48.9083C46.3405 48.8413 46.2127 48.7427 46.109 48.6193C46.0054 48.4959 45.9283 48.3505 45.8831 48.1931C45.8379 48.0357 45.8255 47.8699 45.8469 47.7071C45.8495 47.5435 45.8845 47.3823 45.9497 47.2336C46.0148 47.0849 46.1088 46.9519 46.2254 46.8432C46.3421 46.7344 46.479 46.6521 46.6275 46.6016C46.776 46.5511 46.933 46.5333 47.0884 46.5495H71.4093C71.6949 46.5215 71.9803 46.6058 72.2098 46.7862C72.4393 46.9665 72.5965 47.2299 72.6508 47.525V47.525C72.6834 47.6822 72.6857 47.8447 72.6576 48.0029C72.6295 48.1611 72.5716 48.3118 72.4872 48.4463C72.4028 48.5807 72.2936 48.6962 72.1661 48.7859C72.0386 48.8756 71.8953 48.9377 71.7445 48.9686C71.6011 48.995 71.4556 49.0081 71.31 49.0077ZM48.0816 47.2128H47.0387C46.9682 47.2057 46.8971 47.2137 46.8297 47.2363C46.7622 47.2589 46.6999 47.2957 46.6464 47.3443C46.593 47.393 46.5496 47.4526 46.5188 47.5194C46.4881 47.5863 46.4707 47.659 46.4676 47.7331C46.4541 47.8074 46.4572 47.884 46.4764 47.9569C46.4956 48.0298 46.5306 48.0971 46.5786 48.1537C46.6265 48.2102 46.6863 48.2545 46.7531 48.283C46.82 48.3116 46.8922 48.3236 46.9642 48.3183H48.6651H71.6079C71.6788 48.3045 71.7463 48.2758 71.8062 48.2339C71.8662 48.192 71.9174 48.1378 71.9569 48.0746C71.9963 48.0114 72.0232 47.9405 72.0357 47.8662C72.0483 47.7918 72.0464 47.7156 72.0301 47.642C72.0301 47.525 71.9431 47.1868 71.3845 47.1868H48.0816V47.2128Z" fill="white"/>
<path d="M37.9883 77.582C37.5672 77.5835 37.1508 77.6736 36.7637 77.8471C36.3765 78.0205 36.0267 78.2736 35.7349 78.5915C35.443 78.9094 35.2151 79.2855 35.0648 79.6975C34.9144 80.1094 34.8447 80.5489 34.8597 80.9897C34.8864 81.6279 35.0913 82.2439 35.449 82.7614C35.8067 83.2788 36.3015 83.6749 36.872 83.9006C37.4425 84.1263 38.0637 84.1716 38.6586 84.031C39.2535 83.8904 39.7959 83.57 40.2187 83.1096C40.6414 82.6491 40.926 82.0688 41.037 81.4406C41.148 80.8124 41.0805 80.1639 40.8431 79.5754C40.6056 78.987 40.2085 78.4844 39.7011 78.1301C39.1936 77.7758 38.5981 77.5852 37.9883 77.582V77.582ZM37.9883 82.3293C37.6176 82.3167 37.2651 82.1586 37.0006 81.8863C36.7361 81.6141 36.579 81.2476 36.5605 80.8596C36.5621 80.6649 36.6003 80.4724 36.6729 80.2932C36.7456 80.1139 36.8512 79.9514 36.9838 79.815C37.1164 79.6785 37.2733 79.5707 37.4456 79.4978C37.618 79.4248 37.8024 79.3882 37.9883 79.3899C38.3603 79.3899 38.7171 79.5447 38.9802 79.8204C39.2433 80.096 39.3911 80.4698 39.3911 80.8596C39.3911 81.2494 39.2433 81.6232 38.9802 81.8988C38.7171 82.1744 38.3603 82.3293 37.9883 82.3293V82.3293Z" fill="white"/>
<path d="M38.0007 61.5585C37.2239 61.619 36.4968 61.9821 35.9629 62.5762C35.4289 63.1704 35.1267 63.9524 35.1158 64.7684C35.1049 65.5843 35.3861 66.375 35.904 66.9845C36.4219 67.5941 37.1389 67.9783 37.9138 68.0616C38.3439 68.1078 38.7784 68.0597 39.1898 67.9204C39.6012 67.7812 39.9805 67.5537 40.3034 67.2526C40.6264 66.9515 40.886 66.5832 41.0658 66.1712C41.2455 65.7593 41.3415 65.3127 41.3475 64.8598C41.3536 64.4069 41.2695 63.9576 41.1009 63.5406C40.9322 63.1235 40.6826 62.7478 40.3678 62.4373C40.053 62.1268 39.68 61.8883 39.2725 61.737C38.865 61.5857 38.4319 61.525 38.0007 61.5585ZM38.0007 66.2798C37.8132 66.2832 37.6269 66.2479 37.4524 66.1759C37.2779 66.1039 37.1187 65.9966 36.9838 65.8601C36.8489 65.7237 36.741 65.5606 36.6662 65.3805C36.5915 65.2003 36.5513 65.0065 36.5481 64.8101C36.5633 64.4254 36.716 64.0608 36.9759 63.7886C37.2358 63.5163 37.5838 63.3564 37.951 63.3404C38.322 63.3438 38.677 63.4997 38.9394 63.7746C39.2018 64.0495 39.3506 64.4213 39.3539 64.8101C39.3606 65.1908 39.2234 65.5588 38.9723 65.8341C38.7211 66.1093 38.3764 66.2695 38.013 66.2798H38.0007Z" fill="white"/>
<path d="M30.2166 69.6354C29.4284 69.6707 28.6818 70.0154 28.1252 70.601C27.5685 71.1865 27.2426 71.9701 27.2122 72.7959C27.2005 73.2327 27.2729 73.6675 27.4252 74.0743C27.5775 74.481 27.8065 74.8515 28.0985 75.1635C28.3905 75.4755 28.7396 75.7227 29.1249 75.8902C29.5101 76.0577 29.9236 76.1421 30.3407 76.1384C30.7475 76.1436 31.1514 76.0639 31.5285 75.904C31.9057 75.7441 32.2487 75.5071 32.5376 75.2068C32.8265 74.9066 33.0554 74.5492 33.2111 74.1554C33.3668 73.7615 33.4461 73.3392 33.4444 72.9129C33.4464 72.4731 33.3634 72.0374 33.2007 71.632C33.0379 71.2266 32.7986 70.8598 32.4971 70.5537C32.1956 70.2476 31.8382 70.0084 31.4463 69.8506C31.0544 69.6928 30.6361 69.6196 30.2166 69.6354ZM30.3159 74.3696C29.9498 74.3569 29.6019 74.1997 29.3417 73.9295C29.0816 73.6594 28.9285 73.2963 28.913 72.9129C28.9162 72.523 29.0646 72.1497 29.3267 71.8728C29.5887 71.5958 29.9437 71.437 30.3159 71.4302C30.688 71.4302 31.0448 71.5851 31.3079 71.8607C31.571 72.1363 31.7188 72.5102 31.7188 72.8999C31.7188 73.2897 31.571 73.6635 31.3079 73.9391C31.0448 74.2148 30.688 74.3696 30.3159 74.3696Z" fill="white"/>
<path d="M45.5366 69.6355C44.7288 69.6492 43.9591 69.9977 43.396 70.6046C42.8329 71.2116 42.5223 72.0276 42.5322 72.874C42.5301 73.522 42.7128 74.1559 43.057 74.6943C43.4011 75.2328 43.8909 75.6512 44.4636 75.896C45.0364 76.1407 45.6659 76.2006 46.2713 76.068C46.8768 75.9353 47.4306 75.6162 47.8617 75.1515C48.2928 74.6868 48.5815 74.0977 48.6908 73.4599C48.8001 72.8221 48.725 72.1647 48.4752 71.5719C48.2253 70.9791 47.8121 70.4781 47.2885 70.133C46.7649 69.788 46.1549 69.6147 45.5366 69.6355V69.6355ZM45.636 74.3567C45.4398 74.376 45.2419 74.3522 45.0551 74.2868C44.8682 74.2214 44.6965 74.1158 44.5508 73.9768C44.4051 73.8379 44.2887 73.6686 44.209 73.4798C44.1294 73.291 44.0883 73.0869 44.0883 72.8805C44.0883 72.6741 44.1294 72.4699 44.209 72.2811C44.2887 72.0923 44.4051 71.9231 44.5508 71.7841C44.6965 71.6452 44.8682 71.5396 45.0551 71.4742C45.2419 71.4088 45.4398 71.385 45.636 71.4043C46.004 71.4206 46.3523 71.5829 46.6105 71.8582C46.8687 72.1334 47.0173 72.5012 47.0264 72.887C47.005 73.2623 46.8505 73.6157 46.5933 73.8779C46.3361 74.1402 45.9947 74.2923 45.636 74.3046V74.3567Z" fill="white"/>
<path d="M38.0876 69.6354C37.6691 69.6101 37.2501 69.676 36.8572 69.8291C36.4642 69.9821 36.1059 70.2189 35.8048 70.5245C35.5037 70.8302 35.2664 71.1979 35.1081 71.6046C34.9497 72.0112 34.8736 72.4479 34.8846 72.8869C34.8778 73.7335 35.1891 74.549 35.7512 75.1573C36.3132 75.7656 37.0811 76.118 37.889 76.1385C38.7122 76.1678 39.5127 75.8533 40.1146 75.2643C40.7164 74.6752 41.0703 73.8598 41.0983 72.9975C41.1263 72.1351 40.8261 71.2964 40.2638 70.6659C39.7015 70.0354 38.9232 69.6647 38.1 69.6354H38.0876ZM37.9635 74.3566C37.5914 74.3566 37.2346 74.2018 36.9715 73.9262C36.7084 73.6506 36.5606 73.2767 36.5606 72.8869C36.5606 72.4972 36.7084 72.1233 36.9715 71.8477C37.2346 71.5721 37.5914 71.4172 37.9635 71.4172C38.1497 71.4137 38.3347 71.4497 38.5072 71.5231C38.6798 71.5965 38.8364 71.7058 38.9676 71.8444C39.0987 71.9829 39.2016 72.1479 39.2701 72.3294C39.3387 72.5108 39.3714 72.7049 39.3664 72.9C39.3504 73.2784 39.1955 73.6357 38.9342 73.8974C38.6728 74.1591 38.325 74.305 37.9635 74.3046V74.3566Z" fill="white"/>
<path d="M91.6829 62.391C90.8263 62.391 89.9448 62.391 89.0757 62.391C88.7778 62.391 88.4799 62.391 88.1943 62.391C87.3998 62.3 86.9528 62.7162 86.9528 63.4706C86.9528 63.8347 86.9528 64.2119 86.9528 64.5891C86.9528 65.4475 86.9528 66.2929 86.9528 67.1903C86.9381 67.3131 86.9493 67.4378 86.9856 67.5555C87.0219 67.6733 87.0825 67.7812 87.163 67.8718C87.2435 67.9623 87.342 68.0333 87.4516 68.0796C87.5611 68.1259 87.6791 68.1464 87.797 68.1397C89.0385 68.1397 90.28 68.1397 91.5215 68.1397C91.6378 68.144 91.7535 68.1222 91.8611 68.0759C91.9686 68.0296 92.0656 67.9598 92.1454 67.8712C92.2253 67.7827 92.2863 67.6773 92.3243 67.5621C92.3623 67.447 92.3764 67.3246 92.3657 67.2033C92.3657 66.566 92.3657 65.9027 92.3657 65.2914C92.3657 64.6801 92.3657 63.9908 92.3657 63.3015C92.387 63.0866 92.3276 62.8714 92.2002 62.7015C92.0727 62.5316 91.8873 62.4203 91.6829 62.391ZM90.7269 66.0588C90.7269 66.2409 90.7269 66.3059 90.4786 66.2929H88.902C88.753 66.2929 88.6909 66.2929 88.6909 66.0848C88.6909 65.5255 88.6909 64.9532 88.6909 64.381C88.6909 64.2119 88.753 64.1599 88.902 64.1599H90.5035C90.6773 64.1599 90.7269 64.1599 90.7269 64.407V66.0588Z" fill="white"/>
<path d="M81.6767 31.6057H81.0559V30.6172H81.6767C81.6767 30.7863 81.6767 30.9554 81.6767 31.1244C81.6767 31.2805 81.6767 31.4366 81.6767 31.5926V31.6057Z" fill="white"/>
</g>
</g>
<defs>
<filter id="filter0_d_548_2943" x="0" y="0" width="120" height="120" filterUnits="userSpaceOnUse" color-interpolation-filters="sRGB">
<feFlood flood-opacity="0" result="BackgroundImageFix"/>
<feColorMatrix in="SourceAlpha" type="matrix" values="0 0 0 0 0 0 0 0 0 0 0 0 0 0 0 0 0 0 127 0" result="hardAlpha"/>
<feOffset dy="3"/>
<feGaussianBlur stdDeviation="5"/>
<feComposite in2="hardAlpha" operator="out"/>
<feColorMatrix type="matrix" values="0 0 0 0 0 0 0 0 0 0 0 0 0 0 0 0 0 0 0.05 0"/>
<feBlend mode="normal" in2="BackgroundImageFix" result="effect1_dropShadow_548_2943"/>
<feBlend mode="normal" in="SourceGraphic" in2="effect1_dropShadow_548_2943" result="shape"/>
</filter>
<clipPath id="clip0_548_2943">
<rect width="73" height="62" fill="white" transform="translate(23.5 26)"/>
</clipPath>
</defs>
</svg>
