<svg width="50" height="54" viewBox="0 0 50 54" fill="none" xmlns="http://www.w3.org/2000/svg">
<path d="M14.5655 47.8696C33.6162 48.5946 41.1217 42.6163 41.1217 42.6163C21.5679 59.1992 0 52.7761 0 52.7761C4.62924 52.202 11.8217 45.4223 15.2663 41.1467C17.7816 38.0273 22.5625 34.3102 23.895 33.3089C24.1197 33.1384 26.1549 31.7413 26.3911 31.61C37.6042 25.0772 49.3952 29.6799 49.3952 29.6799C29.4497 28.806 14.5655 47.8696 14.5655 47.8696ZM38.017 9.76987C28.2036 26.4508 19.2005 29.6016 19.2005 29.6016C43.491 21.944 50 0 50 0C46.999 3.64264 37.5082 6.08804 32.1147 6.70135C28.1806 7.14615 22.5145 9.20946 20.965 9.79338C20.7039 9.89136 18.4536 10.873 18.2059 11.0043C6.72401 17.0179 4.06475 29.6055 4.06475 29.6055C14.2391 12.0801 38.017 9.76987 38.017 9.76987Z" fill="white"/>
</svg>
