<svg width="607" height="482" viewBox="0 0 607 482" fill="none" xmlns="http://www.w3.org/2000/svg">
<path d="M170.385 418.622C170.385 418.622 184.561 229.246 266.64 204.205C266.64 204.205 394.362 189.094 467.79 216.926L452.293 456.804C452.293 456.804 244.708 503.944 170.385 418.622Z" fill="#9575CD"/>
<path d="M313.375 155.836C313.375 155.836 326.495 187.678 329.837 212.716C330.321 216.29 331.942 219.614 334.46 222.198C336.978 224.781 340.261 226.487 343.824 227.064C359.5 229.669 385.49 231.119 401.304 216.701C403.014 215.125 404.221 213.079 404.773 210.82C405.325 208.562 405.197 206.191 404.407 204.004C397.895 185.781 364.033 109.911 345.588 98.2809L313.375 155.836Z" fill="#A86B13"/>
<path d="M446.915 389.998C446.915 390.131 446.915 390.276 446.915 390.413C447.193 430.041 393.566 433.829 393.566 433.829C393.566 433.829 378.231 408.351 358.553 407.517C338.875 406.683 311.568 438.722 311.568 438.722L355.242 445.712C355.242 445.712 438.511 495.63 495.583 436.328C485.507 399.403 461.461 391.332 446.915 389.998Z" fill="#A86B13"/>
<path d="M467.79 216.926C413.684 236.099 421.514 278.565 421.514 278.565C421.514 278.565 446.478 350.288 446.915 389.998C461.454 391.325 485.499 399.396 495.587 436.328C496.943 434.92 498.288 433.47 499.609 431.939C567.832 352.953 467.79 216.926 467.79 216.926Z" fill="#7879F1"/>
<path d="M446.915 392.11C446.36 392.11 445.827 391.892 445.432 391.502C445.037 391.113 444.81 390.584 444.802 390.029C444.45 359.127 429.051 308.425 422.44 288.062C422.326 287.792 422.268 287.502 422.272 287.209C422.276 286.916 422.341 286.627 422.462 286.36C422.584 286.094 422.76 285.855 422.978 285.66C423.197 285.465 423.454 285.318 423.733 285.227C424.012 285.137 424.306 285.106 424.598 285.135C424.89 285.164 425.172 285.254 425.427 285.399C425.682 285.543 425.904 285.739 426.079 285.974C426.255 286.209 426.379 286.477 426.445 286.763C433.112 307.313 448.659 358.504 449.007 389.984C449.007 390.538 448.789 391.071 448.4 391.466C448.01 391.861 447.481 392.087 446.926 392.096L446.915 392.11Z" fill="#5D5FEF"/>
<path d="M254.218 75.5557C254.218 77.1432 289.65 175.798 289.65 175.798L345.584 154.383L325.903 55.8894C325.903 55.8894 254.218 49.0149 254.218 75.5557Z" fill="#A86B13"/>
<path d="M316.091 79.8853L330.531 130.925C330.718 131.573 330.813 132.244 330.813 132.918C330.813 137.082 329.788 151.405 315.189 149.462C301.942 147.702 289.83 146.276 282.123 149.902C280.453 150.683 279.134 152.061 278.427 153.764C277.72 155.467 277.676 157.372 278.302 159.106C281.525 168.068 289.157 188.129 298.448 204.55C299.367 206.152 300.852 207.353 302.612 207.916C304.372 208.479 306.279 208.363 307.958 207.591C318.461 202.814 340.337 192.103 355.915 179.399C356.954 178.561 357.747 177.457 358.209 176.204C358.671 174.952 358.785 173.597 358.539 172.285C356.073 159.23 348.786 119.521 348.462 108.14C348.159 97.4607 360.152 89.3083 365.432 86.2424C366.286 85.747 367.031 85.0835 367.621 84.2921C368.211 83.5007 368.635 82.5979 368.866 81.6382C370.521 74.7637 371.926 59.2017 352.069 55.7732C351.086 55.6058 350.146 55.2422 349.307 54.704C348.468 54.1658 347.745 53.4641 347.183 52.6408C346.621 51.8175 346.231 50.8895 346.035 49.9121C345.84 48.9348 345.844 47.9281 346.046 46.9521C347.73 38.7294 347.191 26.6276 331.567 22.1713C315.689 17.6445 305.697 27.1943 300.614 34.5195C299.615 35.9429 298.147 36.9698 296.466 37.4203C294.785 37.8707 293 37.7161 291.422 36.9835C289.548 36.1457 287.283 36.1105 284.85 38.1591C281.57 40.9223 276.58 40.0811 274.167 36.5364C269.539 29.7252 261.135 22.9246 246.885 27.5323C221.614 35.7022 222.822 64.8196 232.092 80.6491C241.362 96.4786 268.25 86.0629 280.982 75.5733C290.661 67.6005 305.401 72.3701 311.91 75.1157C312.919 75.548 313.818 76.2008 314.542 77.0262C315.265 77.8516 315.795 78.8286 316.091 79.8853Z" fill="#333435"/>
<path d="M350.688 127.131C350.688 127.131 338.554 98.4955 348.444 89.6146C358.334 80.7336 372.134 83.7854 371.69 105.895C371.123 133.389 350.688 127.131 350.688 127.131Z" fill="#A86B13"/>
<path d="M373.081 457.934C372.916 457.934 372.754 457.934 372.588 457.934L230.059 457.68C224.776 457.68 220.497 453.041 220.5 447.335C220.504 441.629 224.812 436.905 230.081 437.007L372.609 437.261C377.892 437.261 382.175 441.897 382.168 447.606C382.161 453.136 378.135 457.649 373.081 457.934Z" fill="#333435"/>
<path d="M37.8836 248.244H215.918C229.052 248.244 241.006 256.435 246.61 269.265L328.925 457.797H107.663C99.2103 457.797 91.5956 452.21 88.4856 443.717L24.6582 269.262C20.9705 259.17 27.8492 248.244 37.8836 248.244Z" fill="#333435"/>
<path d="M156.45 373.132C163.97 371.077 167.175 358.841 163.609 345.803C160.042 332.764 151.054 323.86 143.534 325.915C136.013 327.97 132.808 340.205 136.375 353.244C139.941 366.282 148.929 375.186 156.45 373.132Z" fill="#74767B"/>
<path d="M580.733 457.561H9.26656C4.14875 457.561 0 461.707 0 466.822V472.739C0 477.854 4.14875 482 9.26656 482H580.733C585.851 482 590 477.854 590 472.739V466.822C590 461.707 585.851 457.561 580.733 457.561Z" fill="#A8ABB2"/>
<path d="M77.6792 349.251C79.8957 343.455 80.7351 337.224 80.1312 331.048C79.5273 324.873 77.4967 318.922 74.1994 313.664C71.4027 309.196 67.7528 305.323 63.4581 302.264C59.1634 299.206 54.308 297.024 49.1692 295.841C44.0304 294.658 38.7088 294.499 33.5083 295.372C28.3079 296.245 23.3304 298.133 18.8602 300.929C14.3893 303.723 10.513 307.371 7.45275 311.663C4.39248 315.955 2.20815 320.807 1.0245 325.943C-0.159145 331.079 -0.318906 336.398 0.554316 341.595C1.42754 346.793 3.31666 351.767 6.11378 356.235C8.91015 360.704 12.56 364.578 16.8548 367.637C21.1497 370.696 26.0054 372.879 31.1447 374.062C36.2839 375.245 41.606 375.404 46.807 374.531C52.0079 373.658 56.9858 371.77 61.4564 368.974C65.4959 366.454 69.0547 363.236 71.9664 359.47L89.1753 362.557L77.6792 349.251Z" fill="#FFF9F3"/>
<path d="M31.4907 333.872C31.5 334.43 31.3993 334.985 31.1942 335.504C30.9891 336.023 30.6838 336.496 30.2955 336.897C29.9073 337.299 29.4438 337.619 28.9315 337.841C28.4193 338.063 27.8682 338.182 27.3099 338.191C26.7517 338.201 26.197 338.1 25.6777 337.895C25.1583 337.69 24.6844 337.385 24.2831 336.997C23.8818 336.609 23.5609 336.146 23.3387 335.634C23.1166 335.122 22.9975 334.571 22.9883 334.013C22.9704 332.887 23.4007 331.799 24.1846 330.989C24.9684 330.179 26.0418 329.714 27.1691 329.694C27.7273 329.685 28.282 329.786 28.8014 329.991C29.3207 330.195 29.7946 330.501 30.1959 330.889C30.5972 331.277 30.9181 331.74 31.1403 332.252C31.3624 332.764 31.4815 333.314 31.4907 333.872Z" fill="#6262EF"/>
<path d="M44.1386 333.661C44.1574 334.788 43.728 335.875 42.9447 336.685C42.1614 337.495 41.0883 337.961 39.9614 337.98C39.4031 337.99 38.8484 337.889 38.3291 337.684C37.8097 337.479 37.3358 337.174 36.9345 336.786C36.5332 336.398 36.2123 335.935 35.9902 335.423C35.768 334.911 35.6489 334.36 35.6398 333.802C35.6209 332.676 36.0504 331.588 36.8337 330.778C37.617 329.968 38.69 329.502 39.817 329.483C40.3752 329.474 40.9299 329.574 41.4493 329.779C41.9686 329.984 42.4425 330.289 42.8438 330.677C43.2451 331.065 43.566 331.529 43.7882 332.041C44.0103 332.553 44.1294 333.103 44.1386 333.661Z" fill="#6262EF"/>
<path d="M57.9765 333.475C57.9858 334.033 57.8851 334.587 57.68 335.106C57.475 335.625 57.1696 336.099 56.7814 336.5C56.3931 336.901 55.9296 337.222 55.4174 337.444C54.9051 337.666 54.354 337.785 53.7957 337.794C53.2375 337.803 52.6828 337.702 52.1635 337.497C51.6441 337.292 51.1703 336.987 50.7689 336.599C50.3676 336.211 50.0467 335.748 49.8246 335.236C49.6024 334.724 49.4833 334.173 49.4742 333.615C49.4563 332.489 49.8865 331.401 50.6704 330.591C51.4542 329.782 52.5277 329.316 53.6549 329.296C54.7821 329.279 55.8704 329.709 56.6807 330.492C57.491 331.275 57.9571 332.348 57.9765 333.475Z" fill="#6262EF"/>
<path d="M150.005 89.7333L166.048 135.564C166.647 137.302 166.534 139.207 165.734 140.863C164.934 142.519 163.511 143.791 161.775 144.403L79.0062 173.348C77.2672 173.953 75.3591 173.845 73.6992 173.048C72.0393 172.251 70.7626 170.83 70.1482 169.095L54.1086 123.265C53.5064 121.526 53.6178 119.62 54.4185 117.964C55.2192 116.307 56.6439 115.035 58.3808 114.426L141.15 85.4812C142.889 84.8781 144.795 84.9867 146.454 85.7833C148.113 86.5799 149.389 87.9999 150.005 89.7333Z" fill="#FFF5BD"/>
<path opacity="0.28" d="M155.111 104.32L166.048 135.564C166.647 137.302 166.534 139.207 165.734 140.863C164.933 142.519 163.51 143.791 161.775 144.402L79.0061 173.347C77.267 173.953 75.3589 173.845 73.6991 173.048C72.0392 172.251 70.7624 170.83 70.148 169.095L59.2295 137.852L117.323 143.515L155.111 104.32Z" fill="#F2AF5C"/>
<path d="M478.975 50.1677C478.988 35.2399 467.091 23.1267 452.402 23.1137C437.713 23.1006 425.78 35.1955 425.78 50.1233C425.77 54.2137 426.685 58.2534 428.455 61.9398C430.226 65.6261 432.806 68.8635 436.004 71.4095L445.379 94.3736L461.869 95.2726L470.743 69.6847C473.353 67.1511 475.427 64.1174 476.841 60.7644C478.255 57.4113 478.981 53.8075 478.975 50.1677Z" fill="#FFEB52"/>
<path opacity="0.22" d="M453.183 23.1555C453.162 47.6066 453.144 70.636 453.123 94.797L461.861 95.2726L470.735 69.6847C473.348 67.1527 475.426 64.1197 476.843 60.7666C478.26 57.4135 478.989 53.8089 478.985 50.1677C478.988 35.5196 467.506 23.592 453.183 23.1555Z" fill="#ED7E3D"/>
<path d="M458.04 90.3333C457.928 90.3975 457.801 90.4308 457.672 90.4299C457.477 90.4299 457.291 90.3526 457.153 90.2149C457.016 90.0771 456.939 89.8903 456.939 89.6956L456.965 59.2598L456.101 61.9411C456.053 62.0884 455.96 62.2166 455.835 62.3073C455.709 62.398 455.558 62.4464 455.404 62.4455C455.249 62.4462 455.098 62.3974 454.973 62.3063C454.847 62.2151 454.754 62.0863 454.707 61.9385L452.99 56.6882L451.275 61.9411C451.226 62.0884 451.132 62.2166 451.007 62.3076C450.881 62.3986 450.73 62.4478 450.575 62.4481C450.42 62.4479 450.269 62.3984 450.144 62.3068C450.019 62.2152 449.926 62.0863 449.878 61.9385L448.793 58.6064L448.767 88.3993C448.767 88.496 448.748 88.5917 448.711 88.681C448.674 88.7702 448.619 88.8513 448.551 88.9195C448.483 88.9878 448.401 89.0418 448.312 89.0785C448.223 89.1153 448.127 89.134 448.031 89.1337C447.934 89.1334 447.839 89.114 447.75 89.0768C447.661 89.0396 447.581 88.9852 447.513 88.9168C447.445 88.8483 447.391 88.7672 447.355 88.6779C447.318 88.5887 447.299 88.4932 447.3 88.3967L447.329 53.9833C447.329 53.8087 447.391 53.6399 447.505 53.5073C447.618 53.3746 447.775 53.2867 447.947 53.2594C448.119 53.2315 448.296 53.2662 448.445 53.3573C448.594 53.4484 448.705 53.5898 448.759 53.7559L450.586 59.3356L452.301 54.08C452.35 53.9332 452.444 53.8055 452.569 53.715C452.695 53.6245 452.845 53.5758 453 53.5756C453.155 53.5753 453.306 53.6242 453.431 53.7154C453.556 53.8065 453.649 53.9351 453.697 54.0826L455.404 59.3382L457.014 54.4067C457.068 54.2405 457.179 54.0991 457.328 54.008C457.477 53.917 457.654 53.8822 457.826 53.9101C457.999 53.9375 458.156 54.0258 458.269 54.159C458.383 54.2922 458.445 54.4616 458.444 54.6366L458.416 89.693C458.415 89.8234 458.38 89.9513 458.314 90.0638C458.248 90.1762 458.153 90.2692 458.04 90.3333Z" fill="#F39C41"/>
<path d="M465.325 100.071C465.325 103.547 462.793 106.361 459.679 106.359H447.459C444.343 106.359 441.819 103.536 441.822 100.06C441.822 96.5819 444.356 93.7646 447.47 93.7672H459.69C462.803 93.7672 465.327 96.5923 465.325 100.071Z" fill="white"/>
<path d="M471.669 89.429C471.669 91.8098 468.757 93.7359 465.165 93.7333L440.25 93.7124C436.661 93.7124 433.751 91.7758 433.754 89.395C433.754 87.0168 436.667 85.0907 440.258 85.096L465.173 85.1169C468.764 85.1169 471.672 87.0508 471.669 89.429Z" fill="#6262EF"/>
<path d="M468.459 96.3755C468.459 98.7563 466.201 100.682 463.422 100.682L444.123 100.664C441.341 100.664 439.091 98.7302 439.094 96.352C439.094 93.9711 441.349 92.0477 444.131 92.0503L463.427 92.066C466.209 92.066 468.462 93.9973 468.459 96.3755Z" fill="#6262EF"/>
<path d="M466.982 37.9213C466.981 38.5549 466.856 39.1823 466.614 39.7675C466.371 40.3527 466.016 40.8843 465.568 41.3318C465.12 41.7794 464.588 42.1342 464.003 42.3759C463.418 42.6176 462.791 42.7414 462.159 42.7404C460.881 42.739 459.657 42.2298 458.754 41.3246C457.852 40.4194 457.345 39.1925 457.346 37.9134C457.347 36.6337 457.856 35.4069 458.76 34.5027C459.665 33.5985 460.891 33.091 462.169 33.0917C462.802 33.0924 463.428 33.2178 464.012 33.4609C464.597 33.704 465.127 34.0599 465.574 34.5084C466.021 34.9569 466.376 35.4891 466.617 36.0747C466.859 36.6602 466.982 37.2877 466.982 37.9213Z" fill="white"/>
<path d="M470.826 49.9848C470.826 50.3017 470.764 50.6154 470.643 50.9081C470.521 51.2008 470.344 51.4667 470.12 51.6905C469.896 51.9143 469.63 52.0917 469.337 52.2125C469.045 52.3333 468.731 52.3951 468.415 52.3944C467.776 52.3937 467.164 52.1392 466.713 51.6869C466.262 51.2346 466.008 50.6215 466.008 49.9822C466.009 49.6654 466.071 49.3518 466.193 49.0593C466.314 48.7668 466.492 48.501 466.716 48.2773C466.94 48.0536 467.205 47.8762 467.498 47.7552C467.79 47.6343 468.104 47.5723 468.42 47.5726C468.736 47.5726 469.049 47.635 469.341 47.7563C469.634 47.8776 469.899 48.0553 470.122 48.2793C470.346 48.5033 470.523 48.7693 470.644 49.0619C470.765 49.3545 470.827 49.6682 470.826 49.9848Z" fill="white"/>
<path d="M434.782 20.1005C434.588 20.2949 434.358 20.4491 434.105 20.5543C433.851 20.6595 433.579 20.7137 433.305 20.7137C433.031 20.7137 432.759 20.6595 432.505 20.5543C432.252 20.4491 432.022 20.2949 431.828 20.1005L425.018 13.2716C424.627 12.8796 424.407 12.348 424.407 11.7937C424.407 11.2395 424.627 10.7079 425.018 10.3159C425.41 9.92406 425.941 9.70398 426.494 9.70398C427.048 9.70398 427.579 9.92406 427.97 10.3159L434.777 17.1447C435.168 17.5368 435.388 18.0683 435.388 18.6226C435.388 19.1768 435.168 19.7084 434.777 20.1005H434.782Z" fill="white"/>
<path d="M453.833 14.5913C453.279 14.5913 452.748 14.3711 452.356 13.979C451.965 13.5869 451.745 13.0551 451.745 12.5006V2.84928C451.745 2.29478 451.965 1.76299 452.356 1.37091C452.748 0.978818 453.279 0.758545 453.833 0.758545C454.386 0.758545 454.917 0.978818 455.309 1.37091C455.701 1.76299 455.921 2.29478 455.921 2.84928V12.498C455.921 13.0525 455.701 13.5843 455.309 13.9764C454.917 14.3685 454.386 14.5887 453.833 14.5887V14.5913Z" fill="white"/>
<path d="M471.432 18.3703C471.041 17.9783 470.821 17.4467 470.821 16.8924C470.821 16.3382 471.041 15.8066 471.432 15.4145L478.254 8.60138C478.646 8.20959 479.177 7.9895 479.73 7.9895C480.284 7.9895 480.815 8.20959 481.206 8.60138C481.598 8.99343 481.817 9.525 481.817 10.0793C481.817 10.6335 481.598 11.1651 481.206 11.5571L474.386 18.3755C473.995 18.7673 473.464 18.9874 472.91 18.9874C472.357 18.9874 471.826 18.7673 471.434 18.3755L471.432 18.3703Z" fill="white"/>
<path d="M462.164 199.5L503.258 231.936L565.009 178.172L462.164 199.5Z" fill="white"/>
<path d="M508.399 193.68L463.383 218.34L476.712 238.364L493.083 225.174L487.783 218.134L508.399 193.68Z" fill="#E3E4DB"/>
<path opacity="0.6" d="M508.012 193.959L463.24 218.213L476.712 238.364L494.241 225.407L484.642 214.531L508.012 193.959Z" fill="white" fill-opacity="0.5"/>
<path d="M488.135 218.01L508.181 193.779L463.25 218.417" fill="#B3B3B3"/>
<path d="M464.885 406.901H601.518" stroke="#66FFF6" stroke-width="2.12" stroke-linecap="round" stroke-linejoin="round"/>
<path d="M496.133 300.118H476.578V401.786H496.133V300.118Z" fill="#FFEB52"/>
<path d="M527.649 324.959H508.094V401.783H527.649V324.959Z" fill="#F39C41"/>
<path d="M559.186 332.924H539.631V401.783H559.186V332.924Z" fill="#ED7E3D"/>
<path d="M587.531 352.661H567.977V401.783H587.531V352.661Z" fill="#FD7673"/>
<path d="M466.329 300.991V406.901" stroke="#66FFF6" stroke-width="1.87" stroke-linecap="round" stroke-linejoin="round"/>
<path d="M470.129 407.443C470.129 408.356 469.767 409.231 469.121 409.877C468.475 410.523 467.598 410.885 466.685 410.885C465.771 410.885 464.895 410.523 464.249 409.877C463.603 409.231 463.24 408.356 463.24 407.443C463.24 406.53 463.603 405.654 464.249 405.009C464.895 404.363 465.771 404 466.685 404C467.598 404 468.475 404.363 469.121 405.009C469.767 405.654 470.129 406.53 470.129 407.443Z" fill="#66FFF6"/>
<path d="M606.695 406.901C606.695 407.814 606.332 408.689 605.686 409.335C605.04 409.981 604.164 410.343 603.251 410.343C602.337 410.343 601.461 409.981 600.815 409.335C600.169 408.689 599.806 407.814 599.806 406.901C599.806 406.449 599.895 406.001 600.068 405.584C600.241 405.167 600.495 404.787 600.815 404.468C601.135 404.148 601.515 403.895 601.933 403.723C602.35 403.55 602.798 403.461 603.251 403.462C603.703 403.461 604.151 403.55 604.568 403.723C604.986 403.895 605.366 404.148 605.686 404.468C606.006 404.787 606.26 405.167 606.433 405.584C606.606 406.001 606.695 406.449 606.695 406.901Z" fill="#66FFF6"/>
<path d="M470.129 298.597C470.129 299.51 469.767 300.386 469.121 301.032C468.475 301.677 467.598 302.04 466.685 302.04C465.771 302.04 464.895 301.677 464.249 301.032C463.603 300.386 463.24 299.51 463.24 298.597C463.24 297.684 463.603 296.809 464.249 296.163C464.895 295.517 465.771 295.155 466.685 295.155C467.598 295.155 468.475 295.517 469.121 296.163C469.767 296.809 470.129 297.684 470.129 298.597Z" fill="#66FFF6"/>
</svg>
