<svg width="214" height="45" viewBox="0 0 214 45" fill="none" xmlns="http://www.w3.org/2000/svg">
<path d="M44.6659 17.7586L44.6364 17.637L37.6015 21.3298L35.6846 22.3369L31.2725 24.6577L29.1791 25.7524L22.7423 29.1582C22.6393 29.211 22.5196 29.2215 22.4089 29.1874C22.2959 29.1498 22.2025 29.0693 22.1491 28.9636L21.5706 27.7813L21.301 27.2461C21.2642 27.1685 21.2043 27.1039 21.1294 27.0612C21.0537 27.0176 20.9667 26.9972 20.8794 27.0028C20.7921 27.0066 20.7081 27.0372 20.6391 27.0904C20.5688 27.1417 20.5158 27.2129 20.4872 27.2947L20.0362 28.5938L19.0851 31.3379L18.1928 33.9311V33.9846L19.1292 34.2328L25.5023 35.9454L25.5563 35.9113L24.3944 33.5711V33.5321C24.3958 33.5225 24.3958 33.5126 24.3944 33.503V33.4348L24.7327 33.2646C24.735 33.255 24.735 33.245 24.7327 33.2354C24.7357 33.2449 24.7357 33.2551 24.7327 33.2646L40.2586 25.2659C40.1752 25.8011 40.0674 26.3314 39.935 26.852C39.1616 29.9143 37.5832 32.7181 35.3611 34.9772L34.8071 35.5172L34.3659 35.9065C34.1502 36.1011 33.9247 36.2859 33.6943 36.466C33.4639 36.646 33.204 36.826 32.9883 36.9963L32.8658 37.0839L32.7432 37.1666L32.4981 37.332C31.7483 37.8297 30.9617 38.2705 30.1449 38.6505C29.8508 38.7916 29.5272 38.9278 29.2086 39.0495C29.0125 39.1322 28.8115 39.2052 28.6105 39.2782L28.0173 39.4825L27.8114 39.5409L27.6055 39.6041C23.804 40.695 19.7452 40.5033 16.0652 39.0592H16.0113C15.5504 38.8792 15.0994 38.6748 14.6582 38.4656C14.4719 38.3732 14.2856 38.2759 14.0944 38.1688C13.9032 38.0618 13.7317 37.9645 13.5454 37.8769C13.3591 37.7893 13.1875 37.6531 13.011 37.5412L12.7463 37.3515C12.3051 37.0547 11.8834 36.7579 11.4765 36.427C11.3099 36.3005 11.1481 36.1643 10.9863 36.0281L10.4961 35.6145L10.1627 35.2983C10.0548 35.1961 9.94699 35.0842 9.83914 34.9772C9.45185 34.5831 9.08417 34.1744 8.7361 33.7414C8.50568 33.4494 8.28507 33.1721 8.07427 32.8802C7.5187 32.1185 7.02682 31.3131 6.60355 30.4718L6.57413 30.4183L6.54472 30.3648C6.35353 29.9707 6.16723 29.5669 6.00545 29.1582C5.51634 27.9507 5.16605 26.6924 4.96124 25.407C4.78954 24.4429 4.69609 23.4667 4.6818 22.4878C4.6819 21.0112 4.86633 19.5404 5.23087 18.1089C5.29951 17.8316 5.37795 17.5591 5.46129 17.2915C5.70808 16.4939 6.01283 15.715 6.37314 14.961C6.39765 14.9026 6.42706 14.8394 6.45648 14.781C7.40925 12.8139 8.71877 11.0376 10.3196 9.541C10.6676 9.21016 11.0304 8.89877 11.403 8.60199L11.6383 8.4171C11.8001 8.2906 11.9619 8.17383 12.1286 8.0522L12.3786 7.88191C12.6041 7.72135 12.8394 7.56566 13.0747 7.4197C13.31 7.27374 13.565 7.12291 13.7905 6.99155C14.016 6.86018 14.2807 6.72395 14.5258 6.60232C14.771 6.48068 15.0161 6.35418 15.2955 6.23742L15.575 6.11578L16.178 5.88224L16.7711 5.66817C18.6395 5.02502 20.603 4.69614 22.5805 4.69509H22.9531C23.2018 4.69025 23.4507 4.69999 23.6983 4.72429C23.8894 4.72429 24.0806 4.75348 24.2718 4.76807C24.5709 4.79727 24.8699 4.83619 25.1592 4.87511C25.5661 4.9335 25.9681 5.00648 26.3701 5.09405C26.6495 5.15244 26.924 5.22055 27.1986 5.28867C27.5761 5.39084 27.9437 5.50274 28.3114 5.62438C28.5614 5.71196 28.8017 5.79953 29.0517 5.89684L29.7821 6.19363L30.14 6.35418L30.4047 6.48555C30.5763 6.56826 30.7528 6.65584 30.9244 6.74828L31.1842 6.88451L27.0613 9.01554L19.2174 13.0733L14.9033 15.2773L14.7464 14.9805L13.7905 13.1365C13.7502 13.061 13.6889 12.9986 13.614 12.9565C13.54 12.9132 13.4546 12.8929 13.3689 12.8981C13.2821 12.9042 13.1988 12.9346 13.1287 12.9857C13.0609 13.0364 13.0098 13.1058 12.9816 13.1852L11.5893 16.985L11.3344 17.671L10.8441 19.0042C10.8197 19.0626 10.8096 19.126 10.8147 19.189C10.8177 19.2513 10.8326 19.3124 10.8588 19.3691C10.8894 19.424 10.9292 19.4734 10.9765 19.515C11.025 19.5549 11.082 19.5832 11.1432 19.5977L11.854 19.7777L17.835 21.2763L17.982 21.1984L17.0898 19.4858C17.0363 19.382 17.0258 19.2615 17.0604 19.1501C17.0773 19.0951 17.105 19.0439 17.1421 18.9996C17.1791 18.9554 17.2247 18.9188 17.2761 18.8922L22.0608 16.3671L24.8699 14.9075L34.9199 9.62371L38.783 7.60459C38.8422 7.57171 38.894 7.52698 38.9349 7.47322C38.9744 7.41854 38.9997 7.35503 39.0085 7.28834C39.0233 7.22265 39.0233 7.15454 39.0085 7.08886C38.9888 7.02456 38.9534 6.96607 38.9055 6.91857C36.5368 4.46015 33.6346 2.56992 30.4195 1.39151L29.9292 1.22122C27.567 0.410536 25.0848 -0.00223044 22.5854 9.06411e-06C21.8451 9.06411e-06 21.1147 0.0340667 20.4038 0.102182C19.4774 0.190289 18.5572 0.334902 17.6487 0.5352C16.9819 0.686026 16.3201 0.86118 15.6877 1.07039C15.3445 1.17743 15.0014 1.2942 14.668 1.41583C14.217 1.58125 13.7758 1.76614 13.3493 1.94616C8.89703 3.94669 5.21297 7.31799 2.8434 11.5601C2.62769 11.9445 2.4267 12.3337 2.2306 12.7424C1.57361 14.0909 1.05778 15.5028 0.691243 16.9558C0.231185 18.7676 -0.000995474 20.629 3.20799e-06 22.4975V22.9354C0.027899 24.5298 0.22675 26.1167 0.593195 27.6694C0.696145 28.0927 0.803998 28.5111 0.931461 28.9295C0.922725 28.9514 0.922725 28.9757 0.931461 28.9976C1.1702 29.7911 1.45335 30.5708 1.77958 31.333C2.3402 32.6406 3.02298 33.8932 3.81898 35.0745C4.04449 35.3956 4.27 35.7167 4.51022 36.0475C4.96614 36.6363 5.45638 37.2298 5.98094 37.7893L6.08389 37.9061C7.16194 39.0536 8.35812 40.0858 9.65285 40.9859C9.94699 41.1951 10.2656 41.3995 10.5843 41.5941C14.1732 43.835 18.3306 45.0162 22.5707 44.9998C23.2031 44.9998 23.8306 44.9998 24.4483 44.922C28.0386 44.6295 31.5048 43.4812 34.5522 41.5746C35.0015 41.3019 35.4352 41.0047 35.8513 40.6842C40.1346 37.5772 43.1885 33.0817 44.4845 27.9759C44.7063 27.0905 44.8701 26.1918 44.9747 25.2853C45.0875 24.4286 45.1464 23.5658 45.1512 22.7018V22.4975C45.1589 20.9053 44.9962 19.3167 44.6659 17.7586V17.7586Z" fill="#8F8F8F"/>
<path d="M46.9848 9.24422C47.0463 9.26055 47.1033 9.29049 47.1515 9.3318C47.2011 9.36926 47.2413 9.41754 47.2691 9.47289C47.297 9.5292 47.3137 9.59033 47.3181 9.65291C47.3189 9.71617 47.3073 9.77897 47.2838 9.83779L45.1905 15.2724C45.1604 15.3508 45.1075 15.4185 45.0385 15.467C44.9711 15.5156 44.8912 15.5443 44.8081 15.5497C44.7235 15.5541 44.6393 15.5345 44.5655 15.4931C44.4917 15.4518 44.4313 15.3904 44.3914 15.3162L43.9012 14.4015C43.8469 14.2992 43.7541 14.2224 43.643 14.1878C43.5318 14.1531 43.4114 14.1635 43.308 14.2166L43.0727 14.3431L42.4795 14.6399L38.8615 16.5423L38.1212 16.9315L25.777 23.4219C25.6859 23.467 25.5819 23.479 25.4828 23.456L25.1838 23.383C25.1192 23.3697 25.0587 23.3413 25.0073 23.3003C24.9563 23.261 24.9145 23.2112 24.8847 23.1543L23.4777 20.3032C23.4496 20.2522 23.4329 20.1958 23.4287 20.1378C23.4186 20.0815 23.4186 20.0238 23.4287 19.9675C23.4486 19.9133 23.4767 19.8625 23.512 19.8167C23.551 19.7731 23.5975 19.7369 23.6493 19.7096L36.1799 13.1365L36.9447 12.7327L40.543 10.8449L41.1362 10.5335L41.3617 10.4119C41.4131 10.386 41.4582 10.3495 41.4941 10.3049C41.5322 10.2609 41.5606 10.2096 41.5774 10.154C41.5898 10.0979 41.5898 10.0399 41.5774 9.98376C41.5732 9.92731 41.5565 9.87248 41.5284 9.8232L40.793 8.40251C40.7587 8.32797 40.7451 8.24563 40.7538 8.16411C40.7659 8.08404 40.7996 8.00872 40.8514 7.94618C40.9032 7.88363 40.9712 7.8362 41.048 7.80893C41.1262 7.78464 41.21 7.78464 41.2882 7.80893L44.7199 8.67497L46.9848 9.24422Z" fill="#8F8F8F"/>
<path d="M80.1005 33.5419H76.3158L76.0118 30.827C75.3162 31.8187 74.3738 32.6149 73.2763 33.1381C71.927 33.7802 70.4434 34.0953 68.9475 34.0576C67.3754 34.0869 65.8137 33.8002 64.3562 33.215C62.8987 32.6297 61.5755 31.7578 60.4663 30.6519C58.1426 28.3814 56.9823 25.3859 56.9856 21.6655C56.9889 17.9451 58.1818 14.9481 60.5644 12.6743C61.7142 11.5656 63.0738 10.6939 64.5648 10.1094C66.0557 9.52481 67.6486 9.23905 69.2514 9.26855C72.1929 9.26855 74.582 9.97241 76.4187 11.3801C78.2031 12.6726 79.5283 14.4937 80.2034 16.5812L75.7422 18.1576C75.3222 16.791 74.457 15.6014 73.2823 14.7754C72.1076 13.9495 70.6898 13.5339 69.2514 13.5939C67.2772 13.5744 65.3736 14.3217 63.947 15.6762C62.46 17.0613 61.7164 19.0625 61.7164 21.6801C61.7164 24.2977 62.4371 26.299 63.8784 27.684C64.5852 28.3838 65.4272 28.9347 66.3539 29.3034C67.2806 29.6721 68.2729 29.8511 69.271 29.8296C71.2549 29.8296 72.7763 29.3431 73.8352 28.37C74.7878 27.5511 75.441 26.4427 75.6932 25.2172H68.1435V21.1644H80.1054L80.1005 33.5419Z" fill="#8F8F8F"/>
<path d="M95.6215 27.7326L99.3767 28.837C98.932 30.3492 97.9918 31.671 96.7049 32.5931C95.2797 33.6069 93.5547 34.1205 91.8025 34.0527C90.6801 34.0763 89.5642 33.878 88.5198 33.4696C87.4753 33.0611 86.5231 32.4506 85.7186 31.6735C84.0518 30.0518 83.2184 27.9045 83.2184 25.2318C83.1767 24.0812 83.3727 22.9343 83.7943 21.8616C84.2158 20.7889 84.854 19.8132 85.6696 18.9944C86.4067 18.2178 87.2975 17.6009 88.2863 17.1823C89.275 16.7636 90.3403 16.5524 91.4152 16.5617C93.9792 16.5617 95.9892 17.3207 97.4305 18.8436C98.8718 20.3664 99.6267 22.4537 99.6267 25.115C99.6267 25.295 99.6267 25.4945 99.5924 25.7183V26.2535L99.5581 26.4871H87.6452C87.6583 26.9989 87.7794 27.5024 88.0006 27.965C88.2219 28.4276 88.5384 28.839 88.9297 29.1727C89.7268 29.8831 90.7656 30.2674 91.8368 30.248C93.7553 30.2318 95.0168 29.3933 95.6215 27.7326ZM87.7531 23.4121H95.1901C95.1633 22.5396 94.8001 21.7106 94.1753 21.0962C93.8129 20.7643 93.3858 20.5096 92.9203 20.3481C92.4549 20.1866 91.9609 20.1216 91.4691 20.1572C90.9843 20.1378 90.5006 20.2172 90.0478 20.3904C89.5951 20.5636 89.1828 20.827 88.8365 21.1643C88.2023 21.7509 87.8152 22.554 87.7531 23.4121Z" fill="#8F8F8F"/>
<path d="M108.691 12.1099V17.0288H112.04V20.9892H108.691V27.8981C108.669 28.1616 108.701 28.427 108.785 28.678C108.869 28.9289 109.004 29.1602 109.181 29.3577C109.599 29.6811 110.124 29.8373 110.652 29.7956C111.119 29.8118 111.585 29.766 112.04 29.6593V33.3765C111.228 33.6697 110.368 33.8051 109.505 33.7754C108.094 33.8478 106.71 33.3673 105.652 32.4374C105.167 31.9414 104.79 31.3514 104.545 30.7042C104.301 30.0571 104.193 29.3668 104.23 28.6765V20.999H101.225V17.0288H102.068C102.416 17.0541 102.766 17.0041 103.092 16.8823C103.419 16.7605 103.715 16.5698 103.96 16.3233C104.425 15.7958 104.667 15.1112 104.637 14.4112V12.1099H108.691Z" fill="#8F8F8F"/>
<path d="M131.105 33.5419H116.094V9.75995H131.105V14.1193H120.761V19.5539H130.125V23.6798H120.761V29.1825H131.105V33.5419Z" fill="#8F8F8F"/>
<path d="M139.493 21.8942C138.683 22.8403 138.272 24.0604 138.346 25.3C138.284 26.5379 138.694 27.7536 139.493 28.7057C139.867 29.1192 140.326 29.4472 140.84 29.6673C141.354 29.8874 141.909 29.9942 142.469 29.9804C143.023 29.9955 143.574 29.8891 144.083 29.6688C144.591 29.4485 145.045 29.1196 145.41 28.7057C146.229 27.7623 146.651 26.5434 146.592 25.3C146.664 24.0547 146.24 22.8311 145.41 21.8942C145.039 21.4893 144.584 21.1688 144.076 20.9547C143.569 20.7406 143.02 20.6378 142.469 20.6535C141.913 20.639 141.359 20.7421 140.846 20.956C140.333 21.1699 139.872 21.4897 139.493 21.8942V21.8942ZM150.95 39.8961H146.538V31.8974C145.682 33.2662 144.139 33.949 141.91 33.9457C140.822 33.9766 139.74 33.7754 138.737 33.3557C137.734 32.9361 136.833 32.3077 136.096 31.513C134.554 29.797 133.743 27.5537 133.836 25.2562C133.758 23.0088 134.543 20.816 136.032 19.1209C136.751 18.31 137.643 17.667 138.642 17.238C139.641 16.809 140.724 16.6047 141.812 16.6396C142.919 16.5904 144.018 16.8446 144.989 17.3743C145.691 17.7344 146.273 18.2908 146.66 18.975V17.0288H150.95V39.8961Z" fill="#8F8F8F"/>
<path d="M166.51 33.5419C166.411 32.9553 166.367 32.3608 166.378 31.766C165.933 32.514 165.257 33.1006 164.451 33.4397C163.608 33.8016 162.698 33.9855 161.779 33.9798C159.819 33.9798 158.276 33.3651 157.152 32.1358C156.012 30.8499 155.407 29.1819 155.46 27.4699V17.0288H159.956V26.5649C159.914 27.4415 160.189 28.304 160.73 28.9976C161.014 29.309 161.365 29.5527 161.758 29.7102C162.15 29.8678 162.573 29.9352 162.995 29.9075C163.419 29.9294 163.843 29.8627 164.239 29.7119C164.635 29.561 164.994 29.3293 165.295 29.0317C165.876 28.3775 166.179 27.5242 166.138 26.6525V17.0288H170.633V30.5545C170.631 31.5528 170.688 32.5504 170.805 33.5419H166.51Z" fill="#8F8F8F"/>
<path d="M174.893 11.6379C174.888 11.276 174.957 10.9167 175.096 10.5821C175.235 10.2475 175.441 9.94454 175.702 9.6918C175.952 9.42415 176.256 9.21141 176.593 9.06728C176.931 8.92315 177.296 8.85082 177.663 8.85495C178.028 8.84915 178.391 8.91784 178.728 9.05677C179.066 9.1957 179.37 9.4019 179.624 9.66261C179.888 9.91944 180.096 10.2273 180.235 10.567C180.374 10.9068 180.442 11.2713 180.433 11.6379C180.437 11.9946 180.367 12.3482 180.228 12.6771C180.089 13.0059 179.883 13.303 179.624 13.55C179.367 13.806 179.061 14.0091 178.725 14.1477C178.388 14.2862 178.028 14.3575 177.663 14.3575C177.299 14.3575 176.938 14.2862 176.602 14.1477C176.265 14.0091 175.96 13.806 175.702 13.55C175.443 13.303 175.238 13.0059 175.098 12.6771C174.959 12.3482 174.89 11.9946 174.893 11.6379V11.6379ZM179.928 33.5321H175.433V17.0288H179.918L179.928 33.5321Z" fill="#8F8F8F"/>
<path d="M190.282 12.1099V17.0288H193.645V20.9892H190.302V27.8981C190.279 28.1616 190.311 28.427 190.395 28.678C190.48 28.9289 190.615 29.1602 190.792 29.3577C191.21 29.6811 191.734 29.8373 192.263 29.7956C192.727 29.8183 193.192 29.779 193.645 29.6788V33.3765C192.834 33.67 191.973 33.8055 191.111 33.7754C189.699 33.8478 188.315 33.3673 187.257 32.4374C186.767 31.9438 186.384 31.355 186.134 30.7078C185.883 30.0606 185.77 29.3691 185.801 28.6765V20.999H182.811V17.0288H183.659C184.007 17.0541 184.356 17.0041 184.683 16.8823C185.01 16.7605 185.306 16.5698 185.551 16.3233C186.016 15.7958 186.258 15.1112 186.228 14.4112V12.1099H190.282Z" fill="#8F8F8F"/>
<path d="M203.553 40.0469H198.788L202.71 31.4643L195.645 17.0385H200.68L205.107 26.7011L209.2 17.0385H214L203.553 40.0469Z" fill="#8F8F8F"/>
</svg>
