<svg width="204" height="33" viewBox="0 0 204 33" fill="none" xmlns="http://www.w3.org/2000/svg">
<path d="M20.3373 12.9344C21.9546 14.5691 22.7635 17.0348 22.7639 20.3315V33H15.2679V21.5976C15.2679 18.5739 14.0974 17.062 11.7564 17.062C10.4686 17.062 9.43631 17.4981 8.65963 18.3704C7.88295 19.2427 7.49511 20.5511 7.4961 22.2956V33H0V2.67566H7.4961V12.8936C8.32547 12.0939 9.30613 11.4814 10.376 11.0949C11.5164 10.679 12.7177 10.4707 13.9267 10.4792C16.5832 10.4812 18.7201 11.2996 20.3373 12.9344Z" fill="#A3A3A3"/>
<path d="M28.4704 6.87454C27.5845 6.10671 27.1416 5.15303 27.1416 4.01351C27.1416 2.87399 27.5845 1.92032 28.4704 1.15249C29.3563 0.384164 30.5184 0 31.9567 0C33.3949 0 34.5573 0.364207 35.4437 1.09262C36.3296 1.82153 36.7725 2.7555 36.7725 3.89452C36.7725 5.08693 36.3296 6.07353 35.4437 6.85433C34.5578 7.63513 33.3954 8.02603 31.9567 8.02703C30.5179 8.02703 29.3558 7.64286 28.4704 6.87454Z" fill="#CCCCCC"/>
<path d="M31.9566 10.7027C33.0015 10.7027 34.0036 11.1144 34.7426 11.8473C35.4815 12.5801 35.8967 13.5741 35.8969 14.6107V33H28.0171V14.6107C28.0171 13.5742 28.4321 12.5802 29.171 11.8473C29.9098 11.1144 30.9118 10.7027 31.9566 10.7027V10.7027Z" fill="#A3A3A3"/>
<path d="M50.1744 11.4511C51.3704 10.9527 52.74 10.7032 54.2832 10.7027V17.6227C53.7329 17.5497 53.1791 17.509 52.6244 17.5008C51.055 17.5008 49.8268 17.9459 48.9399 18.836C48.053 19.7262 47.6081 21.0888 47.6052 22.924V33H40.2747V11.067H47.2579V13.6971C48.0034 12.6997 48.9755 11.951 50.1744 11.4511Z" fill="#A3A3A3"/>
<path d="M79.555 23.7624H63.7149C64.0369 24.8777 64.66 25.7338 65.5842 26.3307C66.5085 26.9276 67.6677 27.2263 69.0618 27.2268C70.1067 27.2268 71.0112 27.0808 71.7754 26.7888C72.5396 26.4969 73.3101 26.019 74.0869 25.3551L78.1074 29.4959C75.9874 31.8325 72.8917 33.0005 68.8203 33C66.2743 33 64.0364 32.5221 62.1067 31.5662C60.177 30.6104 58.6829 29.2834 57.6244 27.5852C56.5644 25.8855 56.0344 23.9608 56.0344 21.8112C56.0344 19.6881 56.5503 17.7837 57.582 16.098C58.6138 14.4123 60.041 13.0915 61.8637 12.1357C63.6858 11.1804 65.7362 10.7027 68.0147 10.7027C70.1851 10.7027 72.1552 11.1474 73.9249 12.0367C75.6675 12.9024 77.1249 14.242 78.1263 15.8985C79.1575 17.5842 79.6734 19.5816 79.6739 21.8907C79.6749 21.9447 79.6353 22.5686 79.555 23.7624ZM65.1012 17.0728C64.3107 17.7372 63.8075 18.6398 63.5915 19.7806H72.5189C72.3049 18.6398 71.8024 17.7372 71.0114 17.0728C70.2205 16.4084 69.2362 16.0762 68.0586 16.0762C66.8774 16.0762 65.8916 16.4084 65.1012 17.0728V17.0728Z" fill="#A3A3A3"/>
<path d="M91.2758 11.3028H96.5167V17.2052H91.4786V33H83.7585V17.2052H80.5493V11.3028H83.7585V10.7204C83.7585 7.97744 84.5646 5.80227 86.1766 4.19489C87.7886 2.58752 90.0436 1.78383 92.9417 1.78383C93.8967 1.78226 94.8494 1.87983 95.7851 2.07504C96.7034 2.26918 97.4617 2.56012 98.0601 2.94787L96.1471 8.51758C95.3885 8.07451 94.6167 7.85271 93.8316 7.85219C93.0189 7.85219 92.3892 8.10165 91.9423 8.60056C91.4954 9.09947 91.272 9.83375 91.272 10.8034L91.2758 11.3028Z" fill="#A3A3A3"/>
<path d="M103.155 31.5662C101.285 30.6109 99.8232 29.2839 98.7687 27.5852C97.7141 25.8865 97.1861 23.9618 97.1846 21.8112C97.1846 19.6881 97.7126 17.7769 98.7687 16.0777C99.8247 14.3785 101.28 13.058 103.135 12.1162C104.99 11.1744 107.093 10.7032 109.443 10.7027C111.793 10.7022 113.903 11.1734 115.771 12.1162C117.639 13.0565 119.094 14.3705 120.137 16.0582C121.18 17.7459 121.701 19.6636 121.7 21.8112C121.7 23.9608 121.179 25.8855 120.137 27.5852C119.096 29.2849 117.641 30.6119 115.771 31.5662C113.902 32.5226 111.793 33.0005 109.443 33C107.12 33 105.024 32.5221 103.155 31.5662ZM112.728 25.6138C113.582 24.6985 114.01 23.4309 114.01 21.8112C114.01 20.2185 113.582 18.971 112.728 18.0686C111.873 17.1663 110.778 16.7164 109.443 16.7189C108.107 16.7189 107.012 17.1688 106.159 18.0686C105.305 18.9685 104.878 20.216 104.876 21.8112C104.876 23.4309 105.304 24.6985 106.159 25.6138C107.014 26.5291 108.109 26.9871 109.445 26.9876C110.779 26.9876 111.873 26.5296 112.728 25.6138Z" fill="#A3A3A3"/>
<path d="M127.653 32.3842C125.911 31.9726 124.51 31.4348 123.451 30.7708L125.71 25.5953C126.688 26.2059 127.851 26.6904 129.199 27.0489C130.505 27.4016 131.851 27.5823 133.203 27.5867C134.417 27.5867 135.283 27.4605 135.799 27.208C136.316 26.9554 136.573 26.5904 136.572 26.1129C136.572 25.6348 136.261 25.2963 135.64 25.0973C135.019 24.8982 134.035 24.7057 132.687 24.5197C130.969 24.3077 129.509 24.0289 128.307 23.6834C127.115 23.3456 126.039 22.685 125.195 21.7737C124.323 20.8446 123.887 19.5445 123.887 17.8734C123.871 16.541 124.304 15.2423 125.116 14.189C125.934 13.1134 127.129 12.2633 128.7 11.6388C130.27 11.0142 132.153 10.7022 134.349 10.7027C135.907 10.7025 137.461 10.8626 138.986 11.1805C140.518 11.4995 141.8 11.9496 142.831 12.5306L140.572 17.6686C138.683 16.6101 136.554 16.0605 134.392 16.0732C133.202 16.0732 132.33 16.2127 131.775 16.4917C131.22 16.7708 130.943 17.1358 130.943 17.5868C130.943 18.0919 131.247 18.4437 131.854 18.6422C132.462 18.8407 133.466 19.0465 134.867 19.2595C136.638 19.525 138.104 19.8303 139.268 20.1753C140.429 20.5204 141.477 21.1739 142.3 22.067C143.159 22.9826 143.588 24.2637 143.588 25.9103C143.599 27.2297 143.166 28.5143 142.359 29.5549C141.54 30.6305 140.331 31.4736 138.732 32.0842C137.133 32.6947 135.211 33 132.965 33C131.176 33.0013 129.394 32.7946 127.653 32.3842V32.3842Z" fill="#A3A3A3"/>
<path d="M161.974 31.7244C161.324 32.1377 160.532 32.453 159.597 32.6705C158.618 32.8949 157.617 33.0053 156.613 32.9998C153.742 32.9998 151.534 32.2867 149.99 30.8604C148.445 29.4342 147.673 27.3082 147.673 24.4826V16.9952H144.464V11.1527H147.673V5.35138H155.394V11.1527H160.429V16.9952H155.39V24.4005C155.39 25.1965 155.6 25.8205 156.02 26.2725C156.44 26.7245 157.001 26.951 157.703 26.9521C158.597 26.9521 159.383 26.7196 160.06 26.2547L161.974 31.7244Z" fill="#A3A3A3"/>
<path d="M186.371 23.7624H170.531C170.854 24.8777 171.477 25.7338 172.401 26.3307C173.325 26.9276 174.485 27.2263 175.879 27.2268C176.925 27.2268 177.83 27.0808 178.593 26.7888C179.357 26.4969 180.127 26.019 180.905 25.3551L184.926 29.4959C182.806 31.8325 179.71 33.0005 175.638 33C173.091 33 170.853 32.5221 168.923 31.5662C166.994 30.6104 165.499 29.2834 164.44 27.5852C163.38 25.8855 162.85 23.9608 162.85 21.8112C162.85 19.6881 163.366 17.7837 164.398 16.098C165.43 14.4123 166.857 13.0915 168.68 12.1357C170.502 11.1804 172.553 10.7027 174.833 10.7027C177.003 10.7027 178.972 11.1474 180.739 12.0367C182.482 12.9022 183.94 14.2418 184.941 15.8985C185.973 17.5842 186.489 19.5816 186.489 21.8907C186.493 21.9447 186.453 22.5686 186.371 23.7624ZM171.916 17.0728C171.124 17.7372 170.622 18.6398 170.408 19.7806H179.334C179.12 18.6398 178.617 17.7372 177.826 17.0728C177.035 16.4084 176.051 16.0767 174.873 16.0777C173.694 16.0767 172.709 16.4084 171.919 17.0728H171.916Z" fill="#A3A3A3"/>
<path d="M199.89 11.4511C201.086 10.9527 202.456 10.7032 204 10.7027V17.6227C203.45 17.5497 202.896 17.509 202.341 17.5008C200.771 17.5008 199.542 17.9459 198.655 18.836C197.768 19.7262 197.324 21.0888 197.324 22.924V33H189.991V11.067H196.976V13.6971C197.722 12.6997 198.693 11.951 199.89 11.4511Z" fill="#A3A3A3"/>
</svg>
