<svg width="43" height="43" viewBox="0 0 43 43" fill="none" xmlns="http://www.w3.org/2000/svg">
<path d="M21.5074 31.3742C22.3606 30.4762 23.2258 29.6112 24.0426 28.6967C26.4322 26.0457 28.6047 23.247 30.2867 20.0715C33.5074 13.9882 29.169 7.01685 23.2853 5.94807C17.7158 4.93547 12.2631 8.97703 11.6756 14.6229C11.6315 15.0416 11.5929 15.4625 11.5786 15.8834C11.551 16.6657 11.0451 17.2298 10.3452 17.2298C9.6078 17.2298 9.07873 16.6536 9.09306 15.8536C9.14707 12.9337 10.0222 10.2893 11.8685 8.01843C14.7078 4.52559 18.4091 2.93343 22.8907 3.39069C28.3655 3.94932 32.8593 8.4206 33.7433 13.9243C34.2106 16.8354 33.4401 19.4412 32.0899 21.9512C30.2095 25.4386 27.7042 28.4521 25.0004 31.3169C24.1936 32.1708 23.3548 32.9939 22.5072 33.807C21.7962 34.488 21.2253 34.4803 20.4857 33.8125C16.7447 30.4365 13.384 26.7453 10.9701 22.2763C10.7607 21.8895 10.5656 21.4929 10.3926 21.0896C10.0994 20.4064 10.3639 19.7189 11.0076 19.4291C11.1533 19.3591 11.3116 19.3193 11.473 19.312C11.6345 19.3047 11.7957 19.33 11.9471 19.3865C12.0985 19.443 12.237 19.5294 12.3542 19.6407C12.4713 19.752 12.5648 19.8858 12.629 20.034C14.6483 24.3312 17.7555 27.7855 21.1272 31.037C21.2341 31.1384 21.3465 31.2298 21.5074 31.3742Z" fill="#D5569A" stroke="#D5569A" stroke-width="0.5"/>
<path d="M7.5328 37.1838H35.461C34.8306 36.0742 34.2276 35.0131 33.6236 33.9532C32.9689 32.8072 32.3009 31.6657 31.6583 30.5143C31.2384 29.7651 31.4192 29.0191 32.0772 28.6665C32.7352 28.3139 33.3999 28.5563 33.8253 29.3045C35.4309 32.1046 37.0321 34.9074 38.6288 37.7126C39.1976 38.7164 38.6288 39.6816 37.4781 39.6827C26.8615 39.6871 16.2452 39.6871 5.62926 39.6827C4.32202 39.6827 3.77752 38.7351 4.41681 37.6146C5.99226 34.86 7.56771 32.1054 9.14316 29.3508C9.51681 28.6985 10.0095 28.4131 10.554 28.5343C11.4501 28.7337 11.8326 29.6251 11.3597 30.4647C10.414 32.1417 9.45178 33.8099 8.49394 35.4814C8.18973 36.0191 7.88992 36.5634 7.5328 37.1838Z" fill="#D5569A"/>
<path fill-rule="evenodd" clip-rule="evenodd" d="M9.53166 29.5735C9.53164 29.5735 9.53168 29.5734 9.53166 29.5735L4.8057 37.8366C4.53664 38.3084 4.56638 38.6485 4.67995 38.8434C4.79357 39.0385 5.07605 39.2349 5.6291 39.2349C16.2448 39.2393 26.8611 39.2393 37.4775 39.2349C37.9261 39.2344 38.192 39.0515 38.3116 38.8473C38.4308 38.6439 38.4603 38.3246 38.2394 37.9343C36.6429 35.1294 35.0419 32.3271 33.4366 29.5273C33.2615 29.2195 33.0617 29.0581 32.8848 28.9936C32.7166 28.9322 32.5185 28.9382 32.2886 29.0614C32.0663 29.1805 31.9439 29.3518 31.8998 29.5426C31.8544 29.7389 31.8829 29.9991 32.0489 30.2954C32.4738 31.0566 32.9088 31.812 33.3452 32.5695C33.5675 32.9555 33.7903 33.3423 34.0124 33.731C34.6135 34.7859 35.2138 35.8424 35.8408 36.9458L36.2306 37.6317H6.75794L7.14445 36.9603C7.37356 36.5624 7.57736 36.1987 7.77546 35.8452C7.88559 35.6487 7.99396 35.4553 8.10393 35.2609L8.10515 35.2588C8.32199 34.8804 8.53893 34.5023 8.75578 34.1245C9.49767 32.8318 10.2384 31.5411 10.9694 30.2448C11.1457 29.9315 11.146 29.6441 11.0573 29.4333C10.9692 29.2243 10.7739 29.0422 10.4565 28.9716C10.2944 28.9355 10.1498 28.9585 10.0087 29.0402C9.85874 29.127 9.69223 29.2932 9.53166 29.5735ZM10.6511 28.0971C10.2688 28.012 9.89474 28.0711 9.55996 28.2649C9.2341 28.4535 8.96739 28.7562 8.75433 29.1282L4.02783 37.3922C3.65786 38.0407 3.58026 38.7354 3.9059 39.2944C4.23151 39.8533 4.8749 40.1307 5.6291 40.1307C16.2451 40.1351 26.8614 40.1351 37.4781 40.1307C38.1802 40.13 38.7743 39.8297 39.0846 39.3001C39.3952 38.7699 39.3657 38.1049 39.0184 37.4919C37.4215 34.6865 35.8199 31.8828 34.2142 29.0826C33.9638 28.6425 33.6179 28.3075 33.1918 28.152C32.7568 27.9933 32.2936 28.0424 31.8655 28.2718C31.4297 28.5053 31.1327 28.8832 31.027 29.3408C30.9225 29.7928 31.0135 30.2798 31.2671 30.7326C31.6947 31.499 32.1349 32.2632 32.5732 33.0242C32.7947 33.4086 33.0156 33.7923 33.2343 34.175C33.7157 35.0198 34.1965 35.8654 34.6912 36.7359H8.30276C8.39109 36.5791 8.47684 36.4261 8.56101 36.2759C8.67028 36.0809 8.7769 35.8907 8.88305 35.703C9.09903 35.3261 9.31534 34.9492 9.53172 34.5722C10.2739 33.2789 11.0169 31.9843 11.7497 30.6848C12.0461 30.1585 12.0912 29.5803 11.8829 29.0857C11.6739 28.5893 11.2299 28.2259 10.6511 28.0971Z" fill="#D5569A"/>
<path d="M26.4568 15.7622C26.4436 18.4761 24.1774 20.6786 21.4185 20.6577C18.6993 20.6379 16.5158 18.3791 16.5368 15.608C16.5577 12.914 18.8051 10.729 21.5453 10.7411C24.2854 10.7533 26.47 12.9988 26.4568 15.7622ZM21.4858 13.228C21.1597 13.228 20.8368 13.2926 20.5359 13.4182C20.235 13.5438 19.9621 13.7279 19.7328 13.9597C19.5036 14.1915 19.3227 14.4665 19.2005 14.7687C19.0783 15.071 19.0174 15.3944 19.0212 15.7204C19.0355 17.0944 20.1344 18.1676 21.5343 18.1731C22.8569 18.1797 23.9856 17.0293 23.968 15.7049C23.9681 15.3792 23.904 15.0567 23.7792 14.7559C23.6545 14.455 23.4716 14.1817 23.241 13.9516C23.0104 13.7215 22.7367 13.5391 22.4355 13.415C22.1343 13.2908 21.8116 13.2273 21.4858 13.228Z" fill="#D5569A" stroke="#D5569A" stroke-width="0.5"/>
</svg>
