<svg width="43" height="43" viewBox="0 0 43 43" fill="none" xmlns="http://www.w3.org/2000/svg">
<path fill-rule="evenodd" clip-rule="evenodd" d="M7.1665 8.95833C6.18518 8.95833 5.37484 9.76868 5.37484 10.75V32.25C5.37484 33.2313 6.18518 34.0417 7.1665 34.0417H35.8332C36.8145 34.0417 37.6248 33.2313 37.6248 32.25V10.75C37.6248 9.76868 36.8145 8.95833 35.8332 8.95833H7.1665ZM1.7915 10.75C1.7915 7.78966 4.20616 5.375 7.1665 5.375H35.8332C38.7935 5.375 41.2082 7.78966 41.2082 10.75V32.25C41.2082 35.2103 38.7935 37.625 35.8332 37.625H7.1665C4.20616 37.625 1.7915 35.2103 1.7915 32.25V10.75Z" fill="#D5569A"/>
<path fill-rule="evenodd" clip-rule="evenodd" d="M2.11553 9.7225C2.68298 8.91186 3.80014 8.71471 4.61078 9.28216L21.5 21.1046L38.3892 9.28216C39.1998 8.71471 40.317 8.91186 40.8844 9.7225C41.4519 10.5331 41.2547 11.6503 40.4441 12.2177L22.5274 24.7594C21.9105 25.1912 21.0894 25.1912 20.4725 24.7594L2.55587 12.2177C1.74523 11.6503 1.54809 10.5331 2.11553 9.7225Z" fill="#D5569A"/>
</svg>
