<svg width="192" height="51" viewBox="0 0 192 51" fill="none" xmlns="http://www.w3.org/2000/svg">
<g clip-path="url(#clip0_469_2549)">
<path d="M65.5274 21.4701C65.58 22.9102 65.2318 24.3366 64.5218 25.5906C63.8117 26.8446 62.7675 27.8769 61.5055 28.5727C60.1657 29.3646 58.6378 29.7823 57.0815 29.7823C55.5251 29.7823 53.9973 29.3646 52.6574 28.5727C50.8074 27.6477 49.5284 26.0389 48.1931 24.4301C45.7076 21.4942 43.1175 18.6467 40.5837 15.751C40.077 15.1718 39.707 15.1798 39.0796 15.6624C35.661 18.2686 33.2559 21.6872 31.0358 25.2667C29.0329 28.4842 27.0863 31.7017 24.9547 34.8468C23.2719 37.4724 20.7033 39.4074 17.7153 40.3005C10.2588 42.4562 1.38651 37.5656 0.212119 28.9346C-0.310725 25.0978 0.839538 21.6953 2.88265 18.5663C7.79457 10.6865 15.3463 4.8081 24.1906 1.98004C28.9306 0.468844 33.9613 0.102211 38.8704 0.910207C42.509 1.38542 46.0652 2.357 49.4399 3.79789C52.8622 5.41106 56.0498 7.48112 58.9155 9.95138C60.8498 11.5362 62.4985 13.4406 63.79 15.582C64.9128 17.3416 65.5151 19.3828 65.5274 21.4701Z" fill="#A3A3A3"/>
<path d="M49.1424 41.2014C49.1424 42.5125 49.1424 43.8237 49.1424 45.1428C49.1689 45.2706 49.1639 45.4028 49.1279 45.5282C49.0919 45.6536 49.0259 45.7684 48.9357 45.8626C48.8454 45.9568 48.7336 46.0276 48.6099 46.069C48.4861 46.1104 48.3542 46.121 48.2254 46.1C47.8072 46.1 47.4211 46.1 46.9706 46.1C46.7535 46.1268 46.5333 46.109 46.3233 46.0477C46.1134 45.9864 45.9181 45.883 45.7495 45.7438C45.5808 45.6045 45.4423 45.4323 45.3425 45.2377C45.2427 45.0431 45.1836 44.8302 45.1688 44.612C45.0947 44.1707 45.0571 43.7241 45.0562 43.2767C45.0562 41.5794 45.0562 39.8822 45.0562 38.185C45.0809 38.0152 45.0661 37.842 45.0131 37.6788C44.96 37.5156 44.8702 37.3668 44.7504 37.2439C44.6306 37.121 44.4842 37.0273 44.3224 36.9702C44.1606 36.913 43.9878 36.8938 43.8175 36.9141C43.0131 36.9141 42.7316 37.3887 42.7396 38.177C42.7396 40.3568 42.7396 42.5367 42.7396 44.7085C42.7396 45.9231 42.5787 46.0679 41.3319 46.1H40.6563C39.2084 46.1 38.6614 45.5611 38.6453 44.1374C38.6453 42.3758 38.6453 40.6061 38.6453 38.8446C38.6659 38.5263 38.6415 38.2068 38.5729 37.8954C38.505 37.5754 38.3148 37.2946 38.0428 37.1128C37.7709 36.931 37.4387 36.8626 37.117 36.9221C36.3931 36.9945 36.192 37.453 36.2 38.1287C36.2 40.3407 36.2 42.5528 36.2 44.7648C36.2 45.9633 36.0874 46.0759 34.8728 46.1H34.0041C32.8377 46.0598 32.3953 45.6818 32.1781 44.5396C32.1351 44.2872 32.1162 44.0313 32.1218 43.7754C32.1218 41.5312 32.1218 39.295 32.1218 37.0508C32.0862 36.5509 32.1955 36.0513 32.4366 35.6118C32.6777 35.1724 33.0404 34.8118 33.4812 34.5733C35.6933 33.3024 37.9616 32.9002 40.3747 34.0827C40.7928 34.2509 41.2597 34.2509 41.6778 34.0827C43.0969 33.3586 44.7442 33.2228 46.2628 33.7046C47.0956 33.9166 47.8325 34.4038 48.3537 35.0871C48.875 35.7704 49.1501 36.6098 49.1344 37.4691C49.1987 38.6998 49.1424 39.9465 49.1424 41.2014Z" fill="#A3A3A3"/>
<path d="M129.54 45.1911C128.687 45.2474 127.931 45.352 127.127 45.3439C126.104 45.3794 125.1 45.0714 124.273 44.4693C123.447 43.8672 122.846 43.0055 122.566 42.0219C121.713 39.472 122.043 35.7317 124.705 34.2999C125.824 33.6471 127.102 33.3173 128.397 33.3471C129.692 33.377 130.954 33.7652 132.041 34.4688C132.506 34.7272 132.887 35.1126 133.141 35.5798C133.394 36.047 133.51 36.5768 133.473 37.1071C133.409 39.5766 133.377 42.046 133.473 44.5074C133.642 48.9878 130.698 50.6287 126.901 50.492C126.075 50.4376 125.261 50.2586 124.488 49.961C124.195 49.8682 123.925 49.7158 123.694 49.5134C123.463 49.3111 123.276 49.0631 123.145 48.7852C123.015 48.5072 122.943 48.2052 122.935 47.8982C122.926 47.5911 122.981 47.2857 123.097 47.001C123.322 46.3172 123.652 45.9633 124.448 46.3494C125.026 46.6704 125.662 46.8734 126.32 46.9466C126.977 47.0197 127.642 46.9617 128.277 46.7758C128.637 46.6965 128.959 46.4957 129.189 46.2072C129.419 45.9187 129.543 45.56 129.54 45.1911ZM129.54 39.4398C129.54 39.0939 129.54 38.74 129.54 38.3941C129.54 37.8874 129.773 37.2439 129.033 37.0106C128.671 36.872 128.275 36.847 127.899 36.939C127.522 37.031 127.183 37.2356 126.925 37.5254C126.529 38.0855 126.311 38.752 126.3 39.4379C126.288 40.1239 126.484 40.7973 126.861 41.3703C127.099 41.6553 127.42 41.8583 127.78 41.9507C128.139 42.0431 128.518 42.0202 128.864 41.8851C129.604 41.6599 129.556 41.0807 129.548 40.4935L129.54 39.4398Z" fill="#A3A3A3"/>
<path d="M56.8 41.4186C57.2746 39.4076 57.7572 37.3967 58.1996 35.3777C58.5374 33.8413 59.004 33.4713 60.5484 33.5598C61.6825 33.6322 62.3582 34.2033 62.2295 35.3375C62.0455 36.9213 61.7307 38.4871 61.2884 40.019C60.5037 43.0791 59.174 45.9729 57.363 48.5614C56.8094 49.2488 56.1047 49.7993 55.3038 50.1702C54.8448 50.3809 54.3277 50.4288 53.8378 50.3059C53.3479 50.1831 52.9145 49.8968 52.6092 49.4945C51.9013 48.6097 51.9415 48.0788 52.762 47.3066C52.9551 47.1296 53.1481 46.9607 53.317 46.7757C53.7031 46.3414 54.2984 45.9713 54.3788 45.4485C54.4592 44.9256 53.8077 44.5717 53.6227 44.073C52.8022 41.8958 51.9979 39.7026 51.2096 37.4932C50.9683 36.8014 50.8637 36.0614 50.6706 35.3536C50.5671 35.0634 50.5826 34.744 50.7137 34.4652C50.8448 34.1864 51.0809 33.9708 51.3705 33.8655C51.6864 33.6659 52.0464 33.547 52.419 33.519C52.7916 33.491 53.1654 33.5548 53.5076 33.7049C53.8498 33.8549 54.15 34.0866 54.3818 34.3797C54.6136 34.6727 54.77 35.0182 54.8373 35.3857C55.3119 37.083 55.7382 38.7882 56.1887 40.4935C56.2691 40.7992 56.3656 41.0968 56.4541 41.4025L56.8 41.4186Z" fill="#A3A3A3"/>
<path d="M80.5131 46.3253C76.7969 46.3253 74.3838 43.7915 74.4079 39.8903C74.432 35.9891 76.9577 33.3507 80.505 33.3668C84.2132 33.3668 86.6022 35.965 86.5942 39.9547C86.5861 43.9444 84.3339 46.3253 80.5131 46.3253ZM78.5263 39.8903C78.673 40.6213 78.8857 41.3374 79.1617 42.03C79.2986 42.2617 79.4914 42.4553 79.7225 42.5931C79.9537 42.731 80.2156 42.8087 80.4846 42.8191C80.7535 42.8295 81.0207 42.7723 81.2618 42.6527C81.5028 42.5331 81.71 42.355 81.8644 42.1345C82.2476 41.4676 82.4493 40.7118 82.4493 39.9426C82.4493 39.1734 82.2476 38.4177 81.8644 37.7507C81.7233 37.4951 81.5134 37.2843 81.2584 37.1421C81.0035 36.9999 80.7138 36.9321 80.4222 36.9463C80.1306 36.9606 79.8489 37.0563 79.609 37.2227C79.3691 37.389 79.1807 37.6193 79.0652 37.8874C78.8259 38.5348 78.6455 39.2025 78.5263 39.8823V39.8903Z" fill="#A3A3A3"/>
<path d="M139.626 41.6841C140.431 42.9309 141.702 43.2928 143.463 42.8906C143.873 42.8038 144.27 42.6659 144.646 42.4804C145.297 42.1426 145.675 42.408 145.981 42.955C146.125 43.2071 146.213 43.487 146.239 43.776C146.265 44.0649 146.229 44.3561 146.133 44.6299C146.036 44.9036 145.883 45.1535 145.682 45.3628C145.481 45.572 145.237 45.7357 144.968 45.8427C143.989 46.3486 142.9 46.6002 141.798 46.5744C140.697 46.5485 139.621 46.246 138.667 45.6948C137.714 45.1436 136.914 44.3613 136.343 43.42C135.771 42.4788 135.445 41.4088 135.395 40.3086C135.299 38.37 135.589 36.5119 137.061 35.0721C137.837 34.2632 138.838 33.7047 139.934 33.4682C141.031 33.2318 142.173 33.3281 143.214 33.7449C144.224 34.0516 145.107 34.676 145.733 35.5253C146.359 36.3746 146.695 37.4034 146.689 38.4585C146.769 39.7616 146.295 40.4695 145.008 40.7188C143.455 41.0084 141.903 41.2417 140.35 41.5232C140.133 41.5393 139.924 41.6117 139.626 41.6841ZM142.756 37.9277C142.112 36.7694 141.428 36.4717 140.495 36.8256C140.125 36.9175 139.805 37.1487 139.601 37.4708C139.397 37.793 139.326 38.1814 139.401 38.555L142.756 37.9277Z" fill="#A3A3A3"/>
<path d="M104.484 41.6599C104.624 42.0502 104.887 42.3845 105.234 42.6122C105.581 42.84 105.992 42.949 106.406 42.9227C107.424 42.915 108.435 42.755 109.406 42.4482C109.538 42.3743 109.685 42.3309 109.836 42.3212C109.987 42.3114 110.138 42.3356 110.279 42.3919C110.419 42.4482 110.545 42.5352 110.647 42.6466C110.75 42.7579 110.826 42.8908 110.87 43.0354C111.111 43.4937 111.161 44.0282 111.01 44.5234C110.86 45.0186 110.521 45.4346 110.066 45.6817C109.101 46.24 108.008 46.5409 106.893 46.5554C105.778 46.5699 104.678 46.2976 103.698 45.7646C102.718 45.2316 101.892 44.4558 101.299 43.5116C100.705 42.5675 100.364 41.4867 100.309 40.3729C100.258 39.2577 100.399 38.142 100.727 37.0749C101.048 36.0147 101.701 35.0857 102.591 34.4252C103.48 33.7648 104.558 33.4078 105.666 33.407C107.854 33.2863 109.809 33.9861 110.854 36.0373C111.283 37.0554 111.499 38.1502 111.49 39.2548C111.538 40.204 110.685 40.582 109.881 40.7268C108.272 41.0003 106.663 41.2416 105.119 41.5312C104.886 41.5312 104.701 41.5955 104.484 41.6599ZM107.54 37.9839C107.082 36.8738 106.511 36.5601 105.594 36.7451C105.39 36.7732 105.194 36.8424 105.017 36.9485C104.841 37.0546 104.688 37.1954 104.568 37.3623C104.447 37.5293 104.362 37.7189 104.317 37.9198C104.272 38.1207 104.269 38.3286 104.307 38.5309L107.54 37.9839Z" fill="#A3A3A3"/>
<path d="M159.72 41.5393C159.72 42.7298 159.72 43.9524 159.72 45.0946C159.72 45.7784 159.43 46.1082 158.747 46.1162H157.588C156.132 46.1162 155.626 45.5933 155.618 44.1374C155.618 42.2793 155.618 40.4212 155.618 38.5631C155.618 37.1876 154.757 36.6326 153.43 37.0187C152.77 37.2118 152.625 37.63 152.625 38.2413C152.625 40.4534 152.625 42.6573 152.625 44.8694C152.625 45.7944 152.279 46.1645 151.387 46.1162C151.033 46.1162 150.679 46.1162 150.325 46.1162C150.115 46.1384 149.903 46.1173 149.702 46.0541C149.501 45.9909 149.315 45.8871 149.156 45.749C148.997 45.611 148.868 45.4417 148.777 45.2516C148.686 45.0615 148.635 44.8548 148.628 44.6442C148.523 43.6307 148.523 42.6011 148.507 41.5795C148.507 40.1075 148.507 38.6355 148.507 37.1635C148.468 36.5491 148.626 35.9382 148.957 35.4191C149.288 34.9 149.775 34.4997 150.349 34.2758C152.149 33.3766 154.211 33.1484 156.165 33.6323C157.201 33.8409 158.128 34.4142 158.777 35.2481C159.427 36.0821 159.755 37.1213 159.704 38.177C159.752 39.3031 159.72 40.4212 159.72 41.5393Z" fill="#A3A3A3"/>
<path d="M179.829 39.5686C179.829 40.759 179.829 41.9414 179.829 43.1239C179.875 43.5776 179.784 44.0347 179.567 44.436C179.351 44.8374 179.019 45.1648 178.615 45.3761C177.474 46.0146 176.196 46.3711 174.89 46.4159C173.583 46.4606 172.284 46.1924 171.102 45.6335C170.378 45.2978 169.771 44.7545 169.357 44.0727C168.943 43.3909 168.741 42.6015 168.777 41.8047C168.705 39.472 168.777 37.1313 168.777 34.7906C168.777 34.0747 169.123 33.8092 169.759 33.769C170.08 33.769 170.402 33.769 170.724 33.769C172.204 33.769 172.839 34.3803 172.872 35.8684C172.872 37.6622 172.872 39.464 172.872 41.2577C172.872 42.1425 173.226 42.7297 174.191 42.8182C175.478 42.9469 175.719 42.7378 175.719 41.4347C175.719 39.3192 175.759 37.2037 175.719 35.0882C175.719 34.1149 176.113 33.7449 177.022 33.769H177.827C179.242 33.769 179.862 34.4045 179.878 35.8443C179.846 37.0669 179.829 38.3218 179.829 39.5686Z" fill="#A3A3A3"/>
<path d="M187.214 33.2783C188.107 33.4515 188.991 33.6744 189.86 33.946C190.28 34.0789 190.643 34.3498 190.89 34.7148C191.136 35.0799 191.253 35.5176 191.219 35.9569C191.219 37.1635 190.696 37.4691 189.538 37.2037C188.605 37.0177 187.658 36.9154 186.707 36.898C186.506 36.898 186.288 37.2117 186.079 37.3726C186.264 37.5737 186.417 37.8633 186.65 37.9437C187.455 38.2413 188.324 38.4102 189.128 38.7481C191.034 39.4881 191.919 40.8314 191.782 42.6413C191.709 43.5272 191.343 44.3637 190.744 45.02C190.144 45.6764 189.344 46.1156 188.468 46.269C186.959 46.6253 185.382 46.5725 183.9 46.1162C182.339 45.6255 181.631 44.3224 182.146 43.0112C182.428 42.3034 182.781 42.0782 183.618 42.4C184.612 42.7322 185.645 42.9323 186.691 42.9952C186.98 42.9952 187.31 42.593 187.616 42.3758C187.383 42.1179 187.112 41.8981 186.811 41.7243C186.055 41.4508 185.243 41.3462 184.503 41.0566C183.74 40.8302 183.075 40.3562 182.611 39.7094C182.148 39.0627 181.914 38.2801 181.945 37.4852C181.938 36.6562 182.207 35.8484 182.709 35.1889C183.212 34.5293 183.919 34.0553 184.72 33.8414C185.541 33.6109 186.373 33.4229 187.214 33.2783V33.2783Z" fill="#A3A3A3"/>
<path d="M93.5519 41.8851C94.0346 39.6087 94.5252 37.3323 94.9837 35.0479C95.225 33.8977 96.1018 33.3668 97.5175 33.5759C97.7789 33.5816 98.0353 33.6486 98.2662 33.7713C98.4971 33.8941 98.696 34.0693 98.847 34.2828C98.9979 34.4963 99.0967 34.7422 99.1354 35.0008C99.1742 35.2594 99.1517 35.5235 99.0699 35.7718C98.5551 37.8471 97.9277 39.9064 97.3003 41.9495C97.0188 42.8665 96.5844 43.7352 96.2868 44.6522C96.1543 45.0867 95.8953 45.4718 95.5428 45.7583C95.1903 46.0449 94.7605 46.2199 94.3081 46.2609C92.1925 46.6551 90.994 46.0196 90.2862 43.9684C89.3611 41.137 88.5326 38.2735 87.6237 35.4421C87.3261 34.5009 87.7363 34.0586 88.5326 33.7529C88.8473 33.5901 89.1963 33.5051 89.5506 33.5048C89.9048 33.5045 90.254 33.5889 90.569 33.7511C90.8839 33.9133 91.1555 34.1485 91.361 34.4371C91.5664 34.7257 91.6999 35.0592 91.7501 35.4099C92.2086 37.2761 92.6349 39.1502 93.0773 41.0405C93.1497 41.3381 93.2463 41.6277 93.3267 41.9253L93.5519 41.8851Z" fill="#A3A3A3"/>
<path d="M69.855 46.4942C66.5651 46.3172 64.2244 44.5154 63.5889 41.5151C62.8811 38.2493 64.1761 35.1445 66.8064 33.9942C67.5577 33.6169 68.3799 33.4018 69.2197 33.363C70.0595 33.3242 70.8981 33.4625 71.681 33.769C72.2087 33.9425 72.6474 34.3159 72.903 34.8091C73.1587 35.3023 73.2109 35.8761 73.0484 36.4073C72.8232 37.2761 72.437 37.5093 71.5844 37.2117C71.0451 36.9479 70.4344 36.8671 69.845 36.9818C69.2556 37.0965 68.7197 37.4003 68.3186 37.8472C67.9145 38.389 67.6739 39.0353 67.6255 39.7095C67.577 40.3838 67.7227 41.0578 68.0452 41.6518C68.3885 42.1593 68.8919 42.5372 69.4751 42.7253C70.0582 42.9134 70.6875 42.9008 71.2627 42.6895C72.0268 42.4563 72.6703 42.1908 73.0967 43.1561C73.3309 43.6027 73.3873 44.1214 73.2545 44.608C73.1216 45.0945 72.8095 45.5127 72.3808 45.7783C71.5604 46.0873 70.7155 46.3268 69.855 46.4942V46.4942Z" fill="#A3A3A3"/>
<path d="M113.396 40.4292C113.396 39.2387 113.396 38.0562 113.396 36.8738C113.343 36.4031 113.443 35.928 113.68 35.5182C113.918 35.1084 114.28 34.7857 114.715 34.5975C116.092 34.013 117.543 33.6206 119.026 33.4311C120.732 33.2783 121.56 34.3561 121.343 35.9488C121.339 36.2055 121.233 36.4502 121.05 36.6295C120.866 36.8087 120.618 36.9082 120.362 36.906C117.498 37.2599 117.498 37.2841 117.498 40.1235C117.498 41.7323 117.498 43.3892 117.498 45.0221C117.498 45.8265 117.176 46.1402 116.42 46.1241H116.227C113.814 46.2046 113.388 45.7541 113.388 43.3973L113.396 40.4292Z" fill="#A3A3A3"/>
<path d="M162.189 39.5364C162.189 37.9759 162.189 36.4074 162.189 34.8389C162.163 34.7049 162.168 34.5667 162.204 34.4349C162.24 34.3031 162.305 34.1813 162.395 34.0788C162.485 33.9762 162.598 33.8957 162.724 33.8434C162.85 33.7911 162.986 33.7684 163.122 33.7771C163.57 33.753 164.018 33.753 164.466 33.7771C165.544 33.8414 166.211 34.3562 166.235 35.4341C166.316 38.724 166.3 42.0139 166.292 45.3038C166.292 45.521 166.099 45.9231 165.978 45.9231C165.012 46.0599 164.032 46.0599 163.066 45.9231C162.262 45.7381 162.189 44.8372 162.197 44.0731L162.189 39.5364Z" fill="#A3A3A3"/>
<path d="M164.224 32.852C163.926 32.8637 163.629 32.8129 163.352 32.7029C163.074 32.5929 162.823 32.4261 162.614 32.2133C162.405 32.0004 162.243 31.7462 162.138 31.4669C162.033 31.1877 161.987 30.8895 162.004 30.5917C161.977 30.2829 162.015 29.9721 162.116 29.6789C162.216 29.3857 162.377 29.1168 162.588 28.8895C162.798 28.6622 163.054 28.4815 163.339 28.3591C163.623 28.2366 163.931 28.1751 164.24 28.1785C164.841 28.2117 165.405 28.4753 165.816 28.9144C166.226 29.3535 166.452 29.9342 166.444 30.5354C166.463 30.8364 166.42 31.138 166.316 31.4212C166.213 31.7045 166.051 31.9631 165.843 32.1808C165.634 32.3986 165.383 32.5706 165.104 32.6862C164.825 32.8017 164.526 32.8581 164.224 32.852V32.852Z" fill="#A3A3A3"/>
<path d="M63.806 15.6464C62.5187 13.502 60.8694 11.597 58.9315 10.0158C58.1271 9.36425 57.3227 8.72876 56.5184 8.11743L56.1886 8.15769C50.2747 9.47406 44.6633 11.8977 39.6506 15.3006C39.6506 15.3006 39.3208 15.5096 39.3208 15.5096C39.5384 15.4515 39.7669 15.4467 39.9867 15.4958C40.2066 15.5448 40.4114 15.6461 40.5837 15.7912L40.648 15.8556C43.1577 18.7352 45.7236 21.5586 48.1931 24.4624C49.5283 26.0711 50.8073 27.6799 52.6734 28.629C54.0147 29.4168 55.542 29.8321 57.0975 29.8321C58.653 29.8321 60.1803 29.4168 61.5216 28.629C62.7842 27.934 63.8288 26.9018 64.539 25.6477C65.2492 24.3935 65.5969 22.9667 65.5435 21.5264C65.5274 19.4422 64.9253 17.4046 63.806 15.6464Z" fill="#8F8F8F"/>
</g>
<defs>
<clipPath id="clip0_469_2549">
<rect width="191.731" height="50" fill="white" transform="translate(0.0673828 0.5)"/>
</clipPath>
</defs>
</svg>
