<svg width="244" height="51" viewBox="0 0 244 51" fill="none" xmlns="http://www.w3.org/2000/svg">
<g clip-path="url(#clip0_469_2552)">
<path d="M1.27032 34.7097C1.22653 34.7112 1.18291 34.7039 1.14202 34.6881C1.10113 34.6724 1.06383 34.6487 1.03234 34.6183C1.00085 34.5878 0.975818 34.5514 0.958728 34.5111C0.941637 34.4709 0.932847 34.4276 0.932872 34.3838V30.9648C0.932572 30.8844 0.962549 30.8068 1.01686 30.7475C1.07118 30.6881 1.14585 30.6513 1.22607 30.6444C3.62697 30.4345 20.0682 28.6891 31.3922 18.7412C31.3922 18.7412 35.9562 33.489 1.27032 34.7097ZM37.3281 0C37.3281 0 27.2598 18.6473 1.18181 25.0325C1.11062 25.0489 1.04714 25.089 1.00188 25.1462C0.956614 25.2035 0.932274 25.2744 0.932872 25.3474V28.6615C0.933118 28.7083 0.943479 28.7546 0.963252 28.7971C0.983025 28.8396 1.01174 28.8773 1.04744 28.9077C1.08315 28.9381 1.125 28.9605 1.17015 28.9733C1.21529 28.9861 1.26267 28.989 1.30905 28.9818C5.39169 28.2748 40.7856 21.4864 37.3281 0V0ZM32.7863 39.1009C32.787 39.229 32.7624 39.356 32.7138 39.4746C32.6652 39.5932 32.5936 39.701 32.5031 39.7919C32.4126 39.8827 32.305 39.9548 32.1865 40.004C32.068 40.0532 31.941 40.0786 31.8127 40.0786H13.7063C21.8384 39.8687 22.2201 33.4503 22.2201 33.4503C14.3812 36.2673 3.27291 36.5048 1.25372 36.5214C1.16812 36.5229 1.08652 36.5578 1.0265 36.6188C0.966483 36.6798 0.93286 36.7618 0.932872 36.8473V40.0951V40.7745C0.932872 41.8087 1.34435 42.8006 2.0768 43.5319C2.80924 44.2633 3.80265 44.6741 4.83849 44.6741H33.4667C34.5031 44.6741 35.4971 44.2634 36.2304 43.5323C36.9637 42.8011 37.3764 41.8093 37.3779 40.7745V12.7703C37.3781 12.7004 37.3557 12.6323 37.3141 12.576C37.2725 12.5198 37.2139 12.4784 37.1469 12.4579C37.0799 12.4375 37.0081 12.4391 36.9421 12.4625C36.8761 12.486 36.8194 12.53 36.7804 12.5881C35.6537 14.2438 34.3799 15.7948 32.9744 17.2223C32.8545 17.3427 32.787 17.5054 32.7863 17.6752V39.1009ZM6.55895 12.8532H22.5354C22.6766 12.8536 22.8142 12.8091 22.9282 12.7262C24.5868 11.5177 26.1839 10.2273 27.7134 8.8597C27.7573 8.81452 27.7871 8.75765 27.7992 8.69595C27.8114 8.63424 27.8054 8.57034 27.782 8.51194C27.7586 8.45355 27.7188 8.40316 27.6674 8.36686C27.6159 8.33056 27.5551 8.30989 27.4922 8.30735H4.89934C3.863 8.30881 2.8696 8.72089 2.13731 9.45309C1.40503 10.1853 0.993715 11.1777 0.993716 12.2125V22.8121C0.993341 22.8612 1.00409 22.9097 1.02515 22.9541C1.04621 22.9985 1.07704 23.0375 1.11535 23.0683C1.15365 23.0992 1.19843 23.1209 1.24634 23.132C1.29425 23.1431 1.34405 23.1433 1.39202 23.1324C2.00608 22.9943 3.32271 22.6685 5.13168 22.083C5.26249 22.0407 5.37643 21.958 5.457 21.8468C5.53756 21.7356 5.58057 21.6016 5.57978 21.4643V13.8309C5.57978 13.5716 5.68294 13.3229 5.86657 13.1395C6.0502 12.9562 6.29926 12.8532 6.55895 12.8532V12.8532Z" fill="#8F8F8F"/>
<path d="M48.6356 35.494C47.3263 34.323 46.4919 32.7137 46.29 30.9703L49.7586 30.0368C49.9457 31.2569 50.5403 32.3781 51.4459 33.2184C52.3234 33.9329 53.4083 34.3457 54.5395 34.3955C55.6707 34.4452 56.7878 34.1293 57.7248 33.4945C58.0917 33.2391 58.3911 32.8985 58.5973 32.5022C58.8034 32.1058 58.9103 31.6655 58.9086 31.2188C58.9086 29.4403 57.5643 28.319 55.5341 27.9047L52.7238 27.3524C51.1106 27.0823 49.6302 26.2928 48.5084 25.1043C47.508 24.0429 46.9604 22.6345 46.9815 21.1771C46.8875 17.4929 50.4778 14.2506 54.4774 14.3169C57.5643 14.3445 59.6278 15.4216 60.784 16.9019C61.53 17.7651 62.0356 18.8089 62.25 19.9288L58.9307 20.9562C58.6873 20.031 58.1637 19.2035 57.4316 18.5866C56.6478 17.8977 55.6319 17.5307 54.5881 17.5592C53.5777 17.5264 52.5914 17.8711 51.8221 18.5258C51.4632 18.7948 51.172 19.1434 50.9713 19.5441C50.7707 19.9448 50.6661 20.3867 50.6659 20.8347C50.6716 21.5446 50.951 22.225 51.4459 22.7347C52.0105 23.3118 52.7416 23.698 53.537 23.8394L56.4136 24.3918C60.441 25.2037 62.6261 27.5733 62.6261 30.9703C62.6102 31.826 62.4223 32.6698 62.0735 33.4517C61.7248 34.2335 61.2223 34.9374 60.5959 35.5217C58.9846 36.9296 56.8998 37.6774 54.7596 37.6151C52.1651 37.6151 49.991 36.77 48.6356 35.494Z" fill="#8F8F8F"/>
<path d="M68.7999 30.6278C68.8608 32.9367 71.1123 34.7152 73.3583 34.6821C75.3609 34.6821 76.8878 33.837 77.4797 32.0639L80.3895 32.9643C80.0811 33.913 79.5608 34.7794 78.8679 35.4981C78.1751 36.2167 77.3277 36.7687 76.3899 37.1124C75.4303 37.4694 74.4155 37.6563 73.3915 37.6648C72.3243 37.6879 71.2634 37.4961 70.272 37.101C69.2807 36.7058 68.3791 36.1154 67.6213 35.3649C66.8634 34.6143 66.2646 33.7191 65.8608 32.7325C65.4569 31.7459 65.2561 30.6883 65.2705 29.6226C65.2597 28.2176 65.6041 26.8327 66.2718 25.5959C66.9195 24.3795 67.8923 23.3661 69.0821 22.6685C70.2849 21.9371 71.6679 21.5546 73.0762 21.5638C75.4494 21.5638 77.2971 22.2818 78.6359 23.7732C79.9746 25.2645 80.6661 27.1701 80.6661 29.5728C80.6643 29.9272 80.644 30.2811 80.6053 30.6334L68.7999 30.6278ZM70.36 25.4799C69.5986 26.1196 69.1084 27.0235 68.988 28.0097H77.1367C77.124 27.5222 77.0091 27.0427 76.7995 26.6023C76.5899 26.1618 76.2902 25.7701 75.9197 25.4523C75.1217 24.8208 74.1273 24.4886 73.1094 24.5133C72.1087 24.489 71.134 24.833 70.371 25.4799H70.36Z" fill="#8F8F8F"/>
<path d="M94.7008 28.6946C94.7008 26.3527 93.5446 24.8282 91.2654 24.8282C90.7775 24.8049 90.2904 24.8877 89.8376 25.0708C89.3849 25.2539 88.9774 25.533 88.6432 25.8887C87.9649 26.6744 87.6179 27.692 87.6751 28.7278V37.361H84.2065V21.862H87.6087V23.9555C88.0596 23.3539 88.6233 22.8455 89.2683 22.4586C89.7823 22.1294 90.3413 21.8763 90.928 21.7074C91.4013 21.6096 91.883 21.5578 92.3663 21.5527C94.2748 21.5527 95.6855 22.1051 96.7089 23.2982C97.7341 24.5769 98.2556 26.1859 98.1749 27.8219V37.361H94.7395L94.7008 28.6946Z" fill="#8F8F8F"/>
<path d="M103.569 24.1101C104.282 23.2986 105.163 22.6502 106.15 22.2089C107.137 21.7676 108.207 21.5438 109.289 21.5527C110.231 21.5769 111.157 21.8009 112.005 22.21C112.956 22.5696 113.766 23.2239 114.317 24.0769V13.7259H117.781V37.361H114.378V34.9306C113.979 35.578 113.433 36.1228 112.785 36.5214C112.167 36.8838 111.505 37.1659 110.816 37.361C110.288 37.5141 109.744 37.5995 109.195 37.615C107.797 37.6205 106.429 37.2194 105.256 36.4606C104.089 35.7322 103.135 34.709 102.49 33.4945C101.858 32.2931 101.524 30.9576 101.516 29.6004C101.54 27.5877 102.266 25.6462 103.569 24.1101V24.1101ZM113.056 26.1041C112.626 25.6437 112.103 25.2804 111.521 25.0385C110.939 24.7965 110.312 24.6815 109.682 24.7011C109.06 24.6844 108.442 24.801 107.87 25.043C107.297 25.285 106.783 25.6469 106.362 26.1041C105.491 27.0576 105.021 28.31 105.051 29.6004C105.023 30.8791 105.493 32.1189 106.362 33.0582C106.782 33.5162 107.296 33.8786 107.869 34.1207C108.442 34.3628 109.06 34.4789 109.682 34.4611C110.312 34.4807 110.939 34.3657 111.521 34.1238C112.103 33.8818 112.626 33.5185 113.056 33.0582C113.916 32.1153 114.374 30.8751 114.334 29.6004C114.378 28.3137 113.92 27.0603 113.056 26.1041Z" fill="#8F8F8F"/>
<path d="M143.892 37.361V20.3376H143.831L136.711 37.361H133.679L126.587 20.3983H126.499V37.361H123.014V14.6097H127.854L135.228 32.1965H135.256L142.486 14.6097H147.465V37.3389L143.892 37.361Z" fill="#8F8F8F"/>
<path d="M155.166 30.6278C155.232 32.9367 157.478 34.7152 159.73 34.6821C161.727 34.6821 163.259 33.837 163.851 32.0639L166.755 32.9643C166.447 33.913 165.927 34.7794 165.234 35.4981C164.541 36.2167 163.694 36.7687 162.756 37.1124C161.796 37.4694 160.781 37.6563 159.757 37.6648C158.69 37.6871 157.63 37.4948 156.639 37.0994C155.648 36.704 154.747 36.1135 153.989 35.3631C153.231 34.6128 152.632 33.7178 152.228 32.7316C151.824 31.7454 151.623 30.688 151.636 29.6225C151.626 28.2176 151.97 26.8327 152.638 25.5959C153.285 24.3795 154.258 23.3661 155.448 22.6685C156.653 21.9372 158.038 21.5547 159.448 21.5638C161.821 21.5638 163.663 22.2818 165.007 23.7732C166.403 25.3752 167.13 27.4513 167.038 29.5728C167.034 29.9273 167.012 30.2813 166.971 30.6334L155.166 30.6278ZM156.731 25.4799C155.967 26.1176 155.474 27.0222 155.354 28.0097H163.508C163.493 27.5221 163.377 27.0429 163.166 26.6027C162.956 26.1624 162.656 25.7707 162.286 25.4523C161.488 24.8208 160.493 24.4886 159.475 24.5133C158.482 24.4918 157.515 24.8359 156.759 25.4799H156.731Z" fill="#8F8F8F"/>
<path d="M179.059 25.3584C178.74 25.2924 178.416 25.2609 178.091 25.2645C175.468 25.2645 174.03 26.7945 174.03 29.4734V37.361H170.589V21.862H173.991V24.2647C174.405 23.4996 175.018 22.8608 175.766 22.4163C176.514 21.9718 177.369 21.7382 178.24 21.7405C178.521 21.7448 178.802 21.7651 179.081 21.8013L179.059 25.3584Z" fill="#8F8F8F"/>
<path d="M180.215 29.5673C180.203 28.1563 180.57 26.7679 181.277 25.5462C181.973 24.3214 182.988 23.3078 184.215 22.6132C185.469 21.8992 186.892 21.533 188.336 21.5527C190.029 21.4984 191.691 22.0139 193.055 23.0164C194.27 23.8616 195.144 25.1107 195.522 26.5404L192.396 27.5733C192.172 26.8458 191.762 26.1891 191.207 25.6677C190.408 24.9891 189.384 24.6343 188.336 24.6735C187.732 24.6648 187.133 24.7789 186.575 25.0087C186.016 25.2385 185.511 25.5792 185.089 26.0102C184.648 26.4821 184.305 27.0365 184.08 27.6413C183.855 28.2461 183.752 28.8895 183.778 29.5342C183.735 30.839 184.192 32.1111 185.055 33.0913C185.477 33.5468 185.992 33.9075 186.564 34.1494C187.136 34.3913 187.753 34.5088 188.375 34.4943C190.339 34.4943 191.694 33.4945 192.463 31.5337L195.622 32.5611C195.214 33.9017 194.408 35.0866 193.309 35.958C191.898 37.08 190.134 37.6671 188.33 37.6151C187.263 37.6374 186.202 37.445 185.211 37.0491C184.22 36.6533 183.319 36.0622 182.562 35.3112C181.804 34.5601 181.206 33.6645 180.803 32.6777C180.4 31.6908 180.2 30.633 180.215 29.5673Z" fill="#8F8F8F"/>
<path d="M202.266 30.534C202.266 32.8704 203.372 34.4004 205.668 34.4004C206.157 34.4245 206.645 34.3421 207.099 34.159C207.552 33.9758 207.961 33.6964 208.295 33.3399C208.967 32.5502 209.313 31.5355 209.264 30.5008V21.8621H212.727V37.361H209.358V35.2731C208.918 35.8731 208.366 36.3816 207.731 36.77C207.224 37.1114 206.663 37.3654 206.072 37.5212C205.601 37.6326 205.117 37.6846 204.633 37.6759C202.138 37.6759 200.296 36.4607 199.45 34.5882C199.009 33.5866 198.796 32.5002 198.825 31.4067V21.8621H202.293L202.266 30.534Z" fill="#8F8F8F"/>
<path d="M225.849 25.3584C225.53 25.2927 225.206 25.2612 224.881 25.2645C222.253 25.2645 220.82 26.7945 220.82 29.4734V37.361H217.352V21.862H220.754V24.2647C221.167 23.4996 221.78 22.8608 222.529 22.4163C223.277 21.9718 224.132 21.7382 225.002 21.7405C225.285 21.7448 225.568 21.7651 225.849 21.8013V25.3584Z" fill="#8F8F8F"/>
<path d="M226.938 21.8621H230.888L235.729 32.0308L240.193 21.8621H243.938L233.278 44.989H229.594L233.842 35.599L226.938 21.8621Z" fill="#8F8F8F"/>
</g>
<defs>
<clipPath id="clip0_469_2552">
<rect width="243" height="51" fill="white" transform="translate(0.932861)"/>
</clipPath>
</defs>
</svg>
