<svg width="43" height="43" viewBox="0 0 43 43" fill="none" xmlns="http://www.w3.org/2000/svg">
<path fill-rule="evenodd" clip-rule="evenodd" d="M12.5415 5.37496C11.552 5.37496 10.7498 6.17712 10.7498 7.16663V35.8333C10.7498 36.8228 11.552 37.625 12.5415 37.625H30.4582C31.4477 37.625 32.2498 36.8228 32.2498 35.8333V7.16663C32.2498 6.17712 31.4477 5.37496 30.4582 5.37496H12.5415ZM7.1665 7.16663C7.1665 4.1981 9.57297 1.79163 12.5415 1.79163H30.4582C33.4267 1.79163 35.8332 4.1981 35.8332 7.16663V35.8333C35.8332 38.8018 33.4267 41.2083 30.4582 41.2083H12.5415C9.57297 41.2083 7.1665 38.8018 7.1665 35.8333V7.16663Z" fill="#D5569A"/>
<path fill-rule="evenodd" clip-rule="evenodd" d="M19.7085 32.25C19.7085 31.2605 20.5107 30.4584 21.5002 30.4584H21.5181C22.5076 30.4584 23.3097 31.2605 23.3097 32.25C23.3097 33.2396 22.5076 34.0417 21.5181 34.0417H21.5002C20.5107 34.0417 19.7085 33.2396 19.7085 32.25Z" fill="#D5569A"/>
</svg>
