<svg width="116" height="47" viewBox="0 0 116 47" fill="none" xmlns="http://www.w3.org/2000/svg">
<g clip-path="url(#clip0_469_2551)">
<path d="M28.1351 18.4711C28.5291 18.13 28.8743 17.8064 29.2439 17.5149C30.6826 16.4134 32.4225 15.7294 34.2566 15.5441C36.0555 15.3084 37.8877 15.5172 39.5779 16.1505C41.7076 16.96 43.4859 18.4362 44.6211 20.337C45.685 22.088 46.3121 24.0492 46.4539 26.0687C46.6519 28.1752 46.361 30.2975 45.6017 32.2844C44.6181 34.8412 42.9319 36.8528 40.3782 38.1152C39.0383 38.7761 37.5576 39.1352 36.0497 39.1648C34.3953 39.2566 32.7442 38.9383 31.2569 38.2406C30.5461 37.8615 29.867 37.4307 29.2256 36.952C28.9767 36.7473 28.7496 36.5198 28.5474 36.2727L28.4405 36.3106C28.4405 36.4389 28.4191 36.5671 28.4191 36.6925C28.4191 39.7789 28.4191 42.8664 28.4191 45.9548C28.4191 46.5 28.4191 46.5 27.851 46.5H22.4412C21.9555 46.5 21.9341 46.4825 21.9341 46.0364V16.4099C21.9341 15.9726 21.9616 15.9464 22.4076 15.9464C24.1518 15.9464 25.899 15.9464 27.6463 15.9464C28.0037 15.9464 28.1137 16.0717 28.1045 16.3983C28.0862 16.9814 28.1045 17.5382 28.1045 18.1096C28.1137 18.2146 28.1259 18.3399 28.1351 18.4711ZM28.3183 27.3632C28.4436 28.0454 28.5138 28.7451 28.6971 29.404C29.3722 31.8442 31.6296 33.7392 34.6476 33.4243C35.4666 33.3657 36.2604 33.1284 36.968 32.7306C37.6756 32.3328 38.278 31.7851 38.7287 31.1299C39.9108 29.4389 40.1338 27.5672 39.6817 25.6081C39.3777 24.1748 38.5013 22.9107 37.238 22.0833C36.1027 21.3489 34.7244 21.0377 33.3647 21.2087C32.0868 21.3297 30.9052 21.9103 30.0595 22.8326C28.856 24.1241 28.3978 25.6606 28.3183 27.3777V27.3632Z" fill="#A3A3A3"/>
<path d="M96.0573 25.417L97.3333 23.9424C99.3724 21.5829 101.448 19.2492 103.427 16.844C103.66 16.5265 103.979 16.2748 104.351 16.1155C104.723 15.9563 105.133 15.8953 105.538 15.9392C107.502 16.0021 109.46 15.9592 111.436 15.9592H111.954C111.862 16.1 111.761 16.2358 111.653 16.3658C109.698 18.4332 107.743 20.4996 105.789 22.5651C104.884 23.5358 103.979 24.515 103.053 25.4857C103.023 25.5088 103 25.5377 102.984 25.5704C102.968 25.6031 102.96 25.6387 102.96 25.6747C102.96 25.7108 102.968 25.7464 102.984 25.779C103 25.8117 103.023 25.8406 103.053 25.8637C104.76 27.9941 106.896 29.5517 109.626 30.2962C110.349 30.4673 111.085 30.5841 111.828 30.6456C111.946 30.6433 112.062 30.6752 112.161 30.7371C112.259 30.799 112.336 30.8879 112.38 30.992C113.508 33.3935 114.641 35.794 115.779 38.1935C115.939 38.5314 115.897 38.5886 115.478 38.6345C111.221 39.1155 107.484 37.8842 104.102 35.5105C100.884 33.2513 98.4283 30.3564 96.3891 27.1064C96.2814 26.9187 96.1452 26.7469 95.9849 26.5967V37.764C95.9849 38.3367 95.9849 38.351 95.3544 38.351H90.0212C89.5507 38.351 89.5295 38.3309 89.5295 37.89C89.5295 27.6925 89.5295 17.4968 89.5295 7.30314C89.5295 6.84213 89.5476 6.82495 90.0393 6.82495H95.4691C95.9577 6.82495 95.9728 6.84213 95.9728 7.31459V25.3855L96.0573 25.417Z" fill="#A3A3A3"/>
<path d="M65.6393 18.5004V16.7828C65.6393 16.6404 65.6393 16.4862 65.6393 16.3557C65.6118 16.059 65.7525 15.9404 66.0678 15.9433C67.598 15.9433 69.1282 15.9433 70.6585 15.9433C70.9645 15.9433 71.2951 15.9433 71.6134 15.9433C71.8551 15.9433 71.9837 16.0293 71.9714 16.2756C71.9714 16.3705 71.9714 16.4654 71.9714 16.5722V38.5535C71.9714 39.1468 71.9714 39.1468 71.344 39.1468H66.3126C65.6393 39.1468 65.6393 39.1467 65.6393 38.4763V36.5837C65.5734 36.608 65.5107 36.6399 65.4526 36.6787C64.229 38.0597 62.5534 38.9917 60.7058 39.3188C57.6882 39.9506 54.8389 39.5472 52.2712 37.8059C50.659 36.6891 49.3973 35.1612 48.6261 33.3919C47.6386 31.1834 47.2336 28.7713 47.4479 26.3733C47.6468 23.6412 48.5007 21.1257 50.34 18.9869C51.8427 17.1868 53.9773 15.987 56.3355 15.617C59.0593 15.172 61.624 15.5992 63.9377 17.1002C64.531 17.5363 65.0991 18.0037 65.6393 18.5004V18.5004ZM65.52 27.5124C65.4863 27.1119 65.4679 26.7085 65.4098 26.311C64.9905 23.481 62.7288 21.0752 59.4847 21.2918C58.7053 21.3225 57.942 21.516 57.2469 21.859C56.5517 22.202 55.9412 22.6865 55.4571 23.2793C54.1258 24.893 53.7647 26.7619 54.0891 28.7761C54.2656 30.1178 54.9142 31.3593 55.9254 32.2913C56.5239 32.8471 57.2436 33.2655 58.0312 33.5156C58.8189 33.7656 59.6545 33.8409 60.4763 33.736C61.1851 33.6726 61.8728 33.4681 62.4963 33.1353C63.1198 32.8025 63.6657 32.3486 64.0999 31.8019C65.1251 30.5441 65.4832 29.0846 65.52 27.5124Z" fill="#A3A3A3"/>
<path d="M3.04157 31.6177C3.22897 31.7453 3.38709 31.8432 3.53642 31.953C5.26598 33.2191 7.32507 33.9414 9.457 34.0298C10.5545 34.1254 11.6586 33.9545 12.6779 33.5314C13.0058 33.3759 13.3034 33.1618 13.5563 32.8994C13.7566 32.694 13.8689 32.4168 13.8689 32.128C13.8689 31.8392 13.7566 31.5621 13.5563 31.3566C13.1928 30.9672 12.7262 30.6921 12.2123 30.5644C11.0997 30.2321 9.98113 29.9295 8.86846 29.6061C7.24337 29.1344 5.64757 28.5825 4.24209 27.5975C3.46335 27.0853 2.82586 26.3809 2.38948 25.5505C1.9531 24.7201 1.73215 23.791 1.74737 22.8504C1.71516 20.0941 3.00936 18.1596 5.29034 16.8364C7.32536 15.6496 9.53606 15.3262 11.861 15.4894C13.6164 15.5814 15.3435 15.9768 16.9675 16.6584C17.6322 16.955 18.2676 17.3051 18.9206 17.6256C18.9628 17.6381 19.0014 17.6607 19.0332 17.6914C19.0651 17.7222 19.0892 17.7602 19.1035 17.8023C19.1178 17.8445 19.122 17.8895 19.1157 17.9336C19.1093 17.9777 19.0926 18.0196 19.067 18.0558C18.4521 19.4235 17.8401 20.7972 17.2428 22.1739C17.1139 22.4706 16.9675 22.4409 16.7274 22.3223C14.8064 21.3403 12.6802 20.8416 10.5287 20.8685C9.78202 20.8892 9.06464 21.0316 8.47902 21.5687C7.80557 22.1947 7.86413 23.0521 8.67813 23.4764C9.32883 23.817 10.0168 24.0788 10.7278 24.2567C12.4671 24.6958 14.2239 25.0667 15.8578 25.8411C17.4917 26.6154 18.8474 27.5945 19.6057 29.2708C20.7506 31.7987 20.1914 35.2344 17.8167 37.1778C16.2653 38.4016 14.4135 39.1731 12.4612 39.4089C9.62265 39.854 6.71819 39.5179 4.05177 38.4358C2.97058 38.004 1.96281 37.4034 1.06512 36.6556C0.886506 36.5072 0.807451 36.3589 0.912862 36.1423C1.57461 34.7162 2.23343 33.2881 2.88932 31.858C2.93343 31.7738 2.98436 31.6934 3.04157 31.6177V31.6177Z" fill="#A3A3A3"/>
<path d="M79.8175 19.8081C80.2125 19.2029 80.6393 18.6191 81.096 18.0592C82.3657 16.6906 84.0803 15.8186 85.9333 15.599C86.4138 15.5261 86.9031 15.4999 87.3894 15.4532C87.6486 15.4299 87.7738 15.529 87.7738 15.8089C87.7738 17.8124 87.7738 19.8159 87.7738 21.8194C87.7738 22.1313 87.6078 22.1517 87.3545 22.1837C86.3957 22.2597 85.4425 22.395 84.5005 22.5889C82.2405 23.1486 80.8252 24.6293 80.2631 26.8709C80.0368 27.7611 79.9156 28.6749 79.902 29.5934C79.8554 32.4675 79.8845 35.3445 79.8845 38.2215C79.8845 38.7287 79.8845 38.7375 79.3807 38.7375H74.1852C73.7542 38.7375 73.728 38.7112 73.728 38.2798V16.4181C73.728 15.9663 73.7484 15.9488 74.2056 15.9488H79.3399C79.7942 15.9488 79.8146 15.9692 79.8146 16.421C79.8175 17.5403 79.8175 18.6684 79.8175 19.8081Z" fill="#A3A3A3"/>
<path d="M100.101 33.5625C100.72 34.1067 101.324 34.6706 101.963 35.1896C104.427 37.1926 107.12 38.8085 110.245 39.6137C111.296 39.8937 112.383 40.0213 113.471 39.9924C113.595 39.9712 113.722 39.9712 113.846 39.9924C113.949 40.0289 114.024 40.1439 114.11 40.2224C114.021 40.301 113.932 40.4441 113.84 40.4469C113.314 40.4717 112.787 40.467 112.262 40.4328C108.758 40.1523 105.811 38.5925 103.149 36.4689C102.098 35.6272 101.17 34.6454 100.187 33.7252C100.142 33.6779 100.101 33.6273 100.064 33.5737L100.101 33.5625Z" fill="#A3A3A3"/>
<path d="M110.24 41.325C109.261 41.0637 108.288 40.8493 107.363 40.5279C105.53 39.8614 103.865 38.8843 102.464 37.6529C101.994 37.2539 101.533 36.847 101.082 36.4323C101.019 36.3452 100.971 36.2499 100.942 36.15C101.068 36.1649 101.191 36.2004 101.303 36.2546C102.29 37.0047 103.221 37.8228 104.26 38.5128C105.998 39.724 108.066 40.5193 110.261 40.8206C110.383 40.8363 110.488 40.98 110.598 41.0663L110.24 41.325Z" fill="#A3A3A3"/>
<path d="M98.3086 27.5969C98.8006 27.3952 98.8155 27.3685 98.7619 26.7071H100.861C101.159 26.7271 101.459 26.7202 101.756 26.6863C102.352 26.5766 102.859 26.8702 103.381 27.0689C103.491 27.1105 103.572 27.241 103.658 27.3359C105.391 29.3172 107.448 30.821 109.992 31.6159C110.227 31.6901 110.472 31.7524 110.713 31.8117C111.122 31.9066 111.578 31.9007 111.769 32.4049C111.788 32.4415 111.816 32.4737 111.848 32.4992C111.881 32.5247 111.919 32.5431 111.96 32.5532C112.395 32.6481 112.496 32.9922 112.616 33.3481C113.063 34.6591 113.525 35.9672 113.981 37.2782C114.023 37.3968 114.059 37.5214 114.11 37.6875C113.576 37.7943 113.215 38.0404 113.373 38.7375C112.824 38.69 112.323 38.6663 111.828 38.607C108.602 38.2095 105.927 36.7116 103.578 34.5464C101.528 32.6084 99.7876 30.371 98.4159 27.9113C98.3794 27.8495 98.3475 27.785 98.3205 27.7185C98.3106 27.6788 98.3066 27.6378 98.3086 27.5969V27.5969ZM100.891 26.98C100.473 26.98 100.056 26.98 99.6385 26.98C99.3195 26.98 99.0421 26.98 98.9914 27.3982C98.9652 27.4894 98.9071 27.5683 98.8274 27.6206C98.6575 27.7422 98.6784 27.8638 98.7738 28.0151C98.9765 28.3354 99.1674 28.6647 99.3702 28.985C100.956 31.6144 103.032 33.9187 105.486 35.7744C107.581 37.3296 110.08 38.2559 112.687 38.4438C112.734 38.4565 112.784 38.4591 112.832 38.4514C112.88 38.4438 112.926 38.4261 112.967 38.3995C113.008 38.3728 113.043 38.3379 113.069 38.297C113.095 38.2561 113.112 38.2101 113.12 38.1621C113.204 37.9446 113.349 37.7554 113.537 37.6163C113.716 37.4888 113.764 37.3879 113.692 37.1862C113.218 35.8456 112.756 34.499 112.279 33.1613C112.213 33.0434 112.121 32.942 112.01 32.8646C111.817 32.6956 111.617 32.5324 111.414 32.3723C111.315 32.2786 111.199 32.206 111.071 32.1587C108.128 31.5388 105.731 30.0024 103.745 27.8016C103.512 27.5124 103.211 27.2846 102.869 27.1382C102.527 26.9919 102.154 26.9314 101.783 26.9622C101.487 26.98 101.189 26.98 100.891 26.98Z" fill="#8F8F8F"/>
<path d="M105.075 30.1127C105.654 30.1576 106.208 30.34 106.678 30.6403C107.147 30.9405 107.516 31.3474 107.743 31.8173C107.917 32.118 107.991 32.4557 107.956 32.7917C107.922 33.1277 107.78 33.4483 107.548 33.7168C107.316 33.9853 107.002 34.1909 106.643 34.3098C106.284 34.4288 105.894 34.4563 105.517 34.3893C104.051 34.2129 103.016 33.4323 102.751 32.3287C102.458 31.1085 103.391 30.1007 105.075 30.1127ZM104.779 30.4117C104.527 30.4031 104.277 30.4446 104.046 30.5331C103.816 30.6216 103.611 30.7549 103.447 30.923C103.283 31.091 103.165 31.2894 103.101 31.5034C103.037 31.7173 103.029 31.9412 103.077 32.1583C103.261 33.214 104.255 33.9527 105.657 34.1052C105.96 34.1476 106.271 34.117 106.556 34.0167C106.842 33.9163 107.09 33.75 107.277 33.5354C107.463 33.3207 107.58 33.0657 107.615 32.7975C107.649 32.5292 107.601 32.2577 107.474 32.0117C107.245 31.5463 106.87 31.1479 106.393 30.863C105.915 30.578 105.356 30.4184 104.779 30.4027V30.4117Z" fill="#8F8F8F"/>
<path d="M106.209 31.6643C106.176 31.7122 106.135 31.7506 106.089 31.7768C106.044 31.8031 105.995 31.8166 105.945 31.8166C105.895 31.8166 105.846 31.8031 105.8 31.7768C105.755 31.7506 105.714 31.7122 105.681 31.6643C105.647 31.6201 105.608 31.5602 105.566 31.5539C105.456 31.546 105.345 31.546 105.235 31.5539C105.249 31.6995 105.281 31.8411 105.33 31.9734C105.417 32.0897 105.513 32.1952 105.615 32.2887C105.724 32.4084 105.793 32.5773 105.808 32.7609C105.823 32.9445 105.784 33.1288 105.698 33.2758C105.611 33.4225 105.484 33.5211 105.343 33.5521C105.202 33.5831 105.058 33.5441 104.938 33.443C104.793 33.3404 104.664 33.2034 104.558 33.0393C104.499 32.8767 104.464 32.7013 104.453 32.5221L104.551 32.4685C104.704 32.64 104.867 32.797 105.038 32.9384C105.135 33.0078 105.328 33.0551 105.384 32.9857C105.527 32.8122 105.401 32.6514 105.281 32.5253C105.162 32.3991 105.099 32.336 105.016 32.2288C104.908 32.1084 104.84 31.9381 104.828 31.7542C104.816 31.5703 104.86 31.3875 104.95 31.2448C105.043 31.0967 105.177 31.0016 105.324 30.9798C105.47 30.958 105.618 31.0112 105.734 31.1282C105.888 31.2764 106.031 31.4624 106.209 31.6643Z" fill="#8F8F8F"/>
</g>
<defs>
<clipPath id="clip0_469_2551">
<rect width="115" height="46" fill="white" transform="translate(0.865479 0.5)"/>
</clipPath>
</defs>
</svg>
