<svg width="65" height="69" viewBox="0 0 65 69" fill="none" xmlns="http://www.w3.org/2000/svg">
<g clip-path="url(#clip0_696_1287)">
<path d="M5.82962 61.073L1.71743 67.6085H5.82962V68.8848H0V67.7375L4.09868 61.202H0V60.5297C-4.12233e-07 60.4505 0.0154366 60.372 0.0454259 60.2989C0.0754153 60.2257 0.119367 60.1593 0.174762 60.1034C0.230157 60.0474 0.295905 60.0031 0.368238 59.973C0.44057 59.9429 0.518064 59.9275 0.596277 59.9277H5.82962V61.073Z" fill="#202045"/>
<path d="M10.3085 68.9999C8.29773 68.9999 6.80994 67.5575 6.80994 65.3276C6.80994 63.0976 8.23405 61.667 10.3085 61.667C12.3077 61.667 13.7202 63.0722 13.7202 65.1595C13.7202 65.2045 13.7202 65.2474 13.7202 65.2904C13.7162 65.4477 13.6515 65.5971 13.5401 65.7067C13.4286 65.8163 13.2792 65.8773 13.1239 65.8768H8.31124C8.41352 67.0494 9.23943 67.7589 10.3085 67.7589C11.2 67.7589 11.6959 67.3211 11.9642 66.766H13.5292C13.1355 68.0129 12.0278 68.9999 10.3085 68.9999ZM8.32475 64.6904H12.2054C12.1803 63.594 11.3274 62.8983 10.2467 62.8983C9.26258 62.9041 8.4772 63.5745 8.32475 64.6904Z" fill="#202045"/>
<path d="M17.8574 61.667C18.3149 61.6677 18.7671 61.7668 19.184 61.9578C19.6008 62.1489 19.9728 62.4275 20.2753 62.7752V59.9491C20.2753 59.8699 20.2907 59.7915 20.3207 59.7183C20.3507 59.6452 20.3947 59.5787 20.4501 59.5228C20.5055 59.4669 20.5712 59.4226 20.6435 59.3924C20.7159 59.3623 20.7934 59.3469 20.8716 59.3472H21.738V68.8847H20.2753V67.8175C19.9945 68.1991 19.6267 68.5061 19.2033 68.7124C18.7799 68.9186 18.3135 69.018 17.8439 69.0019C15.9991 69.0019 14.5364 67.4951 14.5364 65.3042C14.5364 63.1133 15.9991 61.667 17.8574 61.667ZM18.1488 62.9433C17.0681 62.9433 16.0261 63.768 16.0261 65.3022C16.0261 66.8364 17.0701 67.7237 18.1488 67.7237C19.2275 67.7237 20.2714 66.8618 20.2714 65.3276C20.2714 63.7934 19.2448 62.9433 18.1488 62.9433Z" fill="#202045"/>
<path d="M23.33 59.9002C23.3316 59.7161 23.3868 59.5366 23.4887 59.3842C23.5906 59.2318 23.7348 59.1132 23.903 59.0435C24.0712 58.9738 24.256 58.9559 24.4342 58.9922C24.6124 59.0285 24.7761 59.1173 24.9046 59.2475C25.0332 59.3777 25.1208 59.5434 25.1567 59.7239C25.1925 59.9044 25.1749 60.0916 25.106 60.262C25.0372 60.4323 24.9202 60.5783 24.7697 60.6815C24.6192 60.7848 24.4419 60.8407 24.2601 60.8422C24.1376 60.8438 24.0159 60.8205 23.9024 60.7737C23.7888 60.727 23.6857 60.6576 23.599 60.5698C23.5123 60.4821 23.4439 60.3776 23.3977 60.2626C23.3515 60.1476 23.3285 60.0244 23.33 59.9002ZM24.1173 61.7823H24.9722V68.8846H23.5211V62.3862C23.5211 62.3066 23.5366 62.2277 23.5668 62.1542C23.597 62.0807 23.6413 62.0139 23.6971 61.9578C23.7529 61.9017 23.819 61.8573 23.8918 61.8272C23.9646 61.797 24.0426 61.7818 24.1212 61.7823H24.1173Z" fill="#202045"/>
<path d="M35.2691 67.0554H31.566L30.9292 68.8847H29.4144L32.4421 60.3147C32.4835 60.1974 32.5597 60.096 32.6602 60.0243C32.7607 59.9525 32.8807 59.9141 33.0037 59.9141H34.2638L37.4362 68.8847H35.9079L35.2691 67.0554ZM33.4224 61.6926L31.9732 65.8632H34.8678L33.4224 61.6926Z" fill="#202045"/>
<path d="M38.8584 62.9804H38.0305V62.3941C38.0305 62.2339 38.0933 62.0803 38.2052 61.9671C38.317 61.8538 38.4687 61.7902 38.6268 61.7902H38.8584V61.2879C38.8584 59.6501 39.6862 58.9426 41.5175 58.9426V60.1661C40.6279 60.1661 40.3211 60.4749 40.3211 61.2879V61.7902H41.6198V62.9882H40.3307V68.8925H38.868L38.8584 62.9804Z" fill="#202045"/>
<path d="M44.2287 68.8846H42.7776V62.3862C42.7776 62.226 42.8404 62.0724 42.9522 61.9592C43.0641 61.8459 43.2157 61.7823 43.3739 61.7823H44.2287V62.8142C44.6359 62.1048 45.3364 61.667 46.3302 61.667V63.1875H45.9597C44.8906 63.1875 44.2229 63.639 44.2229 65.1419L44.2287 68.8846Z" fill="#202045"/>
<path d="M47.3471 59.9002C47.3483 59.7156 47.4033 59.5354 47.5053 59.3824C47.6073 59.2293 47.7517 59.1102 47.9204 59.0401C48.089 58.97 48.2744 58.9519 48.4532 58.9882C48.6319 59.0246 48.7961 59.1136 48.925 59.2442C49.0539 59.3747 49.1419 59.541 49.1777 59.7221C49.2136 59.9031 49.1957 60.0908 49.1265 60.2617C49.0573 60.4325 48.9397 60.5787 48.7886 60.6821C48.6375 60.7854 48.4595 60.8411 48.2772 60.8423C48.1547 60.8438 48.033 60.8205 47.9195 60.7738C47.8059 60.727 47.7028 60.6577 47.6161 60.5699C47.5294 60.4821 47.4609 60.3776 47.4148 60.2626C47.3686 60.1476 47.3456 60.0244 47.3471 59.9002ZM48.1344 61.7823H48.9893V68.8846H47.5382V62.3862C47.5382 62.2261 47.601 62.0725 47.7128 61.9592C47.8246 61.846 47.9763 61.7823 48.1344 61.7823Z" fill="#202045"/>
<path d="M53.7248 61.667C55.064 61.667 56.0404 62.1908 56.5923 63.1308C56.6429 63.2227 56.6688 63.3265 56.6675 63.4317C56.6662 63.5369 56.6376 63.64 56.5847 63.7305C56.5318 63.8211 56.4564 63.8961 56.3659 63.9479C56.2755 63.9997 56.1732 64.0266 56.0693 64.026H55.392C55.1489 63.3419 54.5893 62.9041 53.7248 62.9041C52.5534 62.9041 51.7777 63.7797 51.7777 65.3276C51.7777 66.8755 52.5496 67.7628 53.7248 67.7628C54.5893 67.7628 55.1238 67.3719 55.392 66.6429H56.957C56.5614 68.0344 55.4422 68.9999 53.7248 68.9999C51.714 68.9999 50.288 67.5575 50.288 65.3276C50.288 63.0976 51.7159 61.667 53.7248 61.667Z" fill="#202045"/>
<path d="M61.1059 61.6672C61.5714 61.6529 62.0339 61.7492 62.4561 61.9484C62.8783 62.1476 63.2486 62.4442 63.5373 62.8144V62.3864C63.5373 62.2262 63.6001 62.0726 63.7119 61.9594C63.8238 61.8461 63.9754 61.7825 64.1336 61.7825H65V68.8847H63.5373V67.8274C63.2468 68.2037 62.8732 68.5057 62.4466 68.7094C62.02 68.913 61.5522 69.0126 61.0808 69C59.2611 69 57.8003 67.4932 57.8003 65.3023C57.8003 63.1115 59.2611 61.6672 61.1059 61.6672ZM61.4127 62.9434C60.3301 62.9434 59.29 63.7681 59.29 65.3023C59.29 66.8365 60.334 67.7238 61.4127 67.7238C62.4914 67.7238 63.5354 66.8619 63.5354 65.3277C63.5354 63.7935 62.5068 62.9434 61.4127 62.9434Z" fill="#202045"/>
<path d="M22.2552 46.6456C40.9598 47.3511 48.3293 41.527 48.3293 41.527C29.1385 57.686 7.95422 51.428 7.95422 51.428C12.4987 50.8671 19.5614 44.2612 22.9441 40.0925C25.4141 37.0534 30.1149 33.43 31.4155 32.4508C31.6355 32.2866 33.6327 30.9342 33.872 30.7974C44.8713 24.4339 56.4495 28.9192 56.4495 28.9192C36.8688 28.0691 22.2552 46.6456 22.2552 46.6456ZM45.2804 9.52182C35.6454 25.7746 26.8035 28.8449 26.8035 28.8449C50.6546 21.3831 57.0458 0 57.0458 0C54.1011 3.55114 44.7806 5.9316 39.4855 6.52769C35.6261 6.96156 30.057 8.97068 28.5364 9.53941C28.2798 9.63518 26.0702 10.5928 25.8348 10.7121C14.5615 16.5752 11.9506 28.8391 11.9506 28.8391C21.9349 11.7713 45.2804 9.52182 45.2804 9.52182Z" fill="url(#paint0_linear_696_1287)"/>
</g>
<defs>
<linearGradient id="paint0_linear_696_1287" x1="5.70998" y1="48.5961" x2="64.3487" y2="7.52082" gradientUnits="userSpaceOnUse">
<stop offset="0.09" stop-color="#2C2E85"/>
<stop offset="0.88" stop-color="#D4569A"/>
</linearGradient>
<clipPath id="clip0_696_1287">
<rect width="65" height="69" fill="white"/>
</clipPath>
</defs>
</svg>
