<svg width="90" height="139" viewBox="0 0 90 139" fill="none" xmlns="http://www.w3.org/2000/svg">
<g clip-path="url(#clip0_335_895)">
<path d="M8.47428 135.783H22.2744V139H4.0885V136.067L17.8092 113.839H4.23711V112.56C4.23803 112.045 4.44234 111.553 4.8052 111.189C5.16806 110.826 5.65982 110.622 6.17252 110.622H22.2088V113.551L8.47428 135.783Z" fill="#494949"/>
<path d="M43.9373 128.714H27.8008C27.9344 130.912 28.6855 132.629 30.0541 133.866C31.4149 135.098 33.1947 135.761 35.0275 135.717C36.4438 135.768 37.8409 135.377 39.0261 134.597C40.0795 133.87 40.87 132.821 41.2795 131.606H45.2575C44.6905 133.705 43.4307 135.549 41.6839 136.837C39.8982 138.18 37.6794 138.851 35.0275 138.851C33.0472 138.884 31.0933 138.393 29.3629 137.426C27.7004 136.477 26.342 135.073 25.4472 133.377C24.4703 131.5 23.9817 129.406 24.0267 127.29C23.9808 125.184 24.4557 123.099 25.4092 121.223C26.2829 119.534 27.6311 118.14 29.2869 117.212C31.0492 116.258 33.0287 115.78 35.0309 115.825C36.9872 115.787 38.919 116.266 40.6332 117.212C42.2197 118.1 43.5215 119.423 44.3865 121.025C45.2796 122.702 45.7349 124.578 45.7102 126.478C45.7102 126.645 45.7102 126.825 45.7102 126.984C45.6985 127.448 45.5064 127.888 45.1751 128.212C44.8438 128.535 44.3995 128.715 43.9373 128.714ZM40.9546 122.058C40.3484 121.056 39.4679 120.25 38.4179 119.736C37.3107 119.199 36.0946 118.927 34.865 118.942C33.1045 118.901 31.3963 119.543 30.0956 120.734C28.7823 121.931 28.0312 123.587 27.8422 125.702H41.8878C41.9229 124.424 41.5996 123.161 40.9546 122.058Z" fill="#494949"/>
<path d="M49.6985 121.244C50.5667 119.576 51.8838 118.187 53.5002 117.233C55.1445 116.274 57.0176 115.781 58.9193 115.808C60.6069 115.795 62.2707 116.207 63.7579 117.007C65.1596 117.729 66.338 118.821 67.1656 120.166V109.838C67.1656 109.646 67.2034 109.455 67.2769 109.278C67.3504 109.1 67.4582 108.939 67.594 108.803C67.7298 108.667 67.891 108.559 68.0683 108.486C68.2457 108.412 68.4357 108.375 68.6275 108.375H70.9016V138.504H67.1379V134.31C66.373 135.677 65.2511 136.81 63.8927 137.586C62.3621 138.466 60.6208 138.909 58.8571 138.868C56.9604 138.896 55.0943 138.387 53.4722 137.401C51.8501 136.414 50.5376 134.99 49.6847 133.29C48.741 131.425 48.2664 129.357 48.3022 127.265C48.259 125.173 48.7391 123.102 49.6985 121.244ZM66.1391 122.89C65.5123 121.694 64.5625 120.7 63.3984 120.02C62.2421 119.371 60.9399 119.029 59.615 119.025C58.29 119.021 56.986 119.357 55.8261 119.999C54.6701 120.674 53.7283 121.663 53.1097 122.852C52.4067 124.208 52.0572 125.72 52.0936 127.248C52.0559 128.796 52.4052 130.328 53.1097 131.706C53.7271 132.906 54.6684 133.908 55.8261 134.597C56.9726 135.266 58.2778 135.611 59.6037 135.596C60.9371 135.61 62.2498 135.265 63.4054 134.597C64.5734 133.913 65.5237 132.911 66.146 131.706C66.8375 130.34 67.1785 128.822 67.1379 127.29C67.1775 125.762 66.8341 124.25 66.1391 122.89Z" fill="#494949"/>
<path d="M77.921 112.331C77.5677 111.977 77.3271 111.526 77.2297 111.035C77.1323 110.544 77.1825 110.035 77.3739 109.573C77.5653 109.11 77.8894 108.716 78.3049 108.438C78.7204 108.161 79.2087 108.013 79.7078 108.015C80.031 108.01 80.3517 108.073 80.6493 108.199C80.9469 108.326 81.2148 108.513 81.4358 108.75C81.8926 109.233 82.1471 109.874 82.1471 110.54C82.1471 111.206 81.8926 111.847 81.4358 112.331C81.2146 112.567 80.9466 112.754 80.649 112.88C80.3514 113.006 80.0308 113.068 79.7078 113.062C79.3759 113.07 79.0459 113.009 78.7385 112.883C78.4311 112.757 78.1529 112.569 77.921 112.331ZM81.4946 116.688V139H77.8V118.349C77.8 117.909 77.9745 117.486 78.2849 117.175C78.5954 116.863 79.0165 116.688 79.4555 116.688H81.4946Z" fill="#494949"/>
<path d="M26.2179 84.691C60.5092 85.9737 74.019 75.3968 74.019 75.3968C38.8222 104.735 0 93.3716 0 93.3716C8.33263 92.3558 21.2791 80.3611 27.4794 72.7968C32.0068 67.2779 40.6125 60.7016 43.011 58.9301C43.4154 58.6285 47.0788 56.1741 47.5039 55.9245C67.6875 44.3666 88.9113 52.5098 88.9113 52.5098C53.0095 50.9637 26.2179 84.691 26.2179 84.691ZM68.4305 17.2779C50.7665 46.7898 34.5609 52.3642 34.5609 52.3642C78.2839 38.8233 90 0 90 0C84.5981 6.44456 67.5147 10.771 57.8065 11.8491C50.725 12.6395 40.5261 16.2865 37.737 17.3195C37.267 17.4929 33.2165 19.2297 32.7706 19.4619C12.1032 30.1012 7.31654 52.3711 7.31654 52.3711C25.6304 21.3721 68.4305 17.2779 68.4305 17.2779Z" fill="url(#paint0_linear_335_895)"/>
</g>
<defs>
<linearGradient id="paint0_linear_335_895" x1="82.575" y1="7.349" x2="-8.0029" y2="30.5219" gradientUnits="userSpaceOnUse">
<stop stop-color="#D5569A"/>
<stop offset="1" stop-color="#29009F"/>
</linearGradient>
<clipPath id="clip0_335_895">
<rect width="90" height="139" fill="white"/>
</clipPath>
</defs>
</svg>
