<svg width="30" height="30" viewBox="0 0 30 30" fill="none" xmlns="http://www.w3.org/2000/svg">
<path fill-rule="evenodd" clip-rule="evenodd" d="M15 30C23.2843 30 30 23.2843 30 15C30 6.71573 23.2843 0 15 0C6.71573 0 0 6.71573 0 15C0 23.2843 6.71573 30 15 30ZM22.436 13.848C22.436 16.568 20.991 19.254 18.373 19.254C17.166 19.254 16.452 18.727 16.248 17.843C15.585 18.727 14.497 19.271 13.324 19.271C11.59 19.271 10.57 18.149 10.57 16.381C10.57 13.848 12.236 11.553 14.667 11.553C15.653 11.553 16.316 11.91 16.673 12.573L16.826 11.689H18.815L18.016 16.279C17.88 17.146 17.948 17.69 18.713 17.69C20.005 17.69 20.583 15.548 20.583 13.933C20.583 11.196 18.849 9.61499 15.772 9.61499C11.777 9.61499 8.86999 12.726 8.86999 16.738C8.86999 19.56 10.621 21.124 13.664 21.124C14.65 21.124 15.704 20.937 16.571 20.529L16.911 22.093C15.823 22.552 14.599 22.773 13.324 22.773C9.49899 22.773 6.99999 20.478 6.99999 16.925C6.99999 11.859 10.808 7.99999 16.027 7.99999C20.022 7.99999 22.436 10.38 22.436 13.848ZM14.072 17.503C15.313 17.503 16.299 16.296 16.299 14.919C16.299 14.001 15.772 13.321 14.82 13.321C13.528 13.321 12.712 14.647 12.712 15.99C12.712 16.874 13.137 17.503 14.072 17.503Z" fill="#612FF1"/>
</svg>
